<svg width="839" height="1203" viewBox="0 0 839 1203" fill="none" xmlns="http://www.w3.org/2000/svg">
<circle cx="271.261" cy="550.378" r="5" transform="rotate(-36.0256 271.261 550.378)" fill="#3D16B5"/>
<circle cx="331.07" cy="570.562" r="7.5" transform="rotate(-36.0256 331.07 570.562)" fill="#3D16B5"/>
<circle cx="309.623" cy="421.834" r="5" transform="rotate(-89.9022 309.623 421.834)" fill="#3D16B5"/>
<circle cx="362.916" cy="543.425" r="2.5" transform="rotate(-89.9022 362.916 543.425)" fill="#3D16B5"/>
<circle cx="148.832" cy="420.065" r="5" transform="rotate(-89.9022 148.832 420.065)" fill="#3D16B5"/>
<circle cx="202.124" cy="541.656" r="2.5" transform="rotate(-89.9022 202.124 541.656)" fill="#3D16B5"/>
<circle cx="189.665" cy="518.135" r="10" transform="rotate(-89.9022 189.665 518.135)" fill="#3D16B5"/>
<circle cx="179.939" cy="545.348" r="7.5" transform="rotate(-5.91717 179.939 545.348)" fill="#3D16B5"/>
<circle cx="45.0734" cy="548.769" r="10" transform="rotate(-5.91717 45.0734 548.769)" fill="#3D16B5"/>
<circle cx="428.069" cy="598.765" r="5" transform="rotate(-5.91717 428.069 598.765)" fill="#3D16B5"/>
<circle cx="469.684" cy="646.228" r="7.5" transform="rotate(-5.91717 469.684 646.228)" fill="#3D16B5"/>
<circle cx="298.459" cy="456.816" r="10" transform="rotate(166.94 298.459 456.816)" fill="#4E7FFF"/>
<circle cx="126.781" cy="622.288" r="5" transform="rotate(113.064 126.781 622.288)" fill="#4E7FFF"/>
<circle cx="272.511" cy="553.907" r="2.5" transform="rotate(113.064 272.511 553.907)" fill="#4E7FFF"/>
<circle cx="419.89" cy="608.636" r="10" transform="rotate(-162.951 419.89 608.636)" fill="#4E7FFF"/>
<circle cx="218.604" cy="397.638" r="2.5" transform="rotate(-162.951 218.604 397.638)" fill="#4E7FFF"/>
<circle cx="334.818" cy="649.65" r="10" transform="rotate(-5.91717 334.818 649.65)" fill="#3D16B5"/>
<circle cx="201.857" cy="808.698" r="10" transform="rotate(99.9686 201.857 808.698)" fill="#3D16B5"/>
<circle cx="326.34" cy="968.658" r="7.5" transform="rotate(99.9686 326.34 968.658)" fill="#3D16B5"/>
<circle cx="351.722" cy="812.697" r="2.5" transform="rotate(99.9686 351.722 812.697)" fill="#3D16B5"/>
<circle cx="12.6693" cy="268.772" r="5" transform="rotate(113.064 12.6693 268.772)" fill="#4E7FFF"/>
<circle cx="158.4" cy="200.393" r="2.5" transform="rotate(113.064 158.4 200.393)" fill="#4E7FFF"/>
<circle cx="305.778" cy="255.121" r="10" transform="rotate(-162.951 305.778 255.121)" fill="#4E7FFF"/>
<circle cx="104.493" cy="44.123" r="2.5" transform="rotate(-162.951 104.493 44.123)" fill="#4E7FFF"/>
<circle cx="220.706" cy="296.135" r="10" transform="rotate(-5.91717 220.706 296.135)" fill="#3D16B5"/>
<circle cx="87.7451" cy="455.183" r="10" transform="rotate(99.9686 87.7451 455.183)" fill="#3D16B5"/>
<circle cx="212.229" cy="615.143" r="7.5" transform="rotate(99.9686 212.229 615.143)" fill="#3D16B5"/>
<circle cx="237.61" cy="459.182" r="2.5" transform="rotate(99.9686 237.61 459.182)" fill="#3D16B5"/>
<circle cx="359.965" cy="838.006" r="10" transform="rotate(99.9686 359.965 838.006)" fill="#3D16B5"/>
<circle cx="407.073" cy="866.757" r="5" transform="rotate(-176.046 407.073 866.757)" fill="#3D16B5"/>
<circle cx="531.973" cy="821.762" r="2.5" transform="rotate(-176.046 531.973 821.762)" fill="#3D16B5"/>
<circle cx="507.667" cy="832.612" r="10" transform="rotate(-176.046 507.667 832.612)" fill="#3D16B5"/>
<circle cx="138.911" cy="717.699" r="5" transform="rotate(-176.046 138.911 717.699)" fill="#3D16B5"/>
<circle cx="106.049" cy="663.805" r="7.5" transform="rotate(-176.046 106.049 663.805)" fill="#3D16B5"/>
<circle cx="263.811" cy="672.704" r="2.5" transform="rotate(-176.046 263.811 672.704)" fill="#3D16B5"/>
<circle cx="337.837" cy="833.378" r="5" transform="rotate(-3.18897 337.837 833.378)" fill="#4E7FFF"/>
<circle cx="439.772" cy="746.175" r="5" transform="rotate(-57.0656 439.772 746.175)" fill="#4E7FFF"/>
<circle cx="420.902" cy="850.716" r="10" transform="rotate(-57.0656 420.902 850.716)" fill="#4E7FFF"/>
<circle cx="263.835" cy="779.633" r="7.5" transform="rotate(26.9194 263.835 779.633)" fill="#4E7FFF"/>
<circle cx="148.662" cy="709.377" r="10" transform="rotate(26.9194 148.662 709.377)" fill="#4E7FFF"/>
<circle cx="310.797" cy="951.757" r="2.5" transform="rotate(26.9194 310.797 951.757)" fill="#4E7FFF"/>
<circle cx="655.08" cy="1057.29" r="7.5" transform="rotate(68.9525 655.08 1057.29)" fill="#3D16B5"/>
<circle cx="596.469" cy="910.546" r="2.5" transform="rotate(68.9525 596.469 910.546)" fill="#3D16B5"/>
<circle cx="616.574" cy="927.989" r="10" transform="rotate(68.9525 616.574 927.989)" fill="#3D16B5"/>
<circle cx="671.763" cy="928.355" r="5" transform="rotate(152.938 671.763 928.355)" fill="#3D16B5"/>
<circle cx="755.619" cy="825.435" r="2.5" transform="rotate(152.938 755.619 825.435)" fill="#3D16B5"/>
<circle cx="740.379" cy="847.258" r="10" transform="rotate(152.938 740.379 847.258)" fill="#3D16B5"/>
<circle cx="365.135" cy="938.788" r="5" transform="rotate(152.938 365.135 938.788)" fill="#3D16B5"/>
<circle cx="309.201" cy="909.533" r="7.5" transform="rotate(152.938 309.201 909.533)" fill="#3D16B5"/>
<circle cx="448.992" cy="835.868" r="2.5" transform="rotate(152.938 448.992 835.868)" fill="#3D16B5"/>
<circle cx="595.226" cy="935.425" r="5" transform="rotate(-34.2051 595.226 935.425)" fill="#4E7FFF"/>
<circle cx="637.652" cy="808.165" r="5" transform="rotate(-88.0817 637.652 808.165)" fill="#4E7FFF"/>
<circle cx="675.349" cy="907.482" r="10" transform="rotate(-88.0817 675.349 907.482)" fill="#4E7FFF"/>
<circle cx="504.11" cy="927.495" r="7.5" transform="rotate(-4.09669 504.11 927.495)" fill="#4E7FFF"/>
<circle cx="369.204" cy="926.631" r="10" transform="rotate(-4.09669 369.204 926.631)" fill="#4E7FFF"/>
<circle cx="633.05" cy="1050.81" r="2.5" transform="rotate(-4.09669 633.05 1050.81)" fill="#4E7FFF"/>
<circle cx="239.505" cy="683.554" r="10" transform="rotate(-176.046 239.505 683.554)" fill="#3D16B5"/>
</svg>
