<svg width="126" height="126" viewBox="0 0 126 126" fill="none" xmlns="http://www.w3.org/2000/svg">
<path fill-rule="evenodd" clip-rule="evenodd" d="M94.4975 17.7396C106.579 35.8209 63.4535 68.6421 50.9298 77.9122C37.8379 87.6029 23.1429 92.5632 10.0509 79.6972C-4.92164 64.9825 18.9261 54.4629 29.8465 47.5519C44.6047 38.2053 58.6938 25.1864 72.7579 16.8345C79.4491 12.8559 88.9552 10.1528 94.4975 17.7396Z" fill="#E2F0FC"/>
<path fill-rule="evenodd" clip-rule="evenodd" d="M103.36 23.9751C117.007 22.9038 126.261 38.218 117.045 50.9819C112.247 57.6508 89.9019 80.5518 83.3371 86.0985C69.1848 97.7272 34.1137 117.479 16.1996 104.983C6.16288 97.9821 6.65506 86.8503 16.8054 79.6971C31.9296 69.0376 46.6628 70.1848 62.6709 55.2024C73.5657 45.0018 88.1724 26.0664 103.36 23.9751Z" fill="#E2F0FC"/>
<path fill-rule="evenodd" clip-rule="evenodd" d="M116.25 59.6018C124.835 76.6115 83.9052 100.469 72.0509 107.163C59.6536 114.163 46.3597 116.892 36.3483 104.307C24.9101 89.8984 46.7256 83.3444 56.9515 78.5121C70.7503 71.9833 84.3723 62.2032 97.464 56.4653C103.701 53.7233 112.235 52.4102 116.25 59.6018Z" fill="#E2F0FC"/>
<path d="M44.714 82.21L44.9936 82.5344L45.268 82.8587L45.5475 83.1831L45.8246 83.505L46.1042 83.8269L46.384 84.1461L46.6609 84.4601L46.9431 84.7766L47.22 85.0957L47.4892 85.3967C47.7107 85.6445 48.1143 85.584 48.2622 85.2833C48.3412 85.1169 48.3148 84.9139 48.1884 84.7741L47.9245 84.4761L47.645 84.1621L47.3681 83.8456L47.0913 83.5264L46.8117 83.2099L46.5349 82.8934L46.2553 82.5715L45.9784 82.2472L45.7095 81.928L45.4299 81.6034L45.1555 81.2791C45.0817 81.1895 44.9813 81.1366 44.8705 81.1184C44.8757 81.0103 44.8363 80.9021 44.7622 80.8122L44.6094 80.6277L44.3323 80.3033L44.0633 79.9762L43.7968 79.6465L43.5278 79.3221L43.2667 78.9951L42.9975 78.6707L42.731 78.341L42.4699 78.0166L42.2061 77.6868L41.8369 77.2249C41.6866 77.0325 41.4097 76.9931 41.2037 77.1378C40.9847 77.2936 40.9399 77.5995 41.1063 77.8079L41.4729 78.2723L41.7368 78.6021L42.0033 78.9291L42.2671 79.2589L42.5361 79.5859L42.8053 79.9157L43.077 80.2455L43.346 80.5728L43.6152 80.9025L43.8893 81.2296L44.0451 81.4169C44.1217 81.5092 44.2245 81.5594 44.3326 81.5754C44.3299 81.6809 44.3616 81.7917 44.4381 81.884L44.714 82.21ZM23.0858 53.9659C22.5978 53.3907 22.3948 52.6734 22.4553 51.9715C22.5213 51.2751 22.8486 50.5971 23.4289 50.1118C23.4842 50.0591 23.545 50.0114 23.6083 49.972L23.5263 49.7951L23.3865 49.4892L23.2468 49.1806L23.1094 48.8771L22.9724 48.571L22.838 48.2651L22.7034 47.9592L22.5715 47.6558L22.4423 47.3523L22.3131 47.0491L22.1863 46.7484L22.0625 46.4504L21.9358 46.1497L21.875 46.0072C21.7325 45.6459 22.0623 45.2765 22.4447 45.3794C22.5821 45.419 22.6874 45.5165 22.7428 45.6484L22.8008 45.7882L22.9249 46.0837L23.0489 46.3817L23.1756 46.6825L23.3021 46.9832L23.4313 47.2812L23.5605 47.5819L23.6924 47.8827L23.827 48.1834L23.9617 48.4866L24.096 48.7873L24.2331 49.0935L24.3756 49.3996L24.4521 49.5605C24.774 49.4683 25.1065 49.4392 25.4335 49.4601C26.1324 49.5182 26.8053 49.8374 27.2906 50.4152C27.7759 50.9876 27.9818 51.7077 27.9184 52.4069C27.8578 53.1033 27.528 53.7837 26.945 54.2745C26.9054 54.3062 26.8685 54.3404 26.8237 54.3746L26.9768 54.6623L27.1402 54.9788L27.3066 55.2925L27.4805 55.6063L27.6496 55.9255L27.8209 56.2422L27.9924 56.5614L28.1691 56.8779L28.3434 57.1917L28.5255 57.5108L28.7022 57.8327L28.8525 58.0992C28.9342 58.2366 28.9291 58.4079 28.8552 58.5503C28.6707 58.8695 28.2196 58.8774 28.0375 58.5636L27.8844 58.2944L27.705 57.9725L27.5283 57.6533L27.3513 57.3314L27.1747 57.0123L27.0004 56.6931L26.8262 56.3739L26.6547 56.0574L26.4831 55.7409L26.3143 55.4218L26.1482 55.108L25.9873 54.8046C25.6469 54.9101 25.2935 54.947 24.9426 54.918C24.2439 54.8629 23.5711 54.541 23.0858 53.9659ZM25.0248 53.9924C25.4892 54.0291 25.9639 53.8869 26.3463 53.565C26.7314 53.2406 26.9505 52.7974 26.9901 52.3357C27.0297 51.8743 26.8951 51.3993 26.5759 51.0194C26.2567 50.6424 25.8083 50.4285 25.3494 50.3943C24.888 50.3547 24.413 50.4945 24.0279 50.8191C23.6454 51.1409 23.4291 51.5893 23.387 52.0483C23.3474 52.5073 23.482 52.9822 23.8012 53.3619C24.1251 53.7417 24.5683 53.9553 25.0248 53.9924ZM38.6731 73.0987L38.4278 72.7714L38.1876 72.4416L37.9477 72.1145L37.705 71.7875L37.4702 71.4577L37.2328 71.1279L36.9953 70.8036L36.7657 70.4738L36.5336 70.1441L36.2961 69.8116C36.101 69.532 35.6816 69.5556 35.5074 69.8485C35.4178 70.0067 35.423 70.2021 35.5258 70.3496L35.7685 70.6899L36.0033 71.017L36.238 71.3494L36.4728 71.6792L36.713 72.009L36.9478 72.3363L37.1904 72.666L37.4306 72.9983L37.676 73.328L37.9213 73.6578L38.2614 74.1197C38.4753 74.4017 38.9077 74.3515 39.058 74.0326C39.1346 73.8771 39.1161 73.6949 39.0159 73.5579L38.6731 73.0987ZM33.4185 65.5726L33.2076 65.2429L32.994 64.921L32.7856 64.5966L32.5772 64.2696L32.3714 63.9452L32.1657 63.6209L31.9572 63.2963L31.7594 62.9719L31.5564 62.6476L31.3585 62.3257L31.2081 62.0803C31.1316 61.9617 31.0076 61.8825 30.8626 61.864C30.4775 61.8192 30.2058 62.244 30.4064 62.5737L30.5594 62.8191L30.76 63.1461L30.963 63.4732L31.1688 63.7976L31.3718 64.1246L31.5802 64.4517L31.7911 64.7787L31.9969 65.1031L32.2078 65.4328L32.4214 65.7599L32.635 66.087L32.9094 66.5014C33.1045 66.7967 33.5399 66.7704 33.7087 66.4618C33.7906 66.3062 33.7825 66.132 33.6902 65.9843L33.4185 65.5726ZM21.0442 41.1377L20.9468 40.8503L20.8491 40.5707L20.7592 40.2885L20.6642 40.0089L20.5798 39.7293L20.4903 39.4498L20.4004 39.1702L20.316 38.8934L20.2343 38.6165L20.1499 38.3396L20.068 38.0653L19.9887 37.7911L19.9149 37.5194L19.8359 37.2477L19.7461 36.9204C19.7146 36.8018 19.6405 36.7014 19.5376 36.6409C19.1788 36.4272 18.7383 36.7595 18.8439 37.1658L18.9362 37.5061L19.0152 37.7805L19.0917 38.0522L19.1709 38.3345L19.2554 38.614L19.3371 38.8936L19.4215 39.1705L19.5113 39.4554L19.5984 39.7377L19.6855 40.0173L19.7805 40.3047L19.8728 40.5897L19.9651 40.8744L20.0625 41.1621L20.1575 41.4441L20.2235 41.6366C20.2658 41.7421 20.3264 41.8241 20.4241 41.8819C20.7959 42.1061 21.2497 41.7394 21.1099 41.328L21.0442 41.1377ZM18.7071 32.2769L18.6647 32.0315L18.6226 31.781L18.5806 31.5329L18.5409 31.2876L18.5067 31.0395L18.4725 30.7969L18.4381 30.5515L18.4066 30.3089L18.3802 30.0687L18.3512 29.8285L18.3249 29.5883L18.3013 29.3511L18.2774 29.1163L18.2565 28.8791L18.2353 28.647L18.2168 28.4149L18.2011 28.1853L18.1853 27.9557L18.1826 27.8556C18.1748 27.7421 18.13 27.6419 18.0534 27.56C17.75 27.2539 17.2251 27.4835 17.249 27.9134L17.2541 28.0214L17.2699 28.2535L17.2856 28.4937L17.3065 28.7339L17.3223 28.9741L17.3462 29.2142L17.37 29.4542L17.3937 29.6968L17.42 29.9449L17.4517 30.1851L17.4781 30.4383L17.5096 30.6837L17.5465 30.9315L17.5861 31.1823L17.6203 31.433L17.6599 31.6835L17.6968 31.9395L17.7416 32.1954L17.7837 32.4487L17.8128 32.5911C17.8337 32.723 17.9102 32.8338 18.0237 32.9076C18.3692 33.1109 18.7991 32.8153 18.7331 32.4196L18.7071 32.2769ZM18.3217 23.055L18.348 22.8571L18.3798 22.6645L18.4088 22.4693L18.4378 22.282L18.4723 22.0893L18.5092 21.9021L18.5434 21.7148L18.5857 21.5327L18.6254 21.3481L18.6674 21.1662L18.7125 20.9868L18.7597 20.8101L18.8048 20.6307L18.8523 20.454L18.9049 20.2828L18.9576 20.1112L19.013 19.94L19.071 19.7736L19.1264 19.6023L19.1872 19.4387L19.248 19.2753L19.3085 19.1089L19.372 18.9507L19.401 18.8953C19.4458 18.7845 19.4512 18.6657 19.4116 18.5549C19.2691 18.1541 18.7127 18.1462 18.5409 18.5338L18.5119 18.6051L18.4405 18.7764L18.3746 18.9479L18.3084 19.1222L18.2451 19.2989L18.1819 19.4756L18.1211 19.6574L18.0684 19.8395L18.0077 20.0241L17.955 20.2087L17.9048 20.3935L17.8546 20.5808L17.8071 20.7681L17.7569 20.958L17.7173 21.1532L17.6698 21.3456L17.6329 21.5383L17.5935 21.7335L17.5566 21.9313L17.5197 22.1317L17.4855 22.332L17.451 22.5353L17.422 22.7358L17.3983 22.9443L17.3693 23.179C17.3508 23.3188 17.3983 23.4559 17.4958 23.5561C17.7702 23.8359 18.2449 23.6695 18.2924 23.2844L18.3217 23.055ZM21.9068 15.1544L22.0229 15.0437L22.1415 14.9356L22.2602 14.8301L22.3842 14.7245L22.5055 14.6216L22.6293 14.5242L22.756 14.4213L22.8852 14.3263L23.0144 14.234L23.1463 14.1444L23.2755 14.0522L23.4126 13.965L23.5445 13.8779L23.6816 13.7908L23.8214 13.7143L23.9612 13.6323L24.1037 13.5558L24.2434 13.4793L24.3859 13.4106L24.5309 13.3341L24.6785 13.2654L24.8264 13.1967L24.9795 13.1335L25.1299 13.07L25.2829 13.0095L25.436 12.9487L25.5891 12.8908L25.671 12.8618C25.7842 12.8249 25.874 12.7511 25.9321 12.6455C26.1352 12.2709 25.7818 11.8435 25.3755 11.9835L25.2832 12.0152L25.1141 12.0785L24.948 12.1393L24.7816 12.2079L24.6182 12.2763L24.4573 12.345L24.2939 12.424L24.1329 12.4978L23.9774 12.5717L23.8219 12.6563L23.6661 12.7353L23.5106 12.8197L23.3575 12.9068L23.2071 12.9991L23.0568 13.0887L22.9089 13.181L22.7639 13.2787L22.619 13.3761L22.4738 13.4738L22.334 13.5846L22.1942 13.6874L22.0544 13.7955L21.9198 13.9062L21.7852 14.0143L21.6508 14.1329L21.5189 14.2495L21.3924 14.3657L21.2632 14.487L21.2342 14.5133C21.1604 14.5847 21.1102 14.677 21.0996 14.7799C21.0258 15.2177 21.5507 15.4869 21.8777 15.1835L21.9068 15.1544ZM30.2978 12.1051L30.4876 12.1024L30.6827 12.1051L30.8806 12.1078L31.0757 12.1105L31.2736 12.1211L31.4742 12.1289L31.672 12.1368L31.8753 12.1501L32.0756 12.1659L32.2786 12.1816L32.4817 12.2001L32.6874 12.2212L32.8958 12.2424L33.1016 12.2687L33.31 12.2923L33.5236 12.3187L33.7372 12.3477L33.9481 12.3819L34.159 12.4161L34.3754 12.4506L34.5917 12.4875L34.6655 12.5032C34.8026 12.5271 34.9293 12.4954 35.0401 12.4083C35.3565 12.1604 35.2352 11.6591 34.8422 11.5853L34.7632 11.5723L34.539 11.5327L34.3175 11.4957L34.0985 11.4591L33.877 11.43L33.658 11.3983L33.439 11.3668L33.2227 11.3405L33.009 11.3166L32.7927 11.2927L32.5791 11.2715L32.3628 11.2506L32.1544 11.2349L31.9435 11.2216L31.735 11.2083L31.5266 11.2004L31.3181 11.1871L31.1124 11.1793L30.904 11.1741L30.7007 11.1714L30.5004 11.1741H30.2946L30.1125 11.182C29.7724 11.182 29.5507 11.5275 29.6878 11.8388C29.767 12.0052 29.9277 12.1105 30.115 12.1105L30.2978 12.1051ZM39.3487 13.714L39.5913 13.796L39.8261 13.8777L40.0663 13.9567L40.3062 14.0411L40.5437 14.1255L40.7891 14.2178L41.0265 14.3049L41.2719 14.3972L41.5145 14.4922L41.7599 14.5872L42.0053 14.6822L42.2506 14.7823L42.4987 14.8825L42.7465 14.9853L42.9943 15.0909L43.2451 15.1965L43.4269 15.273C43.5325 15.3205 43.6538 15.3232 43.7646 15.2863C44.1657 15.136 44.1893 14.5874 43.8015 14.4156L43.6221 14.3418L43.3661 14.2311L43.1129 14.1255L42.8624 14.0226L42.6119 13.9198L42.3586 13.8169L42.1106 13.7194L41.8598 13.6217L41.612 13.5268L41.3666 13.4345L41.1186 13.3395L40.8705 13.2499L40.6227 13.1628L40.38 13.0784L40.1374 12.9913L39.892 12.9095L39.6546 12.8303L39.4144 12.7538C39.1533 12.6642 38.871 12.8251 38.8105 13.0941C38.7603 13.3316 38.887 13.5637 39.1164 13.6402L39.3487 13.714ZM47.8559 17.4072L48.117 17.5442L48.3783 17.6867L48.6422 17.8292L48.9087 17.9742L49.1725 18.1221L49.439 18.27L49.7028 18.4149L49.972 18.568L50.2383 18.7235L50.5048 18.8739L50.7738 19.0348L51.0403 19.1904L51.3147 19.3513L51.61 19.528C51.8923 19.6995 52.2615 19.5332 52.3198 19.2061C52.3488 19.0164 52.2669 18.8318 52.1035 18.7314L51.7949 18.5493L51.5232 18.3883L51.2515 18.2274L50.9825 18.0691L50.7108 17.9136L50.4391 17.7578L50.1702 17.605L49.9036 17.4547L49.6347 17.3043L49.363 17.1566L49.0964 17.0087L48.8299 16.8689L48.5661 16.724L48.3025 16.5815L48.0254 16.439C47.7168 16.2781 47.3447 16.5023 47.3369 16.8505C47.3396 17.0272 47.4346 17.1854 47.5876 17.2674L47.8559 17.4072ZM55.6772 22.1235L55.9541 22.3108L56.2312 22.4981L56.5108 22.6905L56.7879 22.8805L57.0647 23.0705L57.3445 23.2684L57.6241 23.4662L57.8985 23.6641L58.178 23.8619L58.4603 24.0652L58.7399 24.2683L59.0221 24.474L59.2963 24.6743C59.3913 24.7457 59.5099 24.7772 59.6312 24.7587C60.0454 24.7033 60.1879 24.1706 59.8527 23.9198L59.5759 23.7195L59.2936 23.5137L59.0116 23.308L58.7318 23.1047L58.4497 22.9044L58.1648 22.7041L57.8879 22.5062L57.6056 22.3057L57.3236 22.113L57.0438 21.9205L56.7642 21.7281L56.4844 21.5408L56.2076 21.3508L56.0412 21.2374C55.9226 21.1584 55.7801 21.1372 55.643 21.1793C55.2658 21.2954 55.1892 21.7886 55.5111 22.0101L55.6772 22.1235ZM63.2508 27.7133L63.5355 27.9481L63.8205 28.1777L64.1025 28.4098L64.3875 28.6418L64.6722 28.8766L64.9599 29.1087L65.2395 29.3489L65.5269 29.5836L65.8092 29.8263L66.0966 30.0665L66.5319 30.4386C66.7933 30.66 67.1939 30.536 67.2862 30.2011C67.3337 30.032 67.2759 29.845 67.144 29.7315L66.7062 29.357L66.4158 29.1116L66.1311 28.8717L65.8434 28.629L65.5586 28.3916L65.2739 28.1514L64.9835 27.9166L64.6988 27.6845L64.4086 27.4498L64.1237 27.2201L63.8439 26.9881L63.5513 26.7587C63.4457 26.6716 63.3059 26.6426 63.174 26.6664C62.781 26.7457 62.657 27.244 62.9628 27.4921L63.2508 27.7133ZM70.3757 33.857L70.6631 34.1236L70.9481 34.3898L71.2301 34.6564L71.5151 34.9229L71.7998 35.1919L72.0875 35.4611L72.3722 35.7328L72.6599 36.0099L72.9419 36.284L73.3561 36.6852C73.4457 36.7723 73.5592 36.8195 73.6832 36.8195C74.0976 36.8144 74.3112 36.3076 74.0157 36.015L73.5963 35.6112L73.3062 35.3371L73.0239 35.06L72.7338 34.7858L72.4488 34.5114L72.1613 34.2424L71.8766 33.9734L71.5889 33.7045L71.3015 33.4379L71.0138 33.1714L70.6314 32.8205C70.3727 32.5833 69.9561 32.7071 69.8611 33.0447C69.8136 33.2111 69.8663 33.3902 69.9928 33.5064L70.3757 33.857ZM76.9201 40.2698L77.2023 40.5626L77.4843 40.8579L77.7642 41.1562L78.0489 41.4542L78.3287 41.7549L78.6134 42.0557L78.8932 42.3564L79.1753 42.6596L79.4524 42.963L79.7979 43.3349C80.0194 43.5802 80.4151 43.517 80.5627 43.2241C80.6471 43.0501 80.6154 42.8444 80.4914 42.7046L80.1459 42.3301L79.8584 42.0215L79.5786 41.7156L79.2966 41.4146L79.0146 41.1114L78.7296 40.8107L78.4476 40.5127L78.1653 40.2119L77.8806 39.9166L77.5956 39.6186L77.303 39.3125C77.0603 39.0671 76.6461 39.1621 76.5221 39.484C76.4665 39.6528 76.501 39.8347 76.625 39.9639L76.9201 40.2698ZM83.0771 47.0307L83.3542 47.3526L83.6283 47.6769L83.9027 47.9988L84.1796 48.3259L84.4488 48.6502L84.7284 48.9773L85.0001 49.3019L85.269 49.6289L85.5407 49.9533L85.8545 50.3357C85.9231 50.4256 86.0181 50.4782 86.1316 50.4994C86.5588 50.5705 86.8462 50.0773 86.5775 49.7476L86.2635 49.3597L85.9918 49.03L85.7174 48.7029L85.4457 48.3731L85.1713 48.0461L84.8945 47.7217L84.6174 47.392L84.3432 47.0676L84.0634 46.7433L83.7866 46.4187L83.5862 46.1839C83.4888 46.081 83.3648 46.0229 83.2247 46.0229C82.8315 46.0256 82.6127 46.4952 82.8711 46.7932L83.0771 47.0307ZM88.928 54.2085L89.1787 54.5356L89.4292 54.868L89.68 55.1924L89.9281 55.5222L90.1705 55.8465L90.4185 56.1763L90.6639 56.506L90.9041 56.8304L91.1494 57.1602L91.3842 57.4875L91.5134 57.6617C91.7059 57.9282 92.0989 57.9122 92.281 57.6432C92.389 57.4771 92.3866 57.2687 92.2704 57.1132L92.1437 56.931L91.9035 56.604L91.6608 56.2742L91.4103 55.9445L91.1701 55.6147L90.9248 55.2849L90.6715 54.9552L90.4235 54.6254L90.1754 54.2956L89.9224 53.9632L89.6692 53.6361L89.4767 53.3907C89.4056 53.2906 89.2922 53.2298 89.1681 53.2113C88.7564 53.1611 88.485 53.6307 88.738 53.9604L88.928 54.2085ZM94.3912 61.7449L94.6154 62.0719L94.8344 62.3965L95.0535 62.7236L95.2698 63.0507L95.4888 63.3802L95.7024 63.7048L95.9187 64.0318L96.1296 64.3537L96.3405 64.6808L96.5492 65.0078L96.7365 65.3007C96.9211 65.5854 97.3353 65.5881 97.5225 65.3032C97.6227 65.1449 97.6281 64.9552 97.5304 64.7942L97.335 64.4935L97.1266 64.1716L96.9157 63.8418L96.6993 63.5121L96.4857 63.1875L96.2694 62.8577L96.0504 62.5307L95.8314 62.2009L95.6124 61.8765L95.3882 61.5468L95.1613 61.217L94.9582 60.9138C94.8079 60.6923 94.502 60.6473 94.2857 60.8083C94.0905 60.9611 94.0455 61.2382 94.1855 61.4412L94.3912 61.7449ZM99.3397 69.5323L99.5272 69.8515L99.7145 70.1758L99.9045 70.495L100.086 70.8142L100.268 71.1334L100.45 71.4553L100.632 71.7717L100.812 72.0909L100.989 72.4103L101.168 72.7268L101.342 73.0433L101.461 73.2596C101.55 73.4287 101.727 73.5155 101.919 73.4971C102.252 73.4602 102.437 73.1014 102.281 72.8058L102.162 72.5868L101.983 72.273L101.809 71.9511L101.627 71.6292L101.447 71.3071L101.266 70.9879L101.081 70.666L100.902 70.3441L100.712 70.0223L100.525 69.6979L100.337 69.376L100.147 69.0517L99.9734 68.7613C99.8759 68.5979 99.6963 68.5132 99.509 68.5373C99.1765 68.59 99.0025 68.954 99.1687 69.2414L99.3397 69.5323ZM103.787 77.7439L103.94 78.0525L104.088 78.3638L104.238 78.6724L104.386 78.9786L104.534 79.2845L104.674 79.5931L104.819 79.8965L104.956 80.2024L105.099 80.5083L105.236 80.8115L105.37 81.1149L105.563 81.5476C105.7 81.8483 106.088 81.9169 106.325 81.6795C106.46 81.5421 106.497 81.3418 106.42 81.1649L106.36 81.033L106.228 80.7298L106.088 80.4212L105.948 80.1153L105.806 79.8094L105.664 79.5005L105.521 79.1892L105.379 78.8833L105.228 78.5693L105.081 78.2607L104.933 77.9494L104.783 77.6381L104.629 77.3268L104.437 76.9417C104.376 76.8255 104.281 76.7438 104.155 76.7042C103.764 76.5934 103.422 76.9968 103.598 77.3662L103.787 77.7439ZM107.459 86.1667L107.567 86.4544L107.678 86.747L107.786 87.032L107.886 87.3221L107.992 87.6071L108.089 87.8946L108.195 88.182L108.29 88.467L108.388 88.749L108.482 89.0313L108.572 89.3133L108.667 89.5931L108.757 89.8727L108.852 90.1813C108.955 90.5034 109.356 90.6087 109.609 90.3845C109.746 90.2605 109.799 90.0708 109.746 89.8965L109.646 89.5828L109.556 89.3005L109.464 89.0131L109.369 88.731L109.274 88.4461L109.174 88.1559L109.073 87.8682L108.976 87.5781L108.873 87.2879L108.768 87.0003L108.662 86.7101L108.554 86.4146L108.448 86.1244L108.335 85.8261L108.206 85.4809C108.156 85.3517 108.047 85.2488 107.913 85.2092C107.544 85.0852 107.19 85.4545 107.333 85.8188L107.459 86.1667ZM110.105 94.7559L110.166 95.0195L110.224 95.2808L110.282 95.5365L110.334 95.7952L110.387 96.0538L110.44 96.3097L110.49 96.5654L110.537 96.8187L110.585 97.0694L110.63 97.3227L110.675 97.5732L110.712 97.824L110.754 98.0693L110.793 98.3174L110.828 98.5625L110.859 98.8105L110.894 99.0532L110.91 99.1588C110.952 99.4831 111.305 99.6601 111.593 99.5043C111.767 99.4093 111.862 99.2272 111.835 99.032L111.822 98.9186L111.785 98.668L111.751 98.4227L111.716 98.1668L111.674 97.916L111.635 97.663L111.59 97.4098L111.547 97.1538L111.5 96.8979L111.458 96.6395L111.408 96.3809L111.355 96.1195L111.302 95.8584L111.249 95.597L111.194 95.3357L111.136 95.0667L111.078 94.8054L111.015 94.5361L110.986 94.4121C110.946 94.2539 110.843 94.1353 110.693 94.0799C110.342 93.9586 109.997 94.2696 110.076 94.6284L110.105 94.7559ZM111.202 103.87L111.197 104.081L111.192 104.294L111.182 104.508L111.171 104.719L111.163 104.925L111.15 105.138L111.134 105.341L111.121 105.547L111.102 105.75L111.081 105.95L111.058 106.148L111.037 106.349L111.01 106.549L110.984 106.742L110.958 106.934L110.931 107.132L110.895 107.322L110.86 107.509L110.828 107.697L110.789 107.884L110.752 108.069L110.707 108.264C110.678 108.396 110.699 108.53 110.778 108.638C111.01 108.968 111.52 108.865 111.617 108.475L111.665 108.259L111.704 108.06L111.744 107.863L111.778 107.665L111.815 107.47L111.849 107.269L111.881 107.066L111.91 106.86L111.939 106.66L111.963 106.454L111.986 106.246L112.01 106.037L112.031 105.826L112.05 105.615L112.068 105.402L112.081 105.188L112.095 104.969L112.108 104.758L112.116 104.537L112.124 104.318L112.129 104.096L112.137 103.875V103.743C112.137 103.614 112.089 103.497 112.002 103.408C111.712 103.12 111.208 103.326 111.2 103.738L111.202 103.87ZM108.96 112.585L108.863 112.723L108.776 112.857L108.683 112.986L108.588 113.121L108.493 113.25L108.396 113.377L108.296 113.503L108.187 113.63L108.09 113.749L107.984 113.87L107.876 113.991L107.766 114.105L107.658 114.223L107.541 114.334L107.428 114.445L107.315 114.558L107.193 114.666L107.072 114.772L106.953 114.875L106.827 114.981L106.705 115.078L106.579 115.176L106.45 115.271L106.32 115.368L106.186 115.463L106.057 115.55L105.935 115.629C105.846 115.685 105.78 115.774 105.746 115.877C105.606 116.296 106.065 116.647 106.439 116.413L106.568 116.321L106.716 116.225L106.861 116.122L107.004 116.02L107.143 115.917L107.278 115.809L107.418 115.701L107.552 115.585L107.687 115.468L107.816 115.355L107.948 115.236L108.072 115.118L108.199 114.994L108.323 114.872L108.444 114.74L108.563 114.617L108.679 114.485L108.797 114.353L108.908 114.218L109.019 114.084L109.13 113.947L109.235 113.809L109.343 113.664L109.443 113.524L109.541 113.377L109.644 113.229L109.741 113.084L109.828 112.944C109.897 112.841 109.921 112.714 109.894 112.59C109.807 112.189 109.272 112.097 109.045 112.445L108.96 112.585ZM101.598 117.268L101.424 117.3L101.25 117.326L101.07 117.352L100.891 117.373L100.714 117.394L100.53 117.413L100.35 117.431L100.166 117.447L99.9813 117.462L99.7937 117.47L99.6065 117.481L99.4192 117.486L99.2265 117.491L99.034 117.494L98.8443 117.499L98.6546 117.496L98.454 117.494L98.2561 117.489L98.0637 117.483L97.8607 117.473L97.6628 117.462L97.4622 117.449L97.2381 117.436C97.1273 117.425 97.0111 117.457 96.9216 117.523C96.5733 117.781 96.7213 118.33 97.1485 118.364L97.3938 118.38L97.5996 118.393L97.8053 118.407L98.0162 118.414L98.2219 118.42L98.4279 118.428L98.6336 118.43H98.8394L99.0397 118.428L99.2403 118.422L99.4406 118.417L99.6385 118.412L99.8388 118.402L100.031 118.391L100.229 118.378L100.424 118.359L100.614 118.343L100.807 118.322L100.999 118.301L101.187 118.272L101.374 118.248L101.561 118.219L101.749 118.188L101.923 118.156C102.318 118.082 102.453 117.592 102.147 117.338C102.044 117.249 101.907 117.214 101.773 117.238L101.598 117.268ZM92.5313 116.635L92.3044 116.574L92.0775 116.516L91.8481 116.453L91.6185 116.387L91.3837 116.321L91.1541 116.252L90.9221 116.186L90.69 116.115L90.4552 116.041L90.2204 115.964L89.9802 115.887L89.7457 115.808L89.5082 115.729L89.2708 115.645L89.0306 115.563L88.7879 115.474L88.5453 115.386L88.329 115.305C88.2155 115.265 88.0969 115.265 87.9834 115.312C87.5958 115.481 87.601 116.027 87.9913 116.178L88.2182 116.262L88.4609 116.352L88.7089 116.436L88.954 116.526L89.1967 116.61L89.442 116.689L89.6822 116.771L89.9249 116.85L90.1624 116.929L90.4023 117.006L90.6427 117.08L90.88 117.146L91.1175 117.217L91.3549 117.286L91.5897 117.352L91.8245 117.415L92.0565 117.478L92.2938 117.539L92.4838 117.581C92.8214 117.666 93.1273 117.37 93.0589 117.03C93.022 116.859 92.8925 116.729 92.7212 116.679L92.5313 116.635ZM83.8104 113.372L83.552 113.248L83.2988 113.124L83.0404 112.997L82.7791 112.862L82.5204 112.736L82.262 112.604L82.0007 112.467L81.7368 112.332L81.4755 112.195L81.2144 112.055L80.953 111.913L80.6917 111.775L80.4281 111.627L80.1589 111.48L79.9822 111.382C79.6972 111.224 79.3463 111.395 79.2909 111.715C79.2565 111.913 79.349 112.102 79.5178 112.195L79.7024 112.297L79.9689 112.445L80.2354 112.591L80.5017 112.738L80.7709 112.881L81.0347 113.018L81.2983 113.161L81.5621 113.295L81.8257 113.432L82.0895 113.57L82.3533 113.701L82.6169 113.831L82.8807 113.962L83.1391 114.086L83.4004 114.21L83.6748 114.342C83.7934 114.4 83.9256 114.403 84.0467 114.358C84.4294 114.21 84.453 113.677 84.0863 113.503L83.8104 113.372ZM75.8572 108.919L75.5801 108.742L75.3059 108.571L75.0315 108.391L74.7574 108.212L74.483 108.032L74.2086 107.845L73.9317 107.663L73.6573 107.478L73.3778 107.291L73.1007 107.104L72.8265 106.914L72.5494 106.721L72.1618 106.455C72.0644 106.384 71.9403 106.357 71.8163 106.381C71.4103 106.452 71.2835 106.98 71.6212 107.217L72.0088 107.489L72.2886 107.681L72.5706 107.877L72.8477 108.064L73.1297 108.251L73.4095 108.441L73.6837 108.626L73.9635 108.811L74.243 108.99L74.5174 109.169L74.7943 109.351L75.0741 109.528L75.3483 109.702L75.5092 109.808C75.6411 109.892 75.8045 109.903 75.9524 109.837C76.2901 109.681 76.327 109.214 76.013 109.019L75.8572 108.919ZM68.0649 103.44L67.7799 103.223L67.5003 103.002L67.2153 102.786L66.9333 102.562L66.6511 102.337L66.369 102.113L66.0838 101.884L65.8015 101.657L65.5168 101.425L65.2291 101.195L64.8071 100.849C64.5484 100.636 64.1662 100.754 64.0634 101.074C64.0078 101.255 64.0604 101.446 64.211 101.567L64.6358 101.918L64.9235 102.152L65.2082 102.385L65.4959 102.614L65.7806 102.841L66.0653 103.068L66.353 103.298L66.6353 103.519L66.92 103.741L67.2075 103.965L67.4897 104.181L67.8618 104.466C67.9566 104.543 68.07 104.569 68.1916 104.558C68.6109 104.511 68.7665 103.983 68.4315 103.725L68.0649 103.44ZM60.9582 97.5518L60.668 97.2961L60.3909 97.0401L60.1008 96.7842L59.8158 96.5258L59.5308 96.2672L59.2434 96.0058L58.9584 95.7395L58.6737 95.4782L58.386 95.2146L58.1013 94.9454L57.8665 94.7264C57.6819 94.5521 57.3942 94.5573 57.2151 94.7448C57.0305 94.9267 57.033 95.2326 57.2257 95.4068L57.4604 95.631L57.7454 95.8973L58.0328 96.1638L58.323 96.4303L58.6077 96.6966L58.8927 96.9579L59.1828 97.2163L59.4703 97.4777L59.7577 97.739L60.0452 97.9947L60.3301 98.2507L60.6651 98.5435C60.9183 98.7675 61.3192 98.6543 61.4221 98.3272C61.475 98.1503 61.4221 97.9684 61.2874 97.8444L60.9582 97.5518ZM54.1155 91.0761L53.8333 90.7857L53.5458 90.4982L53.266 90.2105L52.9813 89.9179L52.6963 89.6278L52.4116 89.3322L52.1345 89.0396L51.8524 88.747L51.5675 88.4488L51.3197 88.1852C51.2192 88.0772 51.077 88.0294 50.9291 88.0427C50.5494 88.09 50.3751 88.5465 50.6365 88.8263L50.8897 89.0925L51.172 89.3908L51.4543 89.6861L51.7392 89.9814L52.0267 90.277L52.309 90.5696L52.5937 90.8652L52.8814 91.1553L53.1634 91.4454L53.4484 91.7331L53.8837 92.1658C53.9681 92.2502 54.0867 92.3001 54.2081 92.3001C54.6222 92.3031 54.8386 91.8018 54.5457 91.5038L54.1155 91.0761Z" fill="#EFDFA5"/>
<path d="M78.6481 87.2822C78.7483 87.216 78.8142 87.1213 78.846 87.0184C78.9489 87.0396 79.065 87.0211 79.1652 86.9549L79.3709 86.8257L79.7324 86.5988L80.0912 86.3695L80.4473 86.1399L80.8059 85.9103L81.1647 85.6806L81.5208 85.4486L81.8717 85.219L82.2278 84.9921L82.5785 84.7546L83.0719 84.4275C83.2934 84.2796 83.3436 83.9765 83.1853 83.7628C83.0352 83.5625 82.7581 83.5096 82.5549 83.6467L82.0641 83.9738L81.7108 84.2058L81.3623 84.4379L81.0089 84.6648L80.6528 84.8917L80.2992 85.1213L79.9431 85.3482L79.5894 85.5802L79.2333 85.8071L78.8721 86.0313L78.6663 86.1603C78.5713 86.2211 78.5 86.3134 78.4709 86.4162C78.3604 86.4007 78.247 86.4214 78.1517 86.4824L77.7902 86.7093L77.4238 86.9308L77.0677 87.1523L76.7037 87.3765L76.3398 87.5955L75.9782 87.8118L75.6167 88.0254L75.2552 88.2445L74.8967 88.4581L74.5327 88.6717L74.1872 88.8747C74.0235 88.9672 73.9364 89.1545 73.963 89.3364C74.0078 89.6688 74.3745 89.8507 74.6619 89.6846L75.0074 89.4789L75.3714 89.2625L75.7354 89.0489L76.0969 88.8326L76.4635 88.6133L76.8275 88.3946L77.189 88.1731L77.5557 87.9538L77.9197 87.7299L78.2837 87.5054L78.6481 87.2822ZM107.557 67.2918C106.919 67.6875 106.177 67.7879 105.494 67.6267C105.154 67.545 104.829 67.3998 104.536 67.1941L104.291 67.4316L104.035 67.6823L103.777 67.9331L103.518 68.1836L103.257 68.4317L102.993 68.6825L102.727 68.9332L102.46 69.1813L102.194 69.4318L101.927 69.6851L101.658 69.9331L101.429 70.1388C101.16 70.3842 100.732 70.239 100.656 69.8777C100.627 69.722 100.677 69.5556 100.796 69.4476L101.022 69.2391L101.289 68.9911L101.56 68.7403L101.822 68.4979L102.088 68.2498L102.349 68.0018L102.611 67.751L102.869 67.5005L103.131 67.2551L103.386 67.0071L103.64 66.759L103.874 66.5272C103.843 66.4848 103.817 66.4401 103.79 66.398C103.386 65.7515 103.281 65.0024 103.436 64.3192C103.592 63.6361 104.009 63.0134 104.647 62.6177C105.286 62.2193 106.027 62.1191 106.71 62.2828C107.029 62.3593 107.335 62.4937 107.612 62.6785L107.736 62.5493L107.963 62.3013L108.187 62.0559L108.409 61.8081L108.63 61.5627L108.849 61.3174L109.068 61.072L109.285 60.8242L109.501 60.5788L109.715 60.3335L109.926 60.0854L110.134 59.8428L110.343 59.6001L110.44 59.484C110.535 59.3732 110.667 59.3152 110.809 59.3179C111.205 59.3417 111.405 59.7928 111.155 60.0908L111.054 60.207L110.844 60.4578L110.633 60.7004L110.419 60.9509L110.203 61.1963L109.986 61.4471L109.767 61.6951L109.546 61.9429L109.324 62.1935L109.103 62.4415L108.876 62.6896L108.649 62.9401L108.42 63.1879L108.29 63.3304C108.335 63.3885 108.377 63.4517 108.417 63.5177C108.818 64.1588 108.924 64.9054 108.768 65.5886C108.612 66.2739 108.195 66.8963 107.557 67.2918ZM105.7 66.7196C106.148 66.8225 106.639 66.759 107.061 66.4954C107.483 66.2341 107.755 65.8229 107.86 65.3769C107.96 64.9231 107.895 64.4324 107.628 64.0052C107.364 63.5805 106.953 63.3033 106.502 63.1953C106.053 63.0873 105.563 63.1505 105.141 63.4143C104.721 63.6782 104.447 64.0869 104.344 64.538C104.241 64.9891 104.312 65.4771 104.576 65.907C104.842 66.3291 105.249 66.6116 105.7 66.7196ZM86.3693 81.0275C86.232 81.1252 86.1555 81.2967 86.1793 81.4683C86.2268 81.8162 86.6253 81.9959 86.9127 81.7953L87.3795 81.4604L87.712 81.2202L88.0469 80.9827L88.3794 80.7425L88.7119 80.5051L89.0389 80.2624L89.366 80.0222L89.6903 79.7823L90.0174 79.5396L90.3418 79.297L90.6742 79.0489C90.8167 78.9409 90.8851 78.7588 90.8455 78.5769C90.7717 78.2471 90.3789 78.0968 90.107 78.2998L89.7799 78.5452L89.458 78.7878L89.1361 79.0278L88.8118 79.2652L88.4847 79.5054L88.1601 79.7456L87.8304 79.9831L87.5006 80.2206L87.1708 80.4605L86.8359 80.6955L86.3693 81.0275ZM93.7662 75.4616C93.634 75.5726 93.5735 75.7387 93.6025 75.91C93.6684 76.2582 94.0772 76.4167 94.3516 76.195L94.7394 75.8864L95.0426 75.6383L95.3458 75.3929L95.6468 75.1449L95.9475 74.8995L96.2455 74.6544L96.5438 74.4064L96.8418 74.1556L97.1371 73.9102L97.43 73.6622L97.7201 73.4144L97.9416 73.2271C98.2345 72.9763 98.1053 72.4883 97.7253 72.4093C97.5828 72.383 97.4406 72.4226 97.3323 72.5122L97.1108 72.6995L96.8231 72.9421L96.5305 73.1902L96.2401 73.4353L95.9448 73.6806L95.6493 73.9287L95.3512 74.1713L95.0532 74.4194L94.7552 74.6618L94.4542 74.9072L94.151 75.1525L93.7662 75.4616ZM113.326 55.8753C113.068 56.2235 113.384 56.7112 113.809 56.6138C113.917 56.5902 114.004 56.5294 114.075 56.4425L114.194 56.2788L114.376 56.0362L114.555 55.796L114.732 55.5534L114.909 55.3107L115.083 55.0681L115.254 54.8254L115.426 54.5855L115.597 54.3428L115.761 54.1029L115.927 53.8627L116.093 53.6225L116.254 53.3799L116.412 53.1451L116.571 52.9079L116.763 52.6123C116.987 52.2614 116.671 51.8076 116.265 51.9001C116.149 51.9264 116.048 51.9976 115.98 52.1031L115.793 52.3827L115.637 52.6202L115.479 52.8549L115.323 53.0924L115.159 53.3297L114.993 53.5671L114.832 53.8019L114.666 54.0419L114.497 54.2793L114.323 54.5168L114.154 54.757L113.98 54.9945L113.806 55.2317L113.629 55.4719L113.447 55.7146L113.326 55.8753ZM118.33 48.1329C118.143 48.489 118.462 48.9005 118.855 48.8109C118.984 48.7794 119.093 48.6947 119.156 48.5761L119.224 48.4521L119.343 48.22L119.464 47.9931L119.578 47.761L119.691 47.5369L119.802 47.3048L119.918 47.0833L120.026 46.8539L120.134 46.6322L120.237 46.4002L120.34 46.1811L120.443 45.9542L120.543 45.73L120.635 45.5086L120.733 45.2871L120.822 45.0629L120.917 44.8414L121.005 44.6199L121.092 44.4036L121.128 44.3034C121.284 43.8998 120.854 43.5174 120.474 43.718C120.374 43.7706 120.303 43.855 120.258 43.9606L120.223 44.0529L120.139 44.2638L120.055 44.4828L119.962 44.6992L119.873 44.9128L119.78 45.1318L119.685 45.3481L119.59 45.5671L119.493 45.7861L119.39 46.0025L119.29 46.2239L119.184 46.4454L119.076 46.6696L118.968 46.8911L118.862 47.1126L118.746 47.3341L118.63 47.561L118.514 47.7825L118.398 48.0067L118.33 48.1329ZM121.562 39.573C121.488 39.9582 121.889 40.2616 122.234 40.0795C122.361 40.0135 122.445 39.9001 122.472 39.7603L122.517 39.5255L122.556 39.3225L122.593 39.1222L122.622 38.9164L122.651 38.7159L122.677 38.5153L122.703 38.315L122.724 38.1198L122.748 37.922L122.767 37.7241L122.785 37.529L122.798 37.3311L122.809 37.136L122.822 36.9433L122.827 36.7506L122.835 36.5608V36.3657L122.838 36.1784V35.9887L122.833 35.7989L122.825 35.6114L122.817 35.4241L122.806 35.2396L122.793 35.0574L122.785 34.9809C122.746 34.5561 122.213 34.3952 121.954 34.7301C121.881 34.8251 121.849 34.9386 121.859 35.0599L121.867 35.1207L121.878 35.292L121.886 35.4662L121.896 35.6402L121.902 35.8144L121.904 35.9938V36.1705V36.3526V36.5293L121.899 36.7114L121.891 36.8935L121.881 37.0754L121.87 37.2627L121.857 37.4473L121.841 37.6291L121.82 37.8191L121.804 38.0037L121.78 38.1934L121.757 38.3834L121.733 38.5761L121.698 38.7634L121.669 38.9585L121.64 39.1537L121.604 39.3464L121.562 39.573ZM120.644 30.7624C120.86 31.1554 121.443 31.0604 121.511 30.6199C121.53 30.5197 121.511 30.4169 121.464 30.3219L121.443 30.2901L121.358 30.137L121.274 29.9842L121.184 29.8339L121.094 29.6808L120.997 29.5331L120.902 29.3906L120.804 29.243L120.702 29.1005L120.601 28.9553L120.496 28.818L120.388 28.6809L120.277 28.5411L120.169 28.4065L120.05 28.2746L119.937 28.1427L119.818 28.0135L119.697 27.8843L119.576 27.7605L119.452 27.6338L119.325 27.5152L119.198 27.3938L119.064 27.2725L118.932 27.1564L118.795 27.0402L118.66 26.9216L118.52 26.8135L118.381 26.7028L118.302 26.6423C117.959 26.3863 117.489 26.6843 117.568 27.1012C117.59 27.2198 117.653 27.3175 117.748 27.3887L117.819 27.4389L117.946 27.5417L118.075 27.6473L118.202 27.7529L118.326 27.8585L118.449 27.9692L118.568 28.0772L118.687 28.188L118.805 28.3041L118.916 28.4149L119.027 28.531L119.137 28.6472L119.248 28.7685L119.354 28.8844L119.459 29.0085L119.559 29.1325L119.662 29.2563L119.758 29.383L119.855 29.5098L119.947 29.6389L120.042 29.7681L120.132 29.9052L120.222 30.0371L120.306 30.1717L120.391 30.3115L120.47 30.4486L120.549 30.5857L120.625 30.7282L120.644 30.7624ZM113.751 25.3018C113.93 25.3623 114.115 25.3121 114.241 25.1778C114.468 24.9245 114.363 24.5288 114.038 24.4181L113.869 24.3548L113.674 24.2943L113.482 24.2308L113.289 24.1703L113.091 24.1122L112.891 24.0568L112.691 24.0012L112.49 23.9458L112.287 23.8956L112.079 23.843L111.878 23.7955L111.665 23.7455L111.456 23.7032L111.245 23.6584L111.034 23.6163L110.818 23.574L110.601 23.5343L110.383 23.4974L110.163 23.4605L109.945 23.4263L109.72 23.3921L109.493 23.3604L109.414 23.3471C109.019 23.2996 108.752 23.7403 108.974 24.0726C109.053 24.1887 109.166 24.2571 109.304 24.2756L109.378 24.2862L109.594 24.3177L109.813 24.3519L110.021 24.3809L110.232 24.4151L110.446 24.452L110.657 24.4917L110.863 24.5313L111.066 24.5709L111.269 24.6159L111.475 24.6607L111.672 24.7055L111.87 24.7503L112.068 24.803L112.264 24.8505L112.456 24.9031L112.648 24.956L112.838 25.0087L113.026 25.0643L113.213 25.1249L113.4 25.1829L113.58 25.2435L113.751 25.3018ZM104.721 23.9881C104.958 23.9854 105.154 23.8036 105.177 23.5634C105.201 23.2892 104.982 23.0518 104.705 23.0518H104.454L104.204 23.0545L103.948 23.0572L103.689 23.065L103.428 23.0702L103.169 23.0781L102.903 23.0887L102.639 23.102L102.378 23.1123L102.114 23.128L101.845 23.1438L101.576 23.1595L101.304 23.178L101.035 23.1989L100.766 23.2198L100.489 23.2437L100.217 23.2676L100.019 23.286C99.5971 23.3281 99.4519 23.8585 99.7871 24.122C99.8823 24.1934 99.9958 24.2276 100.114 24.2143L100.307 24.1958L100.581 24.1749L100.85 24.1511L101.116 24.1299L101.38 24.1114L101.647 24.0905L101.91 24.0775L102.172 24.059L102.433 24.0433L102.694 24.0327L102.947 24.0221L103.209 24.0115L103.462 24.0036L103.715 23.9985L103.968 23.996L104.219 23.9909L104.472 23.9881H104.721ZM95.541 24.8322C95.7125 24.8032 95.8525 24.6819 95.905 24.5131C96.0078 24.1781 95.7231 23.8511 95.38 23.9089L95.0741 23.9591L94.7786 24.0145L94.4806 24.0701L94.1852 24.1228L93.887 24.1784L93.5811 24.2362L93.2804 24.297L92.9794 24.3602L92.6762 24.4235L92.373 24.4867L92.0644 24.55L91.7583 24.6159L91.4524 24.6871L91.1438 24.7557L90.7928 24.835C90.6083 24.8824 90.4764 25.0301 90.4419 25.2201C90.3998 25.5499 90.6978 25.8215 91.017 25.745L91.3547 25.6685L91.6633 25.5998L91.9667 25.5339L92.2726 25.4625L92.5706 25.402L92.8714 25.336L93.1748 25.2752L93.4728 25.2144L93.7708 25.1564L94.0664 25.0983L94.3617 25.0429L94.6573 24.9848L94.9526 24.9322L95.2427 24.8847L95.541 24.8322ZM86.5406 26.9056C86.9151 26.7948 86.9944 26.3017 86.6725 26.0748C86.5539 25.9928 86.4138 25.9692 86.277 26.0086L86.0843 26.0615L85.76 26.1589L85.4356 26.2512L85.1113 26.3487L84.7869 26.4464L84.4599 26.5438L84.1301 26.6442L83.803 26.7471L83.4706 26.8527L83.1406 26.9555L82.8138 27.0611L82.481 27.1719L82.1488 27.2799L81.8245 27.3879C81.426 27.5198 81.3994 28.0711 81.777 28.2532C81.8877 28.3061 82.009 28.314 82.1225 28.2744L82.4444 28.1663L82.7741 28.0608L83.1039 27.9527L83.4337 27.8471L83.7607 27.7443L84.0826 27.6414L84.4124 27.5385L84.7367 27.4357L85.0613 27.3407L85.383 27.243L85.7073 27.148L86.0294 27.0557L86.3486 26.9607L86.5406 26.9056ZM77.7644 29.8257C78.1338 29.686 78.1653 29.1716 77.8198 28.9765C77.6984 28.913 77.5562 28.8972 77.4295 28.9474L77.0839 29.0766L76.7436 29.2112L76.4005 29.3404L76.055 29.4748L75.712 29.6094L75.3637 29.744L75.0182 29.8838L74.6727 30.0236L74.3247 30.1634L73.9792 30.3032L73.631 30.4481L73.0982 30.6723C72.9346 30.7383 72.8238 30.8965 72.8159 31.0707C72.8027 31.4217 73.1457 31.6616 73.4649 31.5297L73.9901 31.3107L74.338 31.1709L74.6811 31.0284L75.0266 30.8911L75.3697 30.7513L75.7127 30.614L76.0582 30.4794L76.3986 30.3502L76.7389 30.2158L77.082 30.0839L77.4223 29.9493L77.7644 29.8257ZM69.2227 33.387C69.3785 33.3158 69.4841 33.1601 69.4944 32.9861C69.505 32.6351 69.1489 32.3925 68.8297 32.535L68.3575 32.7513L68.0014 32.9174L67.6455 33.0835L67.2894 33.2496L66.9333 33.4185L66.5772 33.5846L66.2211 33.7588L65.865 33.9303L65.5089 34.1046L65.1504 34.2786L64.6279 34.5345C64.2536 34.7242 64.3009 35.2679 64.6966 35.3998C64.8127 35.4367 64.9341 35.4288 65.0448 35.3761L65.5643 35.1202L65.9179 34.946L66.2767 34.772L66.6304 34.6004L66.9862 34.4316L67.3399 34.2655L67.6935 34.0994L68.0444 33.933L68.3981 33.7669L68.7542 33.6006L69.2227 33.387ZM60.9267 37.4889C61.0822 37.4044 61.1745 37.241 61.172 37.0641C61.1563 36.7186 60.7869 36.5023 60.4834 36.6605L60.1089 36.8584L59.7474 37.0535L59.3859 37.2514L59.0246 37.4465L58.6633 37.6468L58.2994 37.8447L57.9379 38.0426L57.5766 38.2458L57.2153 38.4516L56.8486 38.6546L56.4054 38.9054C56.2418 39.0004 56.1522 39.1874 56.1758 39.3774C56.2287 39.702 56.5821 39.8811 56.8696 39.7204L57.3128 39.4699L57.6689 39.2666L58.0328 39.0663L58.3917 38.8657L58.7532 38.6654L59.1147 38.4676L59.4759 38.2697L59.8347 38.0746L60.1935 37.8821L60.5551 37.687L60.9267 37.4889ZM52.8811 42.0657C53.2188 41.8573 53.1553 41.3456 52.7807 41.2216C52.6488 41.1795 52.5117 41.1926 52.3904 41.2639L52.1239 41.4246L51.7626 41.6488L51.3959 41.8703L51.0371 42.0945L50.6705 42.3214L50.3065 42.5456L49.945 42.7752L49.5862 43.0021L49.2222 43.2317L48.8661 43.4586L48.4465 43.7303C48.0852 43.9651 48.2117 44.5217 48.6392 44.585C48.7524 44.6007 48.8582 44.5798 48.953 44.5163L49.3696 44.2498L49.7284 44.0229L50.0872 43.7933L50.4433 43.5691L50.8073 43.3422L51.1661 43.118L51.5276 42.8938L51.8889 42.6696L52.2501 42.4454L52.6141 42.2264L52.8811 42.0657ZM45.094 47.0752C45.4368 46.8431 45.3233 46.3101 44.9146 46.2308C44.7905 46.2099 44.6665 46.2335 44.5664 46.3047L44.308 46.4814L43.9676 46.7134L43.6246 46.9509L43.2842 47.1884L42.9466 47.4256L42.6035 47.6604L42.2686 47.9003L41.9388 48.1405L41.6012 48.3753L41.2687 48.6155L40.9389 48.8557L40.7622 48.9849C40.6015 49.101 40.538 49.2962 40.5882 49.4886C40.6805 49.8024 41.0497 49.9345 41.3135 49.7419L41.4877 49.6151L41.8148 49.3776L42.1497 49.1429L42.4768 48.9054L42.8117 48.6681L43.1466 48.4307L43.4816 48.1934L43.8192 47.9587L44.1569 47.7239L44.4999 47.4864L44.8348 47.2516L45.094 47.0752ZM37.6076 52.5171C37.8054 52.3667 37.8448 52.0871 37.705 51.8839C37.5519 51.6648 37.246 51.6122 37.0349 51.7783L36.7475 52.0052L36.431 52.2451L36.1172 52.4905L35.8086 52.7331L35.4973 52.9785L35.1887 53.2238L34.8828 53.4692L34.5767 53.7146L34.2705 53.9626L33.9673 54.208L33.6693 54.4533L33.3949 54.6775C33.2524 54.8015 33.1946 54.9837 33.2446 55.1655C33.3368 55.4926 33.7272 55.6166 33.9912 55.403L34.2629 55.184L34.5609 54.9359L34.8616 54.6906L35.1624 54.4479L35.4685 54.2026L35.7719 53.9624L36.0805 53.717L36.3892 53.4689L36.6978 53.229L37.0064 52.9864L37.3201 52.7437L37.6076 52.5171ZM30.4667 58.4049C30.7145 58.1807 30.6593 57.7825 30.3586 57.6319C30.1898 57.5502 29.9895 57.5765 29.8467 57.7005L29.5935 57.922L29.3115 58.1725L29.0344 58.4233L28.7548 58.6714L28.4777 58.9192L28.206 59.1724L27.9344 59.4178L27.6627 59.6685L27.391 59.9191L27.1193 60.1696L26.8555 60.4204L26.5863 60.6684L26.4068 60.8397C26.1694 61.0718 26.2326 61.4677 26.536 61.6048C26.7155 61.6841 26.9104 61.6523 27.0477 61.5229L27.2271 61.3516L27.4909 61.1035L27.7574 60.8555L28.0237 60.6101L28.2929 60.3623L28.5646 60.1142L28.8363 59.8662L29.1053 59.6181L29.3797 59.3703L29.6568 59.1249L29.9336 58.8741L30.2134 58.6261L30.4667 58.4049ZM23.7505 64.7676C24.0328 64.475 23.8298 63.984 23.4235 63.971C23.2915 63.971 23.1756 64.016 23.0804 64.1108L22.7824 64.4167L22.5397 64.6674L22.2995 64.9155L22.0623 65.1663L21.8275 65.4143L21.5901 65.6649L21.3604 65.9129L21.1284 66.1662L20.8963 66.4142L20.6667 66.662L20.4425 66.9101L20.2129 67.1609L19.9939 67.4114L19.8964 67.5172C19.7697 67.6649 19.7409 67.8652 19.828 68.0367C19.9781 68.3347 20.3714 68.3876 20.5929 68.1447L20.9094 67.7911L21.1308 67.5458L21.355 67.2977L21.5819 67.0526L21.8088 66.8045L22.0384 66.5592L22.2705 66.3084L22.5053 66.0633L22.7373 65.8125L22.9773 65.5699L23.2121 65.3191L23.452 65.074L23.7505 64.7676ZM17.5964 71.6629C17.8418 71.3597 17.6201 70.9005 17.2298 70.9032C17.09 70.9005 16.9554 70.9667 16.8683 71.0723L16.6386 71.3624L16.4383 71.6105L16.2486 71.8558L16.0559 72.1009L15.8659 72.3463L15.6786 72.5865L15.4887 72.8318L15.3065 73.0772L15.1247 73.3199L14.9401 73.565L14.7607 73.8076L14.584 74.0478L14.4071 74.2904L14.2358 74.5331L14.0431 74.7994C13.9375 74.9497 13.9324 75.1449 14.0246 75.3061C14.1959 75.5962 14.6101 75.6226 14.8028 75.3457L14.9901 75.0819L15.1643 74.8444L15.3385 74.6042L15.5125 74.364L15.6895 74.1266L15.8689 73.8891L16.0483 73.6467L16.2328 73.404L16.4174 73.1614L16.602 72.9239L16.7893 72.6785L16.979 72.4386L17.1741 72.1959L17.3668 71.9558L17.5964 71.6629ZM12.2732 79.1995C12.4578 78.883 12.223 78.4792 11.8536 78.4898C11.6927 78.4977 11.5583 78.5769 11.4739 78.714L11.4079 78.8274L11.2654 79.0595L11.1284 79.2916L10.991 79.529L10.8564 79.7611L10.7272 79.9932L10.598 80.2252L10.4688 80.4573L10.3396 80.6867L10.2183 80.9187L10.0943 81.1486L9.97566 81.378L9.85704 81.6076L9.73843 81.8372L9.62227 82.0641L9.51153 82.291L9.40349 82.5179L9.29275 82.7448L9.24526 82.8476C9.15814 83.0246 9.19259 83.2276 9.32967 83.3725C9.55656 83.6076 9.94687 83.5495 10.0866 83.2539L10.1341 83.1565L10.2397 82.9377L10.348 82.7133L10.456 82.4893L10.5695 82.2649L10.6854 82.0461L10.7961 81.8162L10.9148 81.5948L11.0388 81.3654L11.1601 81.1385L11.2841 80.917L11.4109 80.6849L11.5376 80.4605L11.6668 80.2312L11.7987 80.0015L11.9306 79.7774L12.0677 79.5453L12.205 79.3132L12.2732 79.1995ZM8.39795 87.5222C8.51928 87.1267 8.10264 86.7758 7.73842 86.963C7.62497 87.0211 7.54598 87.1134 7.50636 87.2401L7.46674 87.3615L7.40349 87.5778L7.34024 87.7887L7.28217 87.9996L7.22409 88.2105L7.16872 88.4189L7.11335 88.6298L7.06068 88.8385L7.01318 89.047L6.96298 89.2527L6.92065 89.4611L6.87857 89.6669L6.83624 89.8699L6.79662 90.0759L6.76242 90.2762L6.7255 90.4819L6.69376 90.6798L6.66472 90.8828L6.63838 91.0832L6.61205 91.2813L6.58818 91.4816L6.56726 91.6819L6.54364 91.9009C6.51731 92.2991 6.97086 92.555 7.29004 92.3151C7.39808 92.2361 7.46157 92.1172 7.47461 91.9802L7.49307 91.7823L7.51423 91.5926L7.5354 91.4053L7.55902 91.2153L7.58535 91.0256L7.61169 90.8358L7.64343 90.6404L7.67764 90.448L7.71185 90.2555L7.75147 90.0577L7.79109 89.8598L7.83071 89.6644L7.87033 89.4666L7.91783 89.2662L7.96803 89.0681L8.01552 88.8678L8.06819 88.6648L8.12356 88.4645L8.17893 88.2614L8.23701 88.0527L8.29509 87.85L8.35587 87.644L8.39795 87.5222ZM7.77017 96.4672C7.66213 96.069 7.12122 95.9925 6.91549 96.3486C6.8547 96.4566 6.83624 96.5861 6.8707 96.7047L6.91032 96.8632L6.95781 97.032L7.00802 97.2035L7.05822 97.3748L7.11113 97.5384L7.16896 97.7073L7.22704 97.8709L7.28783 98.037L7.35378 98.2007L7.41973 98.3641L7.49085 98.5226L7.55951 98.6833L7.63605 98.839L7.70988 98.9997L7.79183 99.1555L7.87107 99.3113L7.95548 99.4641L8.0426 99.6172L8.12971 99.7651L8.2247 99.9152L8.31699 100.066L8.41444 100.216L8.5119 100.358L8.61206 100.501L8.71492 100.643L8.8205 100.786L8.93124 100.92L9.02894 101.047C9.31121 101.384 9.85458 101.192 9.85188 100.751C9.84917 100.641 9.81496 100.538 9.74901 100.456L9.65672 100.345L9.55927 100.219L9.46157 100.092L9.36929 99.96L9.27429 99.8281L9.18472 99.6962L9.0976 99.5645L9.01319 99.4272L8.92878 99.2926L8.84978 99.1528L8.76808 99.0133L8.69154 98.8735L8.61772 98.731L8.54389 98.5885L8.47523 98.4433L8.40657 98.3011L8.34061 98.1532L8.27737 98.0053L8.21954 97.8576L8.15875 97.7073L8.10092 97.5544L8.04801 97.4065L7.99805 97.2535L7.94785 97.0977L7.90035 96.9421L7.85556 96.7864L7.80807 96.6281L7.77017 96.4672ZM13.2123 103.268C13.0937 103.205 12.9536 103.197 12.8271 103.247C12.4553 103.397 12.4341 103.906 12.7875 104.096L12.9431 104.178L13.1092 104.267L13.2805 104.352L13.4495 104.434L13.6208 104.518L13.7977 104.597L13.9744 104.676L14.1511 104.75L14.3305 104.827L14.5151 104.901L14.6945 104.972L14.8818 105.043L15.0691 105.109L15.259 105.178L15.4463 105.241L15.6388 105.304L15.8339 105.368L16.0291 105.431L16.2269 105.487L16.4221 105.545L16.6254 105.602L16.8284 105.653L17.0262 105.705L17.2637 105.763C17.6831 105.861 17.9944 105.389 17.7411 105.035C17.6752 104.94 17.575 104.88 17.4668 104.853L17.2477 104.798L17.055 104.745L16.8599 104.698L16.6674 104.645L16.4802 104.59L16.2902 104.534L16.1002 104.476L15.9183 104.418L15.7362 104.354L15.5544 104.294L15.3777 104.228L15.1983 104.165L15.0243 104.099L14.85 104.033L14.6761 103.964L14.5072 103.89L14.3411 103.816L14.1723 103.742L14.0086 103.668L13.845 103.592L13.6816 103.515L13.5258 103.433L13.3676 103.352L13.2123 103.268ZM21.9964 105.523C21.8197 105.515 21.656 105.6 21.5664 105.753C21.3976 106.056 21.5982 106.433 21.9437 106.457L22.1388 106.473L22.3815 106.486L22.6241 106.499L22.8641 106.512L23.1094 106.52L23.3575 106.528L23.6029 106.533L23.8509 106.544L24.1014 106.547H24.3547H24.6027H24.8587L25.1144 106.542H25.3703L25.6289 106.536L25.8901 106.528L26.1512 106.523L26.4098 106.513L26.6497 106.499C27.0693 106.481 27.2433 105.961 26.9266 105.682C26.8316 105.603 26.7209 105.566 26.5968 105.568L26.3672 105.579L26.1088 105.587L25.8504 105.595L25.5972 105.602L25.3464 105.61L25.0932 105.613H24.8478H24.5946H24.3493L24.1039 105.61L23.8585 105.608L23.6186 105.597L23.376 105.592L23.1358 105.584L22.8956 105.576L22.6581 105.566L22.426 105.552L22.1913 105.537L21.9964 105.523ZM31.1894 105.157C30.7885 105.212 30.6461 105.726 30.9652 105.985C31.0627 106.067 31.1921 106.106 31.3189 106.085L31.6221 106.045L31.9122 106.006L32.1945 105.966L32.4846 105.924L32.7775 105.879L33.0676 105.834L33.3605 105.787L33.6533 105.74L33.9459 105.689L34.2415 105.639L34.537 105.589L34.8324 105.534L35.1358 105.476L35.4338 105.42L35.7318 105.362L35.9376 105.32C36.1276 105.283 36.2725 105.133 36.3015 104.935C36.3466 104.613 36.0668 104.344 35.7449 104.405L35.547 104.447L35.2463 104.503L34.9534 104.561L34.6581 104.611L34.3653 104.666L34.0751 104.719L33.785 104.769L33.4894 104.817L33.202 104.864L32.917 104.911L32.6296 104.953L32.3421 104.999L32.0572 105.038L31.7751 105.08L31.4929 105.117L31.1894 105.157ZM40.2533 103.378C39.8918 103.468 39.7838 103.925 40.0582 104.173C40.1768 104.283 40.335 104.323 40.4908 104.286L40.6727 104.233L40.9891 104.152L41.3083 104.07L41.625 103.983L41.9442 103.896L42.2661 103.811L42.588 103.719L42.9072 103.631L43.2315 103.536L43.5559 103.444L43.8802 103.349L44.2073 103.251L44.5319 103.154L44.983 103.017C45.3787 102.896 45.4208 102.352 45.0568 102.157C44.9461 102.099 44.8193 102.088 44.7032 102.122L44.2548 102.26L43.9304 102.355L43.6113 102.452L43.2894 102.545L42.9675 102.637L42.6483 102.727L42.3291 102.819L42.0099 102.909L41.6962 102.996L41.377 103.083L41.063 103.167L40.7489 103.246L40.4325 103.331L40.2533 103.378ZM49.0957 100.675C48.6973 100.817 48.6815 101.368 49.0667 101.543C49.1774 101.59 49.2936 101.598 49.4097 101.556L49.8502 101.4L50.1879 101.279L50.5282 101.157L50.8686 101.031L51.2062 100.907L51.5463 100.778L51.8894 100.651L52.2297 100.522L52.5752 100.393L52.918 100.258L53.2611 100.123L53.7757 99.9231C53.9524 99.8547 54.0631 99.6856 54.0658 99.4959C54.0685 99.1609 53.7388 98.9313 53.4274 99.0554L52.9183 99.2532L52.5779 99.3851L52.2351 99.517L51.8948 99.6462L51.5544 99.7754L51.2168 99.9046L50.8791 100.028L50.5415 100.155L50.2039 100.274L49.8689 100.398L49.5313 100.516L49.0957 100.675ZM57.7031 97.2798C57.537 97.3563 57.4287 97.5146 57.4235 97.6964C57.4235 98.0395 57.769 98.2716 58.0803 98.1369L58.4866 97.9602L58.8373 97.8045L59.191 97.6516L59.5419 97.4932L59.8955 97.3325L60.2516 97.1715L60.6053 97.0106L60.9587 96.8472L61.3175 96.6835L61.6711 96.5201L62.0247 96.351L62.3173 96.2113C62.5548 96.1032 62.6498 95.8158 62.5337 95.5835C62.4175 95.3512 62.1461 95.2564 61.9165 95.3644L61.6236 95.5018L61.2702 95.6706L60.9168 95.8342L60.5659 95.9949L60.2123 96.1586L59.8586 96.3193L59.5104 96.4778L59.157 96.6363L58.8034 96.7918L58.4579 96.9476L58.1042 97.1006L57.7031 97.2798ZM66.0681 93.3231C65.6987 93.5128 65.7489 94.0562 66.1446 94.183C66.2607 94.2196 66.3872 94.2117 66.4955 94.1566L67.0416 93.8798L67.4031 93.6898L67.759 93.5052L68.1229 93.3152L68.4845 93.1228L68.8433 92.9303L69.2045 92.7379L69.5712 92.5452L69.93 92.35L70.2888 92.1549L70.6107 91.9806C70.9456 91.7934 70.9245 91.3029 70.5738 91.142C70.4392 91.0839 70.2863 91.0866 70.1596 91.1553L69.8431 91.3319L69.4816 91.5301L69.1201 91.7198L68.764 91.9122L68.4052 92.1047L68.0439 92.2974L67.6851 92.4871L67.329 92.6744L66.9675 92.8592L66.6117 93.0465L66.0681 93.3231Z" fill="#62C2FF"/>
<path fill-rule="evenodd" clip-rule="evenodd" d="M92.2992 7.56982C92.2992 11.5846 95.5518 14.8714 99.5326 14.8714C95.5518 14.8714 92.2992 18.1558 92.2992 22.176C92.2992 18.1558 89.0468 14.8714 85.0714 14.8714C89.0468 14.8717 92.2992 11.5848 92.2992 7.56982Z" fill="#EFDFA5"/>
<path fill-rule="evenodd" clip-rule="evenodd" d="M10.3896 52.6147C10.3896 56.6295 13.6422 59.9139 17.6228 59.9139C13.6422 59.9139 10.3896 63.2005 10.3896 67.2182C10.3896 63.2007 7.1372 59.9139 3.1618 59.9139C7.13696 59.9139 10.3896 56.6295 10.3896 52.6147Z" fill="#62C2FF"/>
<path fill-rule="evenodd" clip-rule="evenodd" d="M113.946 71.1646C113.946 73.5625 115.89 75.5224 118.264 75.5224C115.89 75.5224 113.946 77.4823 113.946 79.8802C113.946 77.4823 112.007 75.5224 109.633 75.5224C112.007 75.5224 113.946 73.5625 113.946 71.1646Z" fill="#EFDFA5"/>
<path d="M71.9979 104.869C70.0486 104.869 67.1602 102.997 66.1579 101.992C65.4112 101.242 64.9127 100.309 64.5777 99.2612C64.5066 99.5144 64.4298 99.7362 64.3481 99.918C62.9685 102.959 59.6288 104.84 57.3207 104.84C56.7138 104.84 56.197 104.706 55.7828 104.439C55.1919 104.062 54.8543 103.442 54.8543 102.735C54.8543 101.931 55.1814 101.419 55.5138 101.06C53.894 102.144 51.8921 102.698 50.5046 102.698C49.3044 102.698 46.8009 102.698 46.8009 100.741C46.8009 99.4773 47.864 98.7097 48.8004 98.0317C49.9745 97.1852 50.7421 96.5571 50.7421 95.5917C50.7421 93.8375 50.7182 90.1629 50.7025 88.0814C49.8214 88.1685 48.6212 88.2478 47.2178 88.2478C38.84 88.2478 36.4049 82.4865 35.4897 80.3157C34.2762 77.4324 32.7595 76.0238 30.8602 74.7943C29.2167 73.7366 29.1587 72.6341 29.2694 72.072C29.3696 71.568 29.7601 70.6843 31.2583 70.4074C31.7596 70.3122 32.2425 70.2677 32.7014 70.2677C36.4315 70.2677 38.5735 73.0532 40.4647 75.5092C41.6649 77.0682 42.7967 78.5401 44.0786 78.9464C45.0334 79.2474 46.1441 79.4054 47.2943 79.4054C48.8031 79.4054 50.2592 79.1285 51.2589 78.6668C51.5623 77.1366 52.309 75.7494 53.2057 74.607C43.9966 73.2247 37.8714 69.5766 34.5213 63.4964L34.5476 63.4831C33.7722 62.5096 33.234 60.7977 33.0177 60.0142L32.994 60.0247C31.944 56.9252 31.4323 53.3746 31.4299 49.1671C31.4299 42.1291 33.5825 39.1877 36.3522 35.6558C34.3579 27.6998 37.315 22.271 37.4444 22.0389C37.6368 21.6959 37.9666 21.4532 38.3493 21.3742C38.4416 21.3558 38.7898 21.2923 39.3858 21.2923C41.4144 21.2923 45.7405 21.9836 52.256 26.5048C54.9599 25.5657 59.4206 25.0142 64.4458 25.0142C68.6744 25.0142 72.5836 25.4126 75.3195 26.1091C78.448 24.1147 84.0563 21.1313 87.583 21.1313C88.1712 21.1313 88.7015 21.2131 89.1578 21.3767C89.4452 21.4796 89.6906 21.6774 89.8513 21.9358C90.8458 23.5317 92.3021 27.2775 91.0938 34.5897C91.2311 34.7691 91.4024 34.9694 91.5924 35.2018C93.3941 37.4043 96.7495 41.5037 96.7655 50.1323C96.6942 53.9361 96.3012 57.1071 95.5705 59.8503C95.4649 60.4992 95.0852 62.4618 94.2674 63.5222C90.8091 71.0059 83.6657 73.4435 76.0078 74.533C77.902 76.7909 78.543 79.9881 78.543 85.731C78.543 90.1415 78.5061 92.2544 78.485 93.605C78.4695 94.4808 78.4589 95.0294 78.4695 95.6862C78.485 96.7387 79.6985 97.6303 80.6747 98.3477C81.6111 99.0363 82.579 99.7512 82.3816 100.906C82.1783 102.075 81.0493 102.669 79.0261 102.669C77.8547 102.669 76.5832 102.476 75.7048 102.167C75.0296 101.933 74.4441 101.648 73.9349 101.326C74.1458 101.714 74.2886 102.138 74.2886 102.624C74.2876 103.967 73.3669 104.869 71.9979 104.869Z" fill="#62C2FF"/>
<path d="M31.5718 59.5894C30.5405 56.5452 30.0815 53.0632 30.0788 49.1644C30.0788 42.2531 32.2338 39.6467 35.1279 35.959C32.9145 28.0822 35.9218 22.6955 35.9218 22.6955C35.9218 22.6955 40.5725 21.7301 49.3647 28.0239C54.1288 25.9823 66.8356 25.8187 72.8447 27.5701C76.5324 25.138 83.2801 21.6772 86.0026 22.648C86.7411 23.8352 88.3292 27.2854 86.9707 34.888C87.8914 36.5498 92.6951 40.1005 92.7136 50.1349C92.6425 53.8332 92.2519 56.9618 91.537 59.5997C91.6743 59.5997 90.6242 62.876 90.3764 62.8708C87.1898 69.8667 80.6479 72.478 70.083 73.5596C73.5097 75.7176 74.4908 78.4188 74.4908 85.7312C74.4908 93.0434 74.3907 94.0245 74.417 95.7076C74.4539 98.4668 78.5004 99.7913 78.3474 100.677C78.1945 101.564 74.9631 101.427 73.4513 100.894C69.1649 99.4059 69.5921 95.8395 69.5921 95.8395L69.4523 86.0632C69.4523 86.0632 69.7449 80.8034 67.7959 80.8034V96.8047C67.7959 100.281 70.2359 101.337 70.2359 102.624C70.2359 104.834 65.7858 102.413 64.4113 101.036C62.3222 98.9361 62.5622 94.4887 62.6124 90.9747C62.6599 87.572 62.5809 80.1436 62.5809 80.1436L61.1617 80.1751C61.1617 80.1751 61.7447 96.4035 60.415 99.3633C58.6951 103.157 53.5037 104.47 53.5037 102.735C53.5037 101.574 54.7832 101.943 55.4899 99.337C56.0914 97.116 55.8857 80.5708 55.8857 80.5708C55.8857 80.5708 54.2238 81.5574 54.2238 84.6543C54.2238 86.0681 54.1842 94.1771 54.1842 96.5829C54.1842 99.6165 49.8738 101.347 47.8029 101.347C46.7558 101.347 45.4498 101.294 45.4498 100.74C45.4498 99.337 49.391 98.5138 49.391 95.5909C49.391 93.0638 49.3383 86.5534 49.3383 86.5534C49.3383 86.5534 47.3492 86.8964 44.5161 86.8964C37.3673 86.8964 35.1067 82.3383 34.0306 79.7897C32.6325 76.466 30.8176 74.9043 28.8892 73.6595C27.7047 72.8944 27.433 71.9869 28.8021 71.7339C35.1279 70.5415 36.7447 78.8981 40.9706 80.2332C43.9858 81.1826 47.8635 80.7714 49.7919 79.5262C50.0478 76.9727 51.8891 74.7623 53.4245 73.6015C42.6776 72.5726 36.3069 68.8428 33.0019 62.8442C32.9596 62.8447 31.4453 59.5894 31.5718 59.5894Z" fill="#48B0F5"/>
<path d="M87.5821 22.4819C88.0042 22.4819 88.3814 22.5346 88.7033 22.648C89.4418 23.8352 91.0299 27.2854 89.6714 34.888C90.5921 36.5498 95.3958 40.1005 95.4143 50.1349C95.3429 53.8332 94.9526 56.9618 94.2377 59.5997C94.375 59.5997 93.3277 62.8708 93.0769 62.8708C89.8905 69.8667 83.3486 72.478 72.7835 73.5596C76.2104 75.7176 77.1915 78.4188 77.1915 85.7312C77.1915 93.0434 77.0914 94.0245 77.1177 95.7076C77.1544 98.4668 81.2011 99.7913 81.0481 100.677C80.9691 101.134 80.0775 101.318 79.0249 101.318C78.0275 101.318 76.8879 101.152 76.152 100.894C71.8656 99.4056 72.2928 95.8392 72.2928 95.8392L72.153 86.0629C72.153 86.0629 72.4456 80.8032 70.4966 80.8032V96.8044C70.4966 100.281 72.9366 101.336 72.9366 102.624C72.9366 103.264 72.562 103.518 71.9975 103.518C70.6127 103.518 68.0883 102.014 67.112 101.035C65.0229 98.9358 65.2629 94.4884 65.3128 90.9744C65.3603 87.5717 65.2811 80.1434 65.2811 80.1434L63.8619 80.1749C63.8619 80.1749 64.4449 96.4033 63.1155 99.3631C61.8995 102.046 58.9449 103.489 57.32 103.489C56.6498 103.489 56.2042 103.244 56.2042 102.735C56.2042 101.574 57.4836 101.943 58.1904 99.337C58.7918 97.116 58.5861 80.5708 58.5861 80.5708C58.5861 80.5708 56.9242 81.5574 56.9242 84.6543C56.9242 86.0681 56.8846 94.1771 56.8846 96.5829C56.8846 99.6165 52.5743 101.347 50.5034 101.347C49.456 101.347 48.1503 101.294 48.1503 100.74C48.1503 99.337 52.0915 98.5138 52.0915 95.5909C52.0915 93.0638 52.0385 86.5534 52.0385 86.5534C52.0385 86.5534 50.0496 86.8964 47.2163 86.8964C40.0678 86.8964 37.8072 82.3383 36.7308 79.7897C35.3327 76.466 33.5178 74.9043 31.5894 73.6595C30.4049 72.8944 30.1332 71.9868 31.5023 71.7339C31.9219 71.6549 32.32 71.6177 32.7 71.6177C38.055 71.6177 39.7248 78.988 43.6711 80.2332C44.8054 80.592 46.0639 80.7554 47.2931 80.7554C49.3295 80.7554 51.2894 80.3043 52.4923 79.5262C52.7483 76.9727 54.5893 74.7623 56.1247 73.6015C45.378 72.5725 39.0074 68.8428 35.7021 62.8442C35.66 62.8442 34.1458 59.5889 34.2723 59.5889C33.2409 56.5447 32.782 53.0627 32.7795 49.1639C32.7795 42.2526 34.9345 39.6462 37.8284 35.9585C35.615 28.0817 38.6223 22.695 38.6223 22.695C38.6223 22.695 38.8782 22.6423 39.3847 22.6423C41.0335 22.6423 45.3384 23.2069 52.0651 28.0237C54.6425 26.9212 59.5383 26.3645 64.4449 26.3645C68.613 26.3645 72.786 26.7654 75.5452 27.5699C78.7978 25.4259 84.4297 22.4819 87.5821 22.4819ZM87.5821 19.7808C83.4696 19.7808 77.5238 23.1626 75.0865 24.6635C72.2849 24.0251 68.4971 23.6636 64.4451 23.6636C62.0341 23.6636 56.4574 23.8088 52.469 25.0142C45.9534 20.6249 41.5139 19.9417 39.3849 19.9417C38.6779 19.9417 38.2322 20.0182 38.0737 20.0525C37.3061 20.2107 36.6466 20.696 36.2642 21.3794C36.1271 21.6247 33.0829 27.2143 34.8873 35.3339C32.244 38.742 30.0784 42.0316 30.0784 49.1644C30.0811 53.5249 30.6166 57.218 31.7139 60.4573L31.7378 60.4495C31.978 61.4466 32.4921 63.1137 33.4048 64.2691C36.7231 70.2041 42.4926 73.9317 50.9575 75.5909C50.6119 76.2398 50.3218 76.9309 50.1134 77.6591C49.3957 77.886 48.4146 78.0545 47.2936 78.0545C46.2807 78.0545 45.3099 77.9175 44.4842 77.6591C43.6084 77.382 42.5531 76.0105 41.5323 74.686C39.6595 72.2511 37.0955 68.9171 32.7007 68.9171C32.1468 68.9171 31.5771 68.9724 31.0044 69.0805C28.5774 69.5289 28.0501 71.2833 27.9445 71.8082C27.802 72.5312 27.7282 74.3801 30.1261 75.9285C31.8645 77.0522 33.1597 78.2657 34.2413 80.8376C35.1592 83.0086 37.9423 89.5983 47.2171 89.5983C47.9955 89.5983 48.7182 89.5744 49.3618 89.5375C49.3751 91.5926 49.3908 94.1988 49.3908 95.5917C49.3908 95.9372 48.5915 96.515 48.0085 96.9371C46.9296 97.7179 45.4499 98.7865 45.4499 100.741C45.4499 102.936 47.1514 104.049 50.5042 104.049C51.3985 104.049 52.4825 103.861 53.5877 103.487C53.915 104.927 55.1836 106.191 57.3205 106.191C59.6259 106.191 62.6595 104.729 64.5561 102.197C64.7513 102.458 64.9651 102.706 65.1969 102.941C66.3393 104.085 69.5048 106.219 71.9975 106.219C73.7861 106.219 75.1578 105.132 75.5351 103.534C76.5138 103.835 77.8247 104.019 79.0252 104.019C82.6681 104.019 83.5253 102.215 83.7101 101.136C84.0529 99.1578 82.499 98.0154 81.4731 97.2612C81.0641 96.9604 79.8243 96.0477 79.8188 95.6731C79.8085 95.0217 79.8188 94.4862 79.8346 93.6288C79.8558 92.2728 79.8927 90.1547 79.8927 85.7309C79.8927 81.3729 79.5732 78.1072 78.265 75.5407C85.4455 74.2558 91.9717 71.4966 95.3983 64.2871C96.3664 62.9894 96.7567 61.0477 96.8911 60.1379C97.6405 57.3046 98.0413 54.0469 98.1154 50.1876C98.0997 41.0209 94.409 36.5127 92.6364 34.347C92.5995 34.2996 92.5596 34.2548 92.5229 34.2073C93.5701 27.23 92.296 23.3073 90.9981 21.2207C90.6738 20.7036 90.1855 20.3081 89.6107 20.1049C89.0065 19.8888 88.3258 19.7808 87.5821 19.7808Z" fill="#234AA8"/>
</svg>
