<svg width="126" height="126" viewBox="0 0 126 126" fill="none" xmlns="http://www.w3.org/2000/svg">
<path fill-rule="evenodd" clip-rule="evenodd" d="M94.4975 17.7391C106.579 35.8204 63.4535 68.6417 50.9298 77.9118C37.8379 87.6024 23.1429 92.5627 10.0509 79.6967C-4.92164 64.982 18.9261 54.4625 29.8465 47.5514C44.6047 38.2048 58.6938 25.1859 72.7579 16.834C79.4492 12.8554 88.9553 10.1523 94.4975 17.7391Z" fill="#E2F0FC"/>
<path fill-rule="evenodd" clip-rule="evenodd" d="M103.36 23.9746C117.007 22.9033 126.261 38.2175 117.045 50.9814C112.248 57.6503 89.902 80.5513 83.3372 86.098C69.1848 97.7267 34.1138 117.478 16.1996 104.982C6.16294 97.9816 6.65513 86.8498 16.8055 79.6966C31.9297 69.0371 46.6628 70.1844 62.671 55.2019C73.5658 45.0013 88.1724 26.0659 103.36 23.9746Z" fill="#E2F0FC"/>
<path fill-rule="evenodd" clip-rule="evenodd" d="M116.25 59.6013C124.834 76.6111 83.9051 100.468 72.0508 107.163C59.6536 114.163 46.3596 116.892 36.3483 104.307C24.9101 89.8979 46.7255 83.3439 56.9515 78.5116C70.7502 71.9828 84.3722 62.2028 97.4639 56.4648C103.701 53.7229 112.235 52.4097 116.25 59.6013Z" fill="#E2F0FC"/>
<path d="M44.714 82.2096L44.9936 82.5339L45.268 82.8583L45.5475 83.1826L45.8246 83.5045L46.1042 83.8264L46.384 84.1456L46.6609 84.4596L46.9431 84.7761L47.22 85.0952L47.4892 85.3962C47.7107 85.644 48.1143 85.5835 48.2622 85.2828C48.3412 85.1164 48.3148 84.9134 48.1884 84.7736L47.9245 84.4756L47.645 84.1616L47.3681 83.8451L47.0913 83.5259L46.8117 83.2094L46.5348 82.893L46.2553 82.5711L45.9784 82.2467L45.7095 81.9275L45.4299 81.6029L45.1555 81.2786C45.0817 81.189 44.9813 81.1361 44.8705 81.1179C44.8757 81.0098 44.8363 80.9016 44.7622 80.8117L44.6094 80.6272L44.3323 80.3028L44.0633 79.9758L43.7968 79.646L43.5278 79.3216L43.2667 78.9946L42.9975 78.6702L42.731 78.3405L42.4699 78.0161L42.2061 77.6863L41.8369 77.2244C41.6866 77.032 41.4097 76.9926 41.2037 77.1373C40.9847 77.2931 40.9399 77.599 41.1063 77.8074L41.4729 78.2718L41.7368 78.6016L42.0033 78.9286L42.2671 79.2584L42.5361 79.5855L42.8053 79.9152L43.077 80.245L43.346 80.5723L43.6152 80.9021L43.8893 81.2291L44.0451 81.4164C44.1217 81.5087 44.2245 81.5589 44.3326 81.5749C44.3299 81.6805 44.3616 81.7912 44.4381 81.8835L44.714 82.2096ZM23.0858 53.9654C22.5978 53.3903 22.3948 52.6729 22.4553 51.971C22.5213 51.2746 22.8486 50.5966 23.4289 50.1113C23.4842 50.0586 23.545 50.0109 23.6083 49.9715L23.5263 49.7946L23.3865 49.4887L23.2468 49.1801L23.1094 48.8766L22.9724 48.5705L22.838 48.2646L22.7034 47.9587L22.5715 47.6553L22.4423 47.3518L22.3131 47.0487L22.1863 46.7479L22.0625 46.4499L21.9358 46.1492L21.875 46.0067C21.7325 45.6454 22.0623 45.276 22.4447 45.3789C22.5821 45.4185 22.6874 45.516 22.7428 45.6479L22.8008 45.7877L22.9249 46.0832L23.0489 46.3813L23.1756 46.682L23.3021 46.9827L23.4313 47.2807L23.5605 47.5815L23.6924 47.8822L23.827 48.1829L23.9617 48.4861L24.096 48.7868L24.2331 49.093L24.3756 49.3991L24.4521 49.56C24.774 49.4678 25.1065 49.4387 25.4335 49.4596C26.1324 49.5177 26.8053 49.8369 27.2906 50.4147C27.7759 50.9871 27.9818 51.7072 27.9184 52.4064C27.8578 53.1028 27.528 53.7833 26.945 54.274C26.9054 54.3057 26.8685 54.3399 26.8237 54.3741L26.9768 54.6618L27.1402 54.9783L27.3066 55.2921L27.4805 55.6058L27.6496 55.925L27.8209 56.2417L27.9924 56.5609L28.1691 56.8774L28.3434 57.1912L28.5255 57.5104L28.7022 57.8322L28.8525 58.0988C28.9342 58.2361 28.9291 58.4074 28.8552 58.5499C28.6707 58.869 28.2196 58.8769 28.0375 58.5631L27.8844 58.2939L27.705 57.972L27.5283 57.6528L27.3513 57.3309L27.1747 57.0118L27.0004 56.6926L26.8262 56.3734L26.6547 56.0569L26.4831 55.7404L26.3143 55.4213L26.1482 55.1075L25.9873 54.8041C25.6469 54.9096 25.2935 54.9465 24.9426 54.9175C24.2439 54.8624 23.5711 54.5405 23.0858 53.9654ZM25.0248 53.992C25.4892 54.0286 25.9639 53.8864 26.3463 53.5645C26.7314 53.2401 26.9505 52.7969 26.9901 52.3352C27.0297 51.8738 26.8951 51.3989 26.5759 51.0189C26.2567 50.6419 25.8083 50.428 25.3494 50.3938C24.888 50.3542 24.413 50.494 24.0279 50.8186C23.6454 51.1405 23.4291 51.5888 23.387 52.0478C23.3474 52.5068 23.482 52.9817 23.8012 53.3615C24.1251 53.7412 24.5683 53.9548 25.0248 53.992ZM38.6731 73.0982L38.4278 72.7709L38.1876 72.4411L37.9477 72.114L37.705 71.787L37.4702 71.4572L37.2328 71.1275L36.9953 70.8031L36.7657 70.4733L36.5336 70.1436L36.2961 69.8111C36.101 69.5315 35.6816 69.5552 35.5074 69.848C35.4178 70.0063 35.423 70.2017 35.5258 70.3491L35.7685 70.6894L36.0033 71.0165L36.238 71.3489L36.4728 71.6787L36.713 72.0085L36.9478 72.3358L37.1904 72.6655L37.4306 72.9978L37.676 73.3275L37.9213 73.6573L38.2614 74.1192C38.4753 74.4012 38.9077 74.351 39.058 74.0321C39.1346 73.8766 39.1161 73.6945 39.0159 73.5574L38.6731 73.0982ZM33.4185 65.5721L33.2076 65.2424L32.994 64.9205L32.7856 64.5961L32.5772 64.2691L32.3714 63.9447L32.1657 63.6204L31.9572 63.2958L31.7594 62.9714L31.5564 62.6471L31.3585 62.3252L31.2081 62.0798C31.1316 61.9612 31.0076 61.882 30.8626 61.8635C30.4775 61.8187 30.2058 62.2435 30.4064 62.5732L30.5594 62.8186L30.76 63.1457L30.963 63.4727L31.1688 63.7971L31.3718 64.1241L31.5802 64.4512L31.7911 64.7782L31.9969 65.1026L32.2078 65.4324L32.4214 65.7594L32.635 66.0865L32.9094 66.5009C33.1045 66.7962 33.5399 66.7699 33.7087 66.4613C33.7906 66.3057 33.7825 66.1315 33.6902 65.9838L33.4185 65.5721ZM21.0442 41.1372L20.9468 40.8498L20.8491 40.5702L20.7592 40.288L20.6642 40.0084L20.5798 39.7288L20.4903 39.4493L20.4004 39.1697L20.316 38.8929L20.2343 38.616L20.1499 38.3392L20.068 38.0648L19.9887 37.7906L19.9149 37.5189L19.8359 37.2472L19.7461 36.9199C19.7146 36.8013 19.6405 36.7009 19.5376 36.6404C19.1788 36.4268 18.7383 36.759 18.8439 37.1653L18.9362 37.5056L19.0152 37.78L19.0917 38.0517L19.1709 38.334L19.2554 38.6136L19.3371 38.8931L19.4215 39.17L19.5113 39.4549L19.5984 39.7372L19.6855 40.0168L19.7805 40.3042L19.8728 40.5892L19.9651 40.8739L20.0625 41.1616L20.1575 41.4436L20.2235 41.6361C20.2658 41.7416 20.3264 41.8236 20.4241 41.8814C20.7959 42.1056 21.2497 41.7389 21.1099 41.3275L21.0442 41.1372ZM18.7071 32.2764L18.6647 32.031L18.6226 31.7805L18.5806 31.5324L18.5409 31.2871L18.5067 31.039L18.4725 30.7964L18.4381 30.551L18.4066 30.3084L18.3802 30.0682L18.3512 29.828L18.3249 29.5878L18.3013 29.3506L18.2774 29.1158L18.2565 28.8786L18.2353 28.6465L18.2168 28.4144L18.2011 28.1848L18.1853 27.9552L18.1826 27.8551C18.1748 27.7416 18.13 27.6415 18.0534 27.5595C17.75 27.2534 17.2251 27.483 17.249 27.9129L17.2541 28.0209L17.2699 28.253L17.2856 28.4932L17.3065 28.7334L17.3223 28.9736L17.3462 29.2138L17.37 29.4537L17.3937 29.6963L17.42 29.9444L17.4517 30.1846L17.4781 30.4378L17.5096 30.6832L17.5465 30.931L17.5861 31.1818L17.6203 31.4325L17.6599 31.6831L17.6968 31.939L17.7416 32.1949L17.7837 32.4482L17.8128 32.5907C17.8337 32.7226 17.9102 32.8333 18.0237 32.9071C18.3692 33.1104 18.7991 32.8148 18.7331 32.4191L18.7071 32.2764ZM18.3217 23.0545L18.348 22.8567L18.3798 22.664L18.4088 22.4688L18.4378 22.2815L18.4723 22.0888L18.5092 21.9016L18.5434 21.7143L18.5857 21.5322L18.6254 21.3476L18.6674 21.1657L18.7125 20.9863L18.7597 20.8097L18.8048 20.6303L18.8523 20.4536L18.9049 20.2823L18.9576 20.1107L19.013 19.9395L19.071 19.7731L19.1264 19.6018L19.1872 19.4382L19.248 19.2748L19.3085 19.1084L19.372 18.9502L19.401 18.8948C19.4458 18.7841 19.4512 18.6652 19.4116 18.5544C19.2691 18.1536 18.7127 18.1457 18.5409 18.5333L18.5119 18.6047L18.4405 18.7759L18.3746 18.9475L18.3084 19.1217L18.2451 19.2984L18.1819 19.4751L18.1211 19.6569L18.0684 19.8391L18.0077 20.0236L17.955 20.2082L17.9048 20.393L17.8546 20.5803L17.8071 20.7676L17.7569 20.9576L17.7173 21.1527L17.6698 21.3452L17.6329 21.5378L17.5935 21.733L17.5566 21.9309L17.5197 22.1312L17.4855 22.3315L17.451 22.5348L17.422 22.7353L17.3983 22.9438L17.3693 23.1786C17.3508 23.3183 17.3983 23.4554 17.4958 23.5556C17.7702 23.8354 18.2449 23.669 18.2924 23.2839L18.3217 23.0545ZM21.9068 15.1539L22.0229 15.0432L22.1415 14.9351L22.2602 14.8296L22.3842 14.724L22.5055 14.6211L22.6293 14.5237L22.756 14.4208L22.8852 14.3258L23.0144 14.2335L23.1463 14.144L23.2755 14.0517L23.4126 13.9646L23.5445 13.8774L23.6816 13.7903L23.8214 13.7138L23.9612 13.6318L24.1037 13.5553L24.2434 13.4788L24.3859 13.4101L24.5309 13.3336L24.6785 13.2649L24.8264 13.1963L24.9795 13.133L25.1299 13.0695L25.2829 13.009L25.436 12.9482L25.5891 12.8904L25.671 12.8613C25.7842 12.8244 25.874 12.7506 25.9321 12.645C26.1352 12.2704 25.7818 11.843 25.3755 11.983L25.2832 12.0148L25.1141 12.078L24.948 12.1388L24.7816 12.2074L24.6182 12.2759L24.4573 12.3445L24.2939 12.4235L24.1329 12.4973L23.9774 12.5712L23.8219 12.6558L23.6661 12.7348L23.5106 12.8192L23.3575 12.9064L23.2071 12.9986L23.0568 13.0882L22.9089 13.1805L22.7639 13.2782L22.619 13.3757L22.4738 13.4734L22.334 13.5841L22.1942 13.687L22.0544 13.795L21.9198 13.9057L21.7852 14.0138L21.6508 14.1324L21.5189 14.249L21.3924 14.3652L21.2632 14.4865L21.2342 14.5129C21.1604 14.5842 21.1102 14.6765 21.0996 14.7794C21.0258 15.2172 21.5507 15.4864 21.8777 15.183L21.9068 15.1539ZM30.2978 12.1046L30.4876 12.1019L30.6827 12.1046L30.8806 12.1073L31.0757 12.11L31.2736 12.1206L31.4742 12.1284L31.672 12.1363L31.8753 12.1496L32.0756 12.1654L32.2786 12.1811L32.4817 12.1996L32.6874 12.2207L32.8958 12.2419L33.1016 12.2682L33.31 12.2919L33.5236 12.3182L33.7372 12.3472L33.9481 12.3814L34.159 12.4156L34.3754 12.4501L34.5917 12.487L34.6655 12.5028C34.8026 12.5266 34.9293 12.4949 35.0401 12.4078C35.3565 12.1599 35.2352 11.6587 34.8422 11.5848L34.7632 11.5718L34.539 11.5322L34.3175 11.4953L34.0985 11.4586L33.877 11.4295L33.658 11.3978L33.439 11.3663L33.2227 11.34L33.009 11.3161L32.7927 11.2922L32.5791 11.2711L32.3628 11.2501L32.1544 11.2344L31.9435 11.2211L31.735 11.2078L31.5266 11.1999L31.3181 11.1866L31.1124 11.1788L30.904 11.1736L30.7007 11.1709L30.5004 11.1736H30.2946L30.1125 11.1815C29.7724 11.1815 29.5507 11.527 29.6878 11.8383C29.767 12.0047 29.9277 12.11 30.115 12.11L30.2978 12.1046ZM39.3487 13.7135L39.5913 13.7955L39.8261 13.8772L40.0663 13.9562L40.3062 14.0406L40.5437 14.125L40.7891 14.2173L41.0265 14.3044L41.2719 14.3967L41.5145 14.4917L41.7599 14.5867L42.0053 14.6817L42.2506 14.7818L42.4987 14.882L42.7465 14.9849L42.9943 15.0904L43.2451 15.196L43.4269 15.2725C43.5325 15.32 43.6538 15.3227 43.7646 15.2858C44.1657 15.1355 44.1893 14.5869 43.8015 14.4152L43.6221 14.3413L43.3661 14.2306L43.1129 14.125L42.8624 14.0221L42.6119 13.9193L42.3586 13.8164L42.1106 13.719L41.8598 13.6213L41.612 13.5263L41.3666 13.434L41.1186 13.339L40.8705 13.2494L40.6227 13.1623L40.38 13.0779L40.1374 12.9908L39.892 12.9091L39.6546 12.8298L39.4144 12.7533C39.1533 12.6637 38.871 12.8246 38.8105 13.0936C38.7603 13.3311 38.887 13.5632 39.1164 13.6397L39.3487 13.7135ZM47.8559 17.4067L48.117 17.5437L48.3783 17.6862L48.6422 17.8287L48.9087 17.9737L49.1725 18.1216L49.439 18.2695L49.7028 18.4144L49.972 18.5675L50.2383 18.723L50.5048 18.8734L50.7738 19.0343L51.0403 19.1899L51.3147 19.3508L51.61 19.5275C51.8923 19.699 52.2615 19.5327 52.3198 19.2056C52.3488 19.0159 52.2669 18.8313 52.1035 18.7309L51.7949 18.5488L51.5232 18.3878L51.2515 18.2269L50.9825 18.0687L50.7108 17.9131L50.4391 17.7574L50.1702 17.6045L49.9036 17.4542L49.6347 17.3038L49.363 17.1561L49.0964 17.0082L48.8299 16.8685L48.5661 16.7235L48.3025 16.581L48.0254 16.4385C47.7168 16.2776 47.3447 16.5018 47.3369 16.85C47.3396 17.0267 47.4346 17.1849 47.5876 17.2669L47.8559 17.4067ZM55.6772 22.1231L55.9541 22.3103L56.2312 22.4976L56.5108 22.6901L56.7879 22.88L57.0647 23.07L57.3445 23.2679L57.6241 23.4657L57.8985 23.6636L58.178 23.8615L58.4603 24.0647L58.7399 24.2678L59.0221 24.4735L59.2963 24.6738C59.3913 24.7452 59.5099 24.7767 59.6312 24.7582C60.0454 24.7029 60.1879 24.1701 59.8527 23.9193L59.5759 23.719L59.2936 23.5132L59.0116 23.3075L58.7318 23.1042L58.4497 22.9039L58.1648 22.7036L57.8879 22.5057L57.6056 22.3052L57.3236 22.1125L57.0438 21.92L56.7642 21.7276L56.4844 21.5403L56.2076 21.3503L56.0412 21.2369C55.9226 21.1579 55.7801 21.1367 55.643 21.1788C55.2658 21.2949 55.1892 21.7881 55.5111 22.0096L55.6772 22.1231ZM63.2508 27.7128L63.5355 27.9476L63.8205 28.1772L64.1025 28.4093L64.3875 28.6413L64.6722 28.8761L64.9599 29.1082L65.2395 29.3484L65.5269 29.5831L65.8092 29.8258L66.0966 30.066L66.5319 30.4381C66.7933 30.6596 67.1939 30.5355 67.2862 30.2006C67.3337 30.0315 67.2759 29.8445 67.144 29.731L66.7062 29.3565L66.4158 29.1111L66.1311 28.8712L65.8434 28.6285L65.5586 28.3911L65.2739 28.1509L64.9835 27.9161L64.6988 27.684L64.4086 27.4493L64.1237 27.2197L63.8439 26.9876L63.5513 26.7582C63.4457 26.6711 63.3059 26.6421 63.174 26.6659C62.781 26.7452 62.6569 27.2435 62.9628 27.4916L63.2508 27.7128ZM70.3757 33.8566L70.6631 34.1231L70.9481 34.3894L71.2301 34.6559L71.5151 34.9224L71.7998 35.1914L72.0875 35.4606L72.3722 35.7323L72.6599 36.0094L72.9419 36.2835L73.3561 36.6847C73.4457 36.7718 73.5592 36.819 73.6832 36.819C74.0976 36.8139 74.3112 36.3072 74.0157 36.0146L73.5963 35.6107L73.3062 35.3366L73.0239 35.0595L72.7338 34.7853L72.4488 34.5109L72.1613 34.2419L71.8766 33.973L71.5889 33.704L71.3015 33.4375L71.0138 33.1709L70.6314 32.82C70.3727 32.5828 69.9561 32.7066 69.8611 33.0442C69.8136 33.2106 69.8663 33.3897 69.9928 33.5059L70.3757 33.8566ZM76.92 40.2693L77.2023 40.5621L77.4843 40.8574L77.7641 41.1557L78.0489 41.4537L78.3287 41.7544L78.6134 42.0552L78.8932 42.3559L79.1753 42.6591L79.4524 42.9625L79.7979 43.3344C80.0194 43.5797 80.4151 43.5165 80.5627 43.2236C80.6471 43.0496 80.6154 42.8439 80.4914 42.7041L80.1458 42.3296L79.8584 42.021L79.5786 41.7151L79.2966 41.4141L79.0146 41.1109L78.7296 40.8102L78.4476 40.5122L78.1653 40.2114L77.8806 39.9161L77.5956 39.6181L77.303 39.312C77.0603 39.0666 76.6461 39.1616 76.5221 39.4835C76.4665 39.6523 76.5009 39.8342 76.625 39.9634L76.92 40.2693ZM83.0771 47.0302L83.3542 47.3521L83.6283 47.6764L83.9027 47.9983L84.1796 48.3254L84.4488 48.6497L84.7284 48.9768L85 49.3014L85.269 49.6285L85.5407 49.9528L85.8545 50.3352C85.9231 50.4251 86.0181 50.4777 86.1316 50.4989C86.5588 50.57 86.8462 50.0768 86.5775 49.7471L86.2635 49.3592L85.9918 49.0295L85.7174 48.7024L85.4457 48.3726L85.1713 48.0456L84.8945 47.7212L84.6174 47.3915L84.3432 47.0671L84.0634 46.7428L83.7866 46.4182L83.5862 46.1834C83.4888 46.0805 83.3648 46.0224 83.2247 46.0224C82.8315 46.0252 82.6127 46.4947 82.8711 46.7927L83.0771 47.0302ZM88.9279 54.208L89.1787 54.5351L89.4292 54.8676L89.68 55.1919L89.9281 55.5217L90.1705 55.846L90.4185 56.1758L90.6639 56.5056L90.9041 56.8299L91.1494 57.1597L91.3842 57.487L91.5134 57.6612C91.7059 57.9277 92.0989 57.9117 92.281 57.6427C92.389 57.4766 92.3866 57.2682 92.2704 57.1127L92.1437 56.9306L91.9035 56.6035L91.6608 56.2737L91.4103 55.944L91.1701 55.6142L90.9248 55.2844L90.6715 54.9547L90.4235 54.6249L90.1754 54.2951L89.9224 53.9627L89.6692 53.6356L89.4767 53.3903C89.4056 53.2901 89.2922 53.2293 89.1681 53.2108C88.7564 53.1606 88.485 53.6302 88.738 53.96L88.9279 54.208ZM94.3912 61.7444L94.6154 62.0715L94.8344 62.396L95.0535 62.7231L95.2698 63.0502L95.4888 63.3797L95.7024 63.7043L95.9187 64.0313L96.1296 64.3532L96.3405 64.6803L96.5492 65.0074L96.7365 65.3002C96.9211 65.5849 97.3353 65.5876 97.5225 65.3027C97.6227 65.1444 97.6281 64.9547 97.5304 64.7937L97.335 64.493L97.1266 64.1711L96.9157 63.8414L96.6993 63.5116L96.4857 63.187L96.2694 62.8572L96.0504 62.5302L95.8314 62.2004L95.6123 61.8761L95.3882 61.5463L95.1613 61.2165L94.9582 60.9133C94.8079 60.6919 94.502 60.6468 94.2857 60.8078C94.0905 60.9606 94.0455 61.2377 94.1855 61.4407L94.3912 61.7444ZM99.3397 69.5318L99.5272 69.851L99.7145 70.1753L99.9045 70.4945L100.086 70.8137L100.268 71.1329L100.45 71.4548L100.632 71.7712L100.812 72.0904L100.989 72.4099L101.168 72.7263L101.342 73.0428L101.461 73.2591C101.55 73.4282 101.727 73.5151 101.919 73.4966C102.252 73.4597 102.437 73.1009 102.281 72.8053L102.162 72.5863L101.983 72.2725L101.809 71.9506L101.627 71.6288L101.447 71.3066L101.266 70.9874L101.081 70.6655L100.902 70.3436L100.712 70.0218L100.525 69.6974L100.337 69.3755L100.147 69.0512L99.9734 68.7608C99.8759 68.5974 99.6963 68.5127 99.509 68.5368C99.1765 68.5895 99.0025 68.9535 99.1686 69.2409L99.3397 69.5318ZM103.787 77.7434L103.94 78.052L104.088 78.3634L104.238 78.672L104.386 78.9781L104.534 79.284L104.674 79.5926L104.819 79.896L104.956 80.2019L105.099 80.5078L105.236 80.811L105.37 81.1144L105.563 81.5471C105.7 81.8478 106.088 81.9165 106.325 81.679C106.46 81.5417 106.497 81.3413 106.42 81.1644L106.36 81.0325L106.228 80.7293L106.088 80.4207L105.948 80.1148L105.806 79.8089L105.664 79.5001L105.521 79.1888L105.379 78.8829L105.228 78.5688L105.081 78.2602L104.933 77.9489L104.783 77.6376L104.629 77.3263L104.437 76.9412C104.376 76.825 104.281 76.7433 104.155 76.7037C103.764 76.5929 103.422 76.9963 103.598 77.3657L103.787 77.7434ZM107.459 86.1663L107.567 86.4539L107.678 86.7465L107.786 87.0315L107.886 87.3217L107.992 87.6066L108.089 87.8941L108.195 88.1815L108.29 88.4665L108.388 88.7485L108.482 89.0308L108.572 89.3128L108.667 89.5926L108.757 89.8722L108.852 90.1808C108.955 90.5029 109.356 90.6082 109.609 90.384C109.746 90.26 109.799 90.0703 109.746 89.896L109.646 89.5823L109.556 89.3L109.464 89.0126L109.369 88.7305L109.274 88.4456L109.174 88.1554L109.073 87.8677L108.976 87.5776L108.873 87.2875L108.768 86.9998L108.662 86.7096L108.554 86.4141L108.448 86.1239L108.335 85.8257L108.206 85.4804C108.156 85.3512 108.047 85.2483 107.913 85.2087C107.544 85.0847 107.19 85.4541 107.333 85.8183L107.459 86.1663ZM110.105 94.7554L110.166 95.019L110.224 95.2803L110.282 95.536L110.334 95.7947L110.387 96.0533L110.44 96.3092L110.49 96.5649L110.537 96.8182L110.585 97.0689L110.63 97.3222L110.675 97.5727L110.712 97.8235L110.754 98.0688L110.793 98.3169L110.828 98.562L110.859 98.8101L110.894 99.0527L110.91 99.1583C110.952 99.4826 111.305 99.6596 111.593 99.5038C111.767 99.4088 111.862 99.2267 111.835 99.0315L111.822 98.9181L111.785 98.6676L111.751 98.4222L111.716 98.1663L111.674 97.9155L111.635 97.6625L111.59 97.4093L111.547 97.1534L111.5 96.8974L111.458 96.639L111.408 96.3804L111.355 96.119L111.302 95.8579L111.249 95.5966L111.194 95.3352L111.136 95.0662L111.078 94.8049L111.015 94.5357L110.986 94.4116C110.946 94.2534 110.843 94.1348 110.693 94.0794C110.342 93.9581 109.997 94.2691 110.076 94.6279L110.105 94.7554ZM111.202 103.869L111.197 104.08L111.192 104.294L111.182 104.507L111.171 104.718L111.163 104.924L111.15 105.138L111.134 105.341L111.121 105.547L111.102 105.75L111.081 105.95L111.058 106.148L111.037 106.348L111.01 106.549L110.984 106.741L110.958 106.934L110.931 107.132L110.895 107.321L110.86 107.509L110.828 107.696L110.789 107.884L110.752 108.068L110.707 108.263C110.678 108.395 110.699 108.53 110.778 108.638C111.01 108.968 111.52 108.865 111.617 108.474L111.665 108.258L111.704 108.06L111.744 107.862L111.778 107.664L111.815 107.469L111.849 107.269L111.881 107.066L111.91 106.86L111.939 106.659L111.963 106.454L111.986 106.245L112.01 106.037L112.031 105.826L112.05 105.615L112.068 105.401L112.081 105.188L112.095 104.969L112.108 104.758L112.116 104.536L112.124 104.317L112.129 104.096L112.137 103.874V103.742C112.137 103.613 112.089 103.497 112.002 103.407C111.712 103.12 111.208 103.326 111.2 103.737L111.202 103.869ZM108.96 112.585L108.863 112.722L108.776 112.857L108.683 112.986L108.588 113.12L108.493 113.25L108.396 113.376L108.296 113.503L108.187 113.63L108.09 113.748L107.984 113.87L107.876 113.991L107.766 114.104L107.658 114.223L107.541 114.334L107.428 114.444L107.315 114.558L107.193 114.666L107.072 114.771L106.953 114.874L106.827 114.98L106.705 115.078L106.579 115.175L106.45 115.27L106.32 115.367L106.186 115.462L106.057 115.55L105.935 115.629C105.846 115.684 105.78 115.774 105.746 115.877C105.606 116.296 106.065 116.647 106.439 116.412L106.568 116.32L106.716 116.225L106.861 116.122L107.004 116.019L107.143 115.916L107.278 115.808L107.418 115.7L107.552 115.584L107.687 115.468L107.816 115.354L107.948 115.236L108.072 115.117L108.199 114.993L108.323 114.872L108.444 114.74L108.563 114.616L108.679 114.484L108.797 114.352L108.908 114.218L109.019 114.083L109.13 113.946L109.235 113.809L109.343 113.664L109.443 113.524L109.541 113.376L109.644 113.228L109.741 113.083L109.828 112.943C109.897 112.841 109.921 112.714 109.894 112.59C109.807 112.189 109.272 112.096 109.045 112.445L108.96 112.585ZM101.598 117.267L101.424 117.299L101.25 117.325L101.07 117.351L100.891 117.373L100.714 117.394L100.53 117.412L100.35 117.43L100.166 117.446L99.9813 117.462L99.7937 117.47L99.6065 117.48L99.4192 117.486L99.2265 117.491L99.034 117.493L98.8443 117.499L98.6546 117.496L98.454 117.493L98.2561 117.488L98.0637 117.483L97.8607 117.472L97.6628 117.462L97.4622 117.448L97.238 117.435C97.1273 117.425 97.0111 117.456 96.9216 117.522C96.5733 117.781 96.7212 118.33 97.1485 118.364L97.3938 118.38L97.5996 118.393L97.8053 118.406L98.0162 118.414L98.2219 118.419L98.4279 118.427L98.6336 118.43H98.8394L99.0397 118.427L99.2403 118.422L99.4406 118.417L99.6384 118.412L99.8388 118.401L100.031 118.391L100.229 118.377L100.424 118.359L100.614 118.343L100.807 118.322L100.999 118.301L101.187 118.272L101.374 118.248L101.561 118.219L101.749 118.187L101.923 118.156C102.318 118.082 102.453 117.591 102.147 117.338C102.044 117.248 101.907 117.214 101.773 117.238L101.598 117.267ZM92.5313 116.634L92.3044 116.573L92.0775 116.516L91.8481 116.452L91.6185 116.386L91.3837 116.32L91.1541 116.251L90.9221 116.186L90.69 116.114L90.4552 116.04L90.2204 115.964L89.9802 115.887L89.7457 115.808L89.5082 115.729L89.2708 115.645L89.0306 115.563L88.7879 115.473L88.5453 115.386L88.329 115.304C88.2155 115.265 88.0969 115.265 87.9834 115.312C87.5958 115.481 87.601 116.027 87.9913 116.177L88.2182 116.262L88.4609 116.351L88.7089 116.436L88.954 116.526L89.1967 116.61L89.442 116.689L89.6822 116.771L89.9249 116.85L90.1624 116.929L90.4023 117.005L90.6427 117.079L90.88 117.146L91.1174 117.217L91.3549 117.285L91.5897 117.351L91.8245 117.414L92.0565 117.478L92.2938 117.539L92.4838 117.581C92.8214 117.665 93.1273 117.37 93.0589 117.03C93.022 116.858 92.8925 116.729 92.7212 116.679L92.5313 116.634ZM83.8104 113.371L83.552 113.247L83.2988 113.123L83.0404 112.996L82.7791 112.862L82.5204 112.735L82.262 112.603L82.0007 112.466L81.7368 112.331L81.4755 112.194L81.2144 112.054L80.953 111.912L80.6917 111.775L80.4281 111.627L80.1589 111.479L79.9822 111.382C79.6972 111.223 79.3463 111.395 79.2909 111.714C79.2565 111.912 79.349 112.102 79.5178 112.194L79.7024 112.297L79.9689 112.445L80.2354 112.59L80.5017 112.738L80.7709 112.88L81.0347 113.018L81.2983 113.16L81.5621 113.295L81.8257 113.432L82.0895 113.569L82.3533 113.701L82.6169 113.83L82.8807 113.962L83.1391 114.086L83.4004 114.21L83.6748 114.342C83.7934 114.4 83.9256 114.403 84.0467 114.358C84.4294 114.21 84.453 113.677 84.0863 113.503L83.8104 113.371ZM75.8572 108.918L75.5801 108.741L75.3059 108.57L75.0315 108.391L74.7574 108.211L74.483 108.032L74.2086 107.844L73.9317 107.663L73.6573 107.478L73.3778 107.29L73.1007 107.103L72.8265 106.913L72.5494 106.721L72.1618 106.454C72.0644 106.383 71.9403 106.357 71.8163 106.38C71.4103 106.452 71.2835 106.979 71.6212 107.217L72.0088 107.488L72.2886 107.681L72.5706 107.876L72.8477 108.063L73.1297 108.251L73.4095 108.441L73.6837 108.625L73.9635 108.81L74.243 108.989L74.5174 109.169L74.7943 109.351L75.0741 109.528L75.3483 109.702L75.5092 109.807C75.6411 109.892 75.8045 109.902 75.9524 109.837C76.29 109.681 76.327 109.214 76.0129 109.019L75.8572 108.918ZM68.0649 103.439L67.7799 103.223L67.5003 103.002L67.2153 102.785L66.9333 102.561L66.6511 102.337L66.369 102.113L66.0838 101.883L65.8015 101.656L65.5168 101.424L65.2291 101.194L64.8071 100.849C64.5484 100.635 64.1662 100.754 64.0634 101.073C64.0078 101.255 64.0604 101.445 64.211 101.566L64.6358 101.917L64.9235 102.152L65.2082 102.384L65.4959 102.614L65.7806 102.841L66.0653 103.067L66.353 103.297L66.6353 103.519L66.92 103.74L67.2075 103.964L67.4897 104.181L67.8618 104.466C67.9566 104.542 68.07 104.568 68.1916 104.558C68.6109 104.51 68.7665 103.983 68.4315 103.724L68.0649 103.439ZM60.9582 97.5513L60.668 97.2956L60.3909 97.0396L60.1008 96.7837L59.8158 96.5253L59.5308 96.2667L59.2434 96.0053L58.9584 95.739L58.6737 95.4777L58.386 95.2141L58.1013 94.9449L57.8665 94.7259C57.6819 94.5516 57.3942 94.5568 57.2151 94.7443C57.0305 94.9262 57.033 95.2321 57.2257 95.4063L57.4604 95.6305L57.7454 95.8968L58.0328 96.1633L58.323 96.4298L58.6077 96.6961L58.8927 96.9575L59.1828 97.2159L59.4703 97.4772L59.7577 97.7386L60.0452 97.9942L60.3301 98.2502L60.6651 98.543C60.9183 98.767 61.3192 98.6538 61.422 98.3267C61.475 98.1498 61.4221 97.9679 61.2874 97.8439L60.9582 97.5513ZM54.1155 91.0756L53.8333 90.7852L53.5458 90.4977L53.266 90.2101L52.9813 89.9174L52.6963 89.6273L52.4116 89.3317L52.1345 89.0391L51.8524 88.7465L51.5675 88.4483L51.3197 88.1847C51.2192 88.0767 51.077 88.0289 50.9291 88.0422C50.5494 88.0895 50.3751 88.546 50.6365 88.8258L50.8897 89.092L51.172 89.3903L51.4543 89.6856L51.7392 89.9809L52.0267 90.2765L52.309 90.5691L52.5937 90.8647L52.8814 91.1548L53.1634 91.445L53.4484 91.7326L53.8837 92.1653C53.9681 92.2497 54.0867 92.2996 54.2081 92.2996C54.6222 92.3026 54.8385 91.8013 54.5457 91.5033L54.1155 91.0756Z" fill="#EFDFA5"/>
<path d="M78.6481 87.2822C78.7483 87.216 78.8142 87.1213 78.846 87.0184C78.9489 87.0396 79.065 87.0211 79.1652 86.9549L79.3709 86.8257L79.7324 86.5988L80.0912 86.3695L80.4473 86.1399L80.8059 85.9103L81.1647 85.6806L81.5208 85.4486L81.8717 85.219L82.2278 84.9921L82.5785 84.7546L83.0719 84.4275C83.2934 84.2796 83.3436 83.9764 83.1854 83.7628C83.0352 83.5625 82.7581 83.5096 82.5549 83.6467L82.0642 83.9737L81.7108 84.2058L81.3623 84.4379L81.0089 84.6648L80.6528 84.8917L80.2992 85.1213L79.9431 85.3482L79.5894 85.5802L79.2333 85.8071L78.8721 86.0313L78.6663 86.1603C78.5714 86.2211 78.5 86.3134 78.4709 86.4162C78.3605 86.4007 78.247 86.4214 78.1518 86.4824L77.7903 86.7093L77.4238 86.9308L77.0677 87.1523L76.7037 87.3765L76.3398 87.5955L75.9783 87.8118L75.6168 88.0254L75.2552 88.2444L74.8967 88.4581L74.5327 88.6717L74.1872 88.8747C74.0235 88.9672 73.9364 89.1545 73.963 89.3364C74.0078 89.6688 74.3745 89.8507 74.6619 89.6846L75.0074 89.4789L75.3714 89.2625L75.7354 89.0489L76.0969 88.8326L76.4636 88.6133L76.8275 88.3946L77.189 88.1731L77.5557 87.9538L77.9197 87.7299L78.2837 87.5054L78.6481 87.2822ZM107.557 67.2918C106.919 67.6875 106.177 67.7879 105.494 67.6267C105.154 67.545 104.829 67.3998 104.536 67.1941L104.291 67.4316L104.035 67.6823L103.777 67.9331L103.518 68.1836L103.257 68.4317L102.993 68.6825L102.727 68.9332L102.46 69.1813L102.194 69.4318L101.927 69.685L101.658 69.9331L101.429 70.1388C101.16 70.3842 100.732 70.239 100.656 69.8777C100.627 69.722 100.677 69.5556 100.796 69.4476L101.022 69.2391L101.289 68.9911L101.56 68.7403L101.822 68.4979L102.088 68.2498L102.349 68.0018L102.611 67.751L102.869 67.5005L103.131 67.2551L103.386 67.0071L103.64 66.759L103.874 66.5272C103.843 66.4848 103.817 66.4401 103.79 66.398C103.386 65.7515 103.281 65.0024 103.436 64.3192C103.592 63.6361 104.009 63.0134 104.647 62.6177C105.286 62.2193 106.027 62.1191 106.71 62.2828C107.029 62.3593 107.335 62.4937 107.612 62.6785L107.736 62.5493L107.963 62.3013L108.187 62.0559L108.409 61.8081L108.63 61.5627L108.849 61.3174L109.068 61.072L109.285 60.8242L109.501 60.5788L109.715 60.3335L109.926 60.0854L110.134 59.8428L110.343 59.6001L110.44 59.484C110.535 59.3732 110.667 59.3152 110.809 59.3179C111.205 59.3417 111.405 59.7928 111.155 60.0908L111.055 60.207L110.844 60.4578L110.633 60.7004L110.419 60.9509L110.203 61.1963L109.986 61.4471L109.767 61.6951L109.546 61.9429L109.324 62.1935L109.103 62.4415L108.876 62.6896L108.649 62.9401L108.42 63.1879L108.29 63.3304C108.335 63.3885 108.377 63.4517 108.417 63.5177C108.818 64.1588 108.924 64.9054 108.768 65.5886C108.612 66.2739 108.195 66.8963 107.557 67.2918ZM105.7 66.7196C106.148 66.8225 106.639 66.759 107.061 66.4954C107.483 66.2341 107.755 65.8228 107.86 65.3769C107.96 64.9231 107.895 64.4324 107.628 64.0052C107.364 63.5804 106.953 63.3033 106.502 63.1953C106.053 63.0873 105.563 63.1505 105.141 63.4143C104.721 63.6782 104.447 64.0869 104.344 64.538C104.241 64.9891 104.313 65.4771 104.576 65.907C104.842 66.3291 105.249 66.6116 105.7 66.7196ZM86.3693 81.0275C86.232 81.1252 86.1555 81.2967 86.1793 81.4683C86.2268 81.8162 86.6253 81.9959 86.9127 81.7953L87.3795 81.4604L87.712 81.2202L88.047 80.9827L88.3794 80.7425L88.7119 80.5051L89.0389 80.2624L89.366 80.0222L89.6904 79.7823L90.0174 79.5396L90.3418 79.297L90.6742 79.0489C90.8167 78.9409 90.8851 78.7588 90.8455 78.5769C90.7717 78.2471 90.3789 78.0968 90.107 78.2998L89.7799 78.5452L89.458 78.7878L89.1362 79.0277L88.8118 79.2652L88.4847 79.5054L88.1601 79.7456L87.8304 79.9831L87.5006 80.2206L87.1708 80.4605L86.8359 80.6955L86.3693 81.0275ZM93.7662 75.4616C93.634 75.5726 93.5735 75.7387 93.6025 75.91C93.6685 76.2582 94.0772 76.4167 94.3516 76.195L94.7395 75.8864L95.0426 75.6383L95.3458 75.3929L95.6468 75.1449L95.9475 74.8995L96.2456 74.6544L96.5438 74.4064L96.8418 74.1556L97.1372 73.9102L97.43 73.6622L97.7202 73.4143L97.9416 73.2271C98.2345 72.9763 98.1053 72.4883 97.7253 72.4093C97.5828 72.383 97.4406 72.4226 97.3323 72.5122L97.1108 72.6994L96.8231 72.9421L96.5305 73.1902L96.2402 73.4353L95.9448 73.6806L95.6493 73.9287L95.3513 74.1713L95.0532 74.4194L94.7552 74.6618L94.4542 74.9072L94.1511 75.1525L93.7662 75.4616ZM113.326 55.8753C113.068 56.2235 113.384 56.7112 113.809 56.6138C113.917 56.5902 114.004 56.5294 114.075 56.4425L114.194 56.2788L114.376 56.0362L114.555 55.796L114.732 55.5534L114.909 55.3107L115.083 55.0681L115.254 54.8254L115.426 54.5855L115.597 54.3428L115.761 54.1029L115.927 53.8627L116.093 53.6225L116.254 53.3799L116.412 53.1451L116.571 52.9079L116.763 52.6123C116.987 52.2614 116.671 51.8076 116.265 51.9001C116.149 51.9264 116.048 51.9976 115.98 52.1031L115.793 52.3827L115.637 52.6202L115.479 52.8549L115.323 53.0924L115.159 53.3297L114.993 53.5671L114.832 53.8019L114.666 54.0419L114.497 54.2793L114.323 54.5168L114.154 54.757L113.98 54.9945L113.806 55.2317L113.629 55.4719L113.447 55.7146L113.326 55.8753ZM118.33 48.1329C118.143 48.489 118.462 48.9005 118.855 48.8109C118.984 48.7794 119.093 48.6947 119.156 48.5761L119.224 48.4521L119.343 48.22L119.464 47.9931L119.578 47.761L119.691 47.5369L119.802 47.3048L119.918 47.0833L120.026 46.8539L120.134 46.6322L120.237 46.4002L120.34 46.1811L120.443 45.9542L120.543 45.73L120.635 45.5086L120.733 45.2871L120.822 45.0629L120.917 44.8414L121.005 44.6199L121.092 44.4036L121.128 44.3034C121.284 43.8998 120.854 43.5174 120.474 43.718C120.374 43.7706 120.303 43.855 120.258 43.9606L120.223 44.0529L120.139 44.2638L120.055 44.4828L119.962 44.6992L119.873 44.9128L119.78 45.1318L119.685 45.3481L119.59 45.5671L119.493 45.7861L119.39 46.0025L119.29 46.2239L119.184 46.4454L119.076 46.6696L118.968 46.8911L118.862 47.1126L118.746 47.3341L118.63 47.561L118.514 47.7825L118.398 48.0067L118.33 48.1329ZM121.562 39.573C121.488 39.9582 121.889 40.2616 122.234 40.0795C122.361 40.0135 122.445 39.9001 122.472 39.7603L122.517 39.5255L122.556 39.3225L122.593 39.1222L122.622 38.9164L122.651 38.7159L122.677 38.5153L122.703 38.315L122.725 38.1198L122.748 37.922L122.767 37.7241L122.785 37.529L122.798 37.3311L122.809 37.136L122.822 36.9433L122.827 36.7506L122.835 36.5608V36.3657L122.838 36.1784V35.9887L122.833 35.7989L122.825 35.6114L122.817 35.4241L122.806 35.2396L122.793 35.0574L122.785 34.9809C122.746 34.5561 122.213 34.3952 121.954 34.7301C121.881 34.8251 121.849 34.9386 121.859 35.0599L121.867 35.1207L121.878 35.292L121.886 35.4662L121.896 35.6402L121.902 35.8144L121.904 35.9938V36.1705V36.3526V36.5293L121.899 36.7114L121.891 36.8935L121.881 37.0754L121.87 37.2627L121.857 37.4473L121.841 37.6291L121.82 37.8191L121.804 38.0037L121.78 38.1934L121.757 38.3834L121.733 38.5761L121.698 38.7634L121.67 38.9585L121.64 39.1537L121.604 39.3464L121.562 39.573ZM120.644 30.7624C120.86 31.1554 121.443 31.0604 121.511 30.6199C121.53 30.5197 121.511 30.4169 121.464 30.3219L121.443 30.2901L121.358 30.137L121.274 29.9842L121.184 29.8339L121.094 29.6808L120.997 29.5331L120.902 29.3906L120.804 29.243L120.702 29.1005L120.601 28.9553L120.496 28.818L120.388 28.6809L120.277 28.5411L120.169 28.4065L120.05 28.2746L119.937 28.1427L119.818 28.0135L119.697 27.8843L119.576 27.7605L119.452 27.6338L119.325 27.5152L119.198 27.3938L119.064 27.2725L118.932 27.1564L118.795 27.0402L118.66 26.9216L118.52 26.8135L118.381 26.7028L118.302 26.6423C117.959 26.3863 117.489 26.6843 117.568 27.1012C117.59 27.2198 117.653 27.3175 117.748 27.3887L117.819 27.4389L117.946 27.5417L118.075 27.6473L118.202 27.7529L118.326 27.8585L118.449 27.9692L118.568 28.0772L118.687 28.188L118.805 28.3041L118.916 28.4149L119.027 28.531L119.137 28.6472L119.248 28.7685L119.354 28.8844L119.459 29.0085L119.56 29.1325L119.662 29.2563L119.758 29.383L119.855 29.5098L119.947 29.6389L120.042 29.7681L120.132 29.9052L120.222 30.0371L120.306 30.1717L120.391 30.3115L120.47 30.4486L120.549 30.5857L120.625 30.7282L120.644 30.7624ZM113.751 25.3018C113.93 25.3623 114.115 25.3121 114.241 25.1778C114.468 24.9245 114.363 24.5288 114.038 24.4181L113.869 24.3548L113.674 24.2943L113.482 24.2308L113.289 24.1703L113.091 24.1122L112.891 24.0568L112.691 24.0012L112.49 23.9458L112.287 23.8956L112.079 23.843L111.878 23.7955L111.665 23.7455L111.456 23.7032L111.245 23.6584L111.034 23.6163L110.818 23.574L110.601 23.5343L110.383 23.4974L110.163 23.4605L109.945 23.4263L109.72 23.3921L109.493 23.3604L109.414 23.3471C109.019 23.2996 108.752 23.7403 108.974 24.0726C109.053 24.1887 109.166 24.2571 109.304 24.2756L109.378 24.2862L109.594 24.3177L109.813 24.3519L110.021 24.3809L110.232 24.4151L110.446 24.452L110.657 24.4917L110.863 24.5313L111.066 24.5709L111.269 24.6159L111.475 24.6607L111.672 24.7055L111.87 24.7503L112.068 24.803L112.264 24.8505L112.456 24.9031L112.648 24.956L112.838 25.0087L113.026 25.0643L113.213 25.1249L113.4 25.1829L113.58 25.2435L113.751 25.3018ZM104.721 23.9881C104.959 23.9854 105.154 23.8036 105.177 23.5634C105.201 23.2892 104.982 23.0518 104.705 23.0518H104.455L104.204 23.0545L103.948 23.0572L103.689 23.065L103.428 23.0702L103.169 23.0781L102.903 23.0887L102.639 23.102L102.378 23.1123L102.114 23.128L101.845 23.1438L101.576 23.1595L101.304 23.178L101.035 23.1989L100.766 23.2198L100.489 23.2437L100.217 23.2676L100.019 23.286C99.5971 23.3281 99.4519 23.8585 99.7871 24.122C99.8823 24.1934 99.9958 24.2276 100.114 24.2143L100.307 24.1958L100.581 24.1749L100.85 24.1511L101.116 24.1299L101.38 24.1114L101.647 24.0905L101.91 24.0775L102.172 24.059L102.433 24.0433L102.694 24.0327L102.947 24.0221L103.209 24.0115L103.462 24.0036L103.715 23.9985L103.968 23.996L104.219 23.9909L104.472 23.9881H104.721ZM95.541 24.8322C95.7125 24.8032 95.8526 24.6819 95.905 24.5131C96.0078 24.1781 95.7231 23.8511 95.38 23.9089L95.0742 23.9591L94.7786 24.0145L94.4806 24.0701L94.1853 24.1228L93.887 24.1784L93.5811 24.2362L93.2804 24.297L92.9794 24.3602L92.6762 24.4235L92.373 24.4867L92.0644 24.55L91.7583 24.6159L91.4524 24.6871L91.1438 24.7557L90.7929 24.835C90.6083 24.8824 90.4764 25.0301 90.4419 25.2201C90.3998 25.5499 90.6979 25.8215 91.017 25.745L91.3547 25.6685L91.6633 25.5998L91.9667 25.5339L92.2726 25.4625L92.5706 25.402L92.8714 25.336L93.1748 25.2752L93.4728 25.2144L93.7708 25.1564L94.0664 25.0983L94.3617 25.0429L94.6573 24.9848L94.9526 24.9322L95.2427 24.8847L95.541 24.8322ZM86.5406 26.9056C86.9152 26.7948 86.9944 26.3017 86.6725 26.0748C86.5539 25.9928 86.4139 25.9692 86.277 26.0086L86.0844 26.0615L85.76 26.1589L85.4356 26.2512L85.1113 26.3487L84.7869 26.4464L84.4599 26.5438L84.1301 26.6442L83.8031 26.7471L83.4706 26.8527L83.1406 26.9555L82.8138 27.0611L82.481 27.1719L82.1488 27.2799L81.8245 27.3879C81.426 27.5198 81.3995 28.0711 81.777 28.2532C81.8877 28.3061 82.009 28.314 82.1225 28.2744L82.4444 28.1663L82.7741 28.0608L83.1039 27.9527L83.4337 27.8471L83.7607 27.7443L84.0826 27.6414L84.4124 27.5385L84.7367 27.4357L85.0613 27.3407L85.383 27.243L85.7073 27.148L86.0295 27.0557L86.3487 26.9607L86.5406 26.9056ZM77.7644 29.8257C78.1338 29.686 78.1653 29.1716 77.8198 28.9765C77.6985 28.913 77.5562 28.8972 77.4295 28.9474L77.084 29.0766L76.7436 29.2112L76.4006 29.3404L76.055 29.4748L75.712 29.6094L75.3638 29.744L75.0182 29.8838L74.6727 30.0236L74.3248 30.1634L73.9792 30.3032L73.631 30.4481L73.0982 30.6723C72.9346 30.7383 72.8238 30.8965 72.816 31.0707C72.8027 31.4217 73.1457 31.6616 73.4649 31.5297L73.9901 31.3107L74.338 31.1709L74.6811 31.0284L75.0266 30.8911L75.3697 30.7513L75.7127 30.614L76.0582 30.4794L76.3986 30.3502L76.7389 30.2158L77.082 30.0839L77.4223 29.9493L77.7644 29.8257ZM69.2227 33.387C69.3785 33.3158 69.4841 33.1601 69.4944 32.9861C69.505 32.6351 69.1489 32.3925 68.8297 32.535L68.3575 32.7513L68.0014 32.9174L67.6455 33.0835L67.2894 33.2496L66.9333 33.4185L66.5772 33.5846L66.2211 33.7588L65.865 33.9303L65.5089 34.1046L65.1504 34.2786L64.6279 34.5345C64.2536 34.7242 64.3009 35.2678 64.6966 35.3998C64.8127 35.4367 64.9341 35.4288 65.0448 35.3761L65.5643 35.1202L65.9179 34.946L66.2768 34.772L66.6304 34.6004L66.9862 34.4316L67.3399 34.2655L67.6935 34.0994L68.0444 33.933L68.3981 33.7669L68.7542 33.6006L69.2227 33.387ZM60.9267 37.4888C61.0822 37.4044 61.1745 37.241 61.172 37.0641C61.1563 36.7186 60.7869 36.5023 60.4835 36.6605L60.1089 36.8584L59.7474 37.0535L59.3859 37.2514L59.0246 37.4465L58.6633 37.6468L58.2994 37.8447L57.9379 38.0426L57.5766 38.2458L57.2153 38.4516L56.8487 38.6546L56.4054 38.9054C56.2418 39.0004 56.1522 39.1874 56.1758 39.3774C56.2287 39.702 56.5821 39.8811 56.8696 39.7204L57.3128 39.4699L57.6689 39.2666L58.0329 39.0663L58.3917 38.8657L58.7532 38.6654L59.1147 38.4676L59.4759 38.2697L59.8348 38.0746L60.1936 37.8821L60.5551 37.687L60.9267 37.4888ZM52.8811 42.0657C53.2188 41.8573 53.1553 41.3456 52.7807 41.2216C52.6488 41.1795 52.5117 41.1926 52.3904 41.2639L52.1239 41.4246L51.7626 41.6488L51.396 41.8703L51.0372 42.0945L50.6705 42.3214L50.3065 42.5456L49.945 42.7752L49.5862 43.0021L49.2222 43.2317L48.8661 43.4586L48.4465 43.7303C48.0853 43.9651 48.2117 44.5217 48.6392 44.585C48.7524 44.6007 48.8582 44.5798 48.953 44.5163L49.3696 44.2498L49.7284 44.0229L50.0872 43.7933L50.4433 43.5691L50.8073 43.3422L51.1661 43.118L51.5276 42.8938L51.8889 42.6696L52.2501 42.4454L52.6141 42.2264L52.8811 42.0657ZM45.094 47.0752C45.4368 46.8431 45.3233 46.3101 44.9146 46.2308C44.7906 46.2099 44.6665 46.2335 44.5664 46.3047L44.308 46.4814L43.9676 46.7134L43.6246 46.9509L43.2842 47.1884L42.9466 47.4256L42.6035 47.6604L42.2686 47.9003L41.9388 48.1405L41.6012 48.3753L41.2687 48.6155L40.9389 48.8557L40.7622 48.9849C40.6015 49.101 40.538 49.2962 40.5882 49.4886C40.6805 49.8024 41.0497 49.9345 41.3135 49.7419L41.4877 49.6151L41.8148 49.3776L42.1497 49.1429L42.4768 48.9054L42.8117 48.6681L43.1466 48.4307L43.4816 48.1934L43.8192 47.9587L44.1569 47.7239L44.4999 47.4864L44.8348 47.2516L45.094 47.0752ZM37.6076 52.5171C37.8054 52.3667 37.8448 52.0871 37.705 51.8839C37.5519 51.6648 37.2461 51.6122 37.0349 51.7783L36.7475 52.0052L36.431 52.2451L36.1172 52.4905L35.8086 52.7331L35.4973 52.9785L35.1887 53.2238L34.8828 53.4692L34.5767 53.7145L34.2705 53.9626L33.9673 54.208L33.6693 54.4533L33.3949 54.6775C33.2524 54.8015 33.1946 54.9837 33.2446 55.1655C33.3369 55.4926 33.7272 55.6166 33.9912 55.403L34.2629 55.184L34.5609 54.9359L34.8617 54.6906L35.1624 54.4479L35.4685 54.2026L35.7719 53.9624L36.0806 53.717L36.3892 53.4689L36.6978 53.229L37.0064 52.9864L37.3201 52.7437L37.6076 52.5171ZM30.4667 58.4048C30.7145 58.1807 30.6594 57.7825 30.3586 57.6319C30.1898 57.5502 29.9895 57.5765 29.8468 57.7005L29.5935 57.922L29.3115 58.1725L29.0344 58.4233L28.7548 58.6714L28.4777 58.9192L28.206 59.1724L27.9344 59.4178L27.6627 59.6685L27.391 59.9191L27.1193 60.1696L26.8555 60.4204L26.5863 60.6684L26.4069 60.8397C26.1694 61.0718 26.2326 61.4677 26.5361 61.6048C26.7155 61.684 26.9104 61.6523 27.0477 61.5229L27.2271 61.3516L27.4909 61.1035L27.7574 60.8554L28.0237 60.6101L28.2929 60.3623L28.5646 60.1142L28.8363 59.8662L29.1053 59.6181L29.3797 59.3703L29.6568 59.1249L29.9336 58.8741L30.2134 58.6261L30.4667 58.4048ZM23.7505 64.7676C24.0328 64.475 23.8298 63.984 23.4235 63.971C23.2916 63.971 23.1756 64.016 23.0804 64.1108L22.7824 64.4167L22.5397 64.6674L22.2995 64.9155L22.0623 65.1663L21.8275 65.4143L21.5901 65.6649L21.3605 65.9129L21.1284 66.1661L20.8963 66.4142L20.6667 66.662L20.4425 66.9101L20.2129 67.1609L19.9939 67.4114L19.8964 67.5172C19.7697 67.6649 19.7409 67.8652 19.828 68.0367C19.9781 68.3347 20.3714 68.3876 20.5929 68.1447L20.9094 67.7911L21.1308 67.5458L21.355 67.2977L21.5819 67.0526L21.8088 66.8045L22.0384 66.5592L22.2705 66.3084L22.5053 66.0633L22.7373 65.8125L22.9773 65.5699L23.2121 65.3191L23.452 65.074L23.7505 64.7676ZM17.5964 71.6629C17.8418 71.3597 17.6201 70.9005 17.2298 70.9032C17.09 70.9005 16.9554 70.9667 16.8683 71.0723L16.6387 71.3624L16.4383 71.6105L16.2486 71.8558L16.0559 72.1009L15.8659 72.3463L15.6786 72.5865L15.4887 72.8318L15.3065 73.0772L15.1247 73.3199L14.9401 73.565L14.7607 73.8076L14.584 74.0478L14.4071 74.2904L14.2358 74.5331L14.0431 74.7994C13.9375 74.9497 13.9324 75.1449 14.0246 75.3061C14.1959 75.5962 14.6101 75.6225 14.8028 75.3457L14.9901 75.0819L15.1643 74.8444L15.3385 74.6042L15.5125 74.364L15.6895 74.1265L15.8689 73.8891L16.0483 73.6467L16.2328 73.404L16.4174 73.1614L16.602 72.9239L16.7893 72.6785L16.979 72.4386L17.1742 72.1959L17.3668 71.9558L17.5964 71.6629ZM12.2732 79.1995C12.4578 78.883 12.223 78.4792 11.8536 78.4898C11.6927 78.4977 11.5583 78.5769 11.4739 78.714L11.4079 78.8274L11.2654 79.0595L11.1284 79.2916L10.991 79.529L10.8564 79.7611L10.7272 79.9932L10.598 80.2252L10.4688 80.4573L10.3396 80.6867L10.2183 80.9187L10.0943 81.1486L9.97566 81.3779L9.85704 81.6075L9.73843 81.8372L9.62227 82.0641L9.51153 82.291L9.40349 82.5179L9.29275 82.7448L9.24526 82.8476C9.15814 83.0246 9.19259 83.2276 9.32967 83.3725C9.55656 83.6076 9.94687 83.5495 10.0867 83.2539L10.1341 83.1565L10.2397 82.9377L10.348 82.7133L10.456 82.4893L10.5695 82.2649L10.6854 82.0461L10.7961 81.8162L10.9148 81.5948L11.0388 81.3654L11.1601 81.1385L11.2841 80.917L11.4109 80.6849L11.5376 80.4605L11.6668 80.2312L11.7987 80.0015L11.9306 79.7774L12.0677 79.5453L12.205 79.3132L12.2732 79.1995ZM8.39795 87.5222C8.51928 87.1267 8.10264 86.7758 7.73842 86.963C7.62497 87.0211 7.54598 87.1134 7.50636 87.2401L7.46674 87.3615L7.40349 87.5778L7.34024 87.7887L7.28217 87.9996L7.22409 88.2105L7.16872 88.4189L7.11335 88.6298L7.06068 88.8385L7.01318 89.047L6.96298 89.2527L6.92065 89.4611L6.87857 89.6669L6.83624 89.8699L6.79662 90.0759L6.76242 90.2762L6.7255 90.4819L6.69376 90.6798L6.66472 90.8828L6.63838 91.0831L6.61205 91.2812L6.58818 91.4816L6.56726 91.6819L6.54364 91.9009C6.51731 92.2991 6.97086 92.555 7.29004 92.3151C7.39808 92.2361 7.46157 92.1172 7.47461 91.9802L7.49307 91.7823L7.51423 91.5926L7.5354 91.4053L7.55902 91.2153L7.58535 91.0256L7.61169 90.8358L7.64343 90.6404L7.67764 90.448L7.71185 90.2555L7.75147 90.0577L7.79109 89.8598L7.83071 89.6644L7.87033 89.4666L7.91783 89.2662L7.96803 89.0681L8.01552 88.8678L8.06819 88.6648L8.12356 88.4645L8.17893 88.2614L8.23701 88.0527L8.29509 87.85L8.35587 87.644L8.39795 87.5222ZM7.77017 96.4672C7.66213 96.069 7.12122 95.9925 6.91549 96.3486C6.8547 96.4566 6.83624 96.5861 6.8707 96.7047L6.91032 96.8632L6.95781 97.032L7.00802 97.2035L7.05822 97.3748L7.11113 97.5384L7.16896 97.7073L7.22704 97.8709L7.28783 98.037L7.35378 98.2007L7.41973 98.3641L7.49085 98.5226L7.55951 98.6833L7.63605 98.839L7.70988 98.9997L7.79183 99.1555L7.87107 99.3113L7.95548 99.4641L8.0426 99.6172L8.12971 99.7651L8.22471 99.9152L8.31699 100.066L8.41444 100.216L8.5119 100.358L8.61206 100.501L8.71492 100.643L8.8205 100.786L8.93124 100.92L9.02894 101.047C9.31121 101.384 9.85458 101.192 9.85188 100.751C9.84917 100.641 9.81496 100.538 9.74901 100.456L9.65672 100.345L9.55927 100.219L9.46157 100.092L9.36929 99.96L9.27429 99.8281L9.18472 99.6962L9.0976 99.5645L9.01319 99.4272L8.92878 99.2926L8.84978 99.1528L8.76808 99.0133L8.69155 98.8735L8.61772 98.731L8.54389 98.5885L8.47523 98.4433L8.40657 98.3011L8.34061 98.1532L8.27737 98.0053L8.21954 97.8576L8.15875 97.7073L8.10092 97.5544L8.04801 97.4065L7.99805 97.2535L7.94785 97.0977L7.90035 96.9421L7.85556 96.7864L7.80807 96.6281L7.77017 96.4672ZM13.2123 103.268C13.0937 103.204 12.9536 103.197 12.8272 103.247C12.4553 103.397 12.4341 103.906 12.7875 104.096L12.9431 104.178L13.1092 104.267L13.2805 104.352L13.4495 104.434L13.6208 104.518L13.7977 104.597L13.9744 104.676L14.1511 104.75L14.3305 104.827L14.5151 104.901L14.6945 104.972L14.8818 105.043L15.0691 105.109L15.259 105.178L15.4463 105.241L15.6388 105.304L15.8339 105.368L16.0291 105.431L16.2269 105.487L16.4221 105.545L16.6254 105.602L16.8284 105.653L17.0262 105.705L17.2637 105.763C17.6831 105.861 17.9944 105.389 17.7412 105.035C17.6752 104.94 17.575 104.88 17.4668 104.853L17.2477 104.798L17.055 104.745L16.8599 104.698L16.6674 104.645L16.4802 104.59L16.2902 104.534L16.1002 104.476L15.9183 104.418L15.7362 104.354L15.5544 104.294L15.3777 104.228L15.1983 104.165L15.0243 104.099L14.85 104.033L14.6761 103.964L14.5072 103.89L14.3411 103.816L14.1723 103.742L14.0086 103.668L13.845 103.592L13.6816 103.515L13.5258 103.433L13.3676 103.352L13.2123 103.268ZM21.9964 105.523C21.8197 105.515 21.656 105.6 21.5664 105.753C21.3976 106.056 21.5982 106.433 21.9437 106.457L22.1388 106.473L22.3815 106.486L22.6241 106.499L22.8641 106.512L23.1094 106.52L23.3575 106.528L23.6029 106.533L23.8509 106.544L24.1014 106.547H24.3547H24.6027H24.8587L25.1144 106.542H25.3703L25.629 106.536L25.8901 106.528L26.1512 106.523L26.4098 106.513L26.6497 106.499C27.0693 106.481 27.2433 105.961 26.9266 105.682C26.8316 105.603 26.7209 105.566 26.5968 105.568L26.3672 105.579L26.1088 105.587L25.8504 105.595L25.5972 105.602L25.3464 105.61L25.0932 105.613H24.8478H24.5946H24.3493L24.1039 105.61L23.8586 105.608L23.6186 105.597L23.376 105.592L23.1358 105.584L22.8956 105.576L22.6581 105.566L22.426 105.552L22.1913 105.537L21.9964 105.523ZM31.1894 105.157C30.7886 105.212 30.6461 105.726 30.9652 105.985C31.0627 106.067 31.1921 106.106 31.3189 106.085L31.6221 106.045L31.9122 106.006L32.1945 105.966L32.4846 105.924L32.7775 105.879L33.0676 105.834L33.3605 105.787L33.6533 105.74L33.9459 105.689L34.2415 105.639L34.5371 105.589L34.8324 105.534L35.1358 105.476L35.4338 105.42L35.7318 105.362L35.9376 105.32C36.1276 105.283 36.2725 105.133 36.3015 104.935C36.3466 104.613 36.0668 104.344 35.7449 104.405L35.547 104.447L35.2463 104.503L34.9534 104.561L34.6581 104.611L34.3653 104.666L34.0751 104.719L33.785 104.769L33.4894 104.817L33.202 104.864L32.917 104.911L32.6296 104.953L32.3421 104.999L32.0572 105.038L31.7751 105.08L31.4929 105.117L31.1894 105.157ZM40.2533 103.378C39.8918 103.468 39.7838 103.925 40.0582 104.173C40.1768 104.283 40.335 104.323 40.4908 104.286L40.6727 104.233L40.9891 104.152L41.3083 104.07L41.625 103.983L41.9442 103.896L42.2661 103.811L42.588 103.719L42.9072 103.631L43.2315 103.536L43.5559 103.444L43.8802 103.349L44.2073 103.251L44.5319 103.154L44.983 103.017C45.3787 102.896 45.4208 102.352 45.0568 102.157C44.9461 102.099 44.8193 102.088 44.7032 102.122L44.2548 102.26L43.9305 102.355L43.6113 102.452L43.2894 102.545L42.9675 102.637L42.6483 102.727L42.3291 102.819L42.0099 102.909L41.6962 102.996L41.377 103.083L41.063 103.167L40.749 103.246L40.4325 103.331L40.2533 103.378ZM49.0957 100.675C48.6973 100.817 48.6815 101.368 49.0667 101.543C49.1774 101.59 49.2936 101.598 49.4097 101.556L49.8502 101.4L50.1879 101.279L50.5282 101.157L50.8686 101.031L51.2062 100.907L51.5463 100.778L51.8894 100.651L52.2297 100.522L52.5752 100.393L52.918 100.258L53.2611 100.123L53.7757 99.9231C53.9524 99.8547 54.0631 99.6856 54.0658 99.4959C54.0685 99.1609 53.7388 98.9313 53.4275 99.0554L52.9183 99.2532L52.5779 99.3851L52.2351 99.517L51.8948 99.6462L51.5544 99.7754L51.2168 99.9046L50.8792 100.028L50.5415 100.155L50.2039 100.274L49.8689 100.398L49.5313 100.516L49.0957 100.675ZM57.7031 97.2798C57.537 97.3563 57.4287 97.5146 57.4235 97.6964C57.4235 98.0395 57.769 98.2716 58.0804 98.1369L58.4867 97.9602L58.8373 97.8045L59.191 97.6516L59.5419 97.4931L59.8955 97.3324L60.2516 97.1715L60.6053 97.0106L60.9587 96.8472L61.3175 96.6835L61.6711 96.5201L62.0247 96.351L62.3173 96.2113C62.5548 96.1032 62.6498 95.8158 62.5337 95.5835C62.4175 95.3512 62.1461 95.2564 61.9165 95.3644L61.6236 95.5018L61.2702 95.6706L60.9168 95.8342L60.5659 95.9949L60.2123 96.1586L59.8586 96.3193L59.5104 96.4778L59.157 96.6363L58.8034 96.7918L58.4579 96.9476L58.1042 97.1006L57.7031 97.2798ZM66.0681 93.3231C65.6987 93.5128 65.7489 94.0562 66.1446 94.1829C66.2608 94.2196 66.3872 94.2117 66.4955 94.1566L67.0416 93.8798L67.4031 93.6898L67.759 93.5052L68.1229 93.3152L68.4845 93.1228L68.8433 92.9303L69.2045 92.7379L69.5712 92.5452L69.93 92.35L70.2888 92.1549L70.6107 91.9806C70.9456 91.7934 70.9245 91.3029 70.5738 91.142C70.4392 91.0839 70.2864 91.0866 70.1596 91.1552L69.8431 91.3319L69.4816 91.53L69.1201 91.7198L68.764 91.9122L68.4052 92.1047L68.044 92.2974L67.6851 92.4871L67.329 92.6744L66.9675 92.8592L66.6117 93.0465L66.0681 93.3231Z" fill="#62C2FF"/>
<path fill-rule="evenodd" clip-rule="evenodd" d="M92.2992 7.56982C92.2992 11.5846 95.5518 14.8714 99.5326 14.8714C95.5518 14.8714 92.2992 18.1558 92.2992 22.176C92.2992 18.1558 89.0468 14.8714 85.0714 14.8714C89.0468 14.8717 92.2992 11.5848 92.2992 7.56982Z" fill="#EFDFA5"/>
<path fill-rule="evenodd" clip-rule="evenodd" d="M10.3896 52.6147C10.3896 56.6295 13.6422 59.9139 17.6228 59.9139C13.6422 59.9139 10.3896 63.2005 10.3896 67.2182C10.3896 63.2007 7.1372 59.9139 3.1618 59.9139C7.13696 59.9139 10.3896 56.6295 10.3896 52.6147Z" fill="#62C2FF"/>
<path fill-rule="evenodd" clip-rule="evenodd" d="M113.946 71.1646C113.946 73.5625 115.89 75.5224 118.264 75.5224C115.89 75.5224 113.946 77.4823 113.946 79.8802C113.946 77.4823 112.007 75.5224 109.633 75.5224C112.007 75.5224 113.946 73.5625 113.946 71.1646Z" fill="#EFDFA5"/>
<path d="M87.3109 104.869C86.5645 104.869 85.9603 104.265 85.9603 103.519V77.1974C85.9603 69.3918 84.6073 64.1923 78.0098 64.1923C71.7341 64.1923 69.2887 67.7115 69.2887 76.7436V103.518C69.2887 104.265 68.6845 104.869 67.9381 104.869H52.195C51.4484 104.869 50.8445 104.265 50.8445 103.518V49.4941C50.8445 48.7477 51.4486 48.1436 52.195 48.1436H67.2574C68.0038 48.1436 68.608 48.7477 68.608 49.4941V53.0738C71.8579 49.9029 77.0308 48.1436 83.3803 48.1436C101.212 48.1436 104.868 58.4128 104.868 73.8316V103.519C104.868 104.265 104.264 104.869 103.518 104.869H87.3109ZM22.4817 104.869C21.7353 104.869 21.1311 104.265 21.1311 103.519V49.4941C21.1311 48.7477 21.7353 48.1436 22.4817 48.1436H41.39C42.1367 48.1436 42.7406 48.7477 42.7406 49.4941V103.518C42.7406 104.265 42.1364 104.869 41.39 104.869H22.4817V104.869ZM31.9358 42.7411C25.9769 42.7411 21.1311 37.8953 21.1311 31.9361C21.1311 25.9772 25.9769 21.1313 31.9358 21.1313C37.8923 21.1313 42.7408 25.9772 42.7408 31.9361C42.7408 37.8953 37.8925 42.7411 31.9358 42.7411Z" fill="#62C2FF"/>
<path d="M19.7805 49.4939H38.6891V103.518H19.7805V49.4939ZM29.2347 41.3903C34.4526 41.3903 38.6889 37.1538 38.6889 31.9361C38.6889 26.7184 34.4524 22.4819 29.2347 22.4819C24.0089 22.4819 19.7805 26.7184 19.7805 31.9361C19.7805 37.1538 24.0091 41.3903 29.2347 41.3903ZM100.817 73.8314C100.817 59.2542 97.6729 49.4939 80.6794 49.4939C72.5123 49.4939 67.0308 52.5275 64.7886 56.7852H64.5565V49.4939H49.4941V103.518H65.2372V76.7436C65.2372 69.6793 66.572 62.8418 75.3089 62.8418C83.9138 62.8418 84.61 70.9191 84.61 77.1972V103.518H100.817V73.8314H100.817Z" fill="#48B0F5"/>
<path d="M31.9358 22.4819C37.1538 22.4819 41.39 26.7184 41.39 31.9361C41.39 37.154 37.1535 41.3903 31.9358 41.3903C26.7103 41.3903 22.4816 37.1537 22.4816 31.9361C22.4816 26.7184 26.7103 22.4819 31.9358 22.4819ZM83.3805 49.4941C100.374 49.4941 103.518 59.2544 103.518 73.8316V103.519H87.3109V77.1974C87.3109 70.919 86.6144 62.842 78.0097 62.842C69.2729 62.842 67.9381 69.6795 67.9381 76.7438V103.519H52.195V49.4941H67.2574V56.7854H67.4895C69.7319 52.5277 75.2134 49.4941 83.3805 49.4941ZM41.3903 49.4941V103.518H22.4816V49.4941H41.3903ZM31.9358 19.7808C25.233 19.7808 19.7803 25.2332 19.7803 31.9363C19.7803 38.6394 25.2327 44.0919 31.9358 44.0919C38.6389 44.0919 44.0914 38.6394 44.0914 31.9363C44.0914 25.2332 38.6389 19.7808 31.9358 19.7808ZM83.3805 46.793C77.9886 46.793 73.38 48.0171 69.9588 50.2698V49.4944C69.9588 48.0013 68.748 46.793 67.2574 46.793H52.195C50.702 46.793 49.4936 48.0011 49.4936 49.4944V103.519C49.4936 105.012 50.7017 106.22 52.195 106.22H67.9381C69.4287 106.22 70.6395 105.012 70.6395 103.519V76.7438C70.6395 67.3768 73.3406 65.5431 78.0097 65.5431C82.8211 65.5431 84.6095 68.7008 84.6095 77.1974V103.518C84.6095 105.011 85.8178 106.22 87.3109 106.22H103.518C105.009 106.22 106.219 105.012 106.219 103.518V73.8316C106.219 59.7872 103.452 46.793 83.3805 46.793ZM41.3903 46.793H22.4816C20.9886 46.793 19.7803 48.0011 19.7803 49.4944V103.519C19.7803 105.012 20.9883 106.22 22.4816 106.22H41.39C42.8804 106.22 44.0911 105.012 44.0911 103.519V49.4941C44.0914 48.0011 42.8806 46.793 41.3903 46.793Z" fill="#234AA8"/>
</svg>
