<?xml version="1.0" encoding="utf-8"?>
<!-- Generator: Adobe Illustrator 16.0.0, SVG Export Plug-In . SVG Version: 6.00 Build 0)  -->
<!DOCTYPE svg PUBLIC "-//W3C//DTD SVG 1.1//EN" "http://www.w3.org/Graphics/SVG/1.1/DTD/svg11.dtd">
<svg version="1.1" id="Layer_1" xmlns="http://www.w3.org/2000/svg" xmlns:xlink="http://www.w3.org/1999/xlink" x="0px" y="0px"
	 width="445.134px" height="611.999px" viewBox="83.194 90 445.134 611.999" enable-background="new 83.194 90 445.134 611.999"
	 xml:space="preserve">
<g id="_x34_0-Id_Card">
</g>
<g id="_x33_9-Formula">
</g>
<g id="_x33_8-Elbow">
</g>
<g id="_x33_7-Diploma">
</g>
<g id="_x33_6-Laptop">
</g>
<g id="_x33_5-Brush">
</g>
<g id="_x33_4-Baseball">
</g>
<g id="_x33_3-Student">
</g>
<g id="_x33_2-Highlighter">
</g>
<g id="_x33_1-Ruler">
</g>
<g id="_x33_0-Caliper">
</g>
<g id="_x32_9-Ruler_Elbow">
</g>
<g id="_x32_8-Abacus">
</g>
<g id="_x32_7-Id_Card">
</g>
<g id="_x32_6-Eraser">
</g>
<g id="_x32_5-Pencil">
</g>
<g id="_x32_4-Ink">
</g>
<g id="_x32_3-Graduation_Cap">
</g>
<g id="_x32_2-_Sling_Bag">
</g>
<g id="_x32_1-Rugby_Ball">
</g>
<g id="_x32_0-Clock">
</g>
<g id="_x31_9-Certificate">
	<g>
		<g display="none">
			<path display="inline" fill="#FFEEA9" d="M488.644,272.644c-18.169-6.693-28.688-22.95-28.688-41.119
				c0-6.694,1.913-12.431,4.781-19.125c15.3-30.6-8.606-62.156-38.25-62.156c-5.737,0-12.432,0.957-18.169,3.825
				c-5.737,2.869-12.432,3.825-18.168,3.825c-18.169,0-34.427-10.519-41.119-28.688c-6.693-19.125-23.906-29.644-41.119-29.644
				c-17.212,0-33.468,9.563-40.162,28.688c-6.694,18.169-22.95,28.688-41.119,28.688c-6.694,0-12.431-1.913-19.125-4.781
				c-30.6-15.3-62.156,8.606-62.156,38.25c0,5.737,0.956,12.431,3.825,18.169c2.869,5.737,3.825,12.431,3.825,18.168
				c0,18.169-10.519,34.425-28.688,41.119c-19.125,6.694-29.644,23.906-29.644,41.119c0,17.212,9.563,33.469,28.688,40.162
				c18.168,6.694,28.688,22.95,28.688,41.119c0,6.693-1.913,12.431-4.781,19.125c-15.3,30.601,8.606,62.156,38.25,62.156
				c0.956,0,1.912,0,3.825,0c4.781,0,9.563-1.913,15.3-3.825c5.737-2.869,12.431-3.825,18.168-3.825
				c18.169,0,34.425,10.52,41.119,28.688c3.825,12.432,12.432,20.081,21.994,24.862c5.737,2.868,12.431,4.78,19.125,4.78
				c7.649,0,14.344-1.912,21.037-5.736c8.606-4.781,15.3-12.432,19.125-22.95c6.694-18.168,22.95-28.688,41.119-28.688
				c6.692,0,12.431,1.913,19.125,4.781c6.692,2.869,12.431,4.781,19.125,4.781c22.95,0,43.031-20.081,43.031-43.031
				c0-5.737-0.956-12.431-3.825-18.168c-2.869-5.738-3.825-12.432-3.825-18.169c0-18.168,10.519-34.425,28.688-41.119
				C526.894,340.538,526.894,286.987,488.644,272.644z M306,417.037c-58.331,0-105.188-46.856-105.188-105.187
				c0-58.332,46.856-105.188,105.188-105.188s105.188,46.856,105.188,105.188C411.188,370.181,364.331,417.037,306,417.037z"/>
		</g>
		<g display="none">
			<path display="inline" fill="#D32436" d="M516.375,638.888l-56.419,7.649l-36.337,43.988l-97.538-173.082
				c8.605-4.781,15.3-12.432,19.125-22.949c6.694-18.169,22.95-28.688,41.119-28.688c6.692,0,12.431,1.912,19.125,4.781
				c6.692,2.868,12.431,4.781,19.125,4.781L516.375,638.888z"/>
		</g>
		<g display="none">
			<path display="inline" fill="#D32436" d="M285.919,518.4l-97.538,173.081l-36.337-43.987l-56.419-8.606L189.337,472.5
				c4.781,0,9.563-1.912,15.3-3.825c5.737-2.868,12.431-3.825,18.168-3.825c18.169,0,34.425,10.521,41.119,28.688
				C267.75,505.969,276.356,513.619,285.919,518.4z"/>
		</g>
		<g>
			<g>
				<path d="M421.706,311.85c0-64.069-51.638-115.707-115.706-115.707c-64.069,0-115.706,51.638-115.706,115.707
					S241.931,427.557,306,427.557C370.068,427.557,421.706,375.919,421.706,311.85z M306,406.519
					c-52.594,0-94.669-42.075-94.669-94.667c0-52.593,42.075-94.669,94.669-94.669c52.594,0,94.669,42.075,94.669,94.669
					C400.669,364.445,358.594,406.519,306,406.519z"/>
			</g>
			<g>
				<path d="M439.875,483.019c21.037-6.692,37.294-26.773,37.294-50.681c0-7.649-1.913-15.301-4.781-22.95
					c-1.913-3.825-2.869-8.605-2.869-14.344c0-14.344,8.606-26.775,21.994-31.557c21.993-7.65,36.337-27.731,36.337-50.681
					c0-22.95-13.387-43.031-35.381-50.681c-13.388-4.781-21.994-17.212-21.994-30.6c0-4.781,0.957-9.563,3.825-14.344
					c8.606-17.212,7.65-36.337-2.868-51.637c-14.344-22.95-43.987-31.557-68.851-20.082c-3.825,1.913-8.606,2.869-14.344,2.869
					c-14.345,0-26.774-8.606-31.557-21.994C350.943,104.344,330.862,90,306.956,90c-22.95,0-42.075,13.388-50.681,35.381
					c-6.694,18.168-27.731,26.775-44.944,18.168c-17.212-8.606-36.337-7.65-51.637,2.869c-16.256,9.563-25.819,27.731-25.819,45.9
					c0,7.65,1.913,15.3,4.781,22.95c1.913,3.825,2.869,8.606,2.869,14.344c0,14.344-8.606,26.775-21.994,31.557
					c-21.994,7.65-36.337,27.731-36.337,50.681c0,22.95,13.387,42.075,35.381,50.681c13.387,4.781,21.994,17.212,21.994,30.6
					c0,4.781-0.957,9.563-3.825,14.343c-8.606,17.213-7.65,36.338,2.869,51.639c7.65,11.476,19.125,20.081,32.513,23.905
					L86.063,634.106c-1.913,2.867-1.913,6.692,0,9.563c1.913,2.868,4.781,5.737,7.65,5.737l52.594,7.649l33.469,41.118
					c1.913,2.869,4.781,3.825,8.606,3.825h0.956c3.825,0,6.694-1.912,8.606-5.737L290.7,530.831
					c4.781,0.956,9.563,1.913,14.344,1.913c5.737,0,11.475-0.957,16.256-2.869l93.713,165.432c1.912,2.868,4.781,4.781,8.606,5.737
					h0.956c2.868,0,5.736-0.956,8.605-3.825l33.47-41.119l52.594-7.648c3.824,0,6.693-2.869,7.648-5.737
					c1.913-2.869,1.913-6.694,0-9.563L439.875,483.019z M186.469,673.313L160.65,640.8c-1.913-1.912-3.825-3.825-6.694-3.825
					l-41.119-5.736l83.194-149.176c0.956,0,0.956,0,1.913,0c3.825-0.955,7.65-1.911,11.475-3.824l0,0
					c3.825-1.912,8.606-2.868,13.387-2.868c13.388,0,26.775,8.604,31.556,21.993c1.913,4.78,3.825,8.605,6.694,12.432
					c0.957,0.956,0.957,1.912,1.913,2.868c2.869,3.825,5.737,6.694,8.606,9.563l0,0L186.469,673.313z M289.744,508.838
					L289.744,508.838c-7.65-3.825-13.387-10.52-16.256-19.125c-7.65-21.994-27.731-36.338-50.681-36.338l0,0l0,0
					c-7.65,0-15.3,1.912-22.95,4.781c-3.825,1.912-7.65,2.869-11.475,2.869h-2.869c-11.475,0-21.994-5.738-27.731-15.302
					c-5.737-9.563-6.694-21.036-0.956-31.556c3.825-7.65,5.737-15.3,5.737-23.906c0-22.95-14.344-43.031-35.381-50.682
					c-16.256-5.737-21.994-19.125-21.994-30.6s5.737-25.819,21.994-31.557c21.994-7.65,36.337-27.731,36.337-50.681
					c0-7.65-1.912-15.3-4.781-22.95c-1.912-4.781-2.869-9.563-2.869-14.344c0-11.475,5.738-21.994,15.3-27.731
					c9.562-5.737,21.037-6.694,31.556-0.956c7.65,5.737,15.3,7.65,22.95,7.65c22.95,0,43.031-14.344,50.682-35.381
					c5.737-16.256,19.125-21.038,30.6-21.038c11.476,0,25.819,5.738,31.557,21.994c7.649,21.994,27.731,36.338,50.682,36.338
					c7.649,0,15.301-1.913,22.949-4.781c15.301-6.694,33.47-0.957,42.075,12.431c5.737,9.563,6.693,21.038,0.956,31.556
					c-3.825,5.737-5.736,14.344-5.736,21.994c0,22.95,14.344,43.031,35.381,50.681l0,0c16.257,5.738,21.994,20.082,21.038,30.6
					c0,11.475-5.737,24.863-21.994,30.6c-21.993,7.65-36.337,27.731-36.337,50.681c0,7.65,1.912,15.3,4.78,22.95
					c1.912,4.781,2.868,9.563,2.868,14.344c0,19.125-18.169,35.382-38.25,31.557h-0.956c-2.869-0.955-5.736-1.911-8.605-2.868l0,0
					c-7.649-3.824-15.3-5.737-23.906-5.737l0,0l0,0c-22.95,0-43.031,14.344-50.681,35.382c-2.869,7.649-7.65,13.387-14.345,17.212
					C310.781,513.619,299.306,513.619,289.744,508.838z M458.044,636.975c-2.869,0-4.781,1.913-6.694,3.825l-25.817,32.513
					l-86.063-152.044l0.956-0.956c2.869-1.911,4.781-4.78,6.694-7.649c0.956-0.956,0.956-1.912,1.912-2.868
					c1.912-2.869,3.825-6.694,5.736-10.519l0,0c0.956-1.913,0.956-2.869,1.913-4.781c7.649-14.344,26.774-21.994,43.031-14.344l0,0
					c4.781,1.911,8.605,3.823,13.387,4.78l0,0c0.957,0,1.913,0.956,2.869,0.956l82.237,145.351L458.044,636.975z"/>
			</g>
		</g>
	</g>
</g>
<g id="_x31_8-Idea">
</g>
<g id="_x31_7-Bookshelf">
</g>
<g id="_x31_6-Formula">
</g>
<g id="_x31_5-Bell">
</g>
<g id="_x31_4-Magnifying_Glass">
</g>
<g id="_x31_3-Calculator">
</g>
<g id="_x31_2-Eyeglasses">
</g>
<g id="_x31_1-Bus">
</g>
<g id="_x31_0-Trophy">
</g>
<g id="_x39_-Globe">
</g>
<g id="_x38_-Basket_Ball">
</g>
<g id="_x37_-Pen">
</g>
<g id="_x36_-Board">
</g>
<g id="_x35_-Bag">
</g>
<g id="_x34_-Exam">
</g>
<g id="_x33_-Book">
</g>
<g id="_x32_-Ruler">
</g>
<g id="_x31_-Building">
</g>
</svg>
