<?xml version="1.0" encoding="utf-8"?>
<!-- Generator: Adobe Illustrator 16.0.0, SVG Export Plug-In . SVG Version: 6.00 Build 0)  -->
<!DOCTYPE svg PUBLIC "-//W3C//DTD SVG 1.1//EN" "http://www.w3.org/Graphics/SVG/1.1/DTD/svg11.dtd">
<svg version="1.1" id="Layer_1" xmlns="http://www.w3.org/2000/svg" xmlns:xlink="http://www.w3.org/1999/xlink" x="0px" y="0px"
	 width="612px" height="792px" viewBox="0 0 612 792" enable-background="new 0 0 612 792" xml:space="preserve">
<path fill="#828282" d="M609.098,353.858C588.563,204.805,460.698,90,306,90C137.002,90,0,227.002,0,396
	c0,142.417,97.295,262.104,229.04,296.234L609.098,353.858z"/>
<path fill="#424242" d="M612,396c0-14.301-1.003-28.364-2.902-42.142l-76.932-76.931l-54.602,54.602L363.096,217.06L53.21,516.406
	l175.83,175.828C253.63,698.604,279.417,702,306,702C474.998,702,612,564.998,612,396z"/>
<g>
	<line fill="none" stroke="#000000" stroke-miterlimit="10" x1="28.5" y1="367.34" x2="28.5" y2="439.114"/>
	<line fill="none" stroke="#000000" stroke-miterlimit="10" x1="59.448" y1="348.782" x2="59.448" y2="457.663"/>
	<line fill="none" stroke="#000000" stroke-miterlimit="10" x1="90.389" y1="320.344" x2="90.389" y2="486.103"/>
	<line fill="none" stroke="#000000" stroke-miterlimit="10" x1="121.331" y1="285.72" x2="121.331" y2="520.727"/>
	<line fill="none" stroke="#000000" stroke-miterlimit="10" x1="152.279" y1="338.929" x2="152.279" y2="467.526"/>
	<line fill="none" stroke="#000000" stroke-miterlimit="10" x1="183.227" y1="230.312" x2="183.227" y2="576.125"/>
	<line fill="none" stroke="#000000" stroke-miterlimit="10" x1="214.168" y1="305.687" x2="214.168" y2="500.767"/>
	<line fill="none" stroke="#000000" stroke-miterlimit="10" x1="245.117" y1="211.484" x2="245.117" y2="594.974"/>
	<line fill="none" stroke="#000000" stroke-miterlimit="10" x1="276.059" y1="230.312" x2="276.059" y2="576.125"/>
	<line fill="none" stroke="#000000" stroke-miterlimit="10" x1="307" y1="254.72" x2="307" y2="551.737"/>
	<line fill="none" stroke="#000000" stroke-miterlimit="10" x1="337.948" y1="285.72" x2="337.948" y2="520.727"/>
	<line fill="none" stroke="#000000" stroke-miterlimit="10" x1="368.898" y1="305.687" x2="368.898" y2="500.767"/>
	<line fill="none" stroke="#000000" stroke-miterlimit="10" x1="399.838" y1="216.996" x2="399.838" y2="589.44"/>
	<line fill="none" stroke="#000000" stroke-miterlimit="10" x1="430.779" y1="168.248" x2="430.779" y2="638.197"/>
	<line fill="none" stroke="#000000" stroke-miterlimit="10" x1="461.729" y1="230.312" x2="461.729" y2="576.125"/>
	<line fill="none" stroke="#000000" stroke-miterlimit="10" x1="492.676" y1="276.856" x2="492.676" y2="529.59"/>
	<line fill="none" stroke="#000000" stroke-miterlimit="10" x1="492.668" y1="216.996" x2="492.668" y2="589.44"/>
	<line fill="none" stroke="#000000" stroke-miterlimit="10" x1="523.61" y1="317.492" x2="523.61" y2="488.953"/>
	<line fill="none" stroke="#000000" stroke-miterlimit="10" x1="554.559" y1="340.129" x2="554.559" y2="466.325"/>
	<line fill="none" stroke="#000000" stroke-miterlimit="10" x1="585.5" y1="357.126" x2="585.5" y2="449.308"/>
</g>
<g>
	<rect x="290.7" y="264.633" fill="#63842C" width="30.6" height="25.691"/>
	<path fill="#63842C" d="M327.776,238.838L306,274.156c14.674,6.006,36.065,1.999,47.579-9.515s15.523-32.906,9.517-47.58
		L327.776,238.838z"/>
</g>
<g>
	<path fill="#81982D" d="M315.518,226.578c-11.514,11.513-15.524,32.906-9.518,47.581l57.096-57.095
		C348.422,211.054,327.03,215.063,315.518,226.578z"/>
	<path fill="#81982D" d="M284.224,238.838L306,274.156c-14.674,6.006-36.065,1.999-47.58-9.515
		c-11.513-11.513-15.523-32.906-9.515-47.58L284.224,238.838z"/>
</g>
<path fill="#A0AD2F" d="M296.483,226.578c11.513,11.513,15.524,32.906,9.517,47.581l-57.095-57.097
	C263.577,211.054,284.97,215.063,296.483,226.578z"/>
<polygon fill="#FFF3AD" points="305.993,276.928 279.385,330.144 532.168,303.537 532.168,276.928 "/>
<polygon fill="#FFFFFF" points="79.819,276.928 79.819,303.537 305.993,330.144 305.993,276.928 "/>
<polygon fill="#FFD23E" points="305.993,303.537 279.385,356.753 532.168,330.144 532.168,303.537 "/>
<polygon fill="#FFE376" points="79.819,303.537 79.819,330.144 305.993,356.753 305.993,303.537 "/>
<polygon fill="#F8513A" points="305.993,330.144 279.385,409.971 532.168,383.362 532.168,330.144 452.341,330.144 439.037,343.449 
	425.732,330.144 "/>
<g>
	<rect x="478.957" y="356.752" fill="#F72E12" width="26.608" height="39.913"/>
	<rect x="399.131" y="356.752" fill="#F72E12" width="26.608" height="39.913"/>
</g>
<polygon fill="#FA7461" points="79.819,330.144 79.819,383.362 305.993,409.971 305.993,330.144 "/>
<polygon fill="#FFD23E" points="305.993,383.362 279.385,436.58 532.168,409.971 532.168,383.362 "/>
<polygon fill="#FFE376" points="79.819,383.362 79.819,409.971 305.993,436.58 305.993,383.362 "/>
<polygon fill="#F8513A" points="305.993,409.971 279.385,489.797 532.168,463.188 532.168,409.971 "/>
<g>
	<rect x="478.957" y="436.578" fill="#F72E12" width="26.608" height="39.913"/>
	<rect x="345.913" y="436.578" fill="#F72E12" width="26.608" height="39.913"/>
</g>
<polygon fill="#FA7461" points="79.819,409.971 79.819,463.188 305.993,489.797 305.993,409.971 133.037,409.971 119.732,423.275 
	106.428,409.971 "/>
<g>
	<rect x="106.428" y="409.97" fill="#F8513A" width="26.609" height="26.608"/>
	<rect x="133.043" y="436.578" fill="#F8513A" width="26.609" height="39.913"/>
	<rect x="186.261" y="436.578" fill="#F8513A" width="26.609" height="39.913"/>
</g>
<polygon fill="#FFD23E" points="305.993,463.188 279.385,516.406 532.168,489.797 532.168,463.188 "/>
<g>
	<polygon fill="#FFE376" points="79.819,463.188 79.819,489.797 305.993,516.406 305.993,463.188 	"/>
	<polygon fill="#FFE376" points="518.862,516.406 492.254,562.971 305.993,562.971 280.05,503.102 	"/>
</g>
<g>
	<polygon fill="#FFF3AD" points="119.732,562.971 305.993,562.971 305.993,503.102 93.123,516.406 	"/>
	<polygon fill="#FFF3AD" points="558.776,489.797 558.776,516.406 305.993,516.406 292.855,503.102 305.993,489.797 	"/>
</g>
<rect x="53.21" y="489.796" fill="#FFFFFF" width="252.782" height="26.609"/>
<path fill="#FFF3AD" d="M332.602,296.883v93.13c0,11.021,8.936,19.957,19.957,19.957c11.021,0,19.957-8.935,19.957-19.957v-93.13
	H332.602z"/>
<path fill="#FFD23E" d="M399.123,390.014v39.913c0,11.021,8.936,19.957,19.957,19.957c11.021,0,19.957-8.936,19.957-19.957v-39.913
	H399.123z"/>
<g>
	<path fill="#FFFFFF" d="M279.385,296.883v113.087c0,11.021-8.935,19.957-19.957,19.957c-11.021,0-19.957-8.935-19.957-19.957
		V296.883H279.385z"/>
	<path fill="#FFFFFF" d="M212.862,296.883v53.218c0,11.021-8.935,19.957-19.957,19.957s-19.957-8.935-19.957-19.957v-53.218H212.862
		z"/>
</g>
<path fill="#FFE376" d="M146.341,310.188v39.913c0,11.021-8.935,19.957-19.957,19.957s-19.957-8.935-19.957-19.957v-39.913H146.341z
	"/>
<rect x="425.739" y="330.143" fill="#F72E12" width="26.608" height="26.609"/>
</svg>
