<?xml version="1.0" encoding="utf-8"?>
<!-- Generator: Adobe Illustrator 16.0.0, SVG Export Plug-In . SVG Version: 6.00 Build 0)  -->
<!DOCTYPE svg PUBLIC "-//W3C//DTD SVG 1.1//EN" "http://www.w3.org/Graphics/SVG/1.1/DTD/svg11.dtd">
<svg version="1.1" id="Layer_1" xmlns="http://www.w3.org/2000/svg" xmlns:xlink="http://www.w3.org/1999/xlink" x="0px" y="0px"
	 width="1440px" height="328.432px" viewBox="0 0 1440 328.432" enable-background="new 0 0 1440 328.432" xml:space="preserve">
<rect fill="#CA7A70" width="1440" height="141"/>
<rect fill="#BE9D8E" width="1440" height="31"/>
<rect y="141" fill="#A17A72" width="1440" height="191"/>
<ellipse transform="matrix(-0.9998 -0.0191 0.0191 -0.9998 2336.489 524.6237)" fill="#3D16B5" cx="1170.75" cy="251.153" rx="1.789" ry="1.765"/>
<ellipse transform="matrix(-0.9998 -0.0193 0.0193 -0.9998 2319.5166 491.1903)" fill="#8A6760" cx="1162.13" cy="234.396" rx="7.156" ry="7.058"/>
<path fill="#C7958B" d="M1075.245,91.114c-1.573-1.179-1.879-3.394-0.684-4.945c1.195-1.552,3.44-1.854,5.014-0.674
	s1.879,3.394,0.684,4.945C1079.063,91.992,1076.818,92.293,1075.245,91.114z"/>
<path fill="#8A6760" d="M1075.662,47.99c-2.359-1.769-2.818-5.09-1.024-7.417c1.793-2.328,5.16-2.78,7.52-1.01
	c2.36,1.769,2.819,5.09,1.025,7.417C1081.39,49.308,1078.022,49.76,1075.662,47.99z"/>
<path fill="#8A6760" d="M1168.707,111.55c-0.786-0.59-0.939-1.697-0.341-2.473c0.598-0.776,1.72-0.927,2.507-0.337
	c0.786,0.59,0.939,1.697,0.341,2.473C1170.616,111.989,1169.494,112.14,1168.707,111.55z"/>
<path fill="#C7958B" d="M1146.66,112.749c-3.146-2.359-3.759-6.788-1.367-9.891s6.881-3.707,10.027-1.347s3.758,6.787,1.367,9.891
	C1154.296,114.505,1149.807,115.108,1146.66,112.749z"/>
<path fill="#8A6760" d="M1004.765,180.821c-1.573-1.18-1.879-3.394-0.684-4.945c1.196-1.551,3.44-1.853,5.014-0.673
	s1.88,3.394,0.684,4.945C1008.583,181.699,1006.338,182.001,1004.765,180.821z"/>
<path fill="#8A6760" d="M1005.192,137.698c-2.359-1.77-2.818-5.091-1.025-7.418c1.794-2.327,5.161-2.78,7.521-1.01
	c2.359,1.769,2.818,5.09,1.025,7.417C1010.919,139.015,1007.553,139.467,1005.192,137.698z"/>
<path fill="#C7958B" d="M1098.228,201.258c-0.786-0.59-0.939-1.697-0.342-2.473s1.72-0.927,2.507-0.337s0.939,1.696,0.342,2.473
	S1099.014,201.848,1098.228,201.258z"/>
<path fill="#8A6760" d="M1076.18,202.457c-3.146-2.359-3.758-6.787-1.367-9.891c2.392-3.104,6.881-3.707,10.027-1.348
	s3.759,6.787,1.367,9.891S1079.326,204.816,1076.18,202.457z"/>
<path fill="#8A6760" d="M1043.721,215.262c1.023-1.667,3.225-2.199,4.914-1.188s2.229,3.181,1.205,4.848s-3.225,2.198-4.914,1.188
	C1043.235,219.098,1042.696,216.928,1043.721,215.262z"/>
<path fill="#C7958B" d="M1087.25,211.164c1.537-2.5,4.837-3.299,7.372-1.783c2.534,1.517,3.344,4.771,1.808,7.271
	c-1.537,2.5-4.837,3.298-7.371,1.782C1086.523,216.919,1085.714,213.664,1087.25,211.164z"/>
<path fill="#8A6760" d="M1025.327,130.63c-0.802,0.57-1.92,0.392-2.498-0.398c-0.578-0.791-0.397-1.894,0.404-2.463
	c0.801-0.57,1.919-0.392,2.497,0.398C1026.309,128.957,1026.128,130.06,1025.327,130.63z"/>
<path fill="#C7958B" d="M1212.131,167.566c2.049-3.333,6.449-4.397,9.828-2.376c3.38,2.021,4.459,6.362,2.41,9.695
	c-2.049,3.333-6.449,4.397-9.828,2.376C1211.161,175.24,1210.082,170.9,1212.131,167.566z"/>
<path fill="#C7958B" d="M1256.772,309.016c2.69,2.856,2.523,7.322-0.372,9.975c-2.896,2.653-7.423,2.488-10.113-0.368
	c-2.689-2.856-2.522-7.321,0.373-9.975C1249.555,305.994,1254.083,306.16,1256.772,309.016z"/>
<path fill="#8A6760" d="M1408.401,265.944c1.345,1.429,1.262,3.661-0.187,4.987c-1.447,1.326-3.711,1.244-5.056-0.184
	c-1.346-1.429-1.262-3.662,0.186-4.988C1404.793,264.434,1407.057,264.516,1408.401,265.944z"/>
<path fill="#8A6760" d="M1400.492,308.356c2.018,2.142,1.893,5.491-0.279,7.481c-2.172,1.989-5.567,1.865-7.585-0.276
	c-2.017-2.142-1.893-5.491,0.279-7.481C1395.079,306.091,1398.475,306.215,1400.492,308.356z"/>
<path fill="#8A6760" d="M1319.871,230.008c0.672,0.713,0.631,1.83-0.094,2.493c-0.724,0.663-1.855,0.622-2.528-0.093
	c-0.672-0.713-0.63-1.83,0.094-2.493S1319.198,229.293,1319.871,230.008z"/>
<path fill="#8A6760" d="M1341.793,232.554c2.689,2.856,2.522,7.322-0.373,9.976c-2.895,2.652-7.423,2.487-10.112-0.369
	c-2.69-2.855-2.523-7.322,0.372-9.975S1339.103,229.697,1341.793,232.554z"/>
<path fill="#8A6760" d="M1376.007,225.428c-1.299,1.469-3.56,1.621-5.049,0.34s-1.644-3.511-0.345-4.979s3.56-1.62,5.049-0.339
	C1377.15,221.73,1377.306,223.959,1376.007,225.428z"/>
<path fill="#C7958B" d="M1332.415,222.105c-1.948,2.203-5.339,2.432-7.572,0.51c-2.234-1.922-2.466-5.266-0.518-7.469
	s5.339-2.432,7.572-0.51S1334.363,219.902,1332.415,222.105z"/>
<path fill="#8A6760" d="M1402.948,134.821c-0.649,0.734-1.779,0.811-2.524,0.17c-0.744-0.641-0.821-1.755-0.172-2.49
	s1.779-0.811,2.523-0.17C1403.521,132.972,1403.598,134.086,1402.948,134.821z"/>
<path fill="#8A6760" d="M1402.683,156.6c-2.597,2.938-7.117,3.242-10.096,0.679s-3.287-7.021-0.689-9.958
	c2.597-2.938,7.117-3.242,10.096-0.679S1405.28,153.662,1402.683,156.6z"/>
<path fill="#8A6760" d="M1175.127,312.768c-1.299,1.469-3.56,1.621-5.049,0.34s-1.644-3.511-0.345-4.979s3.56-1.62,5.048-0.339
	C1176.271,309.07,1176.426,311.299,1175.127,312.768z"/>
<path fill="#C7958B" d="M1131.535,309.445c-1.948,2.203-5.339,2.432-7.572,0.51c-2.234-1.922-2.466-5.266-0.518-7.469
	s5.338-2.432,7.572-0.51C1133.251,303.898,1133.482,307.242,1131.535,309.445z"/>
<path fill="#8A6760" d="M1202.068,222.161c-0.649,0.734-1.779,0.81-2.524,0.169c-0.744-0.641-0.821-1.755-0.172-2.489
	s1.779-0.81,2.523-0.169C1202.641,220.313,1202.718,221.427,1202.068,222.161z"/>
<path fill="#C7958B" d="M1321.393,245.863c1.104-1.617,3.326-2.045,4.966-0.957c1.639,1.09,2.073,3.282,0.97,4.898
	c-1.104,1.617-3.327,2.045-4.967,0.957C1320.723,249.672,1320.288,247.479,1321.393,245.863z"/>
<path fill="#8A6760" d="M1303.594,317.43c2.207-3.233,6.654-4.09,9.933-1.912s4.146,6.563,1.939,9.797s-6.653,4.09-9.932,1.912
	S1301.387,320.663,1303.594,317.43z"/>
<path fill="#8A6760" d="M1315.286,154.521c-0.673-1.833,0.287-3.856,2.145-4.521s3.909,0.283,4.583,2.116s-0.286,3.856-2.145,4.52
	C1318.012,157.3,1315.96,156.353,1315.286,154.521z"/>
<path fill="#8A6760" d="M1363.402,210.896c-1.347-3.665,0.573-7.712,4.289-9.04c3.715-1.328,7.819,0.566,9.166,4.23
	c1.347,3.665-0.573,7.713-4.289,9.041C1368.854,216.455,1364.75,214.561,1363.402,210.896z"/>
<ellipse transform="matrix(0.9998 0.0187 -0.0187 0.9998 2.9325 -14.97)" fill="#3D16B5" cx="802.047" cy="149.342" rx="1.789" ry="1.765"/>
<ellipse transform="matrix(0.9998 0.0187 -0.0187 0.9998 3.2534 -15.1559)" fill="#8A6760" cx="810.673" cy="166.093" rx="7.156" ry="7.058"/>
<path fill="#C7958B" d="M897.646,309.325c1.573,1.179,1.881,3.393,0.687,4.944c-1.195,1.553-3.439,1.855-5.014,0.678
	c-1.573-1.18-1.881-3.393-0.687-4.945C893.827,308.449,896.071,308.146,897.646,309.325z"/>
<path fill="#8A6760" d="M897.247,352.449c2.36,1.768,2.821,5.089,1.029,7.417c-1.792,2.329-5.158,2.782-7.52,1.015
	c-2.36-1.768-2.821-5.089-1.029-7.417C891.52,351.135,894.887,350.682,897.247,352.449z"/>
<path fill="#8A6760" d="M804.167,288.943c0.786,0.59,0.94,1.697,0.343,2.473c-0.598,0.776-1.72,0.928-2.507,0.338
	c-0.786-0.589-0.94-1.695-0.343-2.473C802.258,288.506,803.38,288.354,804.167,288.943z"/>
<path fill="#C7958B" d="M826.214,287.732c3.147,2.356,3.763,6.784,1.373,9.889c-2.39,3.105-6.879,3.711-10.026,1.354
	c-3.148-2.357-3.763-6.785-1.373-9.891C818.577,285.98,823.066,285.375,826.214,287.732z"/>
<path fill="#8A6760" d="M968.068,219.576c1.574,1.179,1.881,3.393,0.687,4.945c-1.195,1.552-3.439,1.855-5.014,0.676
	c-1.573-1.178-1.881-3.393-0.686-4.944C964.25,218.701,966.494,218.397,968.068,219.576z"/>
<path fill="#8A6760" d="M967.671,262.7c2.361,1.769,2.822,5.089,1.029,7.417c-1.792,2.328-5.158,2.783-7.52,1.015
	c-2.36-1.769-2.821-5.089-1.029-7.417S965.311,260.932,967.671,262.7z"/>
<path fill="#C7958B" d="M874.591,199.195c0.787,0.589,0.94,1.695,0.343,2.472s-1.72,0.928-2.506,0.339
	c-0.787-0.59-0.941-1.697-0.344-2.473C872.682,198.757,873.804,198.605,874.591,199.195z"/>
<path fill="#8A6760" d="M896.638,197.984c3.147,2.356,3.763,6.784,1.373,9.889c-2.39,3.105-6.879,3.711-10.026,1.354
	s-3.763-6.785-1.373-9.891C889.001,196.232,893.49,195.627,896.638,197.984z"/>
<path fill="#8A6760" d="M929.091,185.16c-1.023,1.667-3.224,2.2-4.914,1.19c-1.69-1.009-2.23-3.179-1.207-4.847
	c1.022-1.667,3.223-2.2,4.913-1.19C929.573,181.323,930.114,183.492,929.091,185.16z"/>
<path fill="#C7958B" d="M885.57,189.283c-1.535,2.5-4.835,3.301-7.37,1.786c-2.536-1.515-3.348-4.77-1.813-7.271
	c1.535-2.5,4.835-3.3,7.37-1.786C886.294,183.527,887.105,186.782,885.57,189.283z"/>
<path fill="#8A6760" d="M947.535,269.779c0.801-0.57,1.919-0.393,2.498,0.397c0.578,0.79,0.398,1.894-0.402,2.464
	s-1.919,0.393-2.498-0.397C946.555,271.453,946.734,270.35,947.535,269.779z"/>
<path fill="#C7958B" d="M760.716,232.951c-2.047,3.335-6.446,4.401-9.827,2.383c-3.381-2.02-4.463-6.359-2.416-9.693
	c2.047-3.335,6.446-4.401,9.827-2.383C761.681,225.277,762.762,229.617,760.716,232.951z"/>
<path fill="#C7958B" d="M715.986,91.529c-2.691-2.855-2.527-7.321,0.366-9.976c2.894-2.654,7.422-2.492,10.113,0.363
	c2.691,2.854,2.527,7.321-0.366,9.975C723.205,94.546,718.678,94.384,715.986,91.529z"/>
<path fill="#8A6760" d="M564.384,134.688c-1.346-1.428-1.264-3.661,0.184-4.988s3.711-1.246,5.057,0.181s1.264,3.66-0.184,4.988
	C567.994,136.197,565.729,136.116,564.384,134.688z"/>
<path fill="#8A6760" d="M572.271,92.271c-2.019-2.141-1.896-5.49,0.274-7.481c2.17-1.991,5.566-1.869,7.585,0.272
	c2.019,2.141,1.896,5.49-0.274,7.481C577.685,94.534,574.289,94.412,572.271,92.271z"/>
<path fill="#8A6760" d="M652.938,170.574c-0.673-0.714-0.632-1.831,0.091-2.494c0.724-0.664,1.855-0.623,2.528,0.091
	s0.632,1.83-0.091,2.494C654.743,171.328,653.611,171.287,652.938,170.574z"/>
<path fill="#8A6760" d="M631.006,168.04c-2.691-2.855-2.527-7.321,0.367-9.975c2.894-2.655,7.421-2.492,10.112,0.362
	s2.528,7.321-0.366,9.975C638.226,171.056,633.697,170.894,631.006,168.04z"/>
<path fill="#8A6760" d="M596.803,175.186c1.299-1.469,3.559-1.623,5.049-0.342c1.489,1.28,1.646,3.51,0.348,4.979
	c-1.299,1.47-3.559,1.623-5.049,0.343C595.661,178.884,595.505,176.655,596.803,175.186z"/>
<path fill="#C7958B" d="M640.398,178.481c1.946-2.204,5.337-2.434,7.571-0.514c2.235,1.921,2.469,5.265,0.522,7.469
	c-1.947,2.204-5.338,2.435-7.572,0.514C638.685,184.029,638.451,180.686,640.398,178.481z"/>
<path fill="#8A6760" d="M569.911,265.808c0.649-0.734,1.779-0.812,2.524-0.171c0.744,0.641,0.822,1.755,0.174,2.489
	c-0.649,0.735-1.779,0.812-2.524,0.171C569.34,267.657,569.262,266.543,569.911,265.808z"/>
<path fill="#8A6760" d="M570.165,244.029c2.597-2.939,7.116-3.246,10.096-0.685c2.98,2.561,3.292,7.019,0.696,9.958
	c-2.597,2.939-7.116,3.246-10.097,0.685C567.881,251.427,567.569,246.969,570.165,244.029z"/>
<path fill="#8A6760" d="M797.634,87.729c1.298-1.469,3.559-1.623,5.048-0.342c1.49,1.28,1.646,3.51,0.348,4.979
	c-1.298,1.47-3.558,1.623-5.048,0.342C796.492,91.428,796.336,89.199,797.634,87.729z"/>
<path fill="#C7958B" d="M841.229,91.026c1.946-2.205,5.337-2.434,7.571-0.514c2.235,1.92,2.469,5.264,0.521,7.469
	c-1.946,2.204-5.337,2.434-7.571,0.514C839.515,96.574,839.281,93.23,841.229,91.026z"/>
<path fill="#8A6760" d="M770.742,178.351c0.648-0.734,1.779-0.811,2.523-0.171c0.745,0.64,0.823,1.755,0.174,2.489
	c-0.648,0.735-1.778,0.812-2.523,0.171S770.093,179.085,770.742,178.351z"/>
<path fill="#C7958B" d="M651.408,154.719c-1.103,1.617-3.326,2.046-4.966,0.958c-1.64-1.087-2.075-3.28-0.973-4.898
	c1.103-1.617,3.326-2.046,4.966-0.958C652.075,150.908,652.511,153.101,651.408,154.719z"/>
<path fill="#8A6760" d="M669.161,83.142c-2.205,3.235-6.651,4.093-9.931,1.918c-3.28-2.176-4.15-6.562-1.945-9.796
	s6.651-4.093,9.931-1.918C670.495,75.521,671.366,79.907,669.161,83.142z"/>
<path fill="#8A6760" d="M657.563,246.058c0.675,1.832-0.284,3.856-2.142,4.521c-1.856,0.665-3.909-0.28-4.584-2.112
	s0.284-3.857,2.142-4.521C654.836,243.279,656.889,244.226,657.563,246.058z"/>
<path fill="#8A6760" d="M609.411,189.711c1.349,3.664-0.569,7.713-4.283,9.043c-3.715,1.33-7.819-0.563-9.169-4.227
	c-1.349-3.664,0.568-7.713,4.283-9.043S608.062,186.047,609.411,189.711z"/>
<ellipse transform="matrix(-0.9999 -0.0161 0.0161 -0.9999 534.5953 545.5262)" fill="#3D16B5" cx="269.494" cy="270.611" rx="1.789" ry="1.764"/>
<ellipse transform="matrix(-0.9999 -0.0161 0.0161 -0.9999 517.5261 511.933)" fill="#8A6760" cx="260.824" cy="253.883" rx="7.156" ry="7.058"/>
<path fill="#C7958B" d="M173.479,110.878c-1.577-1.175-1.89-3.388-0.699-4.943c1.19-1.556,3.434-1.864,5.011-0.69
	c1.577,1.175,1.89,3.388,0.699,4.943C177.299,111.744,175.056,112.053,173.479,110.878z"/>
<path fill="#8A6760" d="M173.765,67.753c-2.366-1.762-2.835-5.082-1.049-7.415s5.152-2.796,7.517-1.034
	c2.366,1.762,2.835,5.082,1.049,7.415S176.13,69.516,173.765,67.753z"/>
<path fill="#8A6760" d="M267.011,131.016c-0.788-0.587-0.945-1.694-0.35-2.471c0.596-0.778,1.717-0.932,2.506-0.345
	c0.789,0.587,0.945,1.694,0.35,2.472S267.799,131.604,267.011,131.016z"/>
<path fill="#C7958B" d="M244.967,132.286c-3.154-2.349-3.78-6.775-1.398-9.886s6.869-3.728,10.022-1.379
	c3.154,2.349,3.78,6.775,1.399,9.886C252.608,134.017,248.121,134.635,244.967,132.286z"/>
<path fill="#8A6760" d="M103.29,200.811c-1.577-1.175-1.89-3.388-0.699-4.943c1.19-1.555,3.434-1.864,5.011-0.689
	s1.89,3.388,0.699,4.943C107.11,201.676,104.867,201.984,103.29,200.811z"/>
<path fill="#8A6760" d="M103.575,157.686c-2.366-1.762-2.835-5.082-1.049-7.415s5.152-2.796,7.517-1.035
	c2.365,1.762,2.835,5.082,1.049,7.415C109.306,158.984,105.94,159.447,103.575,157.686z"/>
<path fill="#C7958B" d="M196.821,220.948c-0.788-0.587-0.945-1.694-0.35-2.472c0.596-0.777,1.717-0.932,2.506-0.345
	s0.945,1.694,0.35,2.472S197.609,221.535,196.821,220.948z"/>
<path fill="#8A6760" d="M174.778,222.218c-3.154-2.35-3.78-6.775-1.398-9.886c2.381-3.111,6.869-3.729,10.022-1.379
	c3.154,2.349,3.78,6.774,1.399,9.885C182.419,223.949,177.932,224.566,174.778,222.218z"/>
<path fill="#8A6760" d="M142.357,235.126c1.019-1.67,3.217-2.209,4.911-1.204c1.693,1.006,2.239,3.174,1.22,4.844
	c-1.019,1.67-3.217,2.209-4.91,1.204C141.885,238.965,141.338,236.796,142.357,235.126z"/>
<path fill="#C7958B" d="M185.868,230.889c1.528-2.506,4.826-3.314,7.366-1.807s3.359,4.761,1.831,7.266
	c-1.529,2.505-4.826,3.313-7.366,1.806S184.339,233.393,185.868,230.889z"/>
<path fill="#8A6760" d="M123.692,150.554c-0.799,0.573-1.918,0.397-2.499-0.391c-0.581-0.789-0.403-1.892,0.396-2.465
	c0.799-0.573,1.918-0.397,2.499,0.391C124.669,148.877,124.492,149.981,123.692,150.554z"/>
<path fill="#C7958B" d="M310.608,186.895c2.037-3.34,6.435-4.418,9.82-2.408c3.387,2.011,4.479,6.348,2.441,9.688
	s-6.435,4.418-9.821,2.407C309.663,194.571,308.57,190.234,310.608,186.895z"/>
<path fill="#C7958B" d="M355.705,328.2c2.699,2.848,2.547,7.313-0.34,9.976c-2.888,2.662-7.415,2.512-10.114-0.336
	s-2.547-7.314,0.34-9.977C348.479,325.201,353.006,325.353,355.705,328.2z"/>
<path fill="#8A6760" d="M507.194,284.645c1.35,1.424,1.273,3.658-0.17,4.988c-1.443,1.331-3.708,1.256-5.057-0.168
	c-1.35-1.424-1.273-3.656,0.17-4.988C503.581,283.146,505.845,283.221,507.194,284.645z"/>
<path fill="#8A6760" d="M499.419,327.083c2.024,2.136,1.91,5.485-0.255,7.481c-2.165,1.997-5.562,1.885-7.586-0.252
	c-2.023-2.135-1.909-5.484,0.256-7.481S497.396,324.947,499.419,327.083z"/>
<path fill="#8A6760" d="M418.548,248.991c0.675,0.712,0.637,1.828-0.085,2.493c-0.722,0.666-1.854,0.629-2.528-0.084
	c-0.675-0.711-0.637-1.828,0.085-2.493C416.741,248.241,417.873,248.279,418.548,248.991z"/>
<path fill="#8A6760" d="M440.486,251.468c2.699,2.848,2.547,7.314-0.341,9.976c-2.887,2.662-7.415,2.512-10.113-0.336
	c-2.699-2.848-2.547-7.313,0.34-9.976S437.787,248.62,440.486,251.468z"/>
<path fill="#8A6760" d="M474.67,244.232c-1.294,1.473-3.554,1.632-5.047,0.355s-1.655-3.506-0.361-4.979
	c1.295-1.473,3.554-1.632,5.048-0.355C475.803,240.531,475.964,242.76,474.67,244.232z"/>
<path fill="#C7958B" d="M431.066,241.05c-1.94,2.21-5.33,2.448-7.57,0.534c-2.24-1.916-2.482-5.259-0.541-7.468
	c1.941-2.21,5.331-2.448,7.57-0.534C432.766,235.498,433.008,238.841,431.066,241.05z"/>
<path fill="#8A6760" d="M501.326,153.541c-0.647,0.737-1.777,0.816-2.523,0.178c-0.747-0.638-0.828-1.752-0.181-2.489
	s1.776-0.816,2.523-0.178C501.893,151.69,501.973,152.804,501.326,153.541z"/>
<path fill="#8A6760" d="M501.128,175.32c-2.589,2.946-7.107,3.264-10.095,0.711c-2.986-2.553-3.309-7.011-0.721-9.957
	c2.588-2.945,7.107-3.264,10.094-0.711C503.393,167.916,503.716,172.374,501.128,175.32z"/>
<path fill="#8A6760" d="M274.068,332.213c-1.294,1.473-3.554,1.631-5.047,0.355c-1.494-1.277-1.655-3.506-0.361-4.979
	s3.554-1.633,5.047-0.355C275.201,328.511,275.362,330.739,274.068,332.213z"/>
<path fill="#C7958B" d="M230.465,329.029c-1.941,2.21-5.331,2.449-7.571,0.534c-2.24-1.915-2.482-5.259-0.541-7.468
	c1.941-2.209,5.331-2.447,7.571-0.533C232.164,323.478,232.406,326.82,230.465,329.029z"/>
<path fill="#8A6760" d="M300.724,241.521c-0.647,0.736-1.777,0.816-2.524,0.178c-0.747-0.638-0.827-1.753-0.18-2.489
	s1.777-0.815,2.523-0.178C301.29,239.67,301.371,240.784,300.724,241.521z"/>
<path fill="#C7958B" d="M420.119,264.842c1.098-1.619,3.32-2.055,4.963-0.972c1.643,1.084,2.084,3.275,0.985,4.896
	s-3.32,2.055-4.963,0.972S419.021,266.463,420.119,264.842z"/>
<path fill="#8A6760" d="M402.553,336.465c2.196-3.24,6.641-4.111,9.926-1.943c3.285,2.166,4.168,6.55,1.971,9.79
	c-2.196,3.24-6.641,4.11-9.926,1.944C401.238,344.088,400.355,339.705,402.553,336.465z"/>
<path fill="#8A6760" d="M413.727,173.519c-0.68-1.83,0.273-3.857,2.13-4.527c1.855-0.67,3.91,0.271,4.589,2.101
	c0.68,1.831-0.273,3.857-2.129,4.527C416.46,176.29,414.405,175.35,413.727,173.519z"/>
<path fill="#8A6760" d="M462.024,229.74c-1.358-3.66,0.549-7.715,4.26-9.055s7.821,0.541,9.18,4.202s-0.549,7.714-4.26,9.054
	C467.493,235.282,463.383,233.4,462.024,229.74z"/>
<rect x="-53" y="71" fill="#3C3735" width="1616" height="43"/>
<rect x="-53" y="71" fill="#3C3735" width="1616" height="43"/>
<rect x="-53" y="71" fill="#615A56" width="1616" height="9"/>
<rect x="-53" y="92" fill="#2E2926" width="1616" height="22"/>
<rect x="-53" y="104" fill="#24201D" width="1616" height="10"/>
<path fill="#4F4B48" d="M729.001,31h132v197c0,44.184-35.817,80-80,80h-52V31z"/>
<path fill="#423E3C" d="M803.001,31h58v219c0,32.033-25.967,58-58,58l0,0V31z"/>
<path fill="#3B3735" d="M830.001,31h31v246c0,17.121-13.879,31-31,31l0,0V31z"/>
<rect x="-43.999" y="202" fill="#4F4B48" width="827" height="106"/>
<rect x="-43.999" y="202" fill="#6E6763" width="773" height="25"/>
<rect x="-43.999" y="251" fill="#423E3C" width="847" height="57"/>
<rect x="-43.999" y="274" fill="#3B3735" width="874" height="34"/>
<path fill="#6E6763" d="M729.001,31h38v158c0,20.986-17.013,38-38,38l0,0V31z"/>
</svg>
