<svg width="226" height="248" viewBox="0 0 226 248" fill="none" xmlns="http://www.w3.org/2000/svg">
<g clip-path="url(#clip0)">
<path d="M113.562 0.68942L113.562 0.689434L170.08 20.1339C170.08 20.1341 170.081 20.1344 170.082 20.1347C170.852 20.4088 171.506 20.9364 171.937 21.6309C172.368 22.3259 172.55 23.1468 172.454 23.9589C172.454 23.9593 172.454 23.9596 172.454 23.9599L163.474 97.6477C163.405 98.2047 163.207 98.7378 162.895 99.2045C162.583 99.6711 162.167 100.058 161.679 100.336C161.679 100.336 161.679 100.336 161.679 100.336L114.75 126.807C114.218 127.107 113.619 127.266 113.008 127.269C112.398 127.272 111.797 127.119 111.262 126.826L63.1386 100.358C63.1384 100.358 63.1381 100.358 63.1379 100.358C62.6339 100.078 62.2047 99.6809 61.8867 99.2C61.5685 98.7189 61.3709 98.1683 61.3107 97.5946L61.3106 97.5943L53.5222 23.9042L53.522 23.9023C53.4341 23.0995 53.6211 22.2906 54.0524 21.6079C54.4837 20.9251 55.1339 20.4087 55.8966 20.1432L55.8981 20.1427L111.209 0.68942C111.21 0.689261 111.21 0.689103 111.211 0.688944C111.973 0.427094 112.8 0.427253 113.562 0.68942Z" fill="#33AACC" stroke="black"/>
<path d="M137.222 38.0806L137.222 38.0807L137.223 38.081L137.229 38.0836L137.26 38.0948C137.287 38.1049 137.329 38.1198 137.382 38.1379C137.49 38.1742 137.644 38.2231 137.828 38.2722C138.201 38.3718 138.673 38.4658 139.118 38.4681C139.575 38.4705 139.913 38.3756 140.112 38.1939C140.287 38.0357 140.461 37.7133 140.364 36.9886C140.168 35.528 139 33.9475 137.344 32.4133C135.708 30.8981 133.683 29.5077 131.932 28.4169L131.932 28.4167C130.438 27.4852 126.319 25.4588 120.78 24.2157L120.7 24.4332L119.997 26.3443C120.384 26.5264 120.989 26.8208 121.651 27.1809C122.507 27.646 123.5 28.2418 124.24 28.8643L125.019 27.787L125.275 27.4319L125.661 27.6397L125.424 28.0799C125.661 27.6397 125.661 27.6398 125.662 27.64L125.662 27.6403L125.664 27.6411L125.669 27.6438L125.685 27.6531C125.7 27.661 125.72 27.6724 125.746 27.6873C125.798 27.7171 125.873 27.761 125.968 27.819C126.158 27.9351 126.429 28.1082 126.758 28.34C127.417 28.8033 128.314 29.5022 129.274 30.4502C131.192 32.3451 133.373 35.2463 134.393 39.2562L134.505 39.7003L134.073 39.8514L132.79 40.2996C133.875 44.6243 133.793 49.1631 132.547 53.4506L132.401 53.9526L131.906 53.7845L127.631 52.3329C127.342 53.0231 126.757 54.33 125.954 55.6686C125.428 56.5438 124.801 57.4457 124.093 58.2007C123.388 58.9514 122.574 59.5879 121.668 59.8838L121.33 59.9945L121.114 59.7103L118.424 56.1551C117.651 56.65 116.611 57.0824 115.58 57.3666C114.596 57.6383 113.537 57.7976 112.677 57.7025L112.759 67.826L112.762 68.2803L112.31 68.3273C109.072 68.6641 105.542 67.8475 102.374 66.2955C99.3746 64.8255 96.665 62.6786 94.812 60.1681L91.3031 62.8306L90.9214 63.1202L90.6157 62.7512C86.0501 57.2383 85.366 50.6087 85.3197 46.8449L85.3135 46.3388H85.8197H90.6124C90.671 44.3378 91.0737 42.1082 91.7194 40.0116C92.4184 37.7415 93.4133 35.5914 94.5976 34.0405L94.8904 33.6571L95.2841 33.936L99.0242 36.5859C99.9352 35.5447 102.626 32.742 106.121 31.4586L103.353 24.1031C100.466 24.7728 97.6784 25.8142 95.059 27.2011C89.2086 30.3185 85.5961 34.1588 83.5577 38.2344C81.5179 42.3129 81.0362 46.6635 81.5091 50.827C81.9823 54.9933 83.4105 58.9615 85.1757 62.2524C86.9441 65.5492 89.0323 68.1325 90.7971 69.5474C94.6486 72.6351 95.6455 77.3015 95.2184 82.46C94.8093 87.4021 93.0875 92.8974 91.1985 98.1172H121.968C122.029 97.8674 122.075 97.7246 122.119 97.6096C122.139 97.5577 122.155 97.5209 122.169 97.4881C122.199 97.4154 122.222 97.3621 122.266 97.2073C122.403 96.7301 122.673 95.496 123.416 91.4466C123.797 89.3701 124.463 87.9392 125.369 86.9849C126.283 86.0221 127.396 85.5932 128.568 85.4343C129.725 85.2776 130.966 85.3808 132.156 85.4961C132.259 85.5061 132.362 85.5162 132.464 85.5263C133.565 85.6343 134.618 85.7376 135.606 85.6775C136.682 85.612 137.385 85.3787 137.851 85.0593C138.307 84.7475 138.58 84.3239 138.744 83.7814C138.911 83.2246 138.959 82.5536 138.955 81.7721C138.953 81.3842 138.939 80.979 138.924 80.5546L138.921 80.4741C138.906 80.0768 138.891 79.6637 138.885 79.2449L138.88 78.9165L139.18 78.7818C139.706 78.5452 140.068 78.3191 140.302 78.1093C140.533 77.9017 140.614 77.7334 140.636 77.6063C140.679 77.3526 140.52 76.9413 139.792 76.3139L139.366 75.9476L139.779 75.5673C140.259 75.1251 140.574 74.8167 140.774 74.5726C140.973 74.3295 141.01 74.2061 141.016 74.1358C141.022 74.0631 141.004 73.951 140.874 73.7046C140.79 73.5446 140.684 73.3723 140.55 73.1538C140.469 73.022 140.378 72.8734 140.275 72.7005C139.715 71.7594 139.604 71.0144 139.676 70.4655C139.711 70.1947 139.79 69.9851 139.866 69.8364C139.904 69.7624 139.942 69.7039 139.972 69.6606C139.988 69.639 140.002 69.6211 140.013 69.607C140.019 69.5999 140.024 69.5938 140.029 69.5885L140.035 69.5814L140.037 69.5783L140.039 69.5769L140.039 69.5762C140.04 69.5759 140.04 69.5756 140.409 69.9125L140.04 69.5756L140.151 69.4533L140.314 69.4218L140.314 69.4218L140.314 69.4217L140.314 69.4217L140.314 69.4216L140.319 69.4207L140.341 69.4161C140.361 69.4119 140.391 69.4053 140.431 69.3963C140.51 69.3781 140.625 69.3501 140.765 69.3115C141.047 69.234 141.423 69.1155 141.81 68.9511C142.199 68.7855 142.58 68.5807 142.882 68.3372C143.167 68.1081 143.353 67.8678 143.435 67.6199C143.448 66.8884 143.127 66.0326 142.571 65.033C142.162 64.2972 141.658 63.5347 141.125 62.7293C140.917 62.4152 140.705 62.0946 140.492 61.7665C139.747 60.6154 139.01 59.3905 138.539 58.1336C138.065 56.8725 137.845 55.5464 138.17 54.2054C139.318 49.4663 139.185 45.0181 136.578 38.7381L136.128 37.6529L137.222 38.0806ZM137.222 38.0806L137.222 38.0806L137.222 38.0806ZM103.774 23.3934L102.96 21.245C103.036 21.2173 103.141 21.1799 103.274 21.1351C103.569 21.0358 103.996 20.9007 104.535 20.7526C105.614 20.4565 107.134 20.11 108.919 19.8961C112.457 19.4723 116.996 19.5742 121.21 21.5765L120.356 23.5087L120.276 23.6889C120.159 23.6201 120.035 23.5622 119.906 23.5161C114.791 21.6164 110.087 21.592 103.774 23.3934Z" fill="white" stroke="black"/>
<path d="M109.346 40.2547C110.127 39.7331 111.045 39.4546 111.984 39.4546C113.242 39.4556 114.45 39.9562 115.34 40.8464C116.23 41.7367 116.731 42.9438 116.732 44.2028C116.731 45.1417 116.453 46.0595 115.931 46.8401C115.41 47.6209 114.668 48.2295 113.801 48.5888C112.933 48.9482 111.978 49.0422 111.058 48.859C110.137 48.6758 109.291 48.2236 108.627 47.5596C107.963 46.8956 107.51 46.0496 107.327 45.1287C107.144 44.2077 107.238 43.253 107.597 42.3855C107.957 41.5179 108.565 40.7764 109.346 40.2547Z" fill="white" stroke="black"/>
</g>
<path d="M14.7559 128V102.406H22.6309C24.8809 102.406 26.8906 102.916 28.6602 103.936C30.4414 104.943 31.8301 106.385 32.8262 108.26C33.8223 110.123 34.3203 112.244 34.3203 114.623V115.801C34.3203 118.18 33.8281 120.295 32.8438 122.146C31.8711 123.998 30.4941 125.434 28.7129 126.453C26.9316 127.473 24.9219 127.988 22.6836 128H14.7559ZM20.0293 106.678V123.764H22.5781C24.6406 123.764 26.2168 123.09 27.3066 121.742C28.3965 120.395 28.9531 118.467 28.9766 115.959V114.605C28.9766 112.004 28.4375 110.035 27.3594 108.699C26.2812 107.352 24.7051 106.678 22.6309 106.678H20.0293ZM52.2324 122.727H42.9863L41.2285 128H35.6211L45.1484 102.406H50.0352L59.6152 128H54.0078L52.2324 122.727ZM44.4102 118.455H50.8086L47.5918 108.875L44.4102 118.455ZM79.1621 106.678H71.3223V128H66.0488V106.678H58.3145V102.406H79.1621V106.678ZM94.5254 122.727H85.2793L83.5215 128H77.9141L87.4414 102.406H92.3281L101.908 128H96.3008L94.5254 122.727ZM86.7031 118.455H93.1016L89.8848 108.875L86.7031 118.455ZM133.355 119.475C133.156 122.229 132.137 124.396 130.297 125.979C128.469 127.561 126.055 128.352 123.055 128.352C119.773 128.352 117.189 127.25 115.303 125.047C113.428 122.832 112.49 119.797 112.49 115.941V114.377C112.49 111.916 112.924 109.748 113.791 107.873C114.658 105.998 115.895 104.562 117.5 103.566C119.117 102.559 120.992 102.055 123.125 102.055C126.078 102.055 128.457 102.846 130.262 104.428C132.066 106.01 133.109 108.23 133.391 111.09H128.117C127.988 109.438 127.525 108.242 126.729 107.504C125.943 106.754 124.742 106.379 123.125 106.379C121.367 106.379 120.049 107.012 119.17 108.277C118.303 109.531 117.857 111.482 117.834 114.131V116.064C117.834 118.83 118.25 120.852 119.082 122.129C119.926 123.406 121.25 124.045 123.055 124.045C124.684 124.045 125.896 123.676 126.693 122.938C127.502 122.188 127.965 121.033 128.082 119.475H133.355ZM151.268 122.727H142.021L140.264 128H134.656L144.184 102.406H149.07L158.65 128H153.043L151.268 122.727ZM143.445 118.455H149.844L146.627 108.875L143.445 118.455ZM167.932 102.406L174.506 120.969L181.045 102.406H187.971V128H182.68V121.004L183.207 108.928L176.299 128H172.678L165.787 108.945L166.314 121.004V128H161.041V102.406H167.932ZM197.85 118.982V128H192.576V102.406H202.561C204.482 102.406 206.17 102.758 207.623 103.461C209.088 104.164 210.213 105.166 210.998 106.467C211.783 107.756 212.176 109.227 212.176 110.879C212.176 113.387 211.314 115.367 209.592 116.82C207.881 118.262 205.508 118.982 202.473 118.982H197.85ZM197.85 114.711H202.561C203.955 114.711 205.016 114.383 205.742 113.727C206.48 113.07 206.85 112.133 206.85 110.914C206.85 109.66 206.48 108.646 205.742 107.873C205.004 107.1 203.984 106.701 202.684 106.678H197.85V114.711Z" fill="white"/>
<path d="M21.7871 151.189V162H20.8379V136.406H28.8359C31.4492 136.406 33.4766 137.068 34.918 138.393C36.3711 139.705 37.0977 141.533 37.0977 143.877C37.0977 146.197 36.3887 147.99 34.9707 149.256C33.5645 150.521 31.5605 151.166 28.959 151.189H21.7871ZM21.7871 150.24H28.8359C31.1445 150.24 32.9375 149.684 34.2148 148.57C35.5039 147.457 36.1484 145.904 36.1484 143.912C36.1484 141.85 35.5039 140.244 34.2148 139.096C32.9375 137.936 31.1445 137.355 28.8359 137.355H21.7871V150.24ZM48.0664 160.523L48.1895 160.172L54.7637 142.98H55.8184L47.3105 165.305L46.8887 166.359C45.9746 168.574 44.4629 169.682 42.3535 169.682C41.6738 169.682 41.2051 169.617 40.9473 169.488L40.9297 168.592C41.3047 168.697 41.7324 168.75 42.2129 168.75C43.209 168.75 44.0352 168.457 44.6914 167.871C45.3477 167.297 45.916 166.354 46.3965 165.041L47.5566 161.895L39.9805 142.98H41.0176L48.0664 160.523ZM61.5664 137.848V142.98H65.8906V143.947H61.5664V157.447C61.5664 158.795 61.7832 159.791 62.2168 160.436C62.6621 161.08 63.4004 161.402 64.4316 161.402C64.9473 161.402 65.5742 161.35 66.3125 161.244L66.4707 162.141C66.084 162.281 65.4219 162.352 64.4844 162.352C63.1016 162.352 62.1113 161.971 61.5137 161.209C60.916 160.436 60.6113 159.223 60.5996 157.57V143.947H57.084V142.98H60.5996V137.848H61.5664ZM71.7793 147.41C72.4004 145.934 73.3145 144.768 74.5215 143.912C75.7285 143.057 77.0645 142.629 78.5293 142.629C80.5684 142.629 82.0801 143.209 83.0645 144.369C84.0605 145.518 84.5645 147.258 84.5762 149.59V162H83.627V149.555C83.6152 147.516 83.1992 146.01 82.3789 145.037C81.5586 144.053 80.2578 143.561 78.4766 143.561C76.8359 143.561 75.4121 144.146 74.2051 145.318C73.0098 146.479 72.2012 147.979 71.7793 149.818V162H70.8301V135H71.7793V147.41ZM89.1113 152.121C89.1113 150.305 89.457 148.676 90.1484 147.234C90.8516 145.781 91.8359 144.65 93.1016 143.842C94.3789 143.033 95.8203 142.629 97.4258 142.629C99.0195 142.629 100.449 143.021 101.715 143.807C102.98 144.592 103.965 145.705 104.668 147.146C105.383 148.588 105.746 150.211 105.758 152.016V152.859C105.758 154.688 105.412 156.322 104.721 157.764C104.029 159.205 103.045 160.33 101.768 161.139C100.502 161.947 99.0664 162.352 97.4609 162.352C95.8555 162.352 94.4141 161.953 93.1367 161.156C91.8711 160.359 90.8867 159.246 90.1836 157.816C89.4805 156.375 89.123 154.758 89.1113 152.965V152.121ZM90.0605 152.859C90.0605 154.441 90.3711 155.895 90.9922 157.219C91.625 158.531 92.498 159.557 93.6113 160.295C94.7363 161.033 96.0195 161.402 97.4609 161.402C99.6289 161.402 101.393 160.588 102.752 158.959C104.123 157.33 104.809 155.232 104.809 152.666V152.121C104.809 150.562 104.492 149.121 103.859 147.797C103.227 146.473 102.348 145.441 101.223 144.703C100.109 143.953 98.8438 143.578 97.4258 143.578C95.2578 143.578 93.4883 144.404 92.1172 146.057C90.7461 147.709 90.0605 149.789 90.0605 152.297V152.859ZM111.33 147.41C111.951 145.934 112.865 144.768 114.072 143.912C115.279 143.057 116.615 142.629 118.08 142.629C120.119 142.629 121.631 143.209 122.615 144.369C123.611 145.518 124.115 147.258 124.127 149.59V162H123.178V149.555C123.166 147.516 122.75 146.01 121.93 145.037C121.109 144.053 119.809 143.561 118.027 143.561C116.387 143.561 114.963 144.146 113.756 145.318C112.561 146.479 111.752 147.979 111.33 149.818V162H110.381V142.98H111.33V147.41ZM139.209 162V136.406H146.293C148.273 136.406 150.066 136.875 151.672 137.812C153.277 138.75 154.537 140.068 155.451 141.768C156.365 143.455 156.834 145.348 156.857 147.445V150.768C156.857 152.9 156.406 154.822 155.504 156.533C154.613 158.244 153.365 159.58 151.76 160.541C150.154 161.502 148.361 161.988 146.381 162H139.209ZM140.158 137.355V161.051H146.293C148.086 161.051 149.715 160.617 151.18 159.75C152.656 158.871 153.811 157.652 154.643 156.094C155.475 154.523 155.896 152.783 155.908 150.873V147.586C155.908 145.676 155.498 143.941 154.678 142.383C153.869 140.824 152.732 139.605 151.268 138.727C149.814 137.836 148.203 137.379 146.434 137.355H140.158ZM174.559 162C174.324 161.191 174.207 160.031 174.207 158.52C173.457 159.738 172.432 160.682 171.131 161.35C169.83 162.018 168.359 162.352 166.719 162.352C164.961 162.352 163.543 161.877 162.465 160.928C161.398 159.967 160.865 158.719 160.865 157.184C160.865 155.438 161.65 154.043 163.221 153C164.803 151.945 166.9 151.406 169.514 151.383H174.207V148.605C174.207 147.012 173.703 145.775 172.695 144.896C171.699 144.018 170.27 143.578 168.406 143.578C166.672 143.578 165.225 144.023 164.064 144.914C162.904 145.805 162.324 146.906 162.324 148.219L161.375 148.184C161.375 146.637 162.055 145.324 163.414 144.246C164.773 143.168 166.438 142.629 168.406 142.629C170.457 142.629 172.086 143.145 173.293 144.176C174.5 145.195 175.121 146.637 175.156 148.5V157.588C175.156 159.674 175.32 161.092 175.648 161.842V162H174.559ZM166.719 161.42C168.5 161.42 170.029 161.021 171.307 160.225C172.596 159.428 173.562 158.309 174.207 156.867V152.35H169.812C167.094 152.35 165.014 152.889 163.572 153.967C162.4 154.846 161.814 155.941 161.814 157.254C161.814 158.414 162.277 159.398 163.203 160.207C164.129 161.016 165.301 161.42 166.719 161.42ZM183.418 137.848V142.98H187.742V143.947H183.418V157.447C183.418 158.795 183.635 159.791 184.068 160.436C184.514 161.08 185.252 161.402 186.283 161.402C186.799 161.402 187.426 161.35 188.164 161.244L188.322 162.141C187.936 162.281 187.273 162.352 186.336 162.352C184.953 162.352 183.963 161.971 183.365 161.209C182.768 160.436 182.463 159.223 182.451 157.57V143.947H178.936V142.98H182.451V137.848H183.418ZM204.969 162C204.734 161.191 204.617 160.031 204.617 158.52C203.867 159.738 202.842 160.682 201.541 161.35C200.24 162.018 198.77 162.352 197.129 162.352C195.371 162.352 193.953 161.877 192.875 160.928C191.809 159.967 191.275 158.719 191.275 157.184C191.275 155.438 192.061 154.043 193.631 153C195.213 151.945 197.311 151.406 199.924 151.383H204.617V148.605C204.617 147.012 204.113 145.775 203.105 144.896C202.109 144.018 200.68 143.578 198.816 143.578C197.082 143.578 195.635 144.023 194.475 144.914C193.314 145.805 192.734 146.906 192.734 148.219L191.785 148.184C191.785 146.637 192.465 145.324 193.824 144.246C195.184 143.168 196.848 142.629 198.816 142.629C200.867 142.629 202.496 143.145 203.703 144.176C204.91 145.195 205.531 146.637 205.566 148.5V157.588C205.566 159.674 205.73 161.092 206.059 161.842V162H204.969ZM197.129 161.42C198.91 161.42 200.439 161.021 201.717 160.225C203.006 159.428 203.973 158.309 204.617 156.867V152.35H200.223C197.504 152.35 195.424 152.889 193.982 153.967C192.811 154.846 192.225 155.941 192.225 157.254C192.225 158.414 192.688 159.398 193.613 160.207C194.539 161.016 195.711 161.42 197.129 161.42ZM71.1992 197.865C71.1992 196.775 70.9414 195.855 70.4258 195.105C69.9219 194.344 69.1191 193.676 68.0176 193.102C66.9277 192.516 65.2754 191.918 63.0605 191.309C60.8457 190.699 59.1816 190.084 58.0684 189.463C56.9668 188.842 56.1582 188.121 55.6426 187.301C55.127 186.48 54.8691 185.484 54.8691 184.312C54.8691 182.449 55.6543 180.943 57.2246 179.795C58.7949 178.635 60.8398 178.055 63.3594 178.055C65 178.055 66.4707 178.377 67.7715 179.021C69.084 179.654 70.0977 180.551 70.8125 181.711C71.5273 182.859 71.8848 184.16 71.8848 185.613H70.9355C70.9355 183.703 70.2324 182.127 68.8262 180.885C67.4199 179.631 65.5977 179.004 63.3594 179.004C61.1094 179.004 59.2871 179.508 57.8926 180.516C56.5098 181.512 55.8184 182.766 55.8184 184.277C55.8184 185.812 56.4219 187.049 57.6289 187.986C58.8359 188.924 60.8281 189.756 63.6055 190.482C66.3828 191.197 68.416 192.029 69.7051 192.979C71.3457 194.186 72.166 195.803 72.166 197.83C72.166 199.119 71.8027 200.262 71.0762 201.258C70.3496 202.242 69.3184 203.004 67.9824 203.543C66.6465 204.082 65.1465 204.352 63.4824 204.352C61.6309 204.352 59.9668 204.047 58.4902 203.438C57.0137 202.816 55.9004 201.938 55.1504 200.801C54.4121 199.664 54.043 198.322 54.043 196.775H54.9922C54.9922 198.873 55.7773 200.502 57.3477 201.662C58.918 202.822 60.9629 203.402 63.4824 203.402C65.7207 203.402 67.5664 202.893 69.0195 201.873C70.4727 200.842 71.1992 199.506 71.1992 197.865ZM83.1348 203.402C84.8574 203.402 86.2754 202.945 87.3887 202.031C88.5137 201.117 89.1289 199.852 89.2344 198.234H90.1836C90.0898 200.074 89.3809 201.557 88.0566 202.682C86.7324 203.795 85.0918 204.352 83.1348 204.352C80.7559 204.352 78.8633 203.49 77.457 201.768C76.0625 200.045 75.3652 197.707 75.3652 194.754V194.121C75.3652 191.238 76.0625 188.936 77.457 187.213C78.8633 185.49 80.7441 184.629 83.0996 184.629C85.1152 184.629 86.7793 185.232 88.0918 186.439C89.4043 187.646 90.1016 189.252 90.1836 191.256H89.2344C89.1523 189.545 88.5488 188.174 87.4238 187.143C86.3105 186.1 84.8691 185.578 83.0996 185.578C80.9785 185.578 79.3145 186.346 78.1074 187.881C76.9121 189.404 76.3145 191.525 76.3145 194.244V194.859C76.3145 197.52 76.918 199.611 78.125 201.135C79.3438 202.646 81.0137 203.402 83.1348 203.402ZM96.1426 204H95.1934V184.98H96.1426V204ZM94.7012 179.039C94.7012 178.77 94.7949 178.541 94.9824 178.354C95.1699 178.154 95.3984 178.055 95.668 178.055C95.9375 178.055 96.166 178.154 96.3535 178.354C96.5527 178.541 96.6523 178.77 96.6523 179.039C96.6523 179.309 96.5527 179.537 96.3535 179.725C96.166 179.912 95.9375 180.006 95.668 180.006C95.3984 180.006 95.1699 179.912 94.9824 179.725C94.7949 179.537 94.7012 179.309 94.7012 179.039ZM109.221 204.352C107.686 204.352 106.273 203.941 104.984 203.121C103.707 202.289 102.705 201.152 101.979 199.711C101.252 198.27 100.889 196.67 100.889 194.912V194.121C100.889 192.363 101.24 190.752 101.943 189.287C102.646 187.822 103.613 186.68 104.844 185.859C106.074 185.039 107.416 184.629 108.869 184.629C110.99 184.629 112.725 185.385 114.072 186.896C115.42 188.408 116.094 190.395 116.094 192.855V193.857H101.838V194.895C101.838 196.441 102.16 197.877 102.805 199.201C103.461 200.514 104.357 201.545 105.494 202.295C106.643 203.045 107.885 203.42 109.221 203.42C110.498 203.42 111.582 203.209 112.473 202.787C113.375 202.354 114.172 201.691 114.863 200.801L115.531 201.275C114.113 203.326 112.01 204.352 109.221 204.352ZM108.869 185.578C107.018 185.578 105.447 186.27 104.158 187.652C102.869 189.023 102.113 190.775 101.891 192.908H115.145V192.68C115.145 191.391 114.869 190.195 114.318 189.094C113.779 187.98 113.029 187.119 112.068 186.51C111.119 185.889 110.053 185.578 108.869 185.578ZM121.473 189.41C122.094 187.934 123.008 186.768 124.215 185.912C125.422 185.057 126.758 184.629 128.223 184.629C130.262 184.629 131.773 185.209 132.758 186.369C133.754 187.518 134.258 189.258 134.27 191.59V204H133.32V191.555C133.309 189.516 132.893 188.01 132.072 187.037C131.252 186.053 129.951 185.561 128.17 185.561C126.529 185.561 125.105 186.146 123.898 187.318C122.703 188.479 121.895 189.979 121.473 191.818V204H120.523V184.98H121.473V189.41ZM146.697 203.402C148.42 203.402 149.838 202.945 150.951 202.031C152.076 201.117 152.691 199.852 152.797 198.234H153.746C153.652 200.074 152.943 201.557 151.619 202.682C150.295 203.795 148.654 204.352 146.697 204.352C144.318 204.352 142.426 203.49 141.02 201.768C139.625 200.045 138.928 197.707 138.928 194.754V194.121C138.928 191.238 139.625 188.936 141.02 187.213C142.426 185.49 144.307 184.629 146.662 184.629C148.678 184.629 150.342 185.232 151.654 186.439C152.967 187.646 153.664 189.252 153.746 191.256H152.797C152.715 189.545 152.111 188.174 150.986 187.143C149.873 186.1 148.432 185.578 146.662 185.578C144.541 185.578 142.877 186.346 141.67 187.881C140.475 189.404 139.877 191.525 139.877 194.244V194.859C139.877 197.52 140.48 199.611 141.688 201.135C142.906 202.646 144.576 203.402 146.697 203.402ZM165.365 204.352C163.83 204.352 162.418 203.941 161.129 203.121C159.852 202.289 158.85 201.152 158.123 199.711C157.396 198.27 157.033 196.67 157.033 194.912V194.121C157.033 192.363 157.385 190.752 158.088 189.287C158.791 187.822 159.758 186.68 160.988 185.859C162.219 185.039 163.561 184.629 165.014 184.629C167.135 184.629 168.869 185.385 170.217 186.896C171.564 188.408 172.238 190.395 172.238 192.855V193.857H157.982V194.895C157.982 196.441 158.305 197.877 158.949 199.201C159.605 200.514 160.502 201.545 161.639 202.295C162.787 203.045 164.029 203.42 165.365 203.42C166.643 203.42 167.727 203.209 168.617 202.787C169.52 202.354 170.316 201.691 171.008 200.801L171.676 201.275C170.258 203.326 168.154 204.352 165.365 204.352ZM165.014 185.578C163.162 185.578 161.592 186.27 160.303 187.652C159.014 189.023 158.258 190.775 158.035 192.908H171.289V192.68C171.289 191.391 171.014 190.195 170.463 189.094C169.924 187.98 169.174 187.119 168.213 186.51C167.264 185.889 166.197 185.578 165.014 185.578ZM71.9551 221.355H62.6387V246H61.6895V221.355H52.373V220.406H71.9551V221.355ZM72.7461 236.121C72.7461 234.305 73.0918 232.676 73.7832 231.234C74.4863 229.781 75.4707 228.65 76.7363 227.842C78.0137 227.033 79.4551 226.629 81.0605 226.629C82.6543 226.629 84.084 227.021 85.3496 227.807C86.6152 228.592 87.5996 229.705 88.3027 231.146C89.0176 232.588 89.3809 234.211 89.3926 236.016V236.859C89.3926 238.688 89.0469 240.322 88.3555 241.764C87.6641 243.205 86.6797 244.33 85.4023 245.139C84.1367 245.947 82.7012 246.352 81.0957 246.352C79.4902 246.352 78.0488 245.953 76.7715 245.156C75.5059 244.359 74.5215 243.246 73.8184 241.816C73.1152 240.375 72.7578 238.758 72.7461 236.965V236.121ZM73.6953 236.859C73.6953 238.441 74.0059 239.895 74.627 241.219C75.2598 242.531 76.1328 243.557 77.2461 244.295C78.3711 245.033 79.6543 245.402 81.0957 245.402C83.2637 245.402 85.0273 244.588 86.3867 242.959C87.7578 241.33 88.4434 239.232 88.4434 236.666V236.121C88.4434 234.562 88.127 233.121 87.4941 231.797C86.8613 230.473 85.9824 229.441 84.8574 228.703C83.7441 227.953 82.4785 227.578 81.0605 227.578C78.8926 227.578 77.123 228.404 75.752 230.057C74.3809 231.709 73.6953 233.789 73.6953 236.297V236.859ZM92.5742 236.121C92.5742 234.305 92.9199 232.676 93.6113 231.234C94.3145 229.781 95.2988 228.65 96.5645 227.842C97.8418 227.033 99.2832 226.629 100.889 226.629C102.482 226.629 103.912 227.021 105.178 227.807C106.443 228.592 107.428 229.705 108.131 231.146C108.846 232.588 109.209 234.211 109.221 236.016V236.859C109.221 238.688 108.875 240.322 108.184 241.764C107.492 243.205 106.508 244.33 105.23 245.139C103.965 245.947 102.529 246.352 100.924 246.352C99.3184 246.352 97.877 245.953 96.5996 245.156C95.334 244.359 94.3496 243.246 93.6465 241.816C92.9434 240.375 92.5859 238.758 92.5742 236.965V236.121ZM93.5234 236.859C93.5234 238.441 93.834 239.895 94.4551 241.219C95.0879 242.531 95.9609 243.557 97.0742 244.295C98.1992 245.033 99.4824 245.402 100.924 245.402C103.092 245.402 104.855 244.588 106.215 242.959C107.586 241.33 108.271 239.232 108.271 236.666V236.121C108.271 234.562 107.955 233.121 107.322 231.797C106.689 230.473 105.811 229.441 104.686 228.703C103.572 227.953 102.307 227.578 100.889 227.578C98.7207 227.578 96.9512 228.404 95.5801 230.057C94.209 231.709 93.5234 233.789 93.5234 236.297V236.859ZM115.021 246H114.072V219H115.021V246ZM135.799 236.666C135.799 239.631 135.16 241.986 133.883 243.732C132.605 245.479 130.865 246.352 128.662 246.352C127.232 246.352 125.955 246.059 124.83 245.473C123.705 244.875 122.82 244.049 122.176 242.994V246H121.227V219H122.176V230.443C122.844 229.189 123.723 228.24 124.812 227.596C125.914 226.951 127.186 226.629 128.627 226.629C130.854 226.629 132.605 227.484 133.883 229.195C135.16 230.895 135.799 233.285 135.799 236.367V236.666ZM134.814 236.297C134.814 233.566 134.27 231.434 133.18 229.898C132.102 228.352 130.59 227.578 128.645 227.578C127.051 227.578 125.697 227.988 124.584 228.809C123.482 229.629 122.68 230.848 122.176 232.465V241.184C122.68 242.531 123.482 243.574 124.584 244.312C125.697 245.039 127.062 245.402 128.68 245.402C130.637 245.402 132.148 244.623 133.215 243.064C134.281 241.506 134.814 239.25 134.814 236.297ZM139.543 236.121C139.543 234.305 139.889 232.676 140.58 231.234C141.283 229.781 142.268 228.65 143.533 227.842C144.811 227.033 146.252 226.629 147.857 226.629C149.451 226.629 150.881 227.021 152.146 227.807C153.412 228.592 154.396 229.705 155.1 231.146C155.814 232.588 156.178 234.211 156.189 236.016V236.859C156.189 238.688 155.844 240.322 155.152 241.764C154.461 243.205 153.477 244.33 152.199 245.139C150.934 245.947 149.498 246.352 147.893 246.352C146.287 246.352 144.846 245.953 143.568 245.156C142.303 244.359 141.318 243.246 140.615 241.816C139.912 240.375 139.555 238.758 139.543 236.965V236.121ZM140.492 236.859C140.492 238.441 140.803 239.895 141.424 241.219C142.057 242.531 142.93 243.557 144.043 244.295C145.168 245.033 146.451 245.402 147.893 245.402C150.061 245.402 151.824 244.588 153.184 242.959C154.555 241.33 155.24 239.232 155.24 236.666V236.121C155.24 234.562 154.924 233.121 154.291 231.797C153.658 230.473 152.779 229.441 151.654 228.703C150.541 227.953 149.275 227.578 147.857 227.578C145.689 227.578 143.92 228.404 142.549 230.057C141.178 231.709 140.492 233.789 140.492 236.297V236.859ZM165.998 235.418L172.062 226.98H173.258L166.578 236.244L173.609 246H172.432L165.98 237.07L159.547 246H158.369L165.4 236.244L158.721 226.98H159.916L165.998 235.418Z" fill="white"/>
<defs>
<clipPath id="clip0">
<rect width="120" height="127.768" fill="white" transform="translate(53)"/>
</clipPath>
</defs>
</svg>
