<svg width="228" height="213" viewBox="0 0 228 213" fill="none" xmlns="http://www.w3.org/2000/svg">
<g clip-path="url(#clip0)">
<path d="M114.562 0.68942L114.562 0.689434L171.08 20.1339C171.08 20.1341 171.081 20.1344 171.082 20.1347C171.852 20.4088 172.506 20.9364 172.937 21.6309C173.368 22.3259 173.55 23.1468 173.454 23.9589C173.454 23.9593 173.454 23.9596 173.454 23.9599L164.474 97.6477C164.405 98.2047 164.207 98.7378 163.895 99.2045C163.583 99.6711 163.167 100.058 162.679 100.336C162.679 100.336 162.679 100.336 162.679 100.336L115.75 126.807C115.218 127.107 114.619 127.266 114.008 127.269C113.398 127.272 112.797 127.119 112.262 126.826L64.1386 100.358C64.1384 100.358 64.1381 100.358 64.1379 100.358C63.6339 100.078 63.2047 99.6809 62.8867 99.2C62.5685 98.7189 62.3709 98.1683 62.3107 97.5946L62.3106 97.5943L54.5222 23.9042L54.522 23.9023C54.4341 23.0995 54.6211 22.2906 55.0524 21.6079C55.4837 20.9251 56.1339 20.4087 56.8966 20.1432L56.8981 20.1427L112.209 0.68942C112.21 0.689261 112.21 0.689103 112.211 0.688944C112.973 0.427094 113.8 0.427253 114.562 0.68942Z" fill="#33AACC" stroke="black"/>
<path d="M138.222 38.0806L138.222 38.0807L138.223 38.081L138.229 38.0836L138.26 38.0948C138.287 38.1049 138.329 38.1198 138.382 38.1379C138.49 38.1742 138.644 38.2231 138.828 38.2722C139.201 38.3718 139.673 38.4658 140.118 38.4681C140.575 38.4705 140.913 38.3756 141.112 38.1939C141.287 38.0357 141.461 37.7133 141.364 36.9886C141.168 35.528 140 33.9475 138.344 32.4133C136.708 30.8981 134.683 29.5077 132.932 28.4169L132.932 28.4167C131.438 27.4852 127.319 25.4588 121.78 24.2157L121.7 24.4332L120.997 26.3443C121.384 26.5264 121.989 26.8208 122.651 27.1809C123.507 27.646 124.5 28.2418 125.24 28.8643L126.019 27.787L126.275 27.4319L126.661 27.6397L126.424 28.0799C126.661 27.6397 126.661 27.6398 126.662 27.64L126.662 27.6403L126.664 27.6411L126.669 27.6438L126.685 27.6531C126.7 27.661 126.72 27.6724 126.746 27.6873C126.798 27.7171 126.873 27.761 126.968 27.819C127.158 27.9351 127.429 28.1082 127.758 28.34C128.417 28.8033 129.314 29.5022 130.274 30.4502C132.192 32.3451 134.373 35.2463 135.393 39.2562L135.505 39.7003L135.073 39.8514L133.79 40.2996C134.875 44.6243 134.793 49.1631 133.547 53.4506L133.401 53.9526L132.906 53.7845L128.631 52.3329C128.342 53.0231 127.757 54.33 126.954 55.6686C126.428 56.5438 125.801 57.4457 125.093 58.2007C124.388 58.9514 123.574 59.5879 122.668 59.8838L122.33 59.9945L122.114 59.7103L119.424 56.1551C118.651 56.65 117.611 57.0824 116.58 57.3666C115.596 57.6383 114.537 57.7976 113.677 57.7025L113.759 67.826L113.762 68.2803L113.31 68.3273C110.072 68.6641 106.542 67.8475 103.374 66.2955C100.375 64.8255 97.665 62.6786 95.812 60.1681L92.3031 62.8306L91.9214 63.1202L91.6157 62.7512C87.0501 57.2383 86.366 50.6087 86.3197 46.8449L86.3135 46.3388H86.8197H91.6124C91.671 44.3378 92.0737 42.1082 92.7194 40.0116C93.4184 37.7415 94.4133 35.5914 95.5976 34.0405L95.8904 33.6571L96.2841 33.936L100.024 36.5859C100.935 35.5447 103.626 32.742 107.121 31.4586L104.353 24.1031C101.466 24.7728 98.6784 25.8142 96.059 27.2011C90.2086 30.3185 86.5961 34.1588 84.5577 38.2344C82.5179 42.3129 82.0362 46.6635 82.5091 50.827C82.9823 54.9933 84.4105 58.9615 86.1757 62.2524C87.9441 65.5492 90.0323 68.1325 91.7971 69.5474C95.6486 72.6351 96.6455 77.3015 96.2184 82.46C95.8093 87.4021 94.0875 92.8974 92.1985 98.1172H122.968C123.029 97.8674 123.075 97.7246 123.119 97.6096C123.139 97.5577 123.155 97.5209 123.169 97.4881C123.199 97.4154 123.222 97.3621 123.266 97.2073C123.403 96.7301 123.673 95.496 124.416 91.4466C124.797 89.3701 125.463 87.9392 126.369 86.9849C127.283 86.0221 128.396 85.5932 129.568 85.4343C130.725 85.2776 131.966 85.3808 133.156 85.4961C133.259 85.5061 133.362 85.5162 133.464 85.5263C134.565 85.6343 135.618 85.7376 136.606 85.6775C137.682 85.612 138.385 85.3787 138.851 85.0593C139.307 84.7475 139.58 84.3239 139.744 83.7814C139.911 83.2246 139.959 82.5536 139.955 81.7721C139.953 81.3842 139.939 80.979 139.924 80.5546L139.921 80.4741C139.906 80.0768 139.891 79.6637 139.885 79.2449L139.88 78.9165L140.18 78.7818C140.706 78.5452 141.068 78.3191 141.302 78.1093C141.533 77.9017 141.614 77.7334 141.636 77.6063C141.679 77.3526 141.52 76.9413 140.792 76.3139L140.366 75.9476L140.779 75.5673C141.259 75.1251 141.574 74.8167 141.774 74.5726C141.973 74.3295 142.01 74.2061 142.016 74.1358C142.022 74.0631 142.004 73.951 141.874 73.7046C141.79 73.5446 141.684 73.3723 141.55 73.1538C141.469 73.022 141.378 72.8734 141.275 72.7005C140.715 71.7594 140.604 71.0144 140.676 70.4655C140.711 70.1947 140.79 69.9851 140.866 69.8364C140.904 69.7624 140.942 69.7039 140.972 69.6606C140.988 69.639 141.002 69.6211 141.013 69.607C141.019 69.5999 141.024 69.5938 141.029 69.5885L141.035 69.5814L141.037 69.5783L141.039 69.5769L141.039 69.5762C141.04 69.5759 141.04 69.5756 141.409 69.9125L141.04 69.5756L141.151 69.4533L141.314 69.4218L141.314 69.4218L141.314 69.4217L141.314 69.4217L141.314 69.4216L141.319 69.4207L141.341 69.4161C141.361 69.4119 141.391 69.4053 141.431 69.3963C141.51 69.3781 141.625 69.3501 141.765 69.3115C142.047 69.234 142.423 69.1155 142.81 68.9511C143.199 68.7855 143.58 68.5807 143.882 68.3372C144.167 68.1081 144.353 67.8678 144.435 67.6199C144.448 66.8884 144.127 66.0326 143.571 65.033C143.162 64.2972 142.658 63.5347 142.125 62.7293C141.917 62.4152 141.705 62.0946 141.492 61.7665C140.747 60.6154 140.01 59.3905 139.539 58.1336C139.065 56.8725 138.845 55.5464 139.17 54.2054C140.318 49.4663 140.185 45.0181 137.578 38.7381L137.128 37.6529L138.222 38.0806ZM138.222 38.0806L138.222 38.0806L138.222 38.0806ZM104.774 23.3934L103.96 21.245C104.036 21.2173 104.141 21.1799 104.274 21.1351C104.569 21.0358 104.996 20.9007 105.535 20.7526C106.614 20.4565 108.134 20.11 109.919 19.8961C113.457 19.4723 117.996 19.5742 122.21 21.5765L121.356 23.5087L121.276 23.6889C121.159 23.6201 121.035 23.5622 120.906 23.5161C115.791 21.6164 111.087 21.592 104.774 23.3934Z" fill="white" stroke="black"/>
<path d="M110.346 40.2547C111.127 39.7331 112.045 39.4546 112.984 39.4546C114.242 39.4556 115.45 39.9562 116.34 40.8464C117.23 41.7367 117.731 42.9438 117.732 44.2028C117.731 45.1417 117.453 46.0595 116.931 46.8401C116.41 47.6209 115.668 48.2295 114.801 48.5888C113.933 48.9482 112.978 49.0422 112.058 48.859C111.137 48.6758 110.291 48.2236 109.627 47.5596C108.963 46.8956 108.51 46.0496 108.327 45.1287C108.144 44.2077 108.238 43.253 108.597 42.3855C108.957 41.5179 109.565 40.7764 110.346 40.2547Z" fill="white" stroke="black"/>
</g>
<path d="M14.7559 128V102.406H22.6309C24.8809 102.406 26.8906 102.916 28.6602 103.936C30.4414 104.943 31.8301 106.385 32.8262 108.26C33.8223 110.123 34.3203 112.244 34.3203 114.623V115.801C34.3203 118.18 33.8281 120.295 32.8438 122.146C31.8711 123.998 30.4941 125.434 28.7129 126.453C26.9316 127.473 24.9219 127.988 22.6836 128H14.7559ZM20.0293 106.678V123.764H22.5781C24.6406 123.764 26.2168 123.09 27.3066 121.742C28.3965 120.395 28.9531 118.467 28.9766 115.959V114.605C28.9766 112.004 28.4375 110.035 27.3594 108.699C26.2812 107.352 24.7051 106.678 22.6309 106.678H20.0293ZM52.2324 122.727H42.9863L41.2285 128H35.6211L45.1484 102.406H50.0352L59.6152 128H54.0078L52.2324 122.727ZM44.4102 118.455H50.8086L47.5918 108.875L44.4102 118.455ZM79.1621 106.678H71.3223V128H66.0488V106.678H58.3145V102.406H79.1621V106.678ZM94.5254 122.727H85.2793L83.5215 128H77.9141L87.4414 102.406H92.3281L101.908 128H96.3008L94.5254 122.727ZM86.7031 118.455H93.1016L89.8848 108.875L86.7031 118.455ZM133.355 119.475C133.156 122.229 132.137 124.396 130.297 125.979C128.469 127.561 126.055 128.352 123.055 128.352C119.773 128.352 117.189 127.25 115.303 125.047C113.428 122.832 112.49 119.797 112.49 115.941V114.377C112.49 111.916 112.924 109.748 113.791 107.873C114.658 105.998 115.895 104.562 117.5 103.566C119.117 102.559 120.992 102.055 123.125 102.055C126.078 102.055 128.457 102.846 130.262 104.428C132.066 106.01 133.109 108.23 133.391 111.09H128.117C127.988 109.438 127.525 108.242 126.729 107.504C125.943 106.754 124.742 106.379 123.125 106.379C121.367 106.379 120.049 107.012 119.17 108.277C118.303 109.531 117.857 111.482 117.834 114.131V116.064C117.834 118.83 118.25 120.852 119.082 122.129C119.926 123.406 121.25 124.045 123.055 124.045C124.684 124.045 125.896 123.676 126.693 122.938C127.502 122.188 127.965 121.033 128.082 119.475H133.355ZM151.268 122.727H142.021L140.264 128H134.656L144.184 102.406H149.07L158.65 128H153.043L151.268 122.727ZM143.445 118.455H149.844L146.627 108.875L143.445 118.455ZM167.932 102.406L174.506 120.969L181.045 102.406H187.971V128H182.68V121.004L183.207 108.928L176.299 128H172.678L165.787 108.945L166.314 121.004V128H161.041V102.406H167.932ZM197.85 118.982V128H192.576V102.406H202.561C204.482 102.406 206.17 102.758 207.623 103.461C209.088 104.164 210.213 105.166 210.998 106.467C211.783 107.756 212.176 109.227 212.176 110.879C212.176 113.387 211.314 115.367 209.592 116.82C207.881 118.262 205.508 118.982 202.473 118.982H197.85ZM197.85 114.711H202.561C203.955 114.711 205.016 114.383 205.742 113.727C206.48 113.07 206.85 112.133 206.85 110.914C206.85 109.66 206.48 108.646 205.742 107.873C205.004 107.1 203.984 106.701 202.684 106.678H197.85V114.711Z" fill="white"/>
<path d="M26.1074 170H25.1582V144.406H26.1074V170ZM34.2988 155.41C34.9199 153.934 35.834 152.768 37.041 151.912C38.248 151.057 39.584 150.629 41.0488 150.629C43.0879 150.629 44.5996 151.209 45.584 152.369C46.5801 153.518 47.084 155.258 47.0957 157.59V170H46.1465V157.555C46.1348 155.516 45.7188 154.01 44.8984 153.037C44.0781 152.053 42.7773 151.561 40.9961 151.561C39.3555 151.561 37.9316 152.146 36.7246 153.318C35.5293 154.479 34.7207 155.979 34.2988 157.818V170H33.3496V150.98H34.2988V155.41ZM55.1992 145.848V150.98H59.5234V151.947H55.1992V165.447C55.1992 166.795 55.416 167.791 55.8496 168.436C56.2949 169.08 57.0332 169.402 58.0645 169.402C58.5801 169.402 59.207 169.35 59.9453 169.244L60.1035 170.141C59.7168 170.281 59.0547 170.352 58.1172 170.352C56.7344 170.352 55.7441 169.971 55.1465 169.209C54.5488 168.436 54.2441 167.223 54.2324 165.57V151.947H50.7168V150.98H54.2324V145.848H55.1992ZM72.8477 151.666L71.6172 151.561C70 151.561 68.6465 152.088 67.5566 153.143C66.4668 154.186 65.752 155.65 65.4121 157.537V170H64.4629V150.98H65.4121V154.936C65.9277 153.611 66.7012 152.562 67.7324 151.789C68.7637 151.016 70.0586 150.629 71.6172 150.629C72.168 150.629 72.6133 150.693 72.9531 150.822L72.8477 151.666ZM74.7285 160.121C74.7285 158.305 75.0742 156.676 75.7656 155.234C76.4688 153.781 77.4531 152.65 78.7188 151.842C79.9961 151.033 81.4375 150.629 83.043 150.629C84.6367 150.629 86.0664 151.021 87.332 151.807C88.5977 152.592 89.582 153.705 90.2852 155.146C91 156.588 91.3633 158.211 91.375 160.016V160.859C91.375 162.688 91.0293 164.322 90.3379 165.764C89.6465 167.205 88.6621 168.33 87.3848 169.139C86.1191 169.947 84.6836 170.352 83.0781 170.352C81.4727 170.352 80.0312 169.953 78.7539 169.156C77.4883 168.359 76.5039 167.246 75.8008 165.816C75.0977 164.375 74.7402 162.758 74.7285 160.965V160.121ZM75.6777 160.859C75.6777 162.441 75.9883 163.895 76.6094 165.219C77.2422 166.531 78.1152 167.557 79.2285 168.295C80.3535 169.033 81.6367 169.402 83.0781 169.402C85.2461 169.402 87.0098 168.588 88.3691 166.959C89.7402 165.33 90.4258 163.232 90.4258 160.666V160.121C90.4258 158.562 90.1094 157.121 89.4766 155.797C88.8438 154.473 87.9648 153.441 86.8398 152.703C85.7266 151.953 84.4609 151.578 83.043 151.578C80.875 151.578 79.1055 152.404 77.7344 154.057C76.3633 155.709 75.6777 157.789 75.6777 160.297V160.859ZM95.1191 160.297C95.1191 157.262 95.7578 154.895 97.0352 153.195C98.3125 151.484 100.064 150.629 102.291 150.629C103.721 150.629 104.98 150.951 106.07 151.596C107.172 152.24 108.062 153.201 108.742 154.479V143H109.691V170H108.742V166.959C108.098 168.037 107.213 168.875 106.088 169.473C104.963 170.059 103.686 170.352 102.256 170.352C100.053 170.352 98.3125 169.479 97.0352 167.732C95.7578 165.986 95.1191 163.59 95.1191 160.543V160.297ZM96.1035 160.666C96.1035 163.361 96.6367 165.494 97.7031 167.064C98.7695 168.623 100.281 169.402 102.238 169.402C103.809 169.402 105.15 169.057 106.264 168.365C107.377 167.662 108.203 166.637 108.742 165.289V156.377C107.652 153.178 105.496 151.578 102.273 151.578C100.328 151.578 98.8105 152.346 97.7207 153.881C96.6426 155.416 96.1035 157.678 96.1035 160.666ZM128.465 170V166.924C127.902 167.979 127.082 168.816 126.004 169.438C124.926 170.047 123.561 170.352 121.908 170.352C119.834 170.352 118.275 169.748 117.232 168.541C116.201 167.322 115.674 165.553 115.65 163.232V150.98H116.6V163.268C116.623 165.283 117.08 166.812 117.971 167.855C118.861 168.887 120.162 169.402 121.873 169.402C123.689 169.402 125.166 168.975 126.303 168.119C127.439 167.264 128.16 166.01 128.465 164.357V150.98H129.432V170H128.465ZM141.895 169.402C143.617 169.402 145.035 168.945 146.148 168.031C147.273 167.117 147.889 165.852 147.994 164.234H148.943C148.85 166.074 148.141 167.557 146.816 168.682C145.492 169.795 143.852 170.352 141.895 170.352C139.516 170.352 137.623 169.49 136.217 167.768C134.822 166.045 134.125 163.707 134.125 160.754V160.121C134.125 157.238 134.822 154.936 136.217 153.213C137.623 151.49 139.504 150.629 141.859 150.629C143.875 150.629 145.539 151.232 146.852 152.439C148.164 153.646 148.861 155.252 148.943 157.256H147.994C147.912 155.545 147.309 154.174 146.184 153.143C145.07 152.1 143.629 151.578 141.859 151.578C139.738 151.578 138.074 152.346 136.867 153.881C135.672 155.404 135.074 157.525 135.074 160.244V160.859C135.074 163.52 135.678 165.611 136.885 167.135C138.104 168.646 139.773 169.402 141.895 169.402ZM155.852 145.848V150.98H160.176V151.947H155.852V165.447C155.852 166.795 156.068 167.791 156.502 168.436C156.947 169.08 157.686 169.402 158.717 169.402C159.232 169.402 159.859 169.35 160.598 169.244L160.756 170.141C160.369 170.281 159.707 170.352 158.77 170.352C157.387 170.352 156.396 169.971 155.799 169.209C155.201 168.436 154.896 167.223 154.885 165.57V151.947H151.369V150.98H154.885V145.848H155.852ZM166.293 170H165.344V150.98H166.293V170ZM164.852 145.039C164.852 144.77 164.945 144.541 165.133 144.354C165.32 144.154 165.549 144.055 165.818 144.055C166.088 144.055 166.316 144.154 166.504 144.354C166.703 144.541 166.803 144.77 166.803 145.039C166.803 145.309 166.703 145.537 166.504 145.725C166.316 145.912 166.088 146.006 165.818 146.006C165.549 146.006 165.32 145.912 165.133 145.725C164.945 145.537 164.852 145.309 164.852 145.039ZM171.092 160.121C171.092 158.305 171.438 156.676 172.129 155.234C172.832 153.781 173.816 152.65 175.082 151.842C176.359 151.033 177.801 150.629 179.406 150.629C181 150.629 182.43 151.021 183.695 151.807C184.961 152.592 185.945 153.705 186.648 155.146C187.363 156.588 187.727 158.211 187.738 160.016V160.859C187.738 162.688 187.393 164.322 186.701 165.764C186.01 167.205 185.025 168.33 183.748 169.139C182.482 169.947 181.047 170.352 179.441 170.352C177.836 170.352 176.395 169.953 175.117 169.156C173.852 168.359 172.867 167.246 172.164 165.816C171.461 164.375 171.104 162.758 171.092 160.965V160.121ZM172.041 160.859C172.041 162.441 172.352 163.895 172.973 165.219C173.605 166.531 174.479 167.557 175.592 168.295C176.717 169.033 178 169.402 179.441 169.402C181.609 169.402 183.373 168.588 184.732 166.959C186.104 165.33 186.789 163.232 186.789 160.666V160.121C186.789 158.562 186.473 157.121 185.84 155.797C185.207 154.473 184.328 153.441 183.203 152.703C182.09 151.953 180.824 151.578 179.406 151.578C177.238 151.578 175.469 152.404 174.098 154.057C172.727 155.709 172.041 157.789 172.041 160.297V160.859ZM193.311 155.41C193.932 153.934 194.846 152.768 196.053 151.912C197.26 151.057 198.596 150.629 200.061 150.629C202.1 150.629 203.611 151.209 204.596 152.369C205.592 153.518 206.096 155.258 206.107 157.59V170H205.158V157.555C205.146 155.516 204.73 154.01 203.91 153.037C203.09 152.053 201.789 151.561 200.008 151.561C198.367 151.561 196.943 152.146 195.736 153.318C194.541 154.479 193.732 155.979 193.311 157.818V170H192.361V150.98H193.311V155.41ZM78.6484 187.848V192.98H82.9727V193.947H78.6484V207.447C78.6484 208.795 78.8652 209.791 79.2988 210.436C79.7441 211.08 80.4824 211.402 81.5137 211.402C82.0293 211.402 82.6562 211.35 83.3945 211.244L83.5527 212.141C83.166 212.281 82.5039 212.352 81.5664 212.352C80.1836 212.352 79.1934 211.971 78.5957 211.209C77.998 210.436 77.6934 209.223 77.6816 207.57V193.947H74.166V192.98H77.6816V187.848H78.6484ZM86.1191 202.121C86.1191 200.305 86.4648 198.676 87.1562 197.234C87.8594 195.781 88.8438 194.65 90.1094 193.842C91.3867 193.033 92.8281 192.629 94.4336 192.629C96.0273 192.629 97.457 193.021 98.7227 193.807C99.9883 194.592 100.973 195.705 101.676 197.146C102.391 198.588 102.754 200.211 102.766 202.016V202.859C102.766 204.688 102.42 206.322 101.729 207.764C101.037 209.205 100.053 210.33 98.7754 211.139C97.5098 211.947 96.0742 212.352 94.4688 212.352C92.8633 212.352 91.4219 211.953 90.1445 211.156C88.8789 210.359 87.8945 209.246 87.1914 207.816C86.4883 206.375 86.1309 204.758 86.1191 202.965V202.121ZM87.0684 202.859C87.0684 204.441 87.3789 205.895 88 207.219C88.6328 208.531 89.5059 209.557 90.6191 210.295C91.7441 211.033 93.0273 211.402 94.4688 211.402C96.6367 211.402 98.4004 210.588 99.7598 208.959C101.131 207.33 101.816 205.232 101.816 202.666V202.121C101.816 200.562 101.5 199.121 100.867 197.797C100.234 196.473 99.3555 195.441 98.2305 194.703C97.1172 193.953 95.8516 193.578 94.4336 193.578C92.2656 193.578 90.4961 194.404 89.125 196.057C87.7539 197.709 87.0684 199.789 87.0684 202.297V202.859ZM134.529 209.258C133.885 210.148 132.754 210.887 131.137 211.473C129.52 212.059 127.738 212.352 125.793 212.352C123.895 212.352 122.201 211.889 120.713 210.963C119.225 210.037 118.059 208.73 117.215 207.043C116.383 205.355 115.955 203.445 115.932 201.312V196.918C115.932 194.82 116.336 192.939 117.145 191.275C117.953 189.611 119.09 188.328 120.555 187.426C122.02 186.512 123.666 186.055 125.494 186.055C128.037 186.055 130.105 186.705 131.699 188.006C133.305 189.307 134.236 191.082 134.494 193.332H133.545C133.229 191.293 132.379 189.729 130.996 188.639C129.613 187.549 127.779 187.004 125.494 187.004C122.916 187.004 120.836 187.924 119.254 189.764C117.672 191.604 116.881 194.023 116.881 197.023V201.102C116.881 203.105 117.25 204.893 117.988 206.463C118.738 208.033 119.787 209.252 121.135 210.119C122.494 210.975 124.047 211.402 125.793 211.402C127.504 211.402 129.092 211.15 130.557 210.646C132.021 210.143 133.029 209.533 133.58 208.818V201.365H125.758V200.398H134.529V209.258ZM141.895 212H140.945V192.98H141.895V212ZM140.453 187.039C140.453 186.77 140.547 186.541 140.734 186.354C140.922 186.154 141.15 186.055 141.42 186.055C141.689 186.055 141.918 186.154 142.105 186.354C142.305 186.541 142.404 186.77 142.404 187.039C142.404 187.309 142.305 187.537 142.105 187.725C141.918 187.912 141.689 188.006 141.42 188.006C141.15 188.006 140.922 187.912 140.734 187.725C140.547 187.537 140.453 187.309 140.453 187.039ZM150.262 187.848V192.98H154.586V193.947H150.262V207.447C150.262 208.795 150.479 209.791 150.912 210.436C151.357 211.08 152.096 211.402 153.127 211.402C153.643 211.402 154.27 211.35 155.008 211.244L155.166 212.141C154.779 212.281 154.117 212.352 153.18 212.352C151.797 212.352 150.807 211.971 150.209 211.209C149.611 210.436 149.307 209.223 149.295 207.57V193.947H145.779V192.98H149.295V187.848H150.262Z" fill="white"/>
<defs>
<clipPath id="clip0">
<rect width="120" height="127.768" fill="white" transform="translate(54)"/>
</clipPath>
</defs>
</svg>
