<svg width="227" height="255" viewBox="0 0 227 255" fill="none" xmlns="http://www.w3.org/2000/svg">
<g clip-path="url(#clip0)">
<path d="M114.562 0.68942L114.562 0.689434L171.08 20.1339C171.08 20.1341 171.081 20.1344 171.082 20.1347C171.852 20.4088 172.506 20.9364 172.937 21.6309C173.368 22.3259 173.55 23.1468 173.454 23.9589C173.454 23.9593 173.454 23.9596 173.454 23.9599L164.474 97.6477C164.405 98.2047 164.207 98.7378 163.895 99.2045C163.583 99.6711 163.167 100.058 162.679 100.336C162.679 100.336 162.679 100.336 162.679 100.336L115.75 126.807C115.218 127.107 114.619 127.266 114.008 127.269C113.398 127.272 112.797 127.119 112.263 126.826L64.1386 100.358C64.1384 100.358 64.1382 100.358 64.138 100.358C63.634 100.078 63.2048 99.6809 62.8867 99.2C62.5686 98.7189 62.371 98.1683 62.3107 97.5946L62.3107 97.5943L54.5223 23.9042L54.5221 23.9023C54.4342 23.0995 54.6212 22.2906 55.0525 21.6079C55.4838 20.9251 56.1339 20.4087 56.8966 20.1432L56.8981 20.1427L112.209 0.68942C112.21 0.689261 112.21 0.689103 112.211 0.688944C112.973 0.427094 113.8 0.427253 114.562 0.68942Z" fill="#33AACC" stroke="black"/>
<path d="M138.222 38.0806L138.222 38.0807L138.223 38.081L138.23 38.0836L138.26 38.0948C138.287 38.1049 138.329 38.1198 138.383 38.1379C138.49 38.1742 138.644 38.2231 138.828 38.2722C139.201 38.3718 139.673 38.4658 140.118 38.4681C140.575 38.4705 140.913 38.3756 141.113 38.1939C141.287 38.0357 141.461 37.7133 141.364 36.9886C141.168 35.528 140 33.9475 138.344 32.4133C136.708 30.8981 134.683 29.5077 132.932 28.4169L132.932 28.4167C131.438 27.4852 127.319 25.4588 121.78 24.2157L121.7 24.4332L120.997 26.3443C121.384 26.5264 121.989 26.8208 122.651 27.1809C123.507 27.646 124.5 28.2418 125.24 28.8643L126.019 27.787L126.275 27.4319L126.661 27.6397L126.424 28.0799C126.661 27.6397 126.661 27.6398 126.662 27.64L126.662 27.6403L126.664 27.6411L126.669 27.6438L126.686 27.6531C126.7 27.661 126.72 27.6724 126.746 27.6873C126.798 27.7171 126.873 27.761 126.968 27.819C127.158 27.9351 127.429 28.1082 127.758 28.34C128.417 28.8033 129.314 29.5022 130.274 30.4502C132.192 32.3451 134.373 35.2463 135.393 39.2562L135.506 39.7003L135.073 39.8514L133.79 40.2996C134.876 44.6243 134.793 49.1631 133.547 53.4506L133.401 53.9526L132.906 53.7845L128.631 52.3329C128.342 53.0231 127.758 54.33 126.954 55.6686C126.428 56.5438 125.801 57.4457 125.093 58.2007C124.388 58.9514 123.574 59.5879 122.668 59.8838L122.33 59.9945L122.114 59.7103L119.424 56.1551C118.651 56.65 117.611 57.0824 116.58 57.3666C115.596 57.6383 114.537 57.7976 113.677 57.7025L113.759 67.826L113.762 68.2803L113.31 68.3273C110.072 68.6641 106.542 67.8475 103.374 66.2955C100.375 64.8255 97.6651 62.6786 95.8121 60.1681L92.3031 62.8306L91.9214 63.1202L91.6158 62.7512C87.0502 57.2383 86.3661 50.6087 86.3197 46.8449L86.3135 46.3388H86.8197H91.6124C91.671 44.3378 92.0738 42.1082 92.7194 40.0116C93.4185 37.7415 94.4134 35.5914 95.5977 34.0405L95.8905 33.6571L96.2841 33.936L100.024 36.5859C100.935 35.5447 103.626 32.742 107.122 31.4586L104.353 24.1031C101.466 24.7728 98.6784 25.8142 96.0591 27.2011C90.2087 30.3185 86.5961 34.1588 84.5577 38.2344C82.5179 42.3129 82.0363 46.6635 82.5091 50.827C82.9823 54.9933 84.4106 58.9615 86.1757 62.2524C87.9441 65.5492 90.0323 68.1325 91.7972 69.5474C95.6486 72.6351 96.6455 77.3015 96.2185 82.46C95.8093 87.4021 94.0875 92.8974 92.1985 98.1172H122.968C123.03 97.8674 123.075 97.7246 123.119 97.6096C123.139 97.5577 123.155 97.5209 123.169 97.4881C123.199 97.4154 123.222 97.3621 123.266 97.2073C123.403 96.7301 123.673 95.496 124.416 91.4466C124.797 89.3701 125.463 87.9392 126.369 86.9849C127.283 86.0221 128.396 85.5932 129.568 85.4343C130.725 85.2776 131.966 85.3808 133.156 85.4961C133.259 85.5061 133.362 85.5162 133.464 85.5263C134.565 85.6343 135.618 85.7376 136.606 85.6775C137.682 85.612 138.385 85.3787 138.851 85.0593C139.307 84.7475 139.58 84.3239 139.744 83.7814C139.911 83.2246 139.959 82.5536 139.955 81.7721C139.953 81.3842 139.939 80.979 139.924 80.5546L139.921 80.4741C139.906 80.0768 139.891 79.6637 139.885 79.2449L139.88 78.9165L140.18 78.7818C140.706 78.5452 141.068 78.3191 141.302 78.1093C141.533 77.9017 141.614 77.7334 141.636 77.6063C141.679 77.3526 141.52 76.9413 140.792 76.3139L140.366 75.9476L140.779 75.5673C141.259 75.1251 141.574 74.8167 141.774 74.5726C141.973 74.3295 142.01 74.2061 142.016 74.1358C142.022 74.0631 142.004 73.951 141.874 73.7046C141.79 73.5446 141.684 73.3723 141.55 73.1538C141.469 73.022 141.378 72.8734 141.276 72.7005C140.715 71.7594 140.604 71.0144 140.676 70.4655C140.711 70.1947 140.79 69.9851 140.866 69.8364C140.904 69.7624 140.942 69.7039 140.973 69.6606C140.988 69.639 141.002 69.6211 141.013 69.607C141.019 69.5999 141.024 69.5938 141.029 69.5885L141.035 69.5814L141.038 69.5783L141.039 69.5769L141.039 69.5762C141.04 69.5759 141.04 69.5756 141.409 69.9125L141.04 69.5756L141.152 69.4533L141.314 69.4218L141.314 69.4218L141.314 69.4217L141.314 69.4217L141.314 69.4216L141.319 69.4207L141.341 69.4161C141.361 69.4119 141.391 69.4053 141.431 69.3963C141.51 69.3781 141.625 69.3501 141.765 69.3115C142.047 69.234 142.423 69.1155 142.81 68.9511C143.199 68.7855 143.58 68.5807 143.882 68.3372C144.167 68.1081 144.353 67.8678 144.435 67.6199C144.448 66.8884 144.127 66.0326 143.571 65.033C143.162 64.2972 142.658 63.5347 142.125 62.7293C141.917 62.4152 141.705 62.0946 141.492 61.7665C140.747 60.6154 140.01 59.3905 139.539 58.1336C139.065 56.8725 138.845 55.5464 139.17 54.2054C140.318 49.4663 140.185 45.0181 137.578 38.7381L137.128 37.6529L138.222 38.0806ZM138.222 38.0806L138.222 38.0806L138.222 38.0806ZM104.774 23.3934L103.96 21.245C104.036 21.2173 104.141 21.1799 104.274 21.1351C104.569 21.0358 104.996 20.9007 105.535 20.7526C106.614 20.4565 108.134 20.11 109.919 19.8961C113.457 19.4723 117.996 19.5742 122.21 21.5765L121.356 23.5087L121.277 23.6889C121.159 23.6201 121.035 23.5622 120.906 23.5161C115.791 21.6164 111.087 21.592 104.774 23.3934Z" fill="white" stroke="black"/>
<path d="M110.346 40.2547C111.127 39.7331 112.045 39.4546 112.984 39.4546C114.243 39.4556 115.45 39.9562 116.34 40.8464C117.23 41.7367 117.731 42.9438 117.732 44.2028C117.732 45.1417 117.453 46.0595 116.931 46.8401C116.41 47.6209 115.668 48.2295 114.801 48.5888C113.933 48.9482 112.979 49.0422 112.058 48.859C111.137 48.6758 110.291 48.2236 109.627 47.5596C108.963 46.8956 108.51 46.0496 108.327 45.1287C108.144 44.2077 108.238 43.253 108.597 42.3855C108.957 41.5179 109.565 40.7764 110.346 40.2547Z" fill="white" stroke="black"/>
</g>
<path d="M14.7559 128V102.406H22.6309C24.8809 102.406 26.8907 102.916 28.6602 103.936C30.4415 104.943 31.8301 106.385 32.8262 108.26C33.8223 110.123 34.3204 112.244 34.3204 114.623V115.801C34.3204 118.18 33.8282 120.295 32.8438 122.146C31.8712 123.998 30.4942 125.434 28.713 126.453C26.9317 127.473 24.9219 127.988 22.6837 128H14.7559ZM20.0294 106.678V123.764H22.5782C24.6407 123.764 26.2169 123.09 27.3067 121.742C28.3965 120.395 28.9532 118.467 28.9766 115.959V114.605C28.9766 112.004 28.4376 110.035 27.3594 108.699C26.2813 107.352 24.7051 106.678 22.6309 106.678H20.0294ZM52.2325 122.727H42.9864L41.2286 128H35.6212L45.1485 102.406H50.0352L59.6153 128H54.0079L52.2325 122.727ZM44.4102 118.455H50.8087L47.5919 108.875L44.4102 118.455ZM79.1622 106.678H71.3223V128H66.0489V106.678H58.3145V102.406H79.1622V106.678ZM94.5255 122.727H85.2794L83.5215 128H77.9141L87.4415 102.406H92.3282L101.908 128H96.3008L94.5255 122.727ZM86.7032 118.455H93.1016L89.8848 108.875L86.7032 118.455ZM133.356 119.475C133.156 122.229 132.137 124.396 130.297 125.979C128.469 127.561 126.055 128.352 123.055 128.352C119.773 128.352 117.19 127.25 115.303 125.047C113.428 122.832 112.49 119.797 112.49 115.941V114.377C112.49 111.916 112.924 109.748 113.791 107.873C114.658 105.998 115.895 104.562 117.5 103.566C119.117 102.559 120.992 102.055 123.125 102.055C126.078 102.055 128.457 102.846 130.262 104.428C132.066 106.01 133.109 108.23 133.391 111.09H128.117C127.988 109.438 127.525 108.242 126.729 107.504C125.943 106.754 124.742 106.379 123.125 106.379C121.367 106.379 120.049 107.012 119.17 108.277C118.303 109.531 117.857 111.482 117.834 114.131V116.064C117.834 118.83 118.25 120.852 119.082 122.129C119.926 123.406 121.25 124.045 123.055 124.045C124.684 124.045 125.897 123.676 126.693 122.938C127.502 122.188 127.965 121.033 128.082 119.475H133.356ZM151.268 122.727H142.022L140.264 128H134.656L144.184 102.406H149.07L158.65 128H153.043L151.268 122.727ZM143.445 118.455H149.844L146.627 108.875L143.445 118.455ZM167.932 102.406L174.506 120.969L181.045 102.406H187.971V128H182.68V121.004L183.207 108.928L176.299 128H172.678L165.787 108.945L166.315 121.004V128H161.041V102.406H167.932ZM197.85 118.982V128H192.576V102.406H202.561C204.482 102.406 206.17 102.758 207.623 103.461C209.088 104.164 210.213 105.166 210.998 106.467C211.783 107.756 212.176 109.227 212.176 110.879C212.176 113.387 211.315 115.367 209.592 116.82C207.881 118.262 205.508 118.982 202.473 118.982H197.85ZM197.85 114.711H202.561C203.955 114.711 205.016 114.383 205.742 113.727C206.481 113.07 206.85 112.133 206.85 110.914C206.85 109.66 206.481 108.646 205.742 107.873C205.004 107.1 203.984 106.701 202.684 106.678H197.85V114.711Z" fill="white"/>
<path d="M20.7657 170H19.8165V144.406H20.7657V170ZM28.9571 155.41C29.5782 153.934 30.4922 152.768 31.6993 151.912C32.9063 151.057 34.2422 150.629 35.7071 150.629C37.7462 150.629 39.2579 151.209 40.2422 152.369C41.2383 153.518 41.7422 155.258 41.754 157.59V170H40.8047V157.555C40.793 155.516 40.377 154.01 39.5567 153.037C38.7364 152.053 37.4356 151.561 35.6544 151.561C34.0137 151.561 32.5899 152.146 31.3829 153.318C30.1876 154.479 29.379 155.979 28.9571 157.818V170H28.0079V150.98H28.9571V155.41ZM49.8575 145.848V150.98H54.1817V151.947H49.8575V165.447C49.8575 166.795 50.0743 167.791 50.5079 168.436C50.9532 169.08 51.6915 169.402 52.7227 169.402C53.2383 169.402 53.8653 169.35 54.6036 169.244L54.7618 170.141C54.3751 170.281 53.713 170.352 52.7755 170.352C51.3926 170.352 50.4024 169.971 49.8047 169.209C49.2071 168.436 48.9024 167.223 48.8907 165.57V151.947H45.3751V150.98H48.8907V145.848H49.8575ZM65.959 170.352C64.4239 170.352 63.0118 169.941 61.7227 169.121C60.4454 168.289 59.4434 167.152 58.7169 165.711C57.9903 164.27 57.627 162.67 57.627 160.912V160.121C57.627 158.363 57.9786 156.752 58.6817 155.287C59.3848 153.822 60.3516 152.68 61.5821 151.859C62.8126 151.039 64.1544 150.629 65.6075 150.629C67.7286 150.629 69.463 151.385 70.8106 152.896C72.1583 154.408 72.8321 156.395 72.8321 158.855V159.857H58.5762V160.895C58.5762 162.441 58.8985 163.877 59.543 165.201C60.1993 166.514 61.0958 167.545 62.2325 168.295C63.3809 169.045 64.6231 169.42 65.959 169.42C67.2364 169.42 68.3204 169.209 69.211 168.787C70.1133 168.354 70.9102 167.691 71.6016 166.801L72.2696 167.275C70.8516 169.326 68.7481 170.352 65.959 170.352ZM65.6075 151.578C63.7559 151.578 62.1856 152.27 60.8965 153.652C59.6075 155.023 58.8516 156.775 58.629 158.908H71.8829V158.68C71.8829 157.391 71.6075 156.195 71.0567 155.094C70.5176 153.98 69.7676 153.119 68.8067 152.51C67.8575 151.889 66.7911 151.578 65.6075 151.578ZM85.6465 151.666L84.4161 151.561C82.7989 151.561 81.4454 152.088 80.3555 153.143C79.2657 154.186 78.5508 155.65 78.211 157.537V170H77.2618V150.98H78.211V154.936C78.7266 153.611 79.5001 152.562 80.5313 151.789C81.5626 151.016 82.8575 150.629 84.4161 150.629C84.9669 150.629 85.4122 150.693 85.752 150.822L85.6465 151.666ZM102.926 170H101.977V157.221C101.965 155.311 101.543 153.893 100.711 152.967C99.8907 152.029 98.5782 151.561 96.7735 151.561C94.6876 151.561 92.9825 152.48 91.6583 154.32C90.8731 155.422 90.3516 156.641 90.0938 157.977V170H89.127V150.98H90.0938V155.48C90.7383 153.934 91.6583 152.738 92.8536 151.895C94.0489 151.051 95.3731 150.629 96.8262 150.629C98.42 150.629 99.7208 150.98 100.729 151.684C101.748 152.387 102.416 153.535 102.732 155.129C103.295 153.758 104.209 152.668 105.475 151.859C106.74 151.039 108.158 150.629 109.729 150.629C111.779 150.629 113.303 151.209 114.299 152.369C115.307 153.529 115.816 155.27 115.828 157.59V170H114.879V157.66C114.879 155.574 114.457 154.033 113.613 153.037C112.781 152.029 111.469 151.537 109.676 151.561C107.367 151.596 105.539 152.516 104.191 154.32C103.418 155.363 102.996 156.371 102.926 157.344V170ZM128.432 170.352C126.897 170.352 125.484 169.941 124.195 169.121C122.918 168.289 121.916 167.152 121.19 165.711C120.463 164.27 120.1 162.67 120.1 160.912V160.121C120.1 158.363 120.451 156.752 121.154 155.287C121.857 153.822 122.824 152.68 124.055 151.859C125.285 151.039 126.627 150.629 128.08 150.629C130.201 150.629 131.936 151.385 133.283 152.896C134.631 154.408 135.305 156.395 135.305 158.855V159.857H121.049V160.895C121.049 162.441 121.371 163.877 122.016 165.201C122.672 166.514 123.568 167.545 124.705 168.295C125.854 169.045 127.096 169.42 128.432 169.42C129.709 169.42 130.793 169.209 131.684 168.787C132.586 168.354 133.383 167.691 134.074 166.801L134.742 167.275C133.324 169.326 131.221 170.352 128.432 170.352ZM128.08 151.578C126.229 151.578 124.658 152.27 123.369 153.652C122.08 155.023 121.324 156.775 121.102 158.908H134.356V158.68C134.356 157.391 134.08 156.195 133.529 155.094C132.99 153.98 132.24 153.119 131.279 152.51C130.33 151.889 129.264 151.578 128.08 151.578ZM138.856 160.297C138.856 157.262 139.494 154.895 140.772 153.195C142.049 151.484 143.801 150.629 146.027 150.629C147.457 150.629 148.717 150.951 149.807 151.596C150.908 152.24 151.799 153.201 152.479 154.479V143H153.428V170H152.479V166.959C151.834 168.037 150.949 168.875 149.824 169.473C148.699 170.059 147.422 170.352 145.992 170.352C143.789 170.352 142.049 169.479 140.772 167.732C139.494 165.986 138.856 163.59 138.856 160.543V160.297ZM139.84 160.666C139.84 163.361 140.373 165.494 141.44 167.064C142.506 168.623 144.018 169.402 145.975 169.402C147.545 169.402 148.887 169.057 150 168.365C151.113 167.662 151.94 166.637 152.479 165.289V156.377C151.389 153.178 149.232 151.578 146.01 151.578C144.065 151.578 142.547 152.346 141.457 153.881C140.379 155.416 139.84 157.678 139.84 160.666ZM160.635 170H159.686V150.98H160.635V170ZM159.193 145.039C159.193 144.77 159.287 144.541 159.475 144.354C159.662 144.154 159.891 144.055 160.16 144.055C160.43 144.055 160.658 144.154 160.846 144.354C161.045 144.541 161.145 144.77 161.145 145.039C161.145 145.309 161.045 145.537 160.846 145.725C160.658 145.912 160.43 146.006 160.16 146.006C159.891 146.006 159.662 145.912 159.475 145.725C159.287 145.537 159.193 145.309 159.193 145.039ZM179.162 170C178.928 169.191 178.811 168.031 178.811 166.52C178.061 167.738 177.035 168.682 175.734 169.35C174.434 170.018 172.963 170.352 171.322 170.352C169.565 170.352 168.147 169.877 167.068 168.928C166.002 167.967 165.469 166.719 165.469 165.184C165.469 163.438 166.254 162.043 167.824 161C169.406 159.945 171.504 159.406 174.117 159.383H178.811V156.605C178.811 155.012 178.307 153.775 177.299 152.896C176.303 152.018 174.873 151.578 173.01 151.578C171.275 151.578 169.828 152.023 168.668 152.914C167.508 153.805 166.928 154.906 166.928 156.219L165.979 156.184C165.979 154.637 166.658 153.324 168.018 152.246C169.377 151.168 171.041 150.629 173.01 150.629C175.061 150.629 176.69 151.145 177.897 152.176C179.104 153.195 179.725 154.637 179.76 156.5V165.588C179.76 167.674 179.924 169.092 180.252 169.842V170H179.162ZM171.322 169.42C173.104 169.42 174.633 169.021 175.91 168.225C177.199 167.428 178.166 166.309 178.811 164.867V160.35H174.416C171.697 160.35 169.617 160.889 168.176 161.967C167.004 162.846 166.418 163.941 166.418 165.254C166.418 166.414 166.881 167.398 167.807 168.207C168.732 169.016 169.904 169.42 171.322 169.42ZM188.022 145.848V150.98H192.346V151.947H188.022V165.447C188.022 166.795 188.238 167.791 188.672 168.436C189.117 169.08 189.856 169.402 190.887 169.402C191.402 169.402 192.029 169.35 192.768 169.244L192.926 170.141C192.539 170.281 191.877 170.352 190.94 170.352C189.557 170.352 188.566 169.971 187.969 169.209C187.371 168.436 187.066 167.223 187.055 165.57V151.947H183.539V150.98H187.055V145.848H188.022ZM204.123 170.352C202.588 170.352 201.176 169.941 199.887 169.121C198.609 168.289 197.607 167.152 196.881 165.711C196.154 164.27 195.791 162.67 195.791 160.912V160.121C195.791 158.363 196.143 156.752 196.846 155.287C197.549 153.822 198.516 152.68 199.746 151.859C200.977 151.039 202.318 150.629 203.772 150.629C205.893 150.629 207.627 151.385 208.975 152.896C210.322 154.408 210.996 156.395 210.996 158.855V159.857H196.74V160.895C196.74 162.441 197.063 163.877 197.707 165.201C198.363 166.514 199.26 167.545 200.397 168.295C201.545 169.045 202.787 169.42 204.123 169.42C205.4 169.42 206.484 169.209 207.375 168.787C208.277 168.354 209.074 167.691 209.766 166.801L210.434 167.275C209.016 169.326 206.912 170.352 204.123 170.352ZM203.772 151.578C201.92 151.578 200.35 152.27 199.061 153.652C197.772 155.023 197.016 156.775 196.793 158.908H210.047V158.68C210.047 157.391 209.772 156.195 209.221 155.094C208.682 153.98 207.932 153.119 206.971 152.51C206.022 151.889 204.955 151.578 203.772 151.578ZM37.6583 201.189V212H36.709V186.406H44.7071C47.3204 186.406 49.3477 187.068 50.7891 188.393C52.2422 189.705 52.9688 191.533 52.9688 193.877C52.9688 196.197 52.2598 197.99 50.8419 199.256C49.4356 200.521 47.4317 201.166 44.8301 201.189H37.6583ZM37.6583 200.24H44.7071C47.0157 200.24 48.8087 199.684 50.086 198.57C51.3751 197.457 52.0196 195.904 52.0196 193.912C52.0196 191.85 51.3751 190.244 50.086 189.096C48.8087 187.936 47.0157 187.355 44.7071 187.355H37.6583V200.24ZM63.9376 210.523L64.0606 210.172L70.6348 192.98H71.6895L63.1817 215.305L62.7598 216.359C61.8458 218.574 60.334 219.682 58.2247 219.682C57.545 219.682 57.0762 219.617 56.8184 219.488L56.8008 218.592C57.1758 218.697 57.6036 218.75 58.084 218.75C59.0801 218.75 59.9063 218.457 60.5626 217.871C61.2188 217.297 61.7872 216.354 62.2676 215.041L63.4278 211.895L55.8516 192.98H56.8887L63.9376 210.523ZM77.4376 187.848V192.98H81.7618V193.947H77.4376V207.447C77.4376 208.795 77.6544 209.791 78.088 210.436C78.5333 211.08 79.2715 211.402 80.3028 211.402C80.8184 211.402 81.4454 211.35 82.1837 211.244L82.3419 212.141C81.9551 212.281 81.293 212.352 80.3555 212.352C78.9727 212.352 77.9825 211.971 77.3848 211.209C76.7872 210.436 76.4825 209.223 76.4708 207.57V193.947H72.9551V192.98H76.4708V187.848H77.4376ZM87.6505 197.41C88.2715 195.934 89.1856 194.768 90.3926 193.912C91.5997 193.057 92.9356 192.629 94.4005 192.629C96.4395 192.629 97.9512 193.209 98.9356 194.369C99.9317 195.518 100.436 197.258 100.447 199.59V212H99.4981V199.555C99.4864 197.516 99.0704 196.01 98.2501 195.037C97.4297 194.053 96.129 193.561 94.3477 193.561C92.7071 193.561 91.2833 194.146 90.0762 195.318C88.8809 196.479 88.0723 197.979 87.6505 199.818V212H86.7012V185H87.6505V197.41ZM104.982 202.121C104.982 200.305 105.328 198.676 106.02 197.234C106.723 195.781 107.707 194.65 108.973 193.842C110.25 193.033 111.691 192.629 113.297 192.629C114.891 192.629 116.32 193.021 117.586 193.807C118.852 194.592 119.836 195.705 120.539 197.146C121.254 198.588 121.617 200.211 121.629 202.016V202.859C121.629 204.688 121.283 206.322 120.592 207.764C119.9 209.205 118.916 210.33 117.639 211.139C116.373 211.947 114.938 212.352 113.332 212.352C111.727 212.352 110.285 211.953 109.008 211.156C107.742 210.359 106.758 209.246 106.055 207.816C105.352 206.375 104.994 204.758 104.982 202.965V202.121ZM105.932 202.859C105.932 204.441 106.242 205.895 106.863 207.219C107.496 208.531 108.369 209.557 109.482 210.295C110.607 211.033 111.891 211.402 113.332 211.402C115.5 211.402 117.264 210.588 118.623 208.959C119.994 207.33 120.68 205.232 120.68 202.666V202.121C120.68 200.562 120.363 199.121 119.731 197.797C119.098 196.473 118.219 195.441 117.094 194.703C115.981 193.953 114.715 193.578 113.297 193.578C111.129 193.578 109.359 194.404 107.988 196.057C106.617 197.709 105.932 199.789 105.932 202.297V202.859ZM127.201 197.41C127.822 195.934 128.736 194.768 129.943 193.912C131.15 193.057 132.486 192.629 133.951 192.629C135.99 192.629 137.502 193.209 138.486 194.369C139.482 195.518 139.986 197.258 139.998 199.59V212H139.049V199.555C139.037 197.516 138.621 196.01 137.801 195.037C136.981 194.053 135.68 193.561 133.898 193.561C132.258 193.561 130.834 194.146 129.627 195.318C128.432 196.479 127.623 197.979 127.201 199.818V212H126.252V192.98H127.201V197.41ZM156.029 212V193.947H152.725V192.98H156.029V190.203C156.041 188.445 156.481 187.08 157.348 186.107C158.227 185.123 159.445 184.631 161.004 184.631C161.871 184.631 162.621 184.73 163.254 184.93L163.113 185.844C162.504 185.668 161.807 185.58 161.022 185.58C159.768 185.58 158.777 185.99 158.051 186.811C157.336 187.619 156.979 188.773 156.979 190.273V192.98H162.006V193.947H156.979V212H156.029ZM164.502 202.121C164.502 200.305 164.848 198.676 165.539 197.234C166.242 195.781 167.227 194.65 168.492 193.842C169.77 193.033 171.211 192.629 172.816 192.629C174.41 192.629 175.84 193.021 177.106 193.807C178.371 194.592 179.356 195.705 180.059 197.146C180.773 198.588 181.137 200.211 181.148 202.016V202.859C181.148 204.688 180.803 206.322 180.111 207.764C179.42 209.205 178.436 210.33 177.158 211.139C175.893 211.947 174.457 212.352 172.852 212.352C171.246 212.352 169.805 211.953 168.527 211.156C167.262 210.359 166.277 209.246 165.574 207.816C164.871 206.375 164.514 204.758 164.502 202.965V202.121ZM165.451 202.859C165.451 204.441 165.762 205.895 166.383 207.219C167.016 208.531 167.889 209.557 169.002 210.295C170.127 211.033 171.41 211.402 172.852 211.402C175.02 211.402 176.783 210.588 178.143 208.959C179.514 207.33 180.199 205.232 180.199 202.666V202.121C180.199 200.562 179.883 199.121 179.25 197.797C178.617 196.473 177.738 195.441 176.613 194.703C175.5 193.953 174.234 193.578 172.816 193.578C170.648 193.578 168.879 194.404 167.508 196.057C166.137 197.709 165.451 199.789 165.451 202.297V202.859ZM194.156 193.666L192.926 193.561C191.309 193.561 189.955 194.088 188.865 195.143C187.775 196.186 187.061 197.65 186.721 199.537V212H185.772V192.98H186.721V196.936C187.236 195.611 188.01 194.562 189.041 193.789C190.072 193.016 191.367 192.629 192.926 192.629C193.477 192.629 193.922 192.693 194.262 192.822L194.156 193.666ZM16.0723 254V228.406H23.1563C25.1368 228.406 26.9297 228.875 28.5352 229.812C30.1407 230.75 31.4005 232.068 32.3145 233.768C33.2286 235.455 33.6973 237.348 33.7208 239.445V242.768C33.7208 244.9 33.2696 246.822 32.3672 248.533C31.4766 250.244 30.2286 251.58 28.6231 252.541C27.0176 253.502 25.2247 253.988 23.2442 254H16.0723ZM17.0215 229.355V253.051H23.1563C24.9493 253.051 26.5782 252.617 28.043 251.75C29.5196 250.871 30.6739 249.652 31.5059 248.094C32.338 246.523 32.7598 244.783 32.7715 242.873V239.586C32.7715 237.676 32.3614 235.941 31.5411 234.383C30.7325 232.824 29.5958 231.605 28.1309 230.727C26.6778 229.836 25.0665 229.379 23.2969 229.355H17.0215ZM51.4219 254C51.1876 253.191 51.0704 252.031 51.0704 250.52C50.3204 251.738 49.295 252.682 47.9942 253.35C46.6934 254.018 45.2227 254.352 43.5821 254.352C41.8243 254.352 40.4063 253.877 39.3282 252.928C38.2618 251.967 37.7286 250.719 37.7286 249.184C37.7286 247.438 38.5137 246.043 40.084 245C41.6661 243.945 43.7637 243.406 46.377 243.383H51.0704V240.605C51.0704 239.012 50.5665 237.775 49.5587 236.896C48.5626 236.018 47.1329 235.578 45.2696 235.578C43.5352 235.578 42.088 236.023 40.9278 236.914C39.7676 237.805 39.1876 238.906 39.1876 240.219L38.2383 240.184C38.2383 238.637 38.918 237.324 40.2774 236.246C41.6368 235.168 43.3008 234.629 45.2696 234.629C47.3204 234.629 48.9493 235.145 50.1563 236.176C51.3633 237.195 51.9844 238.637 52.0196 240.5V249.588C52.0196 251.674 52.1837 253.092 52.5118 253.842V254H51.4219ZM43.5821 253.42C45.3633 253.42 46.8926 253.021 48.17 252.225C49.459 251.428 50.4258 250.309 51.0704 248.867V244.35H46.6758C43.9571 244.35 41.877 244.889 40.4356 245.967C39.2637 246.846 38.6778 247.941 38.6778 249.254C38.6778 250.414 39.1407 251.398 40.0665 252.207C40.9922 253.016 42.1641 253.42 43.5821 253.42ZM60.2813 229.848V234.98H64.6055V235.947H60.2813V249.447C60.2813 250.795 60.4981 251.791 60.9317 252.436C61.377 253.08 62.1153 253.402 63.1465 253.402C63.6622 253.402 64.2891 253.35 65.0274 253.244L65.1856 254.141C64.7989 254.281 64.1368 254.352 63.1993 254.352C61.8165 254.352 60.8262 253.971 60.2286 253.209C59.6309 252.436 59.3262 251.223 59.3145 249.57V235.947H55.7989V234.98H59.3145V229.848H60.2813ZM81.8321 254C81.5977 253.191 81.4805 252.031 81.4805 250.52C80.7305 251.738 79.7051 252.682 78.4044 253.35C77.1036 254.018 75.6329 254.352 73.9922 254.352C72.2344 254.352 70.8165 253.877 69.7383 252.928C68.6719 251.967 68.1387 250.719 68.1387 249.184C68.1387 247.438 68.9239 246.043 70.4942 245C72.0762 243.945 74.1739 243.406 76.7872 243.383H81.4805V240.605C81.4805 239.012 80.9766 237.775 79.9688 236.896C78.9727 236.018 77.543 235.578 75.6797 235.578C73.9454 235.578 72.4981 236.023 71.338 236.914C70.1778 237.805 69.5977 238.906 69.5977 240.219L68.6485 240.184C68.6485 238.637 69.3282 237.324 70.6876 236.246C72.0469 235.168 73.711 234.629 75.6797 234.629C77.7305 234.629 79.3594 235.145 80.5665 236.176C81.7735 237.195 82.3946 238.637 82.4297 240.5V249.588C82.4297 251.674 82.5938 253.092 82.9219 253.842V254H81.8321ZM73.9922 253.42C75.7735 253.42 77.3028 253.021 78.5801 252.225C79.8692 251.428 80.836 250.309 81.4805 248.867V244.35H77.086C74.3672 244.35 72.2872 244.889 70.8458 245.967C69.6739 246.846 69.088 247.941 69.088 249.254C69.088 250.414 69.5508 251.398 70.4766 252.207C71.4024 253.016 72.5743 253.42 73.9922 253.42ZM112.998 247.865C112.998 246.775 112.74 245.855 112.225 245.105C111.721 244.344 110.918 243.676 109.816 243.102C108.727 242.516 107.074 241.918 104.859 241.309C102.645 240.699 100.981 240.084 99.8672 239.463C98.7657 238.842 97.9571 238.121 97.4415 237.301C96.9258 236.48 96.668 235.484 96.668 234.312C96.668 232.449 97.4532 230.943 99.0235 229.795C100.594 228.635 102.639 228.055 105.158 228.055C106.799 228.055 108.27 228.377 109.57 229.021C110.883 229.654 111.897 230.551 112.611 231.711C113.326 232.859 113.684 234.16 113.684 235.613H112.734C112.734 233.703 112.031 232.127 110.625 230.885C109.219 229.631 107.397 229.004 105.158 229.004C102.908 229.004 101.086 229.508 99.6915 230.516C98.3087 231.512 97.6172 232.766 97.6172 234.277C97.6172 235.812 98.2208 237.049 99.4278 237.986C100.635 238.924 102.627 239.756 105.404 240.482C108.182 241.197 110.215 242.029 111.504 242.979C113.145 244.186 113.965 245.803 113.965 247.83C113.965 249.119 113.602 250.262 112.875 251.258C112.148 252.242 111.117 253.004 109.781 253.543C108.445 254.082 106.945 254.352 105.281 254.352C103.43 254.352 101.766 254.047 100.289 253.438C98.8126 252.816 97.6993 251.938 96.9493 250.801C96.211 249.664 95.8419 248.322 95.8419 246.775H96.7911C96.7911 248.873 97.5762 250.502 99.1465 251.662C100.717 252.822 102.762 253.402 105.281 253.402C107.52 253.402 109.365 252.893 110.818 251.873C112.272 250.842 112.998 249.506 112.998 247.865ZM124.934 253.402C126.656 253.402 128.074 252.945 129.188 252.031C130.313 251.117 130.928 249.852 131.033 248.234H131.982C131.889 250.074 131.18 251.557 129.856 252.682C128.531 253.795 126.891 254.352 124.934 254.352C122.555 254.352 120.662 253.49 119.256 251.768C117.861 250.045 117.164 247.707 117.164 244.754V244.121C117.164 241.238 117.861 238.936 119.256 237.213C120.662 235.49 122.543 234.629 124.898 234.629C126.914 234.629 128.578 235.232 129.891 236.439C131.203 237.646 131.9 239.252 131.982 241.256H131.033C130.951 239.545 130.348 238.174 129.223 237.143C128.109 236.1 126.668 235.578 124.898 235.578C122.777 235.578 121.113 236.346 119.906 237.881C118.711 239.404 118.113 241.525 118.113 244.244V244.859C118.113 247.52 118.717 249.611 119.924 251.135C121.143 252.646 122.813 253.402 124.934 253.402ZM137.941 254H136.992V234.98H137.941V254ZM136.5 229.039C136.5 228.77 136.594 228.541 136.781 228.354C136.969 228.154 137.197 228.055 137.467 228.055C137.736 228.055 137.965 228.154 138.152 228.354C138.352 228.541 138.451 228.77 138.451 229.039C138.451 229.309 138.352 229.537 138.152 229.725C137.965 229.912 137.736 230.006 137.467 230.006C137.197 230.006 136.969 229.912 136.781 229.725C136.594 229.537 136.5 229.309 136.5 229.039ZM151.02 254.352C149.484 254.352 148.072 253.941 146.783 253.121C145.506 252.289 144.504 251.152 143.777 249.711C143.051 248.27 142.688 246.67 142.688 244.912V244.121C142.688 242.363 143.039 240.752 143.742 239.287C144.445 237.822 145.412 236.68 146.643 235.859C147.873 235.039 149.215 234.629 150.668 234.629C152.789 234.629 154.523 235.385 155.871 236.896C157.219 238.408 157.893 240.395 157.893 242.855V243.857H143.637V244.895C143.637 246.441 143.959 247.877 144.604 249.201C145.26 250.514 146.156 251.545 147.293 252.295C148.441 253.045 149.684 253.42 151.02 253.42C152.297 253.42 153.381 253.209 154.272 252.787C155.174 252.354 155.971 251.691 156.662 250.801L157.33 251.275C155.912 253.326 153.809 254.352 151.02 254.352ZM150.668 235.578C148.816 235.578 147.246 236.27 145.957 237.652C144.668 239.023 143.912 240.775 143.69 242.908H156.943V242.68C156.943 241.391 156.668 240.195 156.117 239.094C155.578 237.98 154.828 237.119 153.867 236.51C152.918 235.889 151.852 235.578 150.668 235.578ZM163.272 239.41C163.893 237.934 164.807 236.768 166.014 235.912C167.221 235.057 168.557 234.629 170.022 234.629C172.061 234.629 173.572 235.209 174.557 236.369C175.553 237.518 176.057 239.258 176.068 241.59V254H175.119V241.555C175.107 239.516 174.691 238.01 173.871 237.037C173.051 236.053 171.75 235.561 169.969 235.561C168.328 235.561 166.904 236.146 165.697 237.318C164.502 238.479 163.693 239.979 163.272 241.818V254H162.322V234.98H163.272V239.41ZM188.496 253.402C190.219 253.402 191.637 252.945 192.75 252.031C193.875 251.117 194.49 249.852 194.596 248.234H195.545C195.451 250.074 194.742 251.557 193.418 252.682C192.094 253.795 190.453 254.352 188.496 254.352C186.117 254.352 184.225 253.49 182.818 251.768C181.424 250.045 180.727 247.707 180.727 244.754V244.121C180.727 241.238 181.424 238.936 182.818 237.213C184.225 235.49 186.106 234.629 188.461 234.629C190.477 234.629 192.141 235.232 193.453 236.439C194.766 237.646 195.463 239.252 195.545 241.256H194.596C194.514 239.545 193.91 238.174 192.785 237.143C191.672 236.1 190.231 235.578 188.461 235.578C186.34 235.578 184.676 236.346 183.469 237.881C182.273 239.404 181.676 241.525 181.676 244.244V244.859C181.676 247.52 182.279 249.611 183.486 251.135C184.705 252.646 186.375 253.402 188.496 253.402ZM207.164 254.352C205.629 254.352 204.217 253.941 202.928 253.121C201.65 252.289 200.648 251.152 199.922 249.711C199.195 248.27 198.832 246.67 198.832 244.912V244.121C198.832 242.363 199.184 240.752 199.887 239.287C200.59 237.822 201.557 236.68 202.787 235.859C204.018 235.039 205.359 234.629 206.813 234.629C208.934 234.629 210.668 235.385 212.016 236.896C213.363 238.408 214.037 240.395 214.037 242.855V243.857H199.781V244.895C199.781 246.441 200.104 247.877 200.748 249.201C201.404 250.514 202.301 251.545 203.438 252.295C204.586 253.045 205.828 253.42 207.164 253.42C208.441 253.42 209.525 253.209 210.416 252.787C211.318 252.354 212.115 251.691 212.807 250.801L213.475 251.275C212.057 253.326 209.953 254.352 207.164 254.352ZM206.813 235.578C204.961 235.578 203.391 236.27 202.102 237.652C200.813 239.023 200.057 240.775 199.834 242.908H213.088V242.68C213.088 241.391 212.813 240.195 212.262 239.094C211.723 237.98 210.973 237.119 210.012 236.51C209.063 235.889 207.996 235.578 206.813 235.578Z" fill="white"/>
<defs>
<clipPath id="clip0">
<rect width="120" height="127.768" fill="white" transform="translate(54.0001)"/>
</clipPath>
</defs>
</svg>
