<svg width="247" height="178" viewBox="0 0 247 178" fill="none" xmlns="http://www.w3.org/2000/svg">
<path d="M76.264 7.02551C79.3359 3.56296 81.8928 1.76953 83.633 1.76953C84.2012 1.76953 84.7871 1.96486 85.3553 2.3555C85.746 2.74615 86.1366 3.31436 86.1366 3.88258C86.1366 4.85919 84.9825 6.19094 82.8517 8.37501C73.9556 16.8982 69.4631 27.3569 69.4631 39.9818C69.4631 53.9563 74.1331 65.1785 83.2423 73.897C85.16 75.6194 85.9413 76.9689 85.9413 78.1231C85.9413 78.6913 85.5506 79.2773 85.16 79.8455C84.7871 80.2362 84.0058 80.6268 83.4376 80.6268C81.3246 80.6268 78.377 78.1231 74.5238 73.2578C67.0305 64.0243 63.6567 53.8498 63.4969 39.9818C63.3549 26.1139 67.723 16.7206 76.264 7.02551Z" fill="#006400"/>
<path d="M95.3879 78.2119C93.4701 78.2119 92.0318 76.7736 92.0318 74.8381C92.0318 72.9204 93.4701 71.4644 95.3879 71.4644C100.768 71.4644 143.757 71.4644 149.137 71.4644C151.055 71.4644 152.493 72.9204 152.493 74.8381C152.014 76.7736 151.055 78.2119 149.137 78.2119C116.891 78.2119 98.9747 78.2119 95.3879 78.2119Z" fill="#006400"/>
<path d="M115.293 17.0936C115.293 26.771 102.082 37.425 102.082 47.4752C102.082 58.3068 110.428 65.3029 118.365 67.4159C119.519 67.6113 119.91 66.4571 118.56 66.0664C115.293 65.3029 111.777 61.0058 111.777 54.4713C111.777 48.2565 117.797 45.9481 120.105 43.0538C122.609 39.9819 122.023 36.0755 120.496 34.9213C118.951 33.7671 120.105 32.2223 122.609 34.14C125.112 35.8801 127.279 39.3959 126.444 42.4856C125.485 46.5164 126.835 48.8957 128.948 49.2686C131.061 49.6593 133.44 48.5051 133.174 46.5874C132.925 44.6697 131.842 42.5389 132.41 42.5389C133.955 42.5389 137.098 46.1968 137.098 52.234C137.098 58.2535 132.215 62.2843 130.688 63.8291C129.711 64.788 130.866 65.9421 132.215 65.3739C132.801 65.1786 134.151 64.3973 134.914 63.8291C138.75 61.1301 144.787 55.5012 144.787 45.2379C144.787 34.4063 140.738 29.541 136.459 25.4925C132.215 21.4617 131.185 22.4206 132.41 24.5336C135.873 30.5531 133.76 32.6662 131.256 32.6662C128.184 32.6662 128.184 25.8831 126.764 20.6804C124.278 9.08534 113.571 7.09661 111.635 6.90129C110.232 6.26205 108.439 7.41622 110.801 8.37508C113.801 10.4348 115.293 13.3292 115.293 17.0936Z" fill="#006400"/>
<path d="M168.19 75.6194C165.1 79.0819 162.544 80.8754 160.803 80.8754C160.235 80.8754 159.649 80.68 159.081 80.3072C158.69 79.9165 158.317 79.153 158.317 78.567C158.317 77.6081 159.472 76.2586 161.585 74.3409C170.481 65.8177 174.973 55.3591 174.973 42.7341C174.973 28.7596 170.303 17.5374 161.194 8.81888C159.276 7.09649 158.495 5.74699 158.495 4.59281C158.495 4.02459 158.886 3.43862 159.276 2.87041C159.649 2.47976 160.43 2.08911 160.999 2.08911C162.916 2.08911 166.059 4.59281 169.913 9.47588C177.033 18.6916 181.223 29.4344 180.939 42.8584C180.655 56.3002 176.713 65.942 168.19 75.6194Z" fill="#006400"/>
<path d="M5.51562 86V70.707H2.68555V66.9805H5.51562V65.3633C5.51562 63.2305 6.125 61.5781 7.34375 60.4062C8.57422 59.2227 10.291 58.6309 12.4941 58.6309C13.1973 58.6309 14.0586 58.748 15.0781 58.9824L15.0254 62.9199C14.6035 62.8145 14.0879 62.7617 13.4785 62.7617C11.5684 62.7617 10.6133 63.6582 10.6133 65.4512V66.9805H14.3926V70.707H10.6133V86H5.51562ZM27.7168 71.7441C27.0254 71.6504 26.416 71.6035 25.8887 71.6035C23.9668 71.6035 22.707 72.2539 22.1094 73.5547V86H17.0293V66.9805H21.8281L21.9688 69.248C22.9883 67.502 24.4004 66.6289 26.2051 66.6289C26.7676 66.6289 27.2949 66.7051 27.7871 66.8574L27.7168 71.7441ZM38.5801 86.3516C35.791 86.3516 33.5176 85.4961 31.7598 83.7852C30.0137 82.0742 29.1406 79.7949 29.1406 76.9473V76.4551C29.1406 74.5449 29.5098 72.8398 30.248 71.3398C30.9863 69.8281 32.0293 68.668 33.377 67.8594C34.7363 67.0391 36.2832 66.6289 38.0176 66.6289C40.6191 66.6289 42.6641 67.4492 44.1523 69.0898C45.6523 70.7305 46.4023 73.0566 46.4023 76.0684V78.1426H34.291C34.4551 79.3848 34.9473 80.3809 35.7676 81.1309C36.5996 81.8809 37.6484 82.2559 38.9141 82.2559C40.8711 82.2559 42.4004 81.5469 43.502 80.1289L45.998 82.9238C45.2363 84.002 44.2051 84.8457 42.9043 85.4551C41.6035 86.0527 40.1621 86.3516 38.5801 86.3516ZM38 70.7422C36.9922 70.7422 36.1719 71.082 35.5391 71.7617C34.918 72.4414 34.5195 73.4141 34.3438 74.6797H41.4102V74.2754C41.3867 73.1504 41.082 72.2832 40.4961 71.6738C39.9102 71.0527 39.0781 70.7422 38 70.7422ZM58.0566 86.3516C55.2676 86.3516 52.9941 85.4961 51.2363 83.7852C49.4902 82.0742 48.6172 79.7949 48.6172 76.9473V76.4551C48.6172 74.5449 48.9863 72.8398 49.7246 71.3398C50.4629 69.8281 51.5059 68.668 52.8535 67.8594C54.2129 67.0391 55.7598 66.6289 57.4941 66.6289C60.0957 66.6289 62.1406 67.4492 63.6289 69.0898C65.1289 70.7305 65.8789 73.0566 65.8789 76.0684V78.1426H53.7676C53.9316 79.3848 54.4238 80.3809 55.2441 81.1309C56.0762 81.8809 57.125 82.2559 58.3906 82.2559C60.3477 82.2559 61.877 81.5469 62.9785 80.1289L65.4746 82.9238C64.7129 84.002 63.6816 84.8457 62.3809 85.4551C61.0801 86.0527 59.6387 86.3516 58.0566 86.3516ZM57.4766 70.7422C56.4688 70.7422 55.6484 71.082 55.0156 71.7617C54.3945 72.4414 53.9961 73.4141 53.8203 74.6797H60.8867V74.2754C60.8633 73.1504 60.5586 72.2832 59.9727 71.6738C59.3867 71.0527 58.5547 70.7422 57.4766 70.7422ZM89.2051 77.4746C89.0059 80.2285 87.9863 82.3965 86.1465 83.9785C84.3184 85.5605 81.9043 86.3516 78.9043 86.3516C75.623 86.3516 73.0391 85.25 71.1523 83.0469C69.2773 80.832 68.3398 77.7969 68.3398 73.9414V72.377C68.3398 69.916 68.7734 67.748 69.6406 65.873C70.5078 63.998 71.7441 62.5625 73.3496 61.5664C74.9668 60.5586 76.8418 60.0547 78.9746 60.0547C81.9277 60.0547 84.3066 60.8457 86.1113 62.4277C87.916 64.0098 88.959 66.2305 89.2402 69.0898H83.9668C83.8379 67.4375 83.375 66.2422 82.5781 65.5039C81.793 64.7539 80.5918 64.3789 78.9746 64.3789C77.2168 64.3789 75.8984 65.0117 75.0195 66.2773C74.1523 67.5312 73.707 69.4824 73.6836 72.1309V74.0645C73.6836 76.8301 74.0996 78.8516 74.9316 80.1289C75.7754 81.4062 77.0996 82.0449 78.9043 82.0449C80.5332 82.0449 81.7461 81.6758 82.543 80.9375C83.3516 80.1875 83.8145 79.0332 83.9316 77.4746H89.2051ZM91.543 76.3145C91.543 74.4277 91.9062 72.7461 92.6328 71.2695C93.3594 69.793 94.4023 68.6504 95.7617 67.8418C97.1328 67.0332 98.7207 66.6289 100.525 66.6289C103.092 66.6289 105.184 67.4141 106.801 68.9844C108.43 70.5547 109.338 72.6875 109.525 75.3828L109.561 76.6836C109.561 79.6016 108.746 81.9453 107.117 83.7148C105.488 85.4727 103.303 86.3516 100.561 86.3516C97.8184 86.3516 95.627 85.4727 93.9863 83.7148C92.3574 81.957 91.543 79.5664 91.543 76.543V76.3145ZM96.623 76.6836C96.623 78.4883 96.9629 79.8711 97.6426 80.832C98.3223 81.7812 99.2949 82.2559 100.561 82.2559C101.791 82.2559 102.752 81.7871 103.443 80.8496C104.135 79.9004 104.48 78.3887 104.48 76.3145C104.48 74.5449 104.135 73.1738 103.443 72.2012C102.752 71.2285 101.779 70.7422 100.525 70.7422C99.2832 70.7422 98.3223 71.2285 97.6426 72.2012C96.9629 73.1621 96.623 74.6562 96.623 76.6836ZM111.898 76.3496C111.898 73.3848 112.561 71.0234 113.885 69.2656C115.221 67.5078 117.043 66.6289 119.352 66.6289C121.203 66.6289 122.732 67.3203 123.939 68.7031V59H129.037V86H124.449L124.203 83.9785C122.938 85.5605 121.309 86.3516 119.316 86.3516C117.078 86.3516 115.279 85.4727 113.92 83.7148C112.572 81.9453 111.898 79.4902 111.898 76.3496ZM116.979 76.7188C116.979 78.5 117.289 79.8652 117.91 80.8145C118.531 81.7637 119.434 82.2383 120.617 82.2383C122.188 82.2383 123.295 81.5762 123.939 80.252V72.7461C123.307 71.4219 122.211 70.7598 120.652 70.7598C118.203 70.7598 116.979 72.7461 116.979 76.7188ZM141.729 86.3516C138.939 86.3516 136.666 85.4961 134.908 83.7852C133.162 82.0742 132.289 79.7949 132.289 76.9473V76.4551C132.289 74.5449 132.658 72.8398 133.396 71.3398C134.135 69.8281 135.178 68.668 136.525 67.8594C137.885 67.0391 139.432 66.6289 141.166 66.6289C143.768 66.6289 145.812 67.4492 147.301 69.0898C148.801 70.7305 149.551 73.0566 149.551 76.0684V78.1426H137.439C137.604 79.3848 138.096 80.3809 138.916 81.1309C139.748 81.8809 140.797 82.2559 142.062 82.2559C144.02 82.2559 145.549 81.5469 146.65 80.1289L149.146 82.9238C148.385 84.002 147.354 84.8457 146.053 85.4551C144.752 86.0527 143.311 86.3516 141.729 86.3516ZM141.148 70.7422C140.141 70.7422 139.32 71.082 138.688 71.7617C138.066 72.4414 137.668 73.4141 137.492 74.6797H144.559V74.2754C144.535 73.1504 144.23 72.2832 143.645 71.6738C143.059 71.0527 142.227 70.7422 141.148 70.7422ZM172.877 77.4746C172.678 80.2285 171.658 82.3965 169.818 83.9785C167.99 85.5605 165.576 86.3516 162.576 86.3516C159.295 86.3516 156.711 85.25 154.824 83.0469C152.949 80.832 152.012 77.7969 152.012 73.9414V72.377C152.012 69.916 152.445 67.748 153.312 65.873C154.18 63.998 155.416 62.5625 157.021 61.5664C158.639 60.5586 160.514 60.0547 162.646 60.0547C165.6 60.0547 167.979 60.8457 169.783 62.4277C171.588 64.0098 172.631 66.2305 172.912 69.0898H167.639C167.51 67.4375 167.047 66.2422 166.25 65.5039C165.465 64.7539 164.264 64.3789 162.646 64.3789C160.889 64.3789 159.57 65.0117 158.691 66.2773C157.824 67.5312 157.379 69.4824 157.355 72.1309V74.0645C157.355 76.8301 157.771 78.8516 158.604 80.1289C159.447 81.4062 160.771 82.0449 162.576 82.0449C164.205 82.0449 165.418 81.6758 166.215 80.9375C167.023 80.1875 167.486 79.0332 167.604 77.4746H172.877ZM187.027 86C186.793 85.543 186.623 84.9746 186.518 84.2949C185.287 85.666 183.688 86.3516 181.719 86.3516C179.855 86.3516 178.309 85.8125 177.078 84.7344C175.859 83.6562 175.25 82.2969 175.25 80.6562C175.25 78.6406 175.994 77.0938 177.482 76.0156C178.982 74.9375 181.145 74.3926 183.969 74.3809H186.307V73.291C186.307 72.4121 186.078 71.709 185.621 71.1816C185.176 70.6543 184.467 70.3906 183.494 70.3906C182.639 70.3906 181.965 70.5957 181.473 71.0059C180.992 71.416 180.752 71.9785 180.752 72.6934H175.672C175.672 71.5918 176.012 70.5723 176.691 69.6348C177.371 68.6973 178.332 67.9648 179.574 67.4375C180.816 66.8984 182.211 66.6289 183.758 66.6289C186.102 66.6289 187.959 67.2207 189.33 68.4043C190.713 69.5762 191.404 71.2285 191.404 73.3613V81.6055C191.416 83.4102 191.668 84.7754 192.16 85.7012V86H187.027ZM182.826 82.4668C183.576 82.4668 184.268 82.3027 184.9 81.9746C185.533 81.6348 186.002 81.1836 186.307 80.6211V77.3516H184.408C181.865 77.3516 180.512 78.2305 180.348 79.9883L180.33 80.2871C180.33 80.9199 180.553 81.4414 180.998 81.8516C181.443 82.2617 182.053 82.4668 182.826 82.4668ZM200.07 66.9805L200.229 69.1074C201.576 67.4551 203.398 66.6289 205.695 66.6289C208.145 66.6289 209.826 67.5957 210.74 69.5293C212.076 67.5957 213.98 66.6289 216.453 66.6289C218.516 66.6289 220.051 67.2324 221.059 68.4395C222.066 69.6348 222.57 71.4395 222.57 73.8535V86H217.473V73.8711C217.473 72.793 217.262 72.0078 216.84 71.5156C216.418 71.0117 215.674 70.7598 214.607 70.7598C213.084 70.7598 212.029 71.4863 211.443 72.9395L211.461 86H206.381V73.8887C206.381 72.7871 206.164 71.9902 205.73 71.498C205.297 71.0059 204.559 70.7598 203.516 70.7598C202.074 70.7598 201.031 71.3574 200.387 72.5527V86H195.307V66.9805H200.07ZM243.611 76.666C243.611 79.5957 242.943 81.9453 241.607 83.7148C240.283 85.4727 238.49 86.3516 236.229 86.3516C234.307 86.3516 232.754 85.6836 231.57 84.3477V93.3125H226.49V66.9805H231.201L231.377 68.8438C232.607 67.3672 234.213 66.6289 236.193 66.6289C238.537 66.6289 240.359 67.4961 241.66 69.2305C242.961 70.9648 243.611 73.3555 243.611 76.4023V76.666ZM238.531 76.2969C238.531 74.5273 238.215 73.1621 237.582 72.2012C236.961 71.2402 236.053 70.7598 234.857 70.7598C233.264 70.7598 232.168 71.3691 231.57 72.5879V80.375C232.191 81.6289 233.299 82.2559 234.893 82.2559C237.318 82.2559 238.531 80.2695 238.531 76.2969Z" fill="white"/>
<path d="M49.5879 117.049H40.7109V128H39.7617V102.406H47.918C50.4844 102.406 52.5234 103.068 54.0352 104.393C55.5586 105.717 56.3203 107.516 56.3203 109.789C56.3203 111.535 55.7754 113.064 54.6855 114.377C53.6074 115.678 52.2305 116.486 50.5547 116.803L57.3926 127.754V128H56.3906L49.5879 117.049ZM40.7109 116.1H48.7793C50.748 116.1 52.3359 115.502 53.543 114.307C54.7617 113.111 55.3711 111.605 55.3711 109.789C55.3711 107.797 54.6973 106.227 53.3496 105.078C52.0137 103.93 50.1797 103.355 47.8477 103.355H40.7109V116.1ZM69.75 128.352C68.2148 128.352 66.8027 127.941 65.5137 127.121C64.2363 126.289 63.2344 125.152 62.5078 123.711C61.7812 122.27 61.418 120.67 61.418 118.912V118.121C61.418 116.363 61.7695 114.752 62.4727 113.287C63.1758 111.822 64.1426 110.68 65.373 109.859C66.6035 109.039 67.9453 108.629 69.3984 108.629C71.5195 108.629 73.2539 109.385 74.6016 110.896C75.9492 112.408 76.623 114.395 76.623 116.855V117.857H62.3672V118.895C62.3672 120.441 62.6895 121.877 63.334 123.201C63.9902 124.514 64.8867 125.545 66.0234 126.295C67.1719 127.045 68.4141 127.42 69.75 127.42C71.0273 127.42 72.1113 127.209 73.002 126.787C73.9043 126.354 74.7012 125.691 75.3926 124.801L76.0605 125.275C74.6426 127.326 72.5391 128.352 69.75 128.352ZM69.3984 109.578C67.5469 109.578 65.9766 110.27 64.6875 111.652C63.3984 113.023 62.6426 114.775 62.4199 116.908H75.6738V116.68C75.6738 115.391 75.3984 114.195 74.8477 113.094C74.3086 111.98 73.5586 111.119 72.5977 110.51C71.6484 109.889 70.582 109.578 69.3984 109.578ZM92.7773 123.342C92.7773 121.033 90.8086 119.463 86.8711 118.631C84.5039 118.127 82.8574 117.482 81.9316 116.697C81.0059 115.9 80.543 114.811 80.543 113.428C80.543 112.033 81.1289 110.885 82.3008 109.982C83.4844 109.08 85.0195 108.629 86.9062 108.629C88.957 108.629 90.6035 109.121 91.8457 110.105C93.0879 111.078 93.709 112.396 93.709 114.061H92.7422C92.7422 112.783 92.2031 111.717 91.125 110.861C90.0469 110.006 88.6406 109.578 86.9062 109.578C85.2422 109.578 83.9238 109.941 82.9512 110.668C81.9785 111.395 81.4922 112.303 81.4922 113.393C81.4922 114.248 81.6738 114.922 82.0371 115.414C82.4004 115.895 82.9922 116.334 83.8125 116.732C84.6328 117.119 85.8281 117.494 87.3984 117.857C88.9688 118.221 90.2109 118.648 91.125 119.141C92.0391 119.633 92.7012 120.219 93.1113 120.898C93.5215 121.566 93.7266 122.387 93.7266 123.359C93.7266 124.859 93.1113 126.066 91.8809 126.98C90.6504 127.895 89.0391 128.352 87.0469 128.352C84.9141 128.352 83.1914 127.871 81.8789 126.91C80.5781 125.938 79.9277 124.689 79.9277 123.166H80.877C80.9707 124.502 81.5566 125.545 82.6348 126.295C83.7246 127.033 85.1953 127.402 87.0469 127.402C88.7461 127.402 90.123 127.01 91.1777 126.225C92.2441 125.428 92.7773 124.467 92.7773 123.342ZM113.52 118.666C113.52 121.631 112.881 123.986 111.604 125.732C110.326 127.479 108.586 128.352 106.383 128.352C104.941 128.352 103.658 128.059 102.533 127.473C101.408 126.887 100.529 126.078 99.8965 125.047V135.312H98.9473V108.98H99.8965V112.373C100.553 111.166 101.438 110.24 102.551 109.596C103.664 108.951 104.93 108.629 106.348 108.629C108.574 108.629 110.326 109.484 111.604 111.195C112.881 112.895 113.52 115.285 113.52 118.367V118.666ZM112.553 118.297C112.553 115.566 112.008 113.434 110.918 111.898C109.84 110.352 108.322 109.578 106.365 109.578C104.771 109.578 103.418 109.994 102.305 110.826C101.191 111.646 100.389 112.83 99.8965 114.377V123.271C100.389 124.584 101.191 125.604 102.305 126.33C103.43 127.045 104.795 127.402 106.4 127.402C108.346 127.402 109.857 126.629 110.936 125.082C112.014 123.535 112.553 121.273 112.553 118.297ZM117.264 118.121C117.264 116.305 117.609 114.676 118.301 113.234C119.004 111.781 119.988 110.65 121.254 109.842C122.531 109.033 123.973 108.629 125.578 108.629C127.172 108.629 128.602 109.021 129.867 109.807C131.133 110.592 132.117 111.705 132.82 113.146C133.535 114.588 133.898 116.211 133.91 118.016V118.859C133.91 120.688 133.564 122.322 132.873 123.764C132.182 125.205 131.197 126.33 129.92 127.139C128.654 127.947 127.219 128.352 125.613 128.352C124.008 128.352 122.566 127.953 121.289 127.156C120.023 126.359 119.039 125.246 118.336 123.816C117.633 122.375 117.275 120.758 117.264 118.965V118.121ZM118.213 118.859C118.213 120.441 118.523 121.895 119.145 123.219C119.777 124.531 120.65 125.557 121.764 126.295C122.889 127.033 124.172 127.402 125.613 127.402C127.781 127.402 129.545 126.588 130.904 124.959C132.275 123.33 132.961 121.232 132.961 118.666V118.121C132.961 116.562 132.645 115.121 132.012 113.797C131.379 112.473 130.5 111.441 129.375 110.703C128.262 109.953 126.996 109.578 125.578 109.578C123.41 109.578 121.641 110.404 120.27 112.057C118.898 113.709 118.213 115.789 118.213 118.297V118.859ZM139.482 113.41C140.104 111.934 141.018 110.768 142.225 109.912C143.432 109.057 144.768 108.629 146.232 108.629C148.271 108.629 149.783 109.209 150.768 110.369C151.764 111.518 152.268 113.258 152.279 115.59V128H151.33V115.555C151.318 113.516 150.902 112.01 150.082 111.037C149.262 110.053 147.961 109.561 146.18 109.561C144.539 109.561 143.115 110.146 141.908 111.318C140.713 112.479 139.904 113.979 139.482 115.818V128H138.533V108.98H139.482V113.41ZM169.98 123.342C169.98 121.033 168.012 119.463 164.074 118.631C161.707 118.127 160.061 117.482 159.135 116.697C158.209 115.9 157.746 114.811 157.746 113.428C157.746 112.033 158.332 110.885 159.504 109.982C160.688 109.08 162.223 108.629 164.109 108.629C166.16 108.629 167.807 109.121 169.049 110.105C170.291 111.078 170.912 112.396 170.912 114.061H169.945C169.945 112.783 169.406 111.717 168.328 110.861C167.25 110.006 165.844 109.578 164.109 109.578C162.445 109.578 161.127 109.941 160.154 110.668C159.182 111.395 158.695 112.303 158.695 113.393C158.695 114.248 158.877 114.922 159.24 115.414C159.604 115.895 160.195 116.334 161.016 116.732C161.836 117.119 163.031 117.494 164.602 117.857C166.172 118.221 167.414 118.648 168.328 119.141C169.242 119.633 169.904 120.219 170.314 120.898C170.725 121.566 170.93 122.387 170.93 123.359C170.93 124.859 170.314 126.066 169.084 126.98C167.854 127.895 166.242 128.352 164.25 128.352C162.117 128.352 160.395 127.871 159.082 126.91C157.781 125.938 157.131 124.689 157.131 123.166H158.08C158.174 124.502 158.76 125.545 159.838 126.295C160.928 127.033 162.398 127.402 164.25 127.402C165.949 127.402 167.326 127.01 168.381 126.225C169.447 125.428 169.98 124.467 169.98 123.342ZM177.363 128H176.414V108.98H177.363V128ZM175.922 103.039C175.922 102.77 176.016 102.541 176.203 102.354C176.391 102.154 176.619 102.055 176.889 102.055C177.158 102.055 177.387 102.154 177.574 102.354C177.773 102.541 177.873 102.77 177.873 103.039C177.873 103.309 177.773 103.537 177.574 103.725C177.387 103.912 177.158 104.006 176.889 104.006C176.619 104.006 176.391 103.912 176.203 103.725C176.016 103.537 175.922 103.309 175.922 103.039ZM189.193 126.488L196.031 108.98H197.051L189.65 128H188.719L181.336 108.98H182.355L189.193 126.488ZM207.387 128.352C205.852 128.352 204.439 127.941 203.15 127.121C201.873 126.289 200.871 125.152 200.145 123.711C199.418 122.27 199.055 120.67 199.055 118.912V118.121C199.055 116.363 199.406 114.752 200.109 113.287C200.812 111.822 201.779 110.68 203.01 109.859C204.24 109.039 205.582 108.629 207.035 108.629C209.156 108.629 210.891 109.385 212.238 110.896C213.586 112.408 214.26 114.395 214.26 116.855V117.857H200.004V118.895C200.004 120.441 200.326 121.877 200.971 123.201C201.627 124.514 202.523 125.545 203.66 126.295C204.809 127.045 206.051 127.42 207.387 127.42C208.664 127.42 209.748 127.209 210.639 126.787C211.541 126.354 212.338 125.691 213.029 124.801L213.697 125.275C212.279 127.326 210.176 128.352 207.387 128.352ZM207.035 109.578C205.184 109.578 203.613 110.27 202.324 111.652C201.035 113.023 200.279 114.775 200.057 116.908H213.311V116.68C213.311 115.391 213.035 114.195 212.484 113.094C211.945 111.98 211.195 111.119 210.234 110.51C209.285 109.889 208.219 109.578 207.035 109.578ZM42.0645 168.418L43.2246 164.199L49.2715 144.406H50.3262L56.3379 164.199L57.4805 168.418L58.6758 164.199L63.9492 144.406H64.9863L58.0957 170H57.0234L50.6777 148.66L49.7812 145.953L48.9199 148.66L42.5215 170H41.4492L34.541 144.406H35.5957L40.9043 164.199L42.0645 168.418ZM75.3926 170.352C73.8574 170.352 72.4453 169.941 71.1562 169.121C69.8789 168.289 68.877 167.152 68.1504 165.711C67.4238 164.27 67.0605 162.67 67.0605 160.912V160.121C67.0605 158.363 67.4121 156.752 68.1152 155.287C68.8184 153.822 69.7852 152.68 71.0156 151.859C72.2461 151.039 73.5879 150.629 75.041 150.629C77.1621 150.629 78.8965 151.385 80.2441 152.896C81.5918 154.408 82.2656 156.395 82.2656 158.855V159.857H68.0098V160.895C68.0098 162.441 68.332 163.877 68.9766 165.201C69.6328 166.514 70.5293 167.545 71.666 168.295C72.8145 169.045 74.0566 169.42 75.3926 169.42C76.6699 169.42 77.7539 169.209 78.6445 168.787C79.5469 168.354 80.3438 167.691 81.0352 166.801L81.7031 167.275C80.2852 169.326 78.1816 170.352 75.3926 170.352ZM75.041 151.578C73.1895 151.578 71.6191 152.27 70.3301 153.652C69.041 155.023 68.2852 156.775 68.0625 158.908H81.3164V158.68C81.3164 157.391 81.041 156.195 80.4902 155.094C79.9512 153.98 79.2012 153.119 78.2402 152.51C77.291 151.889 76.2246 151.578 75.041 151.578ZM101.232 160.666C101.232 163.631 100.594 165.986 99.3164 167.732C98.0391 169.479 96.2988 170.352 94.0957 170.352C92.666 170.352 91.3887 170.059 90.2637 169.473C89.1387 168.875 88.2539 168.049 87.6094 166.994V170H86.6602V143H87.6094V154.443C88.2773 153.189 89.1562 152.24 90.2461 151.596C91.3477 150.951 92.6191 150.629 94.0605 150.629C96.2871 150.629 98.0391 151.484 99.3164 153.195C100.594 154.895 101.232 157.285 101.232 160.367V160.666ZM100.248 160.297C100.248 157.566 99.7031 155.434 98.6133 153.898C97.5352 152.352 96.0234 151.578 94.0781 151.578C92.4844 151.578 91.1309 151.988 90.0176 152.809C88.916 153.629 88.1133 154.848 87.6094 156.465V165.184C88.1133 166.531 88.916 167.574 90.0176 168.312C91.1309 169.039 92.4961 169.402 94.1133 169.402C96.0703 169.402 97.582 168.623 98.6484 167.064C99.7148 165.506 100.248 163.25 100.248 160.297ZM115.523 170V144.406H122.607C124.588 144.406 126.381 144.875 127.986 145.812C129.592 146.75 130.852 148.068 131.766 149.768C132.68 151.455 133.148 153.348 133.172 155.445V158.768C133.172 160.9 132.721 162.822 131.818 164.533C130.928 166.244 129.68 167.58 128.074 168.541C126.469 169.502 124.676 169.988 122.695 170H115.523ZM116.473 145.355V169.051H122.607C124.4 169.051 126.029 168.617 127.494 167.75C128.971 166.871 130.125 165.652 130.957 164.094C131.789 162.523 132.211 160.783 132.223 158.873V155.586C132.223 153.676 131.812 151.941 130.992 150.383C130.184 148.824 129.047 147.605 127.582 146.727C126.129 145.836 124.518 145.379 122.748 145.355H116.473ZM145.424 170.352C143.889 170.352 142.477 169.941 141.188 169.121C139.91 168.289 138.908 167.152 138.182 165.711C137.455 164.27 137.092 162.67 137.092 160.912V160.121C137.092 158.363 137.443 156.752 138.146 155.287C138.85 153.822 139.816 152.68 141.047 151.859C142.277 151.039 143.619 150.629 145.072 150.629C147.193 150.629 148.928 151.385 150.275 152.896C151.623 154.408 152.297 156.395 152.297 158.855V159.857H138.041V160.895C138.041 162.441 138.363 163.877 139.008 165.201C139.664 166.514 140.561 167.545 141.697 168.295C142.846 169.045 144.088 169.42 145.424 169.42C146.701 169.42 147.785 169.209 148.676 168.787C149.578 168.354 150.375 167.691 151.066 166.801L151.734 167.275C150.316 169.326 148.213 170.352 145.424 170.352ZM145.072 151.578C143.221 151.578 141.65 152.27 140.361 153.652C139.072 155.023 138.316 156.775 138.094 158.908H151.348V158.68C151.348 157.391 151.072 156.195 150.521 155.094C149.982 153.98 149.232 153.119 148.271 152.51C147.322 151.889 146.256 151.578 145.072 151.578ZM168.451 165.342C168.451 163.033 166.482 161.463 162.545 160.631C160.178 160.127 158.531 159.482 157.605 158.697C156.68 157.9 156.217 156.811 156.217 155.428C156.217 154.033 156.803 152.885 157.975 151.982C159.158 151.08 160.693 150.629 162.58 150.629C164.631 150.629 166.277 151.121 167.52 152.105C168.762 153.078 169.383 154.396 169.383 156.061H168.416C168.416 154.783 167.877 153.717 166.799 152.861C165.721 152.006 164.314 151.578 162.58 151.578C160.916 151.578 159.598 151.941 158.625 152.668C157.652 153.395 157.166 154.303 157.166 155.393C157.166 156.248 157.348 156.922 157.711 157.414C158.074 157.895 158.666 158.334 159.486 158.732C160.307 159.119 161.502 159.494 163.072 159.857C164.643 160.221 165.885 160.648 166.799 161.141C167.713 161.633 168.375 162.219 168.785 162.898C169.195 163.566 169.4 164.387 169.4 165.359C169.4 166.859 168.785 168.066 167.555 168.98C166.324 169.895 164.713 170.352 162.721 170.352C160.588 170.352 158.865 169.871 157.553 168.91C156.252 167.938 155.602 166.689 155.602 165.166H156.551C156.645 166.502 157.23 167.545 158.309 168.295C159.398 169.033 160.869 169.402 162.721 169.402C164.42 169.402 165.797 169.01 166.852 168.225C167.918 167.428 168.451 166.467 168.451 165.342ZM175.834 170H174.885V150.98H175.834V170ZM174.393 145.039C174.393 144.77 174.486 144.541 174.674 144.354C174.861 144.154 175.09 144.055 175.359 144.055C175.629 144.055 175.857 144.154 176.045 144.354C176.244 144.541 176.344 144.77 176.344 145.039C176.344 145.309 176.244 145.537 176.045 145.725C175.857 145.912 175.629 146.006 175.359 146.006C175.09 146.006 174.861 145.912 174.674 145.725C174.486 145.537 174.393 145.309 174.393 145.039ZM181.178 160.297C181.178 157.262 181.816 154.895 183.094 153.195C184.371 151.484 186.123 150.629 188.35 150.629C189.768 150.629 191.027 150.957 192.129 151.613C193.23 152.258 194.115 153.207 194.783 154.461V150.98H195.75V169.666C195.75 172.174 195.105 174.131 193.816 175.537C192.527 176.955 190.775 177.664 188.561 177.664C187.283 177.664 186.111 177.389 185.045 176.838C183.99 176.287 183.088 175.496 182.338 174.465L183.006 173.832C183.744 174.77 184.553 175.484 185.432 175.977C186.311 176.48 187.342 176.732 188.525 176.732C190.482 176.732 192.006 176.135 193.096 174.939C194.186 173.756 194.748 172.08 194.783 169.912V166.994C194.127 168.072 193.236 168.904 192.111 169.49C190.998 170.064 189.732 170.352 188.314 170.352C186.111 170.352 184.371 169.479 183.094 167.732C181.816 165.986 181.178 163.59 181.178 160.543V160.297ZM182.145 160.666C182.145 163.385 182.684 165.523 183.762 167.082C184.84 168.629 186.352 169.402 188.297 169.402C189.902 169.402 191.268 169.033 192.393 168.295C193.518 167.545 194.314 166.496 194.783 165.148V156.518C193.752 153.225 191.602 151.578 188.332 151.578C186.375 151.578 184.852 152.346 183.762 153.881C182.684 155.416 182.145 157.678 182.145 160.666ZM202.781 155.41C203.402 153.934 204.316 152.768 205.523 151.912C206.73 151.057 208.066 150.629 209.531 150.629C211.57 150.629 213.082 151.209 214.066 152.369C215.062 153.518 215.566 155.258 215.578 157.59V170H214.629V157.555C214.617 155.516 214.201 154.01 213.381 153.037C212.561 152.053 211.26 151.561 209.479 151.561C207.838 151.561 206.414 152.146 205.207 153.318C204.012 154.479 203.203 155.979 202.781 157.818V170H201.832V150.98H202.781V155.41Z" fill="white"/>
</svg>
