<svg width="209" height="223" viewBox="0 0 209 223" fill="none" xmlns="http://www.w3.org/2000/svg">
<path d="M121.476 38.9719H86.5245C84.5952 38.9719 83.0295 40.542 83.0295 42.4772V112.569C83.0295 114.503 84.5952 116.074 86.5245 116.074H121.476C123.405 116.074 124.971 114.503 124.971 112.569V42.4772C124.971 40.542 123.405 38.9719 121.476 38.9719Z" fill="#FFC107"/>
<path d="M86.5245 74.0186H51.5734C49.643 74.0186 48.0774 75.5884 48.0774 77.5232V112.569C48.0774 114.503 49.643 116.074 51.5734 116.074H86.5245C88.4544 116.074 90.02 114.503 90.02 112.569V77.5232C90.02 75.5884 88.4544 74.0186 86.5245 74.0186Z" fill="#FFC107"/>
<path d="M156.427 3.92578H121.476C119.546 3.92578 117.98 5.49562 117.98 7.43156V112.569C117.98 114.503 119.546 116.074 121.476 116.074H156.427C158.357 116.074 159.923 114.503 159.923 112.569V7.43156C159.923 5.49562 158.357 3.92578 156.427 3.92578Z" fill="#FFA000"/>
<path d="M56.3038 99.6907C55.3546 100.827 54.0128 101.712 52.2784 102.345C50.5441 102.966 48.6222 103.277 46.5128 103.277C44.298 103.277 42.3527 102.796 40.6769 101.835C39.0128 100.863 37.7237 99.4563 36.8097 97.6165C35.9073 95.7766 35.4445 93.6145 35.421 91.1301V89.3899C35.421 86.8352 35.8487 84.6262 36.7042 82.7629C37.5714 80.8879 38.8136 79.4583 40.4308 78.4739C42.0597 77.4778 43.964 76.9797 46.1437 76.9797C49.1788 76.9797 51.5519 77.7063 53.2628 79.1594C54.9737 80.6008 55.9874 82.7043 56.3038 85.47H51.171C50.9366 84.0051 50.4152 82.9329 49.6066 82.2532C48.8097 81.5735 47.7081 81.2336 46.3019 81.2336C44.5089 81.2336 43.1437 81.9075 42.2062 83.2551C41.2687 84.6028 40.7941 86.6067 40.7823 89.2668V90.9016C40.7823 93.5852 41.2921 95.6125 42.3116 96.9836C43.3312 98.3547 44.8253 99.0403 46.7941 99.0403C48.7745 99.0403 50.1866 98.6184 51.0304 97.7747V93.3625H46.2316V89.4778H56.3038V99.6907ZM81.6163 90.7083C81.6163 93.2278 81.171 95.4368 80.2804 97.3352C79.3898 99.2336 78.1124 100.698 76.4484 101.73C74.796 102.761 72.8976 103.277 70.753 103.277C68.632 103.277 66.7394 102.767 65.0753 101.747C63.4112 100.728 62.1222 99.2747 61.2081 97.3879C60.2941 95.4895 59.8312 93.3098 59.8195 90.8489V89.5833C59.8195 87.0637 60.2706 84.8489 61.173 82.9387C62.087 81.0168 63.3702 79.5461 65.0226 78.5266C66.6866 77.4954 68.5851 76.9797 70.7179 76.9797C72.8507 76.9797 74.7433 77.4954 76.3956 78.5266C78.0597 79.5461 79.3429 81.0168 80.2452 82.9387C81.1593 84.8489 81.6163 87.0579 81.6163 89.5657V90.7083ZM76.2726 89.5481C76.2726 86.8645 75.7921 84.8254 74.8312 83.4309C73.8702 82.0364 72.4991 81.3391 70.7179 81.3391C68.9484 81.3391 67.5831 82.0305 66.6222 83.4133C65.6612 84.7844 65.1749 86.8 65.1632 89.4602V90.7083C65.1632 93.3215 65.6437 95.3489 66.6046 96.7903C67.5655 98.2317 68.9484 98.9524 70.753 98.9524C72.5226 98.9524 73.882 98.261 74.8312 96.8782C75.7804 95.4836 76.2609 93.4563 76.2726 90.7961V89.5481ZM106.472 90.7083C106.472 93.2278 106.026 95.4368 105.136 97.3352C104.245 99.2336 102.968 100.698 101.304 101.73C99.6515 102.761 97.753 103.277 95.6085 103.277C93.4874 103.277 91.5948 102.767 89.9308 101.747C88.2667 100.728 86.9777 99.2747 86.0636 97.3879C85.1495 95.4895 84.6866 93.3098 84.6749 90.8489V89.5833C84.6749 87.0637 85.1261 84.8489 86.0284 82.9387C86.9425 81.0168 88.2257 79.5461 89.878 78.5266C91.5421 77.4954 93.4405 76.9797 95.5734 76.9797C97.7062 76.9797 99.5987 77.4954 101.251 78.5266C102.915 79.5461 104.198 81.0168 105.101 82.9387C106.015 84.8489 106.472 87.0579 106.472 89.5657V90.7083ZM101.128 89.5481C101.128 86.8645 100.648 84.8254 99.6866 83.4309C98.7257 82.0364 97.3546 81.3391 95.5734 81.3391C93.8038 81.3391 92.4386 82.0305 91.4777 83.4133C90.5167 84.7844 90.0304 86.8 90.0187 89.4602V90.7083C90.0187 93.3215 90.4991 95.3489 91.4601 96.7903C92.421 98.2317 93.8038 98.9524 95.6085 98.9524C97.378 98.9524 98.7374 98.261 99.6866 96.8782C100.636 95.4836 101.116 93.4563 101.128 90.7961V89.5481ZM130.554 99.6907C129.605 100.827 128.263 101.712 126.528 102.345C124.794 102.966 122.872 103.277 120.763 103.277C118.548 103.277 116.603 102.796 114.927 101.835C113.263 100.863 111.974 99.4563 111.06 97.6165C110.157 95.7766 109.694 93.6145 109.671 91.1301V89.3899C109.671 86.8352 110.099 84.6262 110.954 82.7629C111.821 80.8879 113.064 79.4583 114.681 78.4739C116.31 77.4778 118.214 76.9797 120.394 76.9797C123.429 76.9797 125.802 77.7063 127.513 79.1594C129.224 80.6008 130.237 82.7043 130.554 85.47H125.421C125.187 84.0051 124.665 82.9329 123.857 82.2532C123.06 81.5735 121.958 81.2336 120.552 81.2336C118.759 81.2336 117.394 81.9075 116.456 83.2551C115.519 84.6028 115.044 86.6067 115.032 89.2668V90.9016C115.032 93.5852 115.542 95.6125 116.562 96.9836C117.581 98.3547 119.075 99.0403 121.044 99.0403C123.025 99.0403 124.437 98.6184 125.28 97.7747V93.3625H120.482V89.4778H130.554V99.6907ZM140.116 98.6887H151.314V102.925H134.843V77.3313H140.116V98.6887ZM169.753 91.8333H159.628V98.6887H171.511V102.925H154.355V77.3313H171.476V81.6028H159.628V87.7024H169.753V91.8333ZM24.8566 139.652H15.6105L13.8527 144.925H8.24523L17.7726 119.331H22.6593L32.2394 144.925H26.632L24.8566 139.652ZM17.0343 135.38H23.4327L20.2159 125.8L17.0343 135.38ZM55.4425 144.925H50.1691L39.9034 128.085V144.925H34.63V119.331H39.9034L50.1866 136.206V119.331H55.4425V144.925ZM74.8136 139.652H65.5675L63.8097 144.925H58.2023L67.7296 119.331H72.6163L82.1964 144.925H76.589L74.8136 139.652ZM66.9913 135.38H73.3898L70.173 125.8L66.9913 135.38ZM89.8605 140.689H101.058V144.925H84.587V119.331H89.8605V140.689ZM108.001 130.863L113.327 119.331H119.093L110.691 135.644V144.925H105.329V135.644L96.9269 119.331H102.71L108.001 130.863ZM141.013 123.603H133.173V144.925H127.9V123.603H120.165V119.331H141.013V123.603ZM149.644 144.925H144.37V119.331H149.644V144.925ZM174.64 136.4C174.441 139.154 173.421 141.322 171.581 142.904C169.753 144.486 167.339 145.277 164.339 145.277C161.058 145.277 158.474 144.175 156.587 141.972C154.712 139.757 153.775 136.722 153.775 132.866V131.302C153.775 128.841 154.208 126.673 155.075 124.798C155.943 122.923 157.179 121.488 158.784 120.491C160.401 119.484 162.276 118.98 164.409 118.98C167.362 118.98 169.741 119.771 171.546 121.353C173.351 122.935 174.394 125.156 174.675 128.015H169.401C169.273 126.363 168.81 125.167 168.013 124.429C167.228 123.679 166.026 123.304 164.409 123.304C162.651 123.304 161.333 123.937 160.454 125.202C159.587 126.456 159.142 128.407 159.118 131.056V132.99C159.118 135.755 159.534 137.777 160.366 139.054C161.21 140.331 162.534 140.97 164.339 140.97C165.968 140.97 167.181 140.601 167.978 139.863C168.786 139.113 169.249 137.958 169.366 136.4H174.64ZM191.374 138.21C191.374 137.214 191.023 136.452 190.319 135.925C189.616 135.386 188.351 134.823 186.523 134.238C184.694 133.64 183.247 133.054 182.181 132.48C179.275 130.909 177.821 128.794 177.821 126.134C177.821 124.751 178.208 123.521 178.982 122.443C179.767 121.353 180.886 120.503 182.339 119.894C183.804 119.284 185.444 118.98 187.261 118.98C189.089 118.98 190.718 119.314 192.148 119.982C193.577 120.638 194.685 121.57 195.47 122.777C196.267 123.984 196.665 125.355 196.665 126.89H191.392C191.392 125.718 191.023 124.81 190.284 124.165C189.546 123.509 188.509 123.181 187.173 123.181C185.884 123.181 184.882 123.456 184.167 124.007C183.452 124.546 183.095 125.261 183.095 126.152C183.095 126.984 183.511 127.681 184.343 128.243C185.187 128.806 186.423 129.333 188.052 129.825C191.052 130.728 193.237 131.847 194.609 133.183C195.98 134.519 196.665 136.183 196.665 138.175C196.665 140.39 195.827 142.13 194.151 143.396C192.476 144.65 190.22 145.277 187.384 145.277C185.415 145.277 183.622 144.919 182.005 144.204C180.388 143.478 179.151 142.488 178.296 141.234C177.452 139.98 177.03 138.527 177.03 136.874H182.321C182.321 139.698 184.009 141.111 187.384 141.111C188.638 141.111 189.616 140.859 190.319 140.355C191.023 139.839 191.374 139.124 191.374 138.21Z" fill="white"/>
<path d="M41.1719 180V154.406H47.9043C50.6582 154.406 52.7383 154.969 54.1445 156.094C55.5625 157.207 56.2715 158.83 56.2715 160.963C56.2715 162.51 55.8789 163.793 55.0938 164.812C54.3086 165.832 53.2012 166.482 51.7715 166.764C53.3887 166.975 54.7363 167.678 55.8145 168.873C56.8926 170.057 57.4316 171.416 57.4316 172.951C57.4316 175.131 56.7227 176.854 55.3047 178.119C53.8984 179.373 51.9355 180 49.416 180H41.1719ZM42.1211 167.361V179.051H49.5215C51.6895 179.051 53.3887 178.518 54.6191 177.451C55.8613 176.373 56.4824 174.885 56.4824 172.986C56.4824 171.369 55.8848 170.039 54.6895 168.996C53.4941 167.941 51.8945 167.396 49.8906 167.361H42.1211ZM42.1211 166.412H48.2559C50.5879 166.412 52.3457 165.967 53.5293 165.076C54.7129 164.174 55.3047 162.779 55.3047 160.893C55.3047 157.26 52.9082 155.414 48.1152 155.355H42.1211V166.412ZM69.2441 180.352C67.709 180.352 66.2969 179.941 65.0078 179.121C63.7305 178.289 62.7285 177.152 62.002 175.711C61.2754 174.27 60.9121 172.67 60.9121 170.912V170.121C60.9121 168.363 61.2637 166.752 61.9668 165.287C62.6699 163.822 63.6367 162.68 64.8672 161.859C66.0977 161.039 67.4395 160.629 68.8926 160.629C71.0137 160.629 72.748 161.385 74.0957 162.896C75.4434 164.408 76.1172 166.395 76.1172 168.855V169.857H61.8613V170.895C61.8613 172.441 62.1836 173.877 62.8281 175.201C63.4844 176.514 64.3809 177.545 65.5176 178.295C66.666 179.045 67.9082 179.42 69.2441 179.42C70.5215 179.42 71.6055 179.209 72.4961 178.787C73.3984 178.354 74.1953 177.691 74.8867 176.801L75.5547 177.275C74.1367 179.326 72.0332 180.352 69.2441 180.352ZM68.8926 161.578C67.041 161.578 65.4707 162.27 64.1816 163.652C62.8926 165.023 62.1367 166.775 61.9141 168.908H75.168V168.68C75.168 167.391 74.8926 166.195 74.3418 165.094C73.8027 163.98 73.0527 163.119 72.0918 162.51C71.1426 161.889 70.0762 161.578 68.8926 161.578ZM79.6504 170.297C79.6504 167.262 80.2891 164.895 81.5664 163.195C82.8438 161.484 84.5957 160.629 86.8223 160.629C88.2402 160.629 89.5 160.957 90.6016 161.613C91.7031 162.258 92.5879 163.207 93.2559 164.461V160.98H94.2227V179.666C94.2227 182.174 93.5781 184.131 92.2891 185.537C91 186.955 89.248 187.664 87.0332 187.664C85.7559 187.664 84.584 187.389 83.5176 186.838C82.4629 186.287 81.5605 185.496 80.8105 184.465L81.4785 183.832C82.2168 184.77 83.0254 185.484 83.9043 185.977C84.7832 186.48 85.8145 186.732 86.998 186.732C88.9551 186.732 90.4785 186.135 91.5684 184.939C92.6582 183.756 93.2207 182.08 93.2559 179.912V176.994C92.5996 178.072 91.709 178.904 90.584 179.49C89.4707 180.064 88.2051 180.352 86.7871 180.352C84.584 180.352 82.8438 179.479 81.5664 177.732C80.2891 175.986 79.6504 173.59 79.6504 170.543V170.297ZM80.6172 170.666C80.6172 173.385 81.1562 175.523 82.2344 177.082C83.3125 178.629 84.8242 179.402 86.7695 179.402C88.375 179.402 89.7402 179.033 90.8652 178.295C91.9902 177.545 92.7871 176.496 93.2559 175.148V166.518C92.2246 163.225 90.0742 161.578 86.8047 161.578C84.8477 161.578 83.3242 162.346 82.2344 163.881C81.1562 165.416 80.6172 167.678 80.6172 170.666ZM101.482 180H100.533V160.98H101.482V180ZM100.041 155.039C100.041 154.77 100.135 154.541 100.322 154.354C100.51 154.154 100.738 154.055 101.008 154.055C101.277 154.055 101.506 154.154 101.693 154.354C101.893 154.541 101.992 154.77 101.992 155.039C101.992 155.309 101.893 155.537 101.693 155.725C101.506 155.912 101.277 156.006 101.008 156.006C100.738 156.006 100.51 155.912 100.322 155.725C100.135 155.537 100.041 155.309 100.041 155.039ZM108.672 165.41C109.293 163.934 110.207 162.768 111.414 161.912C112.621 161.057 113.957 160.629 115.422 160.629C117.461 160.629 118.973 161.209 119.957 162.369C120.953 163.518 121.457 165.258 121.469 167.59V180H120.52V167.555C120.508 165.516 120.092 164.01 119.271 163.037C118.451 162.053 117.15 161.561 115.369 161.561C113.729 161.561 112.305 162.146 111.098 163.318C109.902 164.479 109.094 165.979 108.672 167.818V180H107.723V160.98H108.672V165.41ZM128.395 165.41C129.016 163.934 129.93 162.768 131.137 161.912C132.344 161.057 133.68 160.629 135.145 160.629C137.184 160.629 138.695 161.209 139.68 162.369C140.676 163.518 141.18 165.258 141.191 167.59V180H140.242V167.555C140.23 165.516 139.814 164.01 138.994 163.037C138.174 162.053 136.873 161.561 135.092 161.561C133.451 161.561 132.027 162.146 130.82 163.318C129.625 164.479 128.816 165.979 128.395 167.818V180H127.445V160.98H128.395V165.41ZM154.006 180.352C152.471 180.352 151.059 179.941 149.77 179.121C148.492 178.289 147.49 177.152 146.764 175.711C146.037 174.27 145.674 172.67 145.674 170.912V170.121C145.674 168.363 146.025 166.752 146.729 165.287C147.432 163.822 148.398 162.68 149.629 161.859C150.859 161.039 152.201 160.629 153.654 160.629C155.775 160.629 157.51 161.385 158.857 162.896C160.205 164.408 160.879 166.395 160.879 168.855V169.857H146.623V170.895C146.623 172.441 146.945 173.877 147.59 175.201C148.246 176.514 149.143 177.545 150.279 178.295C151.428 179.045 152.67 179.42 154.006 179.42C155.283 179.42 156.367 179.209 157.258 178.787C158.16 178.354 158.957 177.691 159.648 176.801L160.316 177.275C158.898 179.326 156.795 180.352 154.006 180.352ZM153.654 161.578C151.803 161.578 150.232 162.27 148.943 163.652C147.654 165.023 146.898 166.775 146.676 168.908H159.93V168.68C159.93 167.391 159.654 166.195 159.104 165.094C158.564 163.98 157.814 163.119 156.854 162.51C155.904 161.889 154.838 161.578 153.654 161.578ZM173.693 161.666L172.463 161.561C170.846 161.561 169.492 162.088 168.402 163.143C167.312 164.186 166.598 165.65 166.258 167.537V180H165.309V160.98H166.258V164.936C166.773 163.611 167.547 162.562 168.578 161.789C169.609 161.016 170.904 160.629 172.463 160.629C173.014 160.629 173.459 160.693 173.799 160.822L173.693 161.666ZM33.0859 214.16C32.8398 216.797 31.9316 218.824 30.3613 220.242C28.791 221.648 26.6582 222.352 23.9629 222.352C22.1465 222.352 20.5352 221.895 19.1289 220.98C17.7344 220.055 16.6504 218.748 15.877 217.061C15.1035 215.361 14.7109 213.422 14.6992 211.242V207.287C14.6992 205.107 15.0801 203.162 15.8418 201.451C16.6035 199.729 17.6875 198.398 19.0938 197.461C20.5117 196.523 22.1348 196.055 23.9629 196.055C26.6348 196.055 28.7617 196.758 30.3438 198.164C31.9258 199.57 32.8398 201.586 33.0859 204.211H32.1367C31.8672 201.855 31.0469 200.068 29.6758 198.85C28.3047 197.619 26.4004 197.004 23.9629 197.004C21.4785 197.004 19.4688 197.941 17.9336 199.816C16.4102 201.691 15.6484 204.205 15.6484 207.357V211.119C15.6484 213.135 15.9883 214.922 16.668 216.48C17.3477 218.027 18.3203 219.234 19.5859 220.102C20.8633 220.969 22.3223 221.402 23.9629 221.402C26.4121 221.402 28.3223 220.799 29.6934 219.592C31.0762 218.385 31.8906 216.574 32.1367 214.16H33.0859ZM45.373 222.352C43.8379 222.352 42.4258 221.941 41.1367 221.121C39.8594 220.289 38.8574 219.152 38.1309 217.711C37.4043 216.27 37.041 214.67 37.041 212.912V212.121C37.041 210.363 37.3926 208.752 38.0957 207.287C38.7988 205.822 39.7656 204.68 40.9961 203.859C42.2266 203.039 43.5684 202.629 45.0215 202.629C47.1426 202.629 48.877 203.385 50.2246 204.896C51.5723 206.408 52.2461 208.395 52.2461 210.855V211.857H37.9902V212.895C37.9902 214.441 38.3125 215.877 38.957 217.201C39.6133 218.514 40.5098 219.545 41.6465 220.295C42.7949 221.045 44.0371 221.42 45.373 221.42C46.6504 221.42 47.7344 221.209 48.625 220.787C49.5273 220.354 50.3242 219.691 51.0156 218.801L51.6836 219.275C50.2656 221.326 48.1621 222.352 45.373 222.352ZM45.0215 203.578C43.1699 203.578 41.5996 204.27 40.3105 205.652C39.0215 207.023 38.2656 208.775 38.043 210.908H51.2969V210.68C51.2969 209.391 51.0215 208.195 50.4707 207.094C49.9316 205.98 49.1816 205.119 48.2207 204.51C47.2715 203.889 46.2051 203.578 45.0215 203.578ZM65.0605 203.666L63.8301 203.561C62.2129 203.561 60.8594 204.088 59.7695 205.143C58.6797 206.186 57.9648 207.65 57.625 209.537V222H56.6758V202.98H57.625V206.936C58.1406 205.611 58.9141 204.562 59.9453 203.789C60.9766 203.016 62.2715 202.629 63.8301 202.629C64.3809 202.629 64.8262 202.693 65.166 202.822L65.0605 203.666ZM71.7402 197.848V202.98H76.0645V203.947H71.7402V217.447C71.7402 218.795 71.957 219.791 72.3906 220.436C72.8359 221.08 73.5742 221.402 74.6055 221.402C75.1211 221.402 75.748 221.35 76.4863 221.244L76.6445 222.141C76.2578 222.281 75.5957 222.352 74.6582 222.352C73.2754 222.352 72.2852 221.971 71.6875 221.209C71.0898 220.436 70.7852 219.223 70.7734 217.57V203.947H67.2578V202.98H70.7734V197.848H71.7402ZM82.1816 222H81.2324V202.98H82.1816V222ZM80.7402 197.039C80.7402 196.77 80.834 196.541 81.0215 196.354C81.209 196.154 81.4375 196.055 81.707 196.055C81.9766 196.055 82.2051 196.154 82.3926 196.354C82.5918 196.541 82.6914 196.77 82.6914 197.039C82.6914 197.309 82.5918 197.537 82.3926 197.725C82.2051 197.912 81.9766 198.006 81.707 198.006C81.4375 198.006 81.209 197.912 81.0215 197.725C80.834 197.537 80.7402 197.309 80.7402 197.039ZM89.8633 222V203.947H86.5586V202.98H89.8633V200.59C89.875 198.703 90.3789 197.238 91.375 196.195C92.3711 195.152 93.7598 194.631 95.541 194.631C97.2402 194.631 98.8105 194.965 100.252 195.633L100.111 196.547L99.0742 196.125C98.1016 195.762 96.9297 195.58 95.5586 195.58C94.0938 195.58 92.9336 196.031 92.0781 196.934C91.2344 197.824 90.8125 199.066 90.8125 200.66V202.98H95.8398V203.947H90.8125V222H89.8633ZM100.938 222H99.9883V202.98H100.938V222ZM113.646 221.402C115.369 221.402 116.787 220.945 117.9 220.031C119.025 219.117 119.641 217.852 119.746 216.234H120.695C120.602 218.074 119.893 219.557 118.568 220.682C117.244 221.795 115.604 222.352 113.646 222.352C111.268 222.352 109.375 221.49 107.969 219.768C106.574 218.045 105.877 215.707 105.877 212.754V212.121C105.877 209.238 106.574 206.936 107.969 205.213C109.375 203.49 111.256 202.629 113.611 202.629C115.627 202.629 117.291 203.232 118.604 204.439C119.916 205.646 120.613 207.252 120.695 209.256H119.746C119.664 207.545 119.061 206.174 117.936 205.143C116.822 204.1 115.381 203.578 113.611 203.578C111.49 203.578 109.826 204.346 108.619 205.881C107.424 207.404 106.826 209.525 106.826 212.244V212.859C106.826 215.52 107.43 217.611 108.637 219.135C109.855 220.646 111.525 221.402 113.646 221.402ZM137.764 222C137.529 221.191 137.412 220.031 137.412 218.52C136.662 219.738 135.637 220.682 134.336 221.35C133.035 222.018 131.564 222.352 129.924 222.352C128.166 222.352 126.748 221.877 125.67 220.928C124.604 219.967 124.07 218.719 124.07 217.184C124.07 215.438 124.855 214.043 126.426 213C128.008 211.945 130.105 211.406 132.719 211.383H137.412V208.605C137.412 207.012 136.908 205.775 135.9 204.896C134.904 204.018 133.475 203.578 131.611 203.578C129.877 203.578 128.43 204.023 127.27 204.914C126.109 205.805 125.529 206.906 125.529 208.219L124.58 208.184C124.58 206.637 125.26 205.324 126.619 204.246C127.979 203.168 129.643 202.629 131.611 202.629C133.662 202.629 135.291 203.145 136.498 204.176C137.705 205.195 138.326 206.637 138.361 208.5V217.588C138.361 219.674 138.525 221.092 138.854 221.842V222H137.764ZM129.924 221.42C131.705 221.42 133.234 221.021 134.512 220.225C135.801 219.428 136.768 218.309 137.412 216.867V212.35H133.018C130.299 212.35 128.219 212.889 126.777 213.967C125.605 214.846 125.02 215.941 125.02 217.254C125.02 218.414 125.482 219.398 126.408 220.207C127.334 221.016 128.506 221.42 129.924 221.42ZM146.623 197.848V202.98H150.947V203.947H146.623V217.447C146.623 218.795 146.84 219.791 147.273 220.436C147.719 221.08 148.457 221.402 149.488 221.402C150.004 221.402 150.631 221.35 151.369 221.244L151.527 222.141C151.141 222.281 150.479 222.352 149.541 222.352C148.158 222.352 147.168 221.971 146.57 221.209C145.973 220.436 145.668 219.223 145.656 217.57V203.947H142.141V202.98H145.656V197.848H146.623ZM157.064 222H156.115V202.98H157.064V222ZM155.623 197.039C155.623 196.77 155.717 196.541 155.904 196.354C156.092 196.154 156.32 196.055 156.59 196.055C156.859 196.055 157.088 196.154 157.275 196.354C157.475 196.541 157.574 196.77 157.574 197.039C157.574 197.309 157.475 197.537 157.275 197.725C157.088 197.912 156.859 198.006 156.59 198.006C156.32 198.006 156.092 197.912 155.904 197.725C155.717 197.537 155.623 197.309 155.623 197.039ZM161.863 212.121C161.863 210.305 162.209 208.676 162.9 207.234C163.604 205.781 164.588 204.65 165.854 203.842C167.131 203.033 168.572 202.629 170.178 202.629C171.771 202.629 173.201 203.021 174.467 203.807C175.732 204.592 176.717 205.705 177.42 207.146C178.135 208.588 178.498 210.211 178.51 212.016V212.859C178.51 214.688 178.164 216.322 177.473 217.764C176.781 219.205 175.797 220.33 174.52 221.139C173.254 221.947 171.818 222.352 170.213 222.352C168.607 222.352 167.166 221.953 165.889 221.156C164.623 220.359 163.639 219.246 162.936 217.816C162.232 216.375 161.875 214.758 161.863 212.965V212.121ZM162.812 212.859C162.812 214.441 163.123 215.895 163.744 217.219C164.377 218.531 165.25 219.557 166.363 220.295C167.488 221.033 168.771 221.402 170.213 221.402C172.381 221.402 174.145 220.588 175.504 218.959C176.875 217.33 177.561 215.232 177.561 212.666V212.121C177.561 210.562 177.244 209.121 176.611 207.797C175.979 206.473 175.1 205.441 173.975 204.703C172.861 203.953 171.596 203.578 170.178 203.578C168.01 203.578 166.24 204.404 164.869 206.057C163.498 207.709 162.812 209.789 162.812 212.297V212.859ZM184.082 207.41C184.703 205.934 185.617 204.768 186.824 203.912C188.031 203.057 189.367 202.629 190.832 202.629C192.871 202.629 194.383 203.209 195.367 204.369C196.363 205.518 196.867 207.258 196.879 209.59V222H195.93V209.555C195.918 207.516 195.502 206.01 194.682 205.037C193.861 204.053 192.561 203.561 190.779 203.561C189.139 203.561 187.715 204.146 186.508 205.318C185.312 206.479 184.504 207.979 184.082 209.818V222H183.133V202.98H184.082V207.41Z" fill="white"/>
</svg>
