<?xml version="1.0" encoding="utf-8"?>
<!-- Generator: Adobe Illustrator 16.0.0, SVG Export Plug-In . SVG Version: 6.00 Build 0)  -->
<!DOCTYPE svg PUBLIC "-//W3C//DTD SVG 1.1//EN" "http://www.w3.org/Graphics/SVG/1.1/DTD/svg11.dtd">
<svg version="1.1" id="Layer_1" xmlns="http://www.w3.org/2000/svg" xmlns:xlink="http://www.w3.org/1999/xlink" x="0px" y="0px"
	 width="975px" height="406.688px" viewBox="0 325.312 975 406.688" enable-background="new 0 325.312 975 406.688"
	 xml:space="preserve">
<path fill="#2AC17D" d="M866.874,325.312c-116.967,0-396.468,31.169-578.741,155.846C251.589,534.605,61.534,667.141,1,739.403
	h279.302l732.748,7.907l8.95-351.152L866.874,325.312z"/>
<path fill="#01B992" d="M872.191,343.312c-112.956,0-382.876,29.84-558.901,149.199C277.999,543.678,94.459,670.561,36,739.74
	h269.728l707.632,7.57l8.64-336.175L872.191,343.312z"/>
<path fill="#94D3DD" d="M266.836,395.432h-90.867v38.521h90.867V395.432z"/>
<path fill="#94D3DD" d="M248.689,376.441h-54.507v56.021h54.507V376.441z"/>
<path fill="#5695CF" d="M294.155,419.422H148.716v10.813h145.439V419.422z"/>
<path fill="#5695CF" d="M294.155,404.486H148.716v10.813h145.439V404.486z"/>
<path fill="#5695CF" d="M276.008,389.281h-109.08v10.813h109.08V389.281z"/>
<path fill="#5695CF" d="M257.795,374.076h-72.72v10.813h72.72V374.076z"/>
<path fill="#94D3DD" d="M221.435,412.056c10.023,0,18.148-9.712,18.148-21.692c0-11.979-8.125-21.692-18.148-21.692
	c-10.022,0-18.147,9.713-18.147,21.692C203.288,402.344,211.413,412.056,221.435,412.056z"/>
<path fill="#60A0D2" d="M302.41,433.41h-81.433v24.26h81.433V433.41z"/>
<path fill="#94D3DD" d="M294.876,437.938h-65.12v16.15h65.12V437.938z"/>
<path fill="#60A0D2" d="M222.615,433.41h-81.434v24.26h81.434V433.41L222.615,433.41z"/>
<path fill="#94D3DD" d="M215.081,437.938H149.96v16.15h65.121V437.938L215.081,437.938z"/>
<path fill="#60A0D2" d="M302.41,456.049h-81.433v24.261h81.433V456.049z"/>
<path fill="#94D3DD" d="M294.876,460.576h-65.12v16.15h65.12V460.576z"/>
<path fill="#60A0D2" d="M222.615,456.049h-81.434v24.261h81.434V456.049L222.615,456.049z"/>
<path fill="#94D3DD" d="M215.081,460.576H149.96v16.15h65.121V460.576L215.081,460.576z"/>
<path fill="#60A0D2" d="M302.41,478.755h-81.433v24.261h81.433V478.755z"/>
<path fill="#94D3DD" d="M294.876,483.216h-65.12v16.15h65.12V483.216z"/>
<path fill="#60A0D2" d="M222.615,478.755h-81.434v24.261h81.434V478.755L222.615,478.755z"/>
<path fill="#94D3DD" d="M215.081,483.216H149.96v16.15h65.121V483.216L215.081,483.216z"/>
<path fill="#60A0D2" d="M302.41,501.394h-81.433v24.262h81.433V501.394z"/>
<path fill="#94D3DD" d="M294.876,505.922h-65.12v16.15h65.12V505.922z"/>
<path fill="#60A0D2" d="M222.615,501.394h-81.434v24.262h81.434V501.394L222.615,501.394z"/>
<path fill="#94D3DD" d="M215.081,505.922H149.96v16.15h65.121V505.922L215.081,505.922z"/>
<path fill="#60A0D2" d="M302.41,614.654h-81.433v24.261h81.433V614.654z"/>
<path fill="#94D3DD" d="M294.876,619.183h-65.12v16.15h65.12V619.183z"/>
<path fill="#60A0D2" d="M222.615,614.654h-81.434v24.261h81.434V614.654L222.615,614.654z"/>
<path fill="#94D3DD" d="M215.081,619.183H149.96v16.15h65.121V619.183L215.081,619.183z"/>
<path fill="#60A0D2" d="M302.41,637.294h-81.433v24.26h81.433V637.294z"/>
<path fill="#94D3DD" d="M294.876,641.82h-65.12v16.151h65.12V641.82z"/>
<path fill="#60A0D2" d="M222.615,637.294h-81.434v24.26h81.434V637.294L222.615,637.294z"/>
<path fill="#94D3DD" d="M215.081,641.82H149.96v16.151h65.121V641.82L215.081,641.82z"/>
<path fill="#60A0D2" d="M302.41,659.932h-81.433v24.262h81.433V659.932z"/>
<path fill="#94D3DD" d="M294.876,664.46h-65.12v16.15h65.12V664.46z"/>
<path fill="#60A0D2" d="M222.615,659.932h-81.434v24.262h81.434V659.932L222.615,659.932z"/>
<path fill="#94D3DD" d="M215.081,664.46H149.96v16.15h65.121V664.46L215.081,664.46z"/>
<path fill="#60A0D2" d="M302.41,682.639h-81.433v24.261h81.433V682.639z"/>
<path fill="#94D3DD" d="M294.876,687.099h-65.12v16.15h65.12V687.099z"/>
<path fill="#60A0D2" d="M222.615,682.639h-81.434v24.261h81.434V682.639L222.615,682.639z"/>
<path fill="#94D3DD" d="M215.081,687.099H149.96v16.15h65.121V687.099L215.081,687.099z"/>
<path fill="#60A0D2" d="M302.41,524.032h-81.433v24.261h81.433V524.032z"/>
<path fill="#94D3DD" d="M294.876,528.56h-65.12v16.152h65.12V528.56z"/>
<path fill="#60A0D2" d="M222.615,524.032h-81.434v24.261h81.434V524.032L222.615,524.032z"/>
<path fill="#94D3DD" d="M215.081,528.56H149.96v16.152h65.121V528.56L215.081,528.56z"/>
<path fill="#60A0D2" d="M302.41,546.671h-81.433v24.261h81.433V546.671z"/>
<path fill="#94D3DD" d="M294.876,551.198h-65.12v16.15h65.12V551.198z"/>
<path fill="#60A0D2" d="M222.615,546.671h-81.434v24.261h81.434V546.671L222.615,546.671z"/>
<path fill="#94D3DD" d="M215.081,551.198H149.96v16.15h65.121V551.198L215.081,551.198z"/>
<path fill="#60A0D2" d="M302.41,569.31h-81.433v24.262h81.433V569.31z"/>
<path fill="#94D3DD" d="M294.876,573.838h-65.12v16.15h65.12V573.838z"/>
<path fill="#60A0D2" d="M222.615,569.31h-81.434v24.262h81.434V569.31L222.615,569.31z"/>
<path fill="#94D3DD" d="M215.081,573.838H149.96v16.15h65.121V573.838L215.081,573.838z"/>
<path fill="#60A0D2" d="M302.41,592.016h-81.433v24.262h81.433V592.016z"/>
<path fill="#94D3DD" d="M294.876,596.476h-65.12v16.152h65.12V596.476z"/>
<path fill="#60A0D2" d="M222.615,592.016h-81.434v24.262h81.434V592.016L222.615,592.016z"/>
<path fill="#94D3DD" d="M215.081,596.476H149.96v16.152h65.121V596.476L215.081,596.476z"/>
<path fill="#D67128" d="M156.184,579.852H77.109v4.528h79.075V579.852L156.184,579.852z"/>
<path fill="#EEA464" d="M172.235,583.703h-55.621v31.56h55.621V583.703z"/>
<path fill="#FFD193" d="M167.649,589.381h-44.484v21.018h44.484V589.381z"/>
<path fill="#EEA464" d="M117.204,583.703H61.583v31.56h55.622L117.204,583.703L117.204,583.703z"/>
<path fill="#FFD193" d="M112.618,589.381H68.134v21.018h44.484V589.381z"/>
<path fill="#EEA464" d="M172.235,614.385h-55.621v31.56h55.621V614.385z"/>
<path fill="#FFD193" d="M167.649,620.129h-44.484v21.018h44.484V620.129z"/>
<path fill="#EEA464" d="M117.204,614.385H61.583v31.56h55.622L117.204,614.385L117.204,614.385z"/>
<path fill="#FFD193" d="M112.618,620.129H68.134v21.018h44.484V620.129z"/>
<path fill="#EEA464" d="M172.235,644.659h-55.621v31.56h55.621V644.659z"/>
<path fill="#FFD193" d="M167.649,650.403h-44.484v21.018h44.484V650.403z"/>
<path fill="#EEA464" d="M117.204,644.659H61.583v31.56h55.622L117.204,644.659L117.204,644.659z"/>
<path fill="#FFD193" d="M112.618,650.403H68.134v21.018h44.484V650.403z"/>
<path fill="#EEA464" d="M172.235,675.407h-55.621v31.56h55.621V675.407z"/>
<path fill="#FFD193" d="M167.649,681.083h-44.484v21.018h44.484V681.083z"/>
<path fill="#EEA464" d="M117.204,675.407H61.583v31.56h55.622L117.204,675.407L117.204,675.407z"/>
<path fill="#FFD193" d="M112.618,681.083H68.134v21.018h44.484V681.083z"/>
<path fill="#EEA464" d="M515.787,412.258h-55.162v73.661h55.162V412.258z"/>
<path fill="#FFD193" d="M511.332,425.57h-44.156v49.063h44.156V425.57z"/>
<path fill="#EEA464" d="M515.787,483.958h-55.162v73.66h55.162V483.958z"/>
<path fill="#FFD193" d="M511.332,497.271h-44.156v49.062h44.156V497.271z"/>
<path fill="#EEA464" d="M515.787,554.646h-55.162v73.659h55.162V554.646z"/>
<path fill="#FFD193" d="M511.332,567.958h-44.156v49.062h44.156V567.958z"/>
<path fill="#EEA464" d="M515.787,626.346h-55.162v73.66h55.162V626.346z"/>
<path fill="#FFD193" d="M511.332,639.658h-44.156v49.063h44.156V639.658z"/>
<path fill="#EEA464" d="M630.436,339.543h-62.172v23.45h62.172V339.543z"/>
<path fill="#FFD193" d="M625.326,343.802H575.6v15.61h49.727V343.802z"/>
<path fill="#EEA464" d="M568.919,339.543h-62.173v23.45h62.173V339.543z"/>
<path fill="#FFD193" d="M563.809,343.802h-49.725v15.61h49.725V343.802z"/>
<path fill="#EEA464" d="M630.436,362.386h-62.172v23.448h62.172V362.386z"/>
<path fill="#FFD193" d="M625.326,366.643H575.6v15.611h49.727V366.643z"/>
<path fill="#EEA464" d="M568.919,362.386h-62.173v23.448h62.173V362.386z"/>
<path fill="#FFD193" d="M563.809,366.643h-49.725v15.611h49.725V366.643z"/>
<path fill="#EEA464" d="M630.436,384.889h-62.172v23.449h62.172V384.889z"/>
<path fill="#FFD193" d="M625.326,389.146H575.6v15.608h49.727V389.146z"/>
<path fill="#EEA464" d="M568.919,384.889h-62.173v23.449h62.173V384.889z"/>
<path fill="#FFD193" d="M563.809,389.146h-49.725v15.608h49.725V389.146z"/>
<path fill="#EEA464" d="M630.436,407.73h-62.172v23.448h62.172V407.73z"/>
<path fill="#FFD193" d="M625.326,411.92H575.6v15.61h49.727V411.92z"/>
<path fill="#EEA464" d="M568.919,407.73h-62.173v23.448h62.173V407.73z"/>
<path fill="#FFD193" d="M563.809,411.92h-49.725v15.61h49.725V411.92z"/>
<path fill="#EEA464" d="M630.436,429.963h-62.172v23.451h62.172V429.963z"/>
<path fill="#FFD193" d="M625.326,434.221H575.6v15.611h49.727V434.221z"/>
<path fill="#EEA464" d="M568.919,429.963h-62.173v23.451h62.173V429.963z"/>
<path fill="#FFD193" d="M563.809,434.221h-49.725v15.611h49.725V434.221z"/>
<path fill="#EEA464" d="M630.436,452.805h-62.172v23.45h62.172V452.805z"/>
<path fill="#FFD193" d="M625.326,456.994H575.6v15.611h49.727V456.994z"/>
<path fill="#EEA464" d="M568.919,452.805h-62.173v23.45h62.173V452.805z"/>
<path fill="#FFD193" d="M563.809,456.994h-49.725v15.611h49.725V456.994z"/>
<path fill="#EEA464" d="M630.436,475.309h-62.172v23.448h62.172V475.309z"/>
<path fill="#FFD193" d="M625.326,479.499H575.6v15.609h49.727V479.499z"/>
<path fill="#EEA464" d="M568.919,475.309h-62.173v23.448h62.173V475.309z"/>
<path fill="#FFD193" d="M563.809,479.499h-49.725v15.609h49.725V479.499z"/>
<path fill="#EEA464" d="M630.436,498.083h-62.172v23.448h62.172V498.083z"/>
<path fill="#FFD193" d="M625.326,502.339H575.6v15.611h49.727V502.339z"/>
<path fill="#EEA464" d="M568.919,498.083h-62.173v23.448h62.173V498.083z"/>
<path fill="#FFD193" d="M563.809,502.339h-49.725v15.611h49.725V502.339z"/>
<path fill="#EEA464" d="M630.436,520.856h-62.172v23.448h62.172V520.856z"/>
<path fill="#FFD193" d="M625.326,525.113H575.6v15.61h49.727V525.113z"/>
<path fill="#EEA464" d="M568.919,520.856h-62.173v23.448h62.173V520.856z"/>
<path fill="#FFD193" d="M563.809,525.113h-49.725v15.61h49.725V525.113z"/>
<path fill="#EEA464" d="M630.436,543.697h-62.172v23.45h62.172V543.697z"/>
<path fill="#FFD193" d="M625.326,547.888H575.6v15.609h49.727V547.888z"/>
<path fill="#EEA464" d="M568.919,543.697h-62.173v23.45h62.173V543.697z"/>
<path fill="#FFD193" d="M563.809,547.888h-49.725v15.609h49.725V547.888z"/>
<path fill="#EEA464" d="M630.436,566.2h-62.172v23.45h62.172V566.2z"/>
<path fill="#FFD193" d="M625.326,570.391H575.6v15.611h49.727V570.391z"/>
<path fill="#EEA464" d="M568.919,566.2h-62.173v23.45h62.173V566.2z"/>
<path fill="#FFD193" d="M563.809,570.391h-49.725v15.611h49.725V570.391z"/>
<path fill="#EEA464" d="M630.436,588.975h-62.172v23.45h62.172V588.975z"/>
<path fill="#FFD193" d="M625.326,593.232H575.6v15.609h49.727V593.232z"/>
<path fill="#EEA464" d="M568.919,588.975h-62.173v23.45h62.173V588.975z"/>
<path fill="#FFD193" d="M563.809,593.232h-49.725v15.609h49.725V593.232z"/>
<path fill="#EEA464" d="M630.436,611.275h-62.172v23.449h62.172V611.275z"/>
<path fill="#FFD193" d="M625.326,615.466H575.6v15.609h49.727V615.466z"/>
<path fill="#EEA464" d="M568.919,611.275h-62.173v23.449h62.173V611.275z"/>
<path fill="#FFD193" d="M563.809,615.466h-49.725v15.609h49.725V615.466z"/>
<path fill="#EEA464" d="M630.436,634.05h-62.172v23.449h62.172V634.05z"/>
<path fill="#FFD193" d="M625.326,638.307H575.6v15.611h49.727V638.307z"/>
<path fill="#EEA464" d="M568.919,634.05h-62.173v23.449h62.173V634.05z"/>
<path fill="#FFD193" d="M563.809,638.307h-49.725v15.611h49.725V638.307z"/>
<path fill="#EEA464" d="M630.436,656.553h-62.172v23.45h62.172V656.553z"/>
<path fill="#FFD193" d="M625.326,660.811H575.6v15.61h49.727V660.811z"/>
<path fill="#EEA464" d="M568.919,656.553h-62.173v23.45h62.173V656.553z"/>
<path fill="#FFD193" d="M563.809,660.811h-49.725v15.61h49.725V660.811z"/>
<path fill="#EEA464" d="M630.436,679.395h-62.172v23.449h62.172V679.395z"/>
<path fill="#FFD193" d="M625.326,683.651H575.6v15.61h49.727V683.651z"/>
<path fill="#EEA464" d="M568.919,679.395h-62.173v23.449h62.173V679.395z"/>
<path fill="#FFD193" d="M563.809,683.651h-49.725v15.61h49.725V683.651z"/>
<path fill="#EEA464" d="M466.194,339.543h-62.173v23.45h62.173V339.543z"/>
<path fill="#FFD193" d="M461.084,343.802h-49.725v15.61h49.725V343.802z"/>
<path fill="#EEA464" d="M404.677,339.543h-62.173v23.45h62.173V339.543z"/>
<path fill="#FFD193" d="M399.566,343.802h-49.726v15.61h49.726V343.802z"/>
<path fill="#EEA464" d="M466.194,362.386h-62.173v23.448h62.173V362.386z"/>
<path fill="#FFD193" d="M461.084,366.643h-49.725v15.611h49.725V366.643z"/>
<path fill="#EEA464" d="M404.677,362.386h-62.173v23.448h62.173V362.386z"/>
<path fill="#FFD193" d="M399.566,366.643h-49.726v15.611h49.726V366.643z"/>
<path fill="#EEA464" d="M466.194,384.889h-62.173v23.449h62.173V384.889z"/>
<path fill="#FFD193" d="M461.084,389.146h-49.725v15.608h49.725V389.146z"/>
<path fill="#EEA464" d="M404.677,384.889h-62.173v23.449h62.173V384.889z"/>
<path fill="#FFD193" d="M399.566,389.146h-49.726v15.608h49.726V389.146z"/>
<path fill="#EEA464" d="M466.194,407.73h-62.173v23.448h62.173V407.73z"/>
<path fill="#FFD193" d="M461.084,411.92h-49.725v15.61h49.725V411.92z"/>
<path fill="#EEA464" d="M404.677,407.73h-62.173v23.448h62.173V407.73z"/>
<path fill="#FFD193" d="M399.566,411.92h-49.726v15.61h49.726V411.92z"/>
<path fill="#EEA464" d="M466.194,429.963h-62.173v23.451h62.173V429.963z"/>
<path fill="#FFD193" d="M461.084,434.221h-49.725v15.611h49.725V434.221z"/>
<path fill="#EEA464" d="M404.677,429.963h-62.173v23.451h62.173V429.963z"/>
<path fill="#FFD193" d="M399.566,434.221h-49.726v15.611h49.726V434.221z"/>
<path fill="#EEA464" d="M466.194,452.805h-62.173v23.45h62.173V452.805z"/>
<path fill="#FFD193" d="M461.084,456.994h-49.725v15.611h49.725V456.994z"/>
<path fill="#EEA464" d="M404.677,452.805h-62.173v23.45h62.173V452.805z"/>
<path fill="#FFD193" d="M399.566,456.994h-49.726v15.611h49.726V456.994z"/>
<path fill="#EEA464" d="M466.194,475.309h-62.173v23.448h62.173V475.309z"/>
<path fill="#FFD193" d="M461.084,479.499h-49.725v15.609h49.725V479.499z"/>
<path fill="#EEA464" d="M404.677,475.309h-62.173v23.448h62.173V475.309z"/>
<path fill="#FFD193" d="M399.566,479.499h-49.726v15.609h49.726V479.499z"/>
<path fill="#EEA464" d="M466.194,498.083h-62.173v23.448h62.173V498.083z"/>
<path fill="#FFD193" d="M461.084,502.339h-49.725v15.611h49.725V502.339z"/>
<path fill="#EEA464" d="M404.677,498.083h-62.173v23.448h62.173V498.083z"/>
<path fill="#FFD193" d="M399.566,502.339h-49.726v15.611h49.726V502.339z"/>
<path fill="#EEA464" d="M466.194,520.856h-62.173v23.448h62.173V520.856z"/>
<path fill="#FFD193" d="M461.084,525.113h-49.725v15.61h49.725V525.113z"/>
<path fill="#EEA464" d="M404.677,520.856h-62.173v23.448h62.173V520.856z"/>
<path fill="#FFD193" d="M399.566,525.113h-49.726v15.61h49.726V525.113z"/>
<path fill="#EEA464" d="M466.194,543.697h-62.173v23.45h62.173V543.697z"/>
<path fill="#FFD193" d="M461.084,547.888h-49.725v15.609h49.725V547.888z"/>
<path fill="#EEA464" d="M404.677,543.697h-62.173v23.45h62.173V543.697z"/>
<path fill="#FFD193" d="M399.566,547.888h-49.726v15.609h49.726V547.888z"/>
<path fill="#EEA464" d="M466.194,566.2h-62.173v23.45h62.173V566.2z"/>
<path fill="#FFD193" d="M461.084,570.391h-49.725v15.611h49.725V570.391z"/>
<path fill="#EEA464" d="M404.677,566.2h-62.173v23.45h62.173V566.2z"/>
<path fill="#FFD193" d="M399.566,570.391h-49.726v15.611h49.726V570.391z"/>
<path fill="#EEA464" d="M466.194,588.975h-62.173v23.45h62.173V588.975z"/>
<path fill="#FFD193" d="M461.084,593.232h-49.725v15.609h49.725V593.232z"/>
<path fill="#EEA464" d="M404.677,588.975h-62.173v23.45h62.173V588.975z"/>
<path fill="#FFD193" d="M399.566,593.232h-49.726v15.609h49.726V593.232z"/>
<path fill="#EEA464" d="M466.194,611.275h-62.173v23.449h62.173V611.275z"/>
<path fill="#FFD193" d="M461.084,615.466h-49.725v15.609h49.725V615.466z"/>
<path fill="#EEA464" d="M404.677,611.275h-62.173v23.449h62.173V611.275z"/>
<path fill="#FFD193" d="M399.566,615.466h-49.726v15.609h49.726V615.466z"/>
<path fill="#EEA464" d="M466.194,634.05h-62.173v23.449h62.173V634.05z"/>
<path fill="#FFD193" d="M461.084,638.307h-49.725v15.611h49.725V638.307z"/>
<path fill="#EEA464" d="M404.677,634.05h-62.173v23.449h62.173V634.05z"/>
<path fill="#FFD193" d="M399.566,638.307h-49.726v15.611h49.726V638.307z"/>
<path fill="#EEA464" d="M466.194,656.553h-62.173v23.45h62.173V656.553z"/>
<path fill="#FFD193" d="M461.084,660.811h-49.725v15.61h49.725V660.811z"/>
<path fill="#EEA464" d="M404.677,656.553h-62.173v23.45h62.173V656.553z"/>
<path fill="#FFD193" d="M399.566,660.811h-49.726v15.61h49.726V660.811z"/>
<path fill="#EEA464" d="M466.194,679.395h-62.173v23.449h62.173V679.395z"/>
<path fill="#FFD193" d="M461.084,683.651h-49.725v15.61h49.725V683.651z"/>
<path fill="#EEA464" d="M404.677,679.395h-62.173v23.449h62.173V679.395z"/>
<path fill="#FFD193" d="M399.566,683.651h-49.726v15.61h49.726V683.651z"/>
<path fill="#D67128" d="M599.645,331.908h-62.173v7.839h62.173V331.908z"/>
<path fill="#D67128" d="M435.468,331.908h-62.172v7.839h62.172V331.908z"/>
<path fill="#5695CF" d="M459.642,515.111H348.466v8.854h111.176V515.111z"/>
<path fill="#60A0D2" d="M480.738,687.706h-78.225v19.192h78.225V687.706z"/>
<path fill="#94D3DD" d="M473.859,691.152h-62.566v12.772h62.566V691.152z"/>
<path fill="#60A0D2" d="M403.432,687.706h-78.223v19.192h78.223V687.706z"/>
<path fill="#94D3DD" d="M396.487,691.152h-62.565v12.772h62.565V691.152z"/>
<path fill="#60A0D2" d="M480.738,669.122h-78.225v19.192h78.225V669.122z"/>
<path fill="#94D3DD" d="M473.335,672.502h-62.566v12.771h62.566V672.502z"/>
<path fill="#60A0D2" d="M403.432,669.122h-78.223v19.192h78.223V669.122z"/>
<path fill="#94D3DD" d="M395.963,672.502h-62.563v12.771h62.563V672.502z"/>
<path fill="#60A0D2" d="M480.869,650.471h-78.223v19.192h78.223V650.471z"/>
<path fill="#94D3DD" d="M473.466,654.322H410.9v12.772h62.564L473.466,654.322L473.466,654.322z"/>
<path fill="#60A0D2" d="M403.301,650.674h-78.223v19.191h78.223V650.674z"/>
<path fill="#94D3DD" d="M396.094,654.053H333.53v12.771h62.563V654.053z"/>
<path fill="#60A0D2" d="M480.738,631.954h-78.225v19.192h78.225V631.954z"/>
<path fill="#94D3DD" d="M473.859,635.604h-62.566v12.772h62.566V635.604z"/>
<path fill="#60A0D2" d="M403.432,631.954h-78.223v19.192h78.223V631.954z"/>
<path fill="#94D3DD" d="M396.487,635.333h-62.565v12.772h62.565V635.333z"/>
<path fill="#60A0D2" d="M480.738,613.438h-78.225v19.192h78.225V613.438z"/>
<path fill="#94D3DD" d="M473.859,616.816h-62.566v12.772h62.566V616.816z"/>
<path fill="#60A0D2" d="M403.432,613.438h-78.223v19.192h78.223V613.438z"/>
<path fill="#94D3DD" d="M396.487,616.816h-62.565v12.772h62.565V616.816z"/>
<path fill="#60A0D2" d="M480.738,595.057h-78.225v19.192h78.225V595.057z"/>
<path fill="#94D3DD" d="M473.859,598.098h-62.566v12.772h62.566V598.098z"/>
<path fill="#60A0D2" d="M403.432,595.057h-78.223v19.192h78.223V595.057z"/>
<path fill="#94D3DD" d="M396.487,598.436h-62.565v12.772h62.565V598.436z"/>
<path fill="#60A0D2" d="M480.738,576.676h-78.225v19.191h78.225V576.676z"/>
<path fill="#94D3DD" d="M474.317,580.393h-62.565v12.771h62.565V580.393z"/>
<path fill="#60A0D2" d="M403.432,576.676h-78.223v19.191h78.223V576.676z"/>
<path fill="#94D3DD" d="M396.946,580.055h-62.565v12.771h62.565V580.055z"/>
<path fill="#60A0D2" d="M480.738,557.956h-78.225v19.192h78.225V557.956z"/>
<path fill="#94D3DD" d="M474.317,561.674h-62.565v12.771h62.565V561.674z"/>
<path fill="#60A0D2" d="M403.432,557.956h-78.223v19.192h78.223V557.956z"/>
<path fill="#94D3DD" d="M396.946,561.674h-62.565v12.771h62.565V561.674z"/>
<path fill="#60A0D2" d="M480.738,540.049h-78.225v19.191h78.225V540.049z"/>
<path fill="#94D3DD" d="M474.317,543.766h-62.565v12.771h62.565V543.766z"/>
<path fill="#60A0D2" d="M403.432,540.049h-78.223v19.191h78.223V540.049z"/>
<path fill="#94D3DD" d="M396.946,543.766h-62.565v12.771h62.565V543.766z"/>
<path fill="#60A0D2" d="M480.738,521.531h-78.225v19.192h78.225V521.531z"/>
<path fill="#94D3DD" d="M474.317,525.046h-62.565v12.772h62.565V525.046z"/>
<path fill="#60A0D2" d="M403.432,521.531h-78.223v19.192h78.223V521.531z"/>
<path fill="#94D3DD" d="M396.946,525.046h-62.565v12.772h62.565V525.046z"/>
<path fill="#64599D" d="M367.137,515.855h-111.11v7.365h111.11V515.855L367.137,515.855z"/>
<path fill="#6D7AB8" d="M389.739,632.428h-78.157v19.191h78.157V632.428z"/>
<path fill="#ACC5E7" d="M383.319,635.536h-62.5v12.84h62.5V635.536z"/>
<path fill="#6D7AB8" d="M312.499,632.428h-78.157v19.191h78.157V632.428z"/>
<path fill="#ACC5E7" d="M306.013,635.536h-62.5v12.84h62.5V635.536z"/>
<path fill="#6D7AB8" d="M389.739,651.146h-78.157v19.191h78.157V651.146z"/>
<path fill="#ACC5E7" d="M383.319,654.256h-62.5v12.84h62.5V654.256z"/>
<path fill="#6D7AB8" d="M312.499,651.146h-78.157v19.191h78.157V651.146z"/>
<path fill="#ACC5E7" d="M306.013,654.256h-62.5v12.84h62.5V654.256z"/>
<path fill="#6D7AB8" d="M389.739,669.596h-78.157v19.191h78.157V669.596z"/>
<path fill="#ACC5E7" d="M383.319,672.704h-62.5v12.84h62.5V672.704z"/>
<path fill="#6D7AB8" d="M312.499,669.596h-78.157v19.191h78.157V669.596z"/>
<path fill="#ACC5E7" d="M306.013,672.704h-62.5v12.84h62.5V672.704z"/>
<path fill="#6D7AB8" d="M389.739,688.111h-78.157v19.192h78.157V688.111z"/>
<path fill="#ACC5E7" d="M383.319,691.626h-62.5v12.84h62.5V691.626z"/>
<path fill="#6D7AB8" d="M312.499,688.111h-78.157v19.192h78.157V688.111z"/>
<path fill="#ACC5E7" d="M306.013,691.626h-62.5v12.84h62.5V691.626z"/>
<path fill="#6D7AB8" d="M389.739,558.092h-78.157v19.191h78.157V558.092z"/>
<path fill="#ACC5E7" d="M383.319,561.538h-62.5v12.84h62.5V561.538z"/>
<path fill="#6D7AB8" d="M312.499,558.092h-78.157v19.191h78.157V558.092z"/>
<path fill="#ACC5E7" d="M306.013,561.538h-62.5v12.84h62.5V561.538z"/>
<path fill="#6D7AB8" d="M389.739,576.811h-78.157v19.192h78.157V576.811z"/>
<path fill="#ACC5E7" d="M383.319,580.258h-62.5v12.84h62.5V580.258z"/>
<path fill="#6D7AB8" d="M312.499,576.811h-78.157v19.192h78.157V576.811z"/>
<path fill="#ACC5E7" d="M306.013,579.92h-62.5v12.84h62.5V579.92z"/>
<path fill="#6D7AB8" d="M389.739,595.26h-78.157v19.191h78.157V595.26z"/>
<path fill="#ACC5E7" d="M383.319,598.03h-62.5v12.84h62.5V598.03z"/>
<path fill="#6D7AB8" d="M312.499,595.26h-78.157v19.191h78.157V595.26z"/>
<path fill="#ACC5E7" d="M306.013,598.368h-62.5v12.84h62.5V598.368z"/>
<path fill="#6D7AB8" d="M389.739,613.641h-78.157v19.192h78.157V613.641z"/>
<path fill="#ACC5E7" d="M383.319,616.749h-62.5v12.841h62.5V616.749z"/>
<path fill="#6D7AB8" d="M312.499,613.641h-78.157v19.192h78.157V613.641z"/>
<path fill="#ACC5E7" d="M306.013,616.749h-62.5v12.841h62.5V616.749z"/>
<path fill="#6D7AB8" d="M389.739,521.396h-78.157v19.191h78.157V521.396z"/>
<path fill="#ACC5E7" d="M383.319,524.91h-62.5v12.841h62.5V524.91z"/>
<path fill="#6D7AB8" d="M312.499,521.396h-78.157v19.191h78.157V521.396z"/>
<path fill="#ACC5E7" d="M306.013,524.91h-62.5v12.841h62.5V524.91z"/>
<path fill="#6D7AB8" d="M389.739,540.115h-78.157v19.191h78.157V540.115z"/>
<path fill="#ACC5E7" d="M383.319,543.63h-62.5v12.84h62.5V543.63z"/>
<path fill="#6D7AB8" d="M312.499,540.115h-78.157v19.191h78.157V540.115z"/>
<path fill="#ACC5E7" d="M306.013,543.63h-62.5v12.84h62.5V543.63z"/>
<path fill="#60A0D2" d="M718.617,549.848h-69.248v39.127h69.248V549.848z"/>
<path fill="#94D3DD" d="M712.852,556.942h-55.357v26.085h55.357V556.942L712.852,556.942z"/>
<path fill="#60A0D2" d="M650.09,549.848h-69.248v39.127h69.248V549.848z"/>
<path fill="#94D3DD" d="M644.39,556.942h-55.357v26.085h55.357V556.942z"/>
<path fill="#60A0D2" d="M718.617,587.962h-69.248v39.127h69.248V587.962z"/>
<path fill="#94D3DD" d="M712.852,595.057h-55.357v26.085h55.357V595.057L712.852,595.057z"/>
<path fill="#60A0D2" d="M650.09,587.962h-69.248v39.127h69.248V587.962z"/>
<path fill="#94D3DD" d="M644.39,595.057h-55.357v26.085h55.357V595.057z"/>
<path fill="#60A0D2" d="M718.617,625.467h-69.248v39.128h69.248V625.467z"/>
<path fill="#94D3DD" d="M712.852,632.563h-55.357v26.086h55.357V632.563L712.852,632.563z"/>
<path fill="#60A0D2" d="M650.09,625.467h-69.248v39.128h69.248V625.467z"/>
<path fill="#94D3DD" d="M644.39,632.563h-55.357v26.086h55.357V632.563z"/>
<path fill="#60A0D2" d="M718.617,663.581h-69.248v39.127h69.248V663.581z"/>
<path fill="#94D3DD" d="M712.852,670.677h-55.357v26.085h55.357V670.677L712.852,670.677z"/>
<path fill="#60A0D2" d="M650.09,663.581h-69.248v39.127h69.248V663.581z"/>
<path fill="#94D3DD" d="M644.39,670.677h-55.357v26.085h55.357V670.677z"/>
<path fill="#5695CF" d="M698.504,543.09h-98.4v6.486h98.4V543.09z"/>
<path fill="#6D86AD" d="M1189.52,699.729H28.484C12.753,699.729,0,712.48,0,728.213c0,15.73,12.753,28.483,28.484,28.483H1189.52
	c15.73,0,28.48-12.753,28.48-28.483C1218,712.48,1205.25,699.729,1189.52,699.729z"/>
<path fill="#64599D" d="M790.09,472.691H678.979v8.881H790.09V472.691z"/>
<path fill="#6D7AB8" d="M812.692,613.239h-78.157v23.14h78.157V613.239z"/>
<path fill="#ACC5E7" d="M806.271,616.987h-62.5v15.479h62.5V616.987z"/>
<path fill="#6D7AB8" d="M735.452,613.239h-78.158v23.14h78.158V613.239z"/>
<path fill="#ACC5E7" d="M728.966,616.987h-62.5v15.479h62.5V616.987z"/>
<path fill="#6D7AB8" d="M812.692,635.809h-78.157v23.14h78.157V635.809z"/>
<path fill="#ACC5E7" d="M806.271,639.557h-62.5v15.479h62.5V639.557z"/>
<path fill="#6D7AB8" d="M735.452,635.809h-78.158v23.14h78.158V635.809z"/>
<path fill="#ACC5E7" d="M728.966,639.557h-62.5v15.479h62.5V639.557z"/>
<path fill="#6D7AB8" d="M812.692,658.052h-78.157v23.141h78.157V658.052z"/>
<path fill="#ACC5E7" d="M806.271,661.8h-62.5v15.48h62.5V661.8z"/>
<path fill="#6D7AB8" d="M735.452,658.052h-78.158v23.141h78.158V658.052z"/>
<path fill="#ACC5E7" d="M728.966,661.8h-62.5v15.48h62.5V661.8z"/>
<path fill="#6D7AB8" d="M812.692,680.377h-78.157v23.139h78.157V680.377z"/>
<path fill="#ACC5E7" d="M806.271,684.613h-62.5v15.479h62.5V684.613z"/>
<path fill="#6D7AB8" d="M735.452,680.377h-78.158v23.139h78.158V680.377z"/>
<path fill="#ACC5E7" d="M728.966,684.613h-62.5v15.479h62.5V684.613z"/>
<path fill="#6D7AB8" d="M812.692,523.614h-78.157v23.141h78.157V523.614z"/>
<path fill="#ACC5E7" d="M806.271,527.771h-62.5v15.479h62.5V527.771z"/>
<path fill="#6D7AB8" d="M735.452,523.614h-78.158v23.141h78.158V523.614z"/>
<path fill="#ACC5E7" d="M728.966,527.771h-62.5v15.479h62.5V527.771z"/>
<path fill="#6D7AB8" d="M812.692,546.184h-78.157v23.141h78.157V546.184z"/>
<path fill="#ACC5E7" d="M806.271,550.34h-62.5v15.479h62.5V550.34z"/>
<path fill="#6D7AB8" d="M735.452,546.184h-78.158v23.141h78.158V546.184z"/>
<path fill="#ACC5E7" d="M728.966,549.932h-62.5v15.48h62.5V549.932z"/>
<path fill="#6D7AB8" d="M812.692,568.428h-78.157v23.14h78.157V568.428z"/>
<path fill="#ACC5E7" d="M806.271,571.768h-62.5v15.481h62.5V571.768z"/>
<path fill="#6D7AB8" d="M735.452,568.428h-78.158v23.14h78.158V568.428z"/>
<path fill="#ACC5E7" d="M728.966,572.175h-62.5v15.48h62.5V572.175z"/>
<path fill="#6D7AB8" d="M812.692,590.589h-78.157v23.14h78.157V590.589z"/>
<path fill="#ACC5E7" d="M806.271,594.337h-62.5v15.48h62.5V594.337z"/>
<path fill="#6D7AB8" d="M735.452,590.589h-78.158v23.14h78.158V590.589z"/>
<path fill="#ACC5E7" d="M728.966,594.337h-62.5v15.48h62.5V594.337z"/>
<path fill="#6D7AB8" d="M812.692,479.372h-78.157v23.141h78.157V479.372z"/>
<path fill="#ACC5E7" d="M806.271,483.609h-62.5v15.48h62.5V483.609z"/>
<path fill="#6D7AB8" d="M735.452,479.372h-78.158v23.141h78.158V479.372z"/>
<path fill="#ACC5E7" d="M728.966,483.609h-62.5v15.48h62.5V483.609z"/>
<path fill="#6D7AB8" d="M812.692,501.941h-78.157v23.14h78.157V501.941z"/>
<path fill="#ACC5E7" d="M806.271,506.179h-62.5v15.48h62.5V506.179z"/>
<path fill="#6D7AB8" d="M735.452,501.941h-78.158v23.14h78.158V501.941z"/>
<path fill="#ACC5E7" d="M728.966,506.179h-62.5v15.48h62.5V506.179z"/>
<path fill="#5695CF" d="M985.855,511.229H874.679v8.853h111.178L985.855,511.229L985.855,511.229z"/>
<path fill="#60A0D2" d="M1006.95,683.823h-78.225v19.191h78.225V683.823z"/>
<path fill="#94D3DD" d="M1000.07,687.271h-62.564v12.771h62.564V687.271z"/>
<path fill="#60A0D2" d="M929.644,683.823h-78.223v19.191h78.223V683.823z"/>
<path fill="#94D3DD" d="M922.7,687.271h-62.565v12.771H922.7V687.271z"/>
<path fill="#60A0D2" d="M1006.95,665.239h-78.225v19.191h78.225V665.239z"/>
<path fill="#94D3DD" d="M999.547,668.618h-62.563v12.771h62.563V668.618z"/>
<path fill="#60A0D2" d="M929.644,665.239h-78.223v19.191h78.223V665.239z"/>
<path fill="#94D3DD" d="M922.176,668.618H859.61v12.771h62.564L922.176,668.618L922.176,668.618z"/>
<path fill="#60A0D2" d="M1007.08,646.589h-78.222v19.191h78.222V646.589z"/>
<path fill="#94D3DD" d="M999.678,650.44h-62.563v12.771h62.563V650.44z"/>
<path fill="#60A0D2" d="M929.513,646.79H851.29v19.192h78.223V646.79z"/>
<path fill="#94D3DD" d="M922.307,650.17h-62.563v12.772h62.563V650.17z"/>
<path fill="#60A0D2" d="M1006.95,628.071h-78.225v19.191h78.225V628.071z"/>
<path fill="#94D3DD" d="M1000.07,631.721h-62.564v12.772h62.564V631.721z"/>
<path fill="#60A0D2" d="M929.644,628.071h-78.223v19.191h78.223V628.071z"/>
<path fill="#94D3DD" d="M922.7,631.45h-62.565v12.771H922.7V631.45z"/>
<path fill="#60A0D2" d="M1006.95,609.556h-78.225v19.191h78.225V609.556z"/>
<path fill="#94D3DD" d="M1000.07,612.935h-62.564v12.771h62.564V612.935z"/>
<path fill="#60A0D2" d="M929.644,609.556h-78.223v19.191h78.223V609.556z"/>
<path fill="#94D3DD" d="M922.7,612.935h-62.565v12.771H922.7V612.935z"/>
<path fill="#60A0D2" d="M1006.95,591.175h-78.225v19.191h78.225V591.175z"/>
<path fill="#94D3DD" d="M1000.07,594.216h-62.564v12.771h62.564V594.216z"/>
<path fill="#60A0D2" d="M929.644,591.175h-78.223v19.191h78.223V591.175z"/>
<path fill="#94D3DD" d="M922.7,594.554h-62.565v12.771H922.7V594.554z"/>
<path fill="#60A0D2" d="M1006.95,572.793h-78.225v19.192h78.225V572.793z"/>
<path fill="#94D3DD" d="M1000.53,576.51h-62.565v12.771h62.565V576.51z"/>
<path fill="#60A0D2" d="M929.644,572.793h-78.223v19.192h78.223V572.793z"/>
<path fill="#94D3DD" d="M923.159,576.172h-62.566v12.772h62.566V576.172z"/>
<path fill="#60A0D2" d="M1006.95,554.073h-78.225v19.191h78.225V554.073z"/>
<path fill="#94D3DD" d="M1000.53,557.79h-62.565v12.771h62.565V557.79z"/>
<path fill="#60A0D2" d="M929.644,554.073h-78.223v19.191h78.223V554.073z"/>
<path fill="#94D3DD" d="M923.159,557.79h-62.566v12.771h62.566V557.79z"/>
<path fill="#60A0D2" d="M1006.95,536.165h-78.225v19.192h78.225V536.165z"/>
<path fill="#94D3DD" d="M1000.53,539.883h-62.565v12.771h62.565V539.883z"/>
<path fill="#60A0D2" d="M929.644,536.165h-78.223v19.192h78.223V536.165z"/>
<path fill="#94D3DD" d="M923.159,539.883h-62.566v12.771h62.566V539.883z"/>
<path fill="#60A0D2" d="M1006.95,517.649h-78.225v19.191h78.225V517.649z"/>
<path fill="#94D3DD" d="M1000.53,521.163h-62.565v12.771h62.565V521.163z"/>
<path fill="#60A0D2" d="M929.644,517.649h-78.223v19.191h78.223V517.649z"/>
<path fill="#94D3DD" d="M923.159,521.163h-62.566v12.771h62.566V521.163z"/>
<path fill="#D67128" d="M907.42,574.899h-79.075v4.527h79.075V574.899z"/>
<path fill="#EEA464" d="M923.471,578.752H867.85v31.559h55.621V578.752L923.471,578.752z"/>
<path fill="#FFD193" d="M918.885,584.429h-44.482v21.018h44.482V584.429z"/>
<path fill="#EEA464" d="M868.44,578.752h-55.621v31.559h55.621V578.752z"/>
<path fill="#FFD193" d="M863.854,584.429H819.37v21.018h44.483V584.429L863.854,584.429z"/>
<path fill="#EEA464" d="M923.471,609.433H867.85v31.56h55.621V609.433L923.471,609.433z"/>
<path fill="#FFD193" d="M918.885,615.177h-44.482v21.018h44.482V615.177z"/>
<path fill="#EEA464" d="M868.44,609.433h-55.621v31.56h55.621V609.433z"/>
<path fill="#FFD193" d="M863.854,615.177H819.37v21.018h44.483V615.177L863.854,615.177z"/>
<path fill="#EEA464" d="M923.471,639.708H867.85v31.559h55.621V639.708L923.471,639.708z"/>
<path fill="#FFD193" d="M918.885,645.451h-44.482v21.018h44.482V645.451z"/>
<path fill="#EEA464" d="M868.44,639.708h-55.621v31.559h55.621V639.708z"/>
<path fill="#FFD193" d="M863.854,645.451H819.37v21.018h44.483V645.451L863.854,645.451z"/>
<path fill="#EEA464" d="M923.471,670.455H867.85v31.56h55.621V670.455L923.471,670.455z"/>
<path fill="#FFD193" d="M918.885,676.132h-44.482v21.018h44.482V676.132z"/>
<path fill="#EEA464" d="M868.44,670.455h-55.621v31.56h55.621V670.455z"/>
<path fill="#FFD193" d="M863.854,676.132H819.37v21.018h44.483V676.132L863.854,676.132z"/>
</svg>
