<?xml version="1.0" encoding="utf-8"?>
<!-- Generator: Adobe Illustrator 16.0.0, SVG Export Plug-In . SVG Version: 6.00 Build 0)  -->
<!DOCTYPE svg PUBLIC "-//W3C//DTD SVG 1.1//EN" "http://www.w3.org/Graphics/SVG/1.1/DTD/svg11.dtd">
<svg version="1.1" id="Layer_1" xmlns="http://www.w3.org/2000/svg" xmlns:xlink="http://www.w3.org/1999/xlink" x="0px" y="0px"
	 width="2347.5px" height="500.474px" viewBox="0 -193.474 2347.5 500.474" enable-background="new 0 -193.474 2347.5 500.474"
	 xml:space="preserve">
<rect y="-147.828" fill="#6D86AD" width="2347.5" height="211.927"/>
<rect y="-111.963" fill="#60799F" width="2347.5" height="176.063"/>
<rect y="57.578" fill="#F7D9CC" width="2347.5" height="249.422"/>
<rect y="57.578" fill="#E3C7BA" width="2347.5" height="84.771"/>
<path fill="#444648" d="M1229.177,142.349h114.115c40.515,0,73.359,32.844,73.359,73.359l0,0c0,40.515-32.845,73.359-73.359,73.359
	h-114.115c-40.515,0-73.359-32.845-73.359-73.359l0,0C1155.817,175.193,1188.662,142.349,1229.177,142.349z"/>
<path fill="#545557" d="M1227.547,129.307h114.114c40.516,0,73.359,32.845,73.359,73.36l0,0c0,40.515-32.844,73.359-73.359,73.359
	h-114.114c-40.515,0-73.359-32.845-73.359-73.359l0,0C1154.188,162.152,1187.032,129.307,1227.547,129.307z"/>
<ellipse fill="#383838" cx="1329.222" cy="168.912" rx="17.951" ry="18.412"/>
<ellipse fill="#383838" cx="1243.053" cy="168.912" rx="17.951" ry="18.412"/>
<ellipse fill="#383838" cx="1243.053" cy="168.912" rx="17.951" ry="18.412"/>
<ellipse fill="#383838" cx="1215.768" cy="214.94" rx="17.951" ry="18.412"/>
<ellipse fill="#383838" cx="1263.158" cy="227.216" rx="17.951" ry="18.412"/>
<ellipse fill="#383838" cx="1310.553" cy="227.216" rx="17.951" ry="18.412"/>
<ellipse fill="#383838" cx="1357.944" cy="214.94" rx="17.951" ry="18.412"/>
<ellipse fill="#232323" cx="1326.35" cy="178.117" rx="17.951" ry="18.412"/>
<ellipse fill="#232323" cx="1240.181" cy="178.117" rx="17.952" ry="18.412"/>
<ellipse fill="#232323" cx="1240.181" cy="178.117" rx="17.952" ry="18.412"/>
<ellipse fill="#232323" cx="1212.895" cy="224.146" rx="17.951" ry="18.412"/>
<ellipse fill="#232323" cx="1260.286" cy="236.422" rx="17.952" ry="18.411"/>
<ellipse fill="#232323" cx="1307.681" cy="236.422" rx="17.951" ry="18.411"/>
<ellipse fill="#232323" cx="1355.071" cy="224.146" rx="17.952" ry="18.412"/>
<rect x="609.698" y="-155.979" fill="#5F5F5F" width="32.604" height="123.896"/>
<rect x="193.995" y="-169.021" fill="#5F5F5F" width="32.604" height="136.938"/>
<rect x="156.5" y="21.713" fill="#4B4A4A" width="37.495" height="92.922"/>
<rect x="660.234" y="21.713" fill="#4B4A4A" width="37.495" height="92.922"/>
<rect x="127.156" y="-193.474" fill="#ED4A01" width="630.891" height="50.537"/>
<rect x="127.156" y="-186.953" fill="#ED4A01" width="630.891" height="44.016"/>
<rect x="125.526" y="-128.266" fill="#ED4A01" width="630.891" height="50.537"/>
<rect x="128.787" y="-36.974" fill="#B93601" width="629.26" height="58.688"/>
</svg>
