<?xml version="1.0" encoding="utf-8"?>
<!-- Generator: Adobe Illustrator 16.0.0, SVG Export Plug-In . SVG Version: 6.00 Build 0)  -->
<!DOCTYPE svg PUBLIC "-//W3C//DTD SVG 1.1//EN" "http://www.w3.org/Graphics/SVG/1.1/DTD/svg11.dtd">
<svg version="1.1" id="Layer_1" xmlns="http://www.w3.org/2000/svg" xmlns:xlink="http://www.w3.org/1999/xlink" x="0px" y="0px"
	 width="1426px" height="275px" viewBox="0 4 1426 275" enable-background="new 0 4 1426 275" xml:space="preserve">
<rect fill="#6D86AD" width="1440" height="130"/>
<rect y="22" fill="#60799F" width="1440" height="108"/>
<rect y="126" fill="#F7D9CC" width="1440" height="153"/>
<rect y="126" fill="#E3C7BA" width="1440" height="52"/>
<path fill="#444648" d="M754,178h70c24.854,0,45,20.146,45,45l0,0c0,24.854-20.146,45-45,45h-70c-24.854,0-45-20.146-45-45l0,0
	C709,198.146,729.146,178,754,178z"/>
<path fill="#545557" d="M753,170h70c24.854,0,45,20.146,45,45l0,0c0,24.854-20.146,45-45,45h-70c-24.854,0-45-20.146-45-45l0,0
	C708,190.146,728.146,170,753,170z"/>
<ellipse fill="#383838" cx="815.369" cy="194.294" rx="11.012" ry="11.294"/>
<ellipse fill="#383838" cx="762.512" cy="194.294" rx="11.014" ry="11.294"/>
<ellipse fill="#383838" cx="762.512" cy="194.294" rx="11.014" ry="11.294"/>
<ellipse fill="#383838" cx="745.774" cy="222.529" rx="11.012" ry="11.294"/>
<ellipse fill="#383838" cx="774.845" cy="230.06" rx="11.014" ry="11.294"/>
<ellipse fill="#383838" cx="803.917" cy="230.06" rx="11.012" ry="11.294"/>
<ellipse fill="#383838" cx="832.988" cy="222.529" rx="11.012" ry="11.294"/>
<ellipse fill="#232323" cx="813.607" cy="199.94" rx="11.012" ry="11.294"/>
<ellipse fill="#232323" cx="760.75" cy="199.94" rx="11.012" ry="11.294"/>
<ellipse fill="#232323" cx="760.75" cy="199.94" rx="11.012" ry="11.294"/>
<ellipse fill="#232323" cx="744.012" cy="228.176" rx="11.014" ry="11.294"/>
<ellipse fill="#232323" cx="773.083" cy="235.706" rx="11.012" ry="11.294"/>
<ellipse fill="#232323" cx="802.155" cy="235.706" rx="11.012" ry="11.294"/>
<ellipse fill="#232323" cx="831.226" cy="228.176" rx="11.015" ry="11.294"/>
</svg>
