<svg width="1440" height="307" viewBox="0 0 1440 307" fill="none" xmlns="http://www.w3.org/2000/svg">
<rect y="28" width="1440" height="130" fill="#6D86AD"/>
<rect y="50" width="1440" height="108" fill="#60799F"/>
<rect y="154" width="1440" height="153" fill="#F7D9CC"/>
<rect y="154" width="1440" height="52" fill="#E3C7BA"/>
<rect x="709" y="206" width="160" height="90" rx="45" fill="#444648"/>
<rect x="708" y="198" width="160" height="90" rx="45" fill="#545557"/>
<ellipse cx="815.369" cy="222.294" rx="11.0119" ry="11.2941" fill="#383838"/>
<ellipse cx="762.512" cy="222.294" rx="11.0119" ry="11.2941" fill="#383838"/>
<ellipse cx="762.512" cy="222.294" rx="11.0119" ry="11.2941" fill="#383838"/>
<ellipse cx="745.774" cy="250.529" rx="11.0119" ry="11.2941" fill="#383838"/>
<ellipse cx="774.845" cy="258.059" rx="11.0119" ry="11.2941" fill="#383838"/>
<ellipse cx="803.917" cy="258.059" rx="11.0119" ry="11.2941" fill="#383838"/>
<ellipse cx="832.988" cy="250.529" rx="11.0119" ry="11.2941" fill="#383838"/>
<ellipse cx="813.607" cy="227.941" rx="11.0119" ry="11.2941" fill="#232323"/>
<ellipse cx="760.75" cy="227.941" rx="11.0119" ry="11.2941" fill="#232323"/>
<ellipse cx="760.75" cy="227.941" rx="11.0119" ry="11.2941" fill="#232323"/>
<ellipse cx="744.012" cy="256.176" rx="11.0119" ry="11.2941" fill="#232323"/>
<ellipse cx="773.083" cy="263.706" rx="11.0119" ry="11.2941" fill="#232323"/>
<ellipse cx="802.155" cy="263.706" rx="11.0119" ry="11.2941" fill="#232323"/>
<ellipse cx="831.226" cy="256.176" rx="11.0119" ry="11.2941" fill="#232323"/>
<rect x="374" y="23" width="20" height="76" fill="#5F5F5F"/>
<rect x="119" y="15" width="20" height="84" fill="#5F5F5F"/>
<rect x="96" y="132" width="23" height="57" fill="#4B4A4A"/>
<rect x="405" y="132" width="23" height="57" fill="#4B4A4A"/>
<rect x="78" width="387" height="31" fill="#ED4A01"/>
<rect x="78" y="4" width="387" height="27" fill="#ED4A01"/>
<rect x="77" y="40" width="387" height="31" fill="#ED4A01"/>
<rect x="79" y="96" width="386" height="36" fill="#B93601"/>
</svg>
