<svg width="417" height="574" viewBox="0 0 417 574" fill="none" xmlns="http://www.w3.org/2000/svg">
<circle cx="303.81" cy="335.63" r="2.5" transform="rotate(-179.152 303.81 335.63)" fill="#3D16B5"/>
<circle cx="280.128" cy="347.781" r="10" transform="rotate(-179.152 280.128 347.781)" fill="#3D16B5"/>
<circle cx="73.7096" cy="467.136" r="5" transform="rotate(126.972 73.7096 467.136)" fill="#3D16B5"/>
<circle cx="10.6129" cy="465.324" r="7.5" transform="rotate(126.972 10.6129 465.324)" fill="#3D16B5"/>
<circle cx="104.039" cy="337.89" r="2.5" transform="rotate(126.972 104.039 337.89)" fill="#3D16B5"/>
<circle cx="99.8925" cy="364.182" r="10" transform="rotate(126.972 99.8925 364.182)" fill="#3D16B5"/>
<circle cx="201.274" cy="565.035" r="5" transform="rotate(126.972 201.274 565.035)" fill="#3D16B5"/>
<circle cx="138.177" cy="563.224" r="7.5" transform="rotate(126.972 138.177 563.224)" fill="#3D16B5"/>
<circle cx="231.604" cy="435.789" r="2.5" transform="rotate(126.972 231.604 435.789)" fill="#3D16B5"/>
<circle cx="227.457" cy="462.082" r="10" transform="rotate(126.972 227.457 462.082)" fill="#3D16B5"/>
<circle cx="256.376" cy="509.088" r="5" transform="rotate(-149.043 256.376 509.088)" fill="#3D16B5"/>
<circle cx="251.566" cy="446.148" r="7.5" transform="rotate(-149.043 251.566 446.148)" fill="#3D16B5"/>
<circle cx="132.002" cy="541.109" r="2.5" transform="rotate(53.9225 132.002 541.109)" fill="#4E7FFF"/>
<circle cx="190.257" cy="269.775" r="10" transform="rotate(-149.043 190.257 269.775)" fill="#3D16B5"/>
<circle cx="392.058" cy="222.327" r="10" transform="rotate(-43.1575 392.058 222.327)" fill="#3D16B5"/>
<circle cx="326.609" cy="7.06719" r="5" transform="rotate(-43.1575 326.609 7.06719)" fill="#3D16B5"/>
<circle cx="388.461" cy="19.6687" r="7.5" transform="rotate(-43.1575 388.461 19.6687)" fill="#3D16B5"/>
<circle cx="274.572" cy="129.201" r="2.5" transform="rotate(-43.1575 274.572 129.201)" fill="#3D16B5"/>
<circle cx="283.165" cy="104.008" r="10" transform="rotate(-43.1575 283.165 104.008)" fill="#3D16B5"/>
<circle cx="262.732" cy="52.7408" r="5" transform="rotate(40.8275 262.732 52.7408)" fill="#3D16B5"/>
<circle cx="256.681" cy="115.573" r="7.5" transform="rotate(40.8275 256.681 115.573)" fill="#3D16B5"/>
<circle cx="135.818" cy="13.7884" r="2.5" transform="rotate(40.8275 135.818 13.7884)" fill="#3D16B5"/>
<circle cx="161.772" cy="19.694" r="10" transform="rotate(40.8275 161.772 19.694)" fill="#3D16B5"/>
<circle cx="387.808" cy="332.893" r="5" transform="rotate(40.8275 387.808 332.893)" fill="#3D16B5"/>
<circle cx="381.757" cy="395.725" r="7.5" transform="rotate(40.8275 381.757 395.725)" fill="#3D16B5"/>
<circle cx="260.894" cy="293.941" r="2.5" transform="rotate(40.8275 260.894 293.941)" fill="#3D16B5"/>
<circle cx="298.089" cy="120.988" r="5" transform="rotate(-146.315 298.089 120.988)" fill="#4E7FFF"/>
<circle cx="402.375" cy="141.226" r="10" transform="rotate(-146.315 402.375 141.226)" fill="#4E7FFF"/>
<circle cx="164.218" cy="129.58" r="5" transform="rotate(159.808 164.218 129.58)" fill="#4E7FFF"/>
<circle cx="242.044" cy="57.2747" r="10" transform="rotate(159.808 242.044 57.2747)" fill="#4E7FFF"/>
</svg>
