<svg width="967" height="453" viewBox="0 0 967 453" fill="none" xmlns="http://www.w3.org/2000/svg">
<g clip-path="url(#clip0)">
<path d="M831.015 59C719.433 59 452.798 90.169 278.915 214.846C244.053 268.294 62.748 400.829 5 473.092H271.445L970.462 481L979 129.846L831.015 59Z" fill="#2AC17D"/>
<path d="M836.332 77C728.76 77 471.707 106.84 304.072 226.199C270.463 277.366 95.672 404.249 40 473.429H296.87L970.769 481L979 144.825L836.332 77Z" fill="#01B992"/>
<g filter="url(#filter0_dd)">
<path d="M270.836 129.119H179.969V167.639H270.836V129.119Z" fill="#94D3DD"/>
<path d="M252.689 110.13H198.182V166.152H252.689V110.13Z" fill="#94D3DD"/>
<path d="M298.155 153.109H152.716V163.922H298.155V153.109Z" fill="#5695CF"/>
<path d="M298.155 138.175H152.716V148.987H298.155V138.175Z" fill="#5695CF"/>
<path d="M280.008 122.97H170.928V133.783H280.008V122.97Z" fill="#5695CF"/>
<path d="M261.795 107.765H189.075V118.577H261.795V107.765Z" fill="#5695CF"/>
<path d="M225.435 145.744C235.458 145.744 243.583 136.031 243.583 124.051C243.583 112.071 235.458 102.358 225.435 102.358C215.413 102.358 207.288 112.071 207.288 124.051C207.288 136.031 215.413 145.744 225.435 145.744Z" fill="#94D3DD"/>
<path d="M306.41 167.098H224.977V191.359H306.41V167.098Z" fill="#60A0D2"/>
<path d="M298.876 171.626H233.756V187.777H298.876V171.626Z" fill="#94D3DD"/>
<path d="M226.615 167.098H145.181V191.359H226.615V167.098Z" fill="#60A0D2"/>
<path d="M219.081 171.626H153.96V187.777H219.081V171.626V171.626Z" fill="#94D3DD"/>
<path d="M306.41 189.737H224.977V213.997H306.41V189.737Z" fill="#60A0D2"/>
<path d="M298.876 194.265H233.756V210.416H298.876V194.265Z" fill="#94D3DD"/>
<path d="M226.615 189.737H145.181V213.997H226.615V189.737Z" fill="#60A0D2"/>
<path d="M219.081 194.265H153.96V210.416H219.081V194.265V194.265Z" fill="#94D3DD"/>
<path d="M306.41 212.443H224.977V236.703H306.41V212.443Z" fill="#60A0D2"/>
<path d="M298.876 216.903H233.756V233.054H298.876V216.903Z" fill="#94D3DD"/>
<path d="M226.615 212.443H145.181V236.703H226.615V212.443Z" fill="#60A0D2"/>
<path d="M219.081 216.903H153.96V233.054H219.081V216.903V216.903Z" fill="#94D3DD"/>
<path d="M306.41 235.082H224.977V259.342H306.41V235.082Z" fill="#60A0D2"/>
<path d="M298.876 239.609H233.756V255.761H298.876V239.609Z" fill="#94D3DD"/>
<path d="M226.615 235.082H145.181V259.342H226.615V235.082Z" fill="#60A0D2"/>
<path d="M219.081 239.609H153.96V255.761H219.081V239.609V239.609Z" fill="#94D3DD"/>
<path d="M306.41 348.343H224.977V372.604H306.41V348.343Z" fill="#60A0D2"/>
<path d="M298.876 352.871H233.756V369.021H298.876V352.871Z" fill="#94D3DD"/>
<path d="M226.615 348.343H145.181V372.604H226.615V348.343Z" fill="#60A0D2"/>
<path d="M219.081 352.871H153.96V369.021H219.081V352.871V352.871Z" fill="#94D3DD"/>
<path d="M306.41 370.98H224.977V395.242H306.41V370.98Z" fill="#60A0D2"/>
<path d="M298.876 375.509H233.756V391.66H298.876V375.509Z" fill="#94D3DD"/>
<path d="M226.615 370.98H145.181V395.242H226.615V370.98Z" fill="#60A0D2"/>
<path d="M219.081 375.509H153.96V391.66H219.081V375.509V375.509Z" fill="#94D3DD"/>
<path d="M306.41 393.62H224.977V417.881H306.41V393.62Z" fill="#60A0D2"/>
<path d="M298.876 398.148H233.756V414.298H298.876V398.148Z" fill="#94D3DD"/>
<path d="M226.615 393.62H145.181V417.881H226.615V393.62Z" fill="#60A0D2"/>
<path d="M219.081 398.148H153.96V414.298H219.081V398.148V398.148Z" fill="#94D3DD"/>
<path d="M306.41 416.326H224.977V440.587H306.41V416.326Z" fill="#60A0D2"/>
<path d="M298.876 420.786H233.756V436.937H298.876V420.786Z" fill="#94D3DD"/>
<path d="M226.615 416.326H145.181V440.587H226.615V416.326Z" fill="#60A0D2"/>
<path d="M219.081 420.786H153.96V436.937H219.081V420.786V420.786Z" fill="#94D3DD"/>
<path d="M306.41 257.72H224.977V281.981H306.41V257.72Z" fill="#60A0D2"/>
<path d="M298.876 262.248H233.756V278.398H298.876V262.248Z" fill="#94D3DD"/>
<path d="M226.615 257.72H145.181V281.981H226.615V257.72Z" fill="#60A0D2"/>
<path d="M219.081 262.248H153.96V278.398H219.081V262.248V262.248Z" fill="#94D3DD"/>
<path d="M306.41 280.359H224.977V304.619H306.41V280.359Z" fill="#60A0D2"/>
<path d="M298.876 284.887H233.756V301.038H298.876V284.887Z" fill="#94D3DD"/>
<path d="M226.615 280.359H145.181V304.619H226.615V280.359Z" fill="#60A0D2"/>
<path d="M219.081 284.887H153.96V301.038H219.081V284.887V284.887Z" fill="#94D3DD"/>
<path d="M306.41 302.998H224.977V327.258H306.41V302.998Z" fill="#60A0D2"/>
<path d="M298.876 307.525H233.756V323.676H298.876V307.525Z" fill="#94D3DD"/>
<path d="M226.615 302.998H145.181V327.258H226.615V302.998Z" fill="#60A0D2"/>
<path d="M219.081 307.525H153.96V323.676H219.081V307.525V307.525Z" fill="#94D3DD"/>
<path d="M306.41 325.704H224.977V349.964H306.41V325.704Z" fill="#60A0D2"/>
<path d="M298.876 330.164H233.756V346.314H298.876V330.164Z" fill="#94D3DD"/>
<path d="M226.615 325.704H145.181V349.964H226.615V325.704Z" fill="#60A0D2"/>
<path d="M219.081 330.164H153.96V346.314H219.081V330.164V330.164Z" fill="#94D3DD"/>
<path d="M160.184 313.54H81.109V318.068H160.184V313.54Z" fill="#D67128"/>
<path d="M176.235 317.393H120.614V348.952H176.235V317.393Z" fill="#EEA464"/>
<path d="M171.649 323.068H127.165V344.086H171.649V323.068Z" fill="#FFD193"/>
<path d="M121.204 317.393H65.583V348.952H121.205V317.393H121.204Z" fill="#EEA464"/>
<path d="M116.618 323.068H72.134V344.086H116.618V323.068Z" fill="#FFD193"/>
<path d="M176.235 348.073H120.614V379.632H176.235V348.073Z" fill="#EEA464"/>
<path d="M171.649 353.816H127.165V374.834H171.649V353.816Z" fill="#FFD193"/>
<path d="M121.204 348.073H65.583V379.632H121.205V348.073H121.204Z" fill="#EEA464"/>
<path d="M116.618 353.816H72.134V374.834H116.618V353.816Z" fill="#FFD193"/>
<path d="M176.235 378.348H120.614V409.908H176.235V378.348Z" fill="#EEA464"/>
<path d="M171.649 384.092H127.165V405.11H171.649V384.092Z" fill="#FFD193"/>
<path d="M121.204 378.348H65.583V409.908H121.205V378.348H121.204Z" fill="#EEA464"/>
<path d="M116.618 384.092H72.134V405.11H116.618V384.092Z" fill="#FFD193"/>
<path d="M176.235 409.096H120.614V440.656H176.235V409.096Z" fill="#EEA464"/>
<path d="M171.649 414.772H127.165V435.789H171.649V414.772Z" fill="#FFD193"/>
<path d="M121.204 409.096H65.583V440.656H121.205V409.096H121.204Z" fill="#EEA464"/>
<path d="M116.618 414.772H72.134V435.789H116.618V414.772Z" fill="#FFD193"/>
<path d="M519.787 145.946H464.625V219.606H519.787V145.946Z" fill="#EEA464"/>
<path d="M515.332 159.259H471.176V208.321H515.332V159.259Z" fill="#FFD193"/>
<path d="M519.787 217.646H464.625V291.307H519.787V217.646Z" fill="#EEA464"/>
<path d="M515.332 230.959H471.176V280.022H515.332V230.959Z" fill="#FFD193"/>
<path d="M519.787 288.333H464.625V361.994H519.787V288.333Z" fill="#EEA464"/>
<path d="M515.332 301.646H471.176V350.708H515.332V301.646Z" fill="#FFD193"/>
<path d="M519.787 360.034H464.625V433.694H519.787V360.034Z" fill="#EEA464"/>
<path d="M515.332 373.348H471.176V422.409H515.332V373.348Z" fill="#FFD193"/>
<path d="M634.436 73.2324H572.264V96.6824H634.436V73.2324Z" fill="#EEA464"/>
<path d="M629.326 77.4902H579.6V93.1002H629.326V77.4902Z" fill="#FFD193"/>
<path d="M572.919 73.2324H510.746V96.6824H572.919V73.2324Z" fill="#EEA464"/>
<path d="M567.809 77.4902H518.084V93.1002H567.809V77.4902Z" fill="#FFD193"/>
<path d="M634.436 96.0742H572.264V119.523H634.436V96.0742Z" fill="#EEA464"/>
<path d="M629.326 100.331H579.6V115.942H629.326V100.331Z" fill="#FFD193"/>
<path d="M572.919 96.0742H510.746V119.523H572.919V96.0742Z" fill="#EEA464"/>
<path d="M567.809 100.331H518.084V115.942H567.809V100.331Z" fill="#FFD193"/>
<path d="M634.436 118.577H572.264V142.027H634.436V118.577Z" fill="#EEA464"/>
<path d="M629.326 122.834H579.6V138.445H629.326V122.834Z" fill="#FFD193"/>
<path d="M572.919 118.577H510.746V142.027H572.919V118.577Z" fill="#EEA464"/>
<path d="M567.809 122.834H518.084V138.445H567.809V122.834Z" fill="#FFD193"/>
<path d="M634.436 141.418H572.264V164.868H634.436V141.418Z" fill="#EEA464"/>
<path d="M629.326 145.608H579.6V161.219H629.326V145.608Z" fill="#FFD193"/>
<path d="M572.919 141.418H510.746V164.868H572.919V141.418Z" fill="#EEA464"/>
<path d="M567.809 145.608H518.084V161.219H567.809V145.608Z" fill="#FFD193"/>
<path d="M634.436 163.652H572.264V187.101H634.436V163.652Z" fill="#EEA464"/>
<path d="M629.326 167.909H579.6V183.52H629.326V167.909Z" fill="#FFD193"/>
<path d="M572.919 163.652H510.746V187.101H572.919V163.652Z" fill="#EEA464"/>
<path d="M567.809 167.909H518.084V183.52H567.809V167.909Z" fill="#FFD193"/>
<path d="M634.436 186.493H572.264V209.943H634.436V186.493Z" fill="#EEA464"/>
<path d="M629.326 190.683H579.6V206.294H629.326V190.683Z" fill="#FFD193"/>
<path d="M572.919 186.493H510.746V209.943H572.919V186.493Z" fill="#EEA464"/>
<path d="M567.809 190.683H518.084V206.294H567.809V190.683Z" fill="#FFD193"/>
<path d="M634.436 208.997H572.264V232.446H634.436V208.997Z" fill="#EEA464"/>
<path d="M629.326 213.187H579.6V228.797H629.326V213.187Z" fill="#FFD193"/>
<path d="M572.919 208.997H510.746V232.446H572.919V208.997Z" fill="#EEA464"/>
<path d="M567.809 213.187H518.084V228.797H567.809V213.187Z" fill="#FFD193"/>
<path d="M634.436 231.771H572.264V255.22H634.436V231.771Z" fill="#EEA464"/>
<path d="M629.326 236.028H579.6V251.639H629.326V236.028Z" fill="#FFD193"/>
<path d="M572.919 231.771H510.746V255.22H572.919V231.771Z" fill="#EEA464"/>
<path d="M567.809 236.028H518.084V251.639H567.809V236.028Z" fill="#FFD193"/>
<path d="M634.436 254.544H572.264V277.994H634.436V254.544Z" fill="#EEA464"/>
<path d="M629.326 258.802H579.6V274.412H629.326V258.802Z" fill="#FFD193"/>
<path d="M572.919 254.544H510.746V277.994H572.919V254.544Z" fill="#EEA464"/>
<path d="M567.809 258.802H518.084V274.412H567.809V258.802Z" fill="#FFD193"/>
<path d="M634.436 277.386H572.264V300.835H634.436V277.386Z" fill="#EEA464"/>
<path d="M629.326 281.576H579.6V297.185H629.326V281.576Z" fill="#FFD193"/>
<path d="M572.919 277.386H510.746V300.835H572.919V277.386Z" fill="#EEA464"/>
<path d="M567.809 281.576H518.084V297.185H567.809V281.576Z" fill="#FFD193"/>
<path d="M634.436 299.889H572.264V323.339H634.436V299.889Z" fill="#EEA464"/>
<path d="M629.326 304.079H579.6V319.689H629.326V304.079Z" fill="#FFD193"/>
<path d="M572.919 299.889H510.746V323.339H572.919V299.889Z" fill="#EEA464"/>
<path d="M567.809 304.079H518.084V319.689H567.809V304.079Z" fill="#FFD193"/>
<path d="M634.436 322.663H572.264V346.113H634.436V322.663Z" fill="#EEA464"/>
<path d="M629.326 326.92H579.6V342.531H629.326V326.92Z" fill="#FFD193"/>
<path d="M572.919 322.663H510.746V346.113H572.919V322.663Z" fill="#EEA464"/>
<path d="M567.809 326.92H518.084V342.531H567.809V326.92Z" fill="#FFD193"/>
<path d="M634.436 344.964H572.264V368.413H634.436V344.964Z" fill="#EEA464"/>
<path d="M629.326 349.154H579.6V364.763H629.326V349.154Z" fill="#FFD193"/>
<path d="M572.919 344.964H510.746V368.413H572.919V344.964Z" fill="#EEA464"/>
<path d="M567.809 349.154H518.084V364.763H567.809V349.154Z" fill="#FFD193"/>
<path d="M634.436 367.738H572.264V391.187H634.436V367.738Z" fill="#EEA464"/>
<path d="M629.326 371.995H579.6V387.605H629.326V371.995Z" fill="#FFD193"/>
<path d="M572.919 367.738H510.746V391.187H572.919V367.738Z" fill="#EEA464"/>
<path d="M567.809 371.995H518.084V387.605H567.809V371.995Z" fill="#FFD193"/>
<path d="M634.436 390.241H572.264V413.691H634.436V390.241Z" fill="#EEA464"/>
<path d="M629.326 394.499H579.6V410.109H629.326V394.499Z" fill="#FFD193"/>
<path d="M572.919 390.241H510.746V413.691H572.919V390.241Z" fill="#EEA464"/>
<path d="M567.809 394.499H518.084V410.109H567.809V394.499Z" fill="#FFD193"/>
<path d="M634.436 413.083H572.264V436.532H634.436V413.083Z" fill="#EEA464"/>
<path d="M629.326 417.34H579.6V432.95H629.326V417.34Z" fill="#FFD193"/>
<path d="M572.919 413.083H510.746V436.532H572.919V413.083Z" fill="#EEA464"/>
<path d="M567.809 417.34H518.084V432.95H567.809V417.34Z" fill="#FFD193"/>
<path d="M470.194 73.2324H408.021V96.6824H470.194V73.2324Z" fill="#EEA464"/>
<path d="M465.084 77.4902H415.359V93.1002H465.084V77.4902Z" fill="#FFD193"/>
<path d="M408.677 73.2324H346.504V96.6824H408.677V73.2324Z" fill="#EEA464"/>
<path d="M403.566 77.4902H353.841V93.1002H403.566V77.4902Z" fill="#FFD193"/>
<path d="M470.194 96.0742H408.021V119.523H470.194V96.0742Z" fill="#EEA464"/>
<path d="M465.084 100.331H415.359V115.942H465.084V100.331Z" fill="#FFD193"/>
<path d="M408.677 96.0742H346.504V119.523H408.677V96.0742Z" fill="#EEA464"/>
<path d="M403.566 100.331H353.841V115.942H403.566V100.331Z" fill="#FFD193"/>
<path d="M470.194 118.577H408.021V142.027H470.194V118.577Z" fill="#EEA464"/>
<path d="M465.084 122.834H415.359V138.445H465.084V122.834Z" fill="#FFD193"/>
<path d="M408.677 118.577H346.504V142.027H408.677V118.577Z" fill="#EEA464"/>
<path d="M403.566 122.834H353.841V138.445H403.566V122.834Z" fill="#FFD193"/>
<path d="M470.194 141.418H408.021V164.868H470.194V141.418Z" fill="#EEA464"/>
<path d="M465.084 145.608H415.359V161.219H465.084V145.608Z" fill="#FFD193"/>
<path d="M408.677 141.418H346.504V164.868H408.677V141.418Z" fill="#EEA464"/>
<path d="M403.566 145.608H353.841V161.219H403.566V145.608Z" fill="#FFD193"/>
<path d="M470.194 163.652H408.021V187.101H470.194V163.652Z" fill="#EEA464"/>
<path d="M465.084 167.909H415.359V183.52H465.084V167.909Z" fill="#FFD193"/>
<path d="M408.677 163.652H346.504V187.101H408.677V163.652Z" fill="#EEA464"/>
<path d="M403.566 167.909H353.841V183.52H403.566V167.909Z" fill="#FFD193"/>
<path d="M470.194 186.493H408.021V209.943H470.194V186.493Z" fill="#EEA464"/>
<path d="M465.084 190.683H415.359V206.294H465.084V190.683Z" fill="#FFD193"/>
<path d="M408.677 186.493H346.504V209.943H408.677V186.493Z" fill="#EEA464"/>
<path d="M403.566 190.683H353.841V206.294H403.566V190.683Z" fill="#FFD193"/>
<path d="M470.194 208.997H408.021V232.446H470.194V208.997Z" fill="#EEA464"/>
<path d="M465.084 213.187H415.359V228.797H465.084V213.187Z" fill="#FFD193"/>
<path d="M408.677 208.997H346.504V232.446H408.677V208.997Z" fill="#EEA464"/>
<path d="M403.566 213.187H353.841V228.797H403.566V213.187Z" fill="#FFD193"/>
<path d="M470.194 231.771H408.021V255.22H470.194V231.771Z" fill="#EEA464"/>
<path d="M465.084 236.028H415.359V251.639H465.084V236.028Z" fill="#FFD193"/>
<path d="M408.677 231.771H346.504V255.22H408.677V231.771Z" fill="#EEA464"/>
<path d="M403.566 236.028H353.841V251.639H403.566V236.028Z" fill="#FFD193"/>
<path d="M470.194 254.544H408.021V277.994H470.194V254.544Z" fill="#EEA464"/>
<path d="M465.084 258.802H415.359V274.412H465.084V258.802Z" fill="#FFD193"/>
<path d="M408.677 254.544H346.504V277.994H408.677V254.544Z" fill="#EEA464"/>
<path d="M403.566 258.802H353.841V274.412H403.566V258.802Z" fill="#FFD193"/>
<path d="M470.194 277.386H408.021V300.835H470.194V277.386Z" fill="#EEA464"/>
<path d="M465.084 281.576H415.359V297.185H465.084V281.576Z" fill="#FFD193"/>
<path d="M408.677 277.386H346.504V300.835H408.677V277.386Z" fill="#EEA464"/>
<path d="M403.566 281.576H353.841V297.185H403.566V281.576Z" fill="#FFD193"/>
<path d="M470.194 299.889H408.021V323.339H470.194V299.889Z" fill="#EEA464"/>
<path d="M465.084 304.079H415.359V319.689H465.084V304.079Z" fill="#FFD193"/>
<path d="M408.677 299.889H346.504V323.339H408.677V299.889Z" fill="#EEA464"/>
<path d="M403.566 304.079H353.841V319.689H403.566V304.079Z" fill="#FFD193"/>
<path d="M470.194 322.663H408.021V346.113H470.194V322.663Z" fill="#EEA464"/>
<path d="M465.084 326.92H415.359V342.531H465.084V326.92Z" fill="#FFD193"/>
<path d="M408.677 322.663H346.504V346.113H408.677V322.663Z" fill="#EEA464"/>
<path d="M403.566 326.92H353.841V342.531H403.566V326.92Z" fill="#FFD193"/>
<path d="M470.194 344.964H408.021V368.413H470.194V344.964Z" fill="#EEA464"/>
<path d="M465.084 349.154H415.359V364.763H465.084V349.154Z" fill="#FFD193"/>
<path d="M408.677 344.964H346.504V368.413H408.677V344.964Z" fill="#EEA464"/>
<path d="M403.566 349.154H353.841V364.763H403.566V349.154Z" fill="#FFD193"/>
<path d="M470.194 367.738H408.021V391.187H470.194V367.738Z" fill="#EEA464"/>
<path d="M465.084 371.995H415.359V387.605H465.084V371.995Z" fill="#FFD193"/>
<path d="M408.677 367.738H346.504V391.187H408.677V367.738Z" fill="#EEA464"/>
<path d="M403.566 371.995H353.841V387.605H403.566V371.995Z" fill="#FFD193"/>
<path d="M470.194 390.241H408.021V413.691H470.194V390.241Z" fill="#EEA464"/>
<path d="M465.084 394.499H415.359V410.109H465.084V394.499Z" fill="#FFD193"/>
<path d="M408.677 390.241H346.504V413.691H408.677V390.241Z" fill="#EEA464"/>
<path d="M403.566 394.499H353.841V410.109H403.566V394.499Z" fill="#FFD193"/>
<path d="M470.194 413.083H408.021V436.532H470.194V413.083Z" fill="#EEA464"/>
<path d="M465.084 417.34H415.359V432.95H465.084V417.34Z" fill="#FFD193"/>
<path d="M408.677 413.083H346.504V436.532H408.677V413.083Z" fill="#EEA464"/>
<path d="M403.566 417.34H353.841V432.95H403.566V417.34Z" fill="#FFD193"/>
<path d="M603.645 65.5962H541.472V73.4352H603.645V65.5962Z" fill="#D67128"/>
<path d="M439.468 65.5962H377.296V73.4352H439.468V65.5962V65.5962Z" fill="#D67128"/>
<path d="M463.642 248.8H352.466V257.653H463.642V248.8Z" fill="#5695CF"/>
<path d="M484.738 421.395H406.514V440.587H484.738V421.395Z" fill="#60A0D2"/>
<path d="M477.859 424.841H415.293V437.614H477.859V424.841V424.841Z" fill="#94D3DD"/>
<path d="M407.432 421.395H329.209V440.587H407.432V421.395Z" fill="#60A0D2"/>
<path d="M400.487 424.841H337.922V437.614H400.487V424.841Z" fill="#94D3DD"/>
<path d="M484.738 402.811H406.514V422.003H484.738V402.811Z" fill="#60A0D2"/>
<path d="M477.335 406.19H414.769V418.961H477.335V406.19V406.19Z" fill="#94D3DD"/>
<path d="M407.432 402.811H329.209V422.003H407.432V402.811Z" fill="#60A0D2"/>
<path d="M399.963 406.19H337.399V418.961H399.963V406.19Z" fill="#94D3DD"/>
<path d="M484.869 384.159H406.646V403.35H484.869V384.159Z" fill="#60A0D2"/>
<path d="M477.466 388.011H414.9V400.784H477.465V388.011H477.466Z" fill="#94D3DD"/>
<path d="M407.301 384.361H329.078V403.553H407.301V384.361Z" fill="#60A0D2"/>
<path d="M400.094 387.741H337.53V400.512H400.094V387.741Z" fill="#94D3DD"/>
<path d="M484.738 365.643H406.514V384.835H484.738V365.643Z" fill="#60A0D2"/>
<path d="M477.859 369.292H415.293V382.064H477.859V369.292V369.292Z" fill="#94D3DD"/>
<path d="M407.432 365.643H329.209V384.835H407.432V365.643Z" fill="#60A0D2"/>
<path d="M400.487 369.021H337.922V381.793H400.487V369.021Z" fill="#94D3DD"/>
<path d="M484.738 347.126H406.514V366.318H484.738V347.126Z" fill="#60A0D2"/>
<path d="M477.859 350.505H415.293V363.277H477.859V350.505V350.505Z" fill="#94D3DD"/>
<path d="M407.432 347.126H329.209V366.318H407.432V347.126Z" fill="#60A0D2"/>
<path d="M400.487 350.505H337.922V363.277H400.487V350.505Z" fill="#94D3DD"/>
<path d="M484.738 328.745H406.514V347.937H484.738V328.745Z" fill="#60A0D2"/>
<path d="M477.859 331.786H415.293V344.558H477.859V331.786V331.786Z" fill="#94D3DD"/>
<path d="M407.432 328.745H329.209V347.937H407.432V328.745Z" fill="#60A0D2"/>
<path d="M400.487 332.124H337.922V344.896H400.487V332.124Z" fill="#94D3DD"/>
<path d="M484.738 310.364H406.514V329.556H484.738V310.364Z" fill="#60A0D2"/>
<path d="M478.317 314.081H415.752V326.853H478.317V314.081Z" fill="#94D3DD"/>
<path d="M407.432 310.364H329.209V329.556H407.432V310.364Z" fill="#60A0D2"/>
<path d="M400.946 313.743H338.381V326.515H400.946V313.743Z" fill="#94D3DD"/>
<path d="M484.738 291.645H406.514V310.837H484.738V291.645Z" fill="#60A0D2"/>
<path d="M478.317 295.361H415.752V308.133H478.317V295.361Z" fill="#94D3DD"/>
<path d="M407.432 291.645H329.209V310.837H407.432V291.645Z" fill="#60A0D2"/>
<path d="M400.946 295.361H338.381V308.133H400.946V295.361Z" fill="#94D3DD"/>
<path d="M484.738 273.736H406.514V292.929H484.738V273.736Z" fill="#60A0D2"/>
<path d="M478.317 277.454H415.752V290.226H478.317V277.454Z" fill="#94D3DD"/>
<path d="M407.432 273.736H329.209V292.929H407.432V273.736Z" fill="#60A0D2"/>
<path d="M400.946 277.454H338.381V290.226H400.946V277.454Z" fill="#94D3DD"/>
<path d="M484.738 255.22H406.514V274.412H484.738V255.22Z" fill="#60A0D2"/>
<path d="M478.317 258.734H415.752V271.506H478.317V258.734Z" fill="#94D3DD"/>
<path d="M407.432 255.22H329.209V274.412H407.432V255.22Z" fill="#60A0D2"/>
<path d="M400.946 258.734H338.381V271.506H400.946V258.734Z" fill="#94D3DD"/>
<path d="M371.137 249.544H260.027V256.91H371.137V249.544Z" fill="#64599D"/>
<path d="M393.739 366.116H315.582V385.308H393.739V366.116Z" fill="#6D7AB8"/>
<path d="M387.319 369.225H324.819V382.065H387.319V369.225Z" fill="#ACC5E7"/>
<path d="M316.499 366.116H238.342V385.308H316.499V366.116Z" fill="#6D7AB8"/>
<path d="M310.013 369.225H247.513V382.065H310.013V369.225Z" fill="#ACC5E7"/>
<path d="M393.739 384.835H315.582V404.028H393.739V384.835Z" fill="#6D7AB8"/>
<path d="M387.319 387.943H324.819V400.784H387.319V387.943Z" fill="#ACC5E7"/>
<path d="M316.499 384.835H238.342V404.028H316.499V384.835Z" fill="#6D7AB8"/>
<path d="M310.013 387.943H247.513V400.784H310.013V387.943Z" fill="#ACC5E7"/>
<path d="M393.739 403.284H315.582V422.475H393.739V403.284Z" fill="#6D7AB8"/>
<path d="M387.319 406.393H324.819V419.234H387.319V406.393Z" fill="#ACC5E7"/>
<path d="M316.499 403.284H238.342V422.475H316.499V403.284Z" fill="#6D7AB8"/>
<path d="M310.013 406.393H247.513V419.234H310.013V406.393Z" fill="#ACC5E7"/>
<path d="M393.739 421.801H315.582V440.993H393.739V421.801Z" fill="#6D7AB8"/>
<path d="M387.319 425.315H324.819V438.155H387.319V425.315Z" fill="#ACC5E7"/>
<path d="M316.499 421.801H238.342V440.993H316.499V421.801Z" fill="#6D7AB8"/>
<path d="M310.013 425.315H247.513V438.155H310.013V425.315Z" fill="#ACC5E7"/>
<path d="M393.739 291.779H315.582V310.972H393.739V291.779Z" fill="#6D7AB8"/>
<path d="M387.319 295.227H324.819V308.067H387.319V295.227Z" fill="#ACC5E7"/>
<path d="M316.499 291.779H238.342V310.972H316.499V291.779Z" fill="#6D7AB8"/>
<path d="M310.013 295.227H247.513V308.067H310.013V295.227Z" fill="#ACC5E7"/>
<path d="M393.739 310.5H315.582V329.691H393.739V310.5Z" fill="#6D7AB8"/>
<path d="M387.319 313.945H324.819V326.786H387.319V313.945Z" fill="#ACC5E7"/>
<path d="M316.499 310.5H238.342V329.691H316.499V310.5Z" fill="#6D7AB8"/>
<path d="M310.013 313.607H247.513V326.448H310.013V313.607Z" fill="#ACC5E7"/>
<path d="M393.739 328.948H315.582V348.14H393.739V328.948Z" fill="#6D7AB8"/>
<path d="M387.319 331.719H324.819V344.559H387.319V331.719Z" fill="#ACC5E7"/>
<path d="M316.499 328.948H238.342V348.14H316.499V328.948Z" fill="#6D7AB8"/>
<path d="M310.013 332.057H247.513V344.897H310.013V332.057Z" fill="#ACC5E7"/>
<path d="M393.739 347.33H315.582V366.521H393.739V347.33Z" fill="#6D7AB8"/>
<path d="M387.319 350.438H324.819V363.278H387.319V350.438Z" fill="#ACC5E7"/>
<path d="M316.499 347.33H238.342V366.521H316.499V347.33Z" fill="#6D7AB8"/>
<path d="M310.013 350.438H247.513V363.278H310.013V350.438Z" fill="#ACC5E7"/>
<path d="M393.739 255.085H315.582V274.277H393.739V255.085Z" fill="#6D7AB8"/>
<path d="M387.319 258.6H324.819V271.44H387.319V258.6Z" fill="#ACC5E7"/>
<path d="M316.499 255.085H238.342V274.277H316.499V255.085Z" fill="#6D7AB8"/>
<path d="M310.013 258.6H247.513V271.44H310.013V258.6Z" fill="#ACC5E7"/>
<path d="M393.739 273.805H315.582V292.997H393.739V273.805Z" fill="#6D7AB8"/>
<path d="M387.319 277.318H324.819V290.159H387.319V277.318Z" fill="#ACC5E7"/>
<path d="M316.499 273.805H238.342V292.997H316.499V273.805Z" fill="#6D7AB8"/>
<path d="M310.013 277.318H247.513V290.159H310.013V277.318Z" fill="#ACC5E7"/>
<path d="M722.617 283.536H653.369V322.663H722.617V283.536Z" fill="#60A0D2"/>
<path d="M716.852 290.631H661.494V316.716H716.852V290.631Z" fill="#94D3DD"/>
<path d="M654.09 283.536H584.842V322.663H654.09V283.536Z" fill="#60A0D2"/>
<path d="M648.39 290.631H593.032V316.716H648.39V290.631Z" fill="#94D3DD"/>
<path d="M722.617 321.65H653.369V360.777H722.617V321.65Z" fill="#60A0D2"/>
<path d="M716.852 328.746H661.494V354.831H716.852V328.746Z" fill="#94D3DD"/>
<path d="M654.09 321.65H584.842V360.777H654.09V321.65Z" fill="#60A0D2"/>
<path d="M648.39 328.746H593.032V354.831H648.39V328.746Z" fill="#94D3DD"/>
<path d="M722.617 359.156H653.369V398.284H722.617V359.156Z" fill="#60A0D2"/>
<path d="M716.852 366.251H661.494V392.337H716.852V366.251Z" fill="#94D3DD"/>
<path d="M654.09 359.156H584.842V398.284H654.09V359.156Z" fill="#60A0D2"/>
<path d="M648.39 366.251H593.032V392.337H648.39V366.251Z" fill="#94D3DD"/>
<path d="M722.617 397.27H653.369V436.398H722.617V397.27Z" fill="#60A0D2"/>
<path d="M716.852 404.365H661.494V430.45H716.852V404.365Z" fill="#94D3DD"/>
<path d="M654.09 397.27H584.842V436.398H654.09V397.27Z" fill="#60A0D2"/>
<path d="M648.39 404.365H593.032V430.45H648.39V404.365Z" fill="#94D3DD"/>
<path d="M702.504 276.777H604.104V283.265H702.504V276.777Z" fill="#5695CF"/>
<path d="M794.09 206.38H682.979V215.261H794.09V206.38Z" fill="#64599D"/>
<path d="M816.692 346.928H738.535V370.067H816.692V346.928Z" fill="#6D7AB8"/>
<path d="M810.271 350.676H747.771V366.156H810.271V350.676Z" fill="#ACC5E7"/>
<path d="M739.452 346.928H661.294V370.067H739.452V346.928Z" fill="#6D7AB8"/>
<path d="M732.966 350.676H670.466V366.156H732.966V350.676Z" fill="#ACC5E7"/>
<path d="M816.692 369.497H738.535V392.636H816.692V369.497Z" fill="#6D7AB8"/>
<path d="M810.271 373.245H747.771V388.724H810.271V373.245Z" fill="#ACC5E7"/>
<path d="M739.452 369.497H661.294V392.636H739.452V369.497Z" fill="#6D7AB8"/>
<path d="M732.966 373.245H670.466V388.724H732.966V373.245Z" fill="#ACC5E7"/>
<path d="M816.692 391.74H738.535V414.879H816.692V391.74Z" fill="#6D7AB8"/>
<path d="M810.271 395.488H747.771V410.967H810.271V395.488Z" fill="#ACC5E7"/>
<path d="M739.452 391.74H661.294V414.879H739.452V391.74Z" fill="#6D7AB8"/>
<path d="M732.966 395.488H670.466V410.967H732.966V395.488Z" fill="#ACC5E7"/>
<path d="M816.692 414.064H738.535V437.204H816.692V414.064Z" fill="#6D7AB8"/>
<path d="M810.271 418.301H747.771V433.782H810.271V418.301Z" fill="#ACC5E7"/>
<path d="M739.452 414.064H661.294V437.204H739.452V414.064Z" fill="#6D7AB8"/>
<path d="M732.966 418.301H670.466V433.782H732.966V418.301Z" fill="#ACC5E7"/>
<path d="M816.692 257.303H738.535V280.444H816.692V257.303Z" fill="#6D7AB8"/>
<path d="M810.271 261.458H747.771V276.939H810.271V261.458Z" fill="#ACC5E7"/>
<path d="M739.452 257.303H661.294V280.444H739.452V257.303Z" fill="#6D7AB8"/>
<path d="M732.966 261.458H670.466V276.939H732.966V261.458Z" fill="#ACC5E7"/>
<path d="M816.692 279.872H738.535V303.012H816.692V279.872Z" fill="#6D7AB8"/>
<path d="M810.271 284.027H747.771V299.507H810.271V284.027Z" fill="#ACC5E7"/>
<path d="M739.452 279.872H661.294V303.012H739.452V279.872Z" fill="#6D7AB8"/>
<path d="M732.966 283.62H670.466V299.101H732.966V283.62Z" fill="#ACC5E7"/>
<path d="M816.692 302.115H738.535V325.255H816.692V302.115Z" fill="#6D7AB8"/>
<path d="M810.271 305.456H747.771V320.937H810.271V305.456Z" fill="#ACC5E7"/>
<path d="M739.452 302.115H661.294V325.255H739.452V302.115Z" fill="#6D7AB8"/>
<path d="M732.966 305.863H670.466V321.343H732.966V305.863Z" fill="#ACC5E7"/>
<path d="M816.692 324.277H738.535V347.416H816.692V324.277Z" fill="#6D7AB8"/>
<path d="M810.271 328.025H747.771V343.505H810.271V328.025Z" fill="#ACC5E7"/>
<path d="M739.452 324.277H661.294V347.416H739.452V324.277Z" fill="#6D7AB8"/>
<path d="M732.966 328.025H670.466V343.505H732.966V328.025Z" fill="#ACC5E7"/>
<path d="M816.692 213.061H738.535V236.2H816.692V213.061Z" fill="#6D7AB8"/>
<path d="M810.271 217.298H747.771V232.778H810.271V217.298Z" fill="#ACC5E7"/>
<path d="M739.452 213.061H661.294V236.2H739.452V213.061Z" fill="#6D7AB8"/>
<path d="M732.966 217.298H670.466V232.778H732.966V217.298Z" fill="#ACC5E7"/>
<path d="M816.692 235.63H738.535V258.77H816.692V235.63Z" fill="#6D7AB8"/>
<path d="M810.271 239.867H747.771V255.347H810.271V239.867Z" fill="#ACC5E7"/>
<path d="M739.452 235.63H661.294V258.77H739.452V235.63Z" fill="#6D7AB8"/>
<path d="M732.966 239.867H670.466V255.347H732.966V239.867Z" fill="#ACC5E7"/>
<path d="M957.565 245H846.388V253.854H957.566V245H957.565Z" fill="#5695CF"/>
<path d="M978.66 417.595H900.437V436.787H978.66V417.595Z" fill="#60A0D2"/>
<path d="M971.781 421.041H909.216V433.812H971.781V421.041Z" fill="#94D3DD"/>
<path d="M901.354 417.595H823.131V436.787H901.354V417.595Z" fill="#60A0D2"/>
<path d="M894.41 421.041H831.844V433.812H894.41V421.041Z" fill="#94D3DD"/>
<path d="M978.66 399.011H900.437V418.203H978.66V399.011Z" fill="#60A0D2"/>
<path d="M971.257 402.39H908.693V415.162H971.257V402.39Z" fill="#94D3DD"/>
<path d="M901.354 399.011H823.131V418.203H901.354V399.011Z" fill="#60A0D2"/>
<path d="M893.886 402.39H831.32V415.162H893.885V402.39H893.886Z" fill="#94D3DD"/>
<path d="M978.791 380.359H900.568V399.55H978.791V380.359Z" fill="#60A0D2"/>
<path d="M971.388 384.211H908.824V396.983H971.388V384.211Z" fill="#94D3DD"/>
<path d="M901.223 380.563H823V399.754H901.223V380.563Z" fill="#60A0D2"/>
<path d="M894.017 383.939H831.452V396.712H894.017V383.939Z" fill="#94D3DD"/>
<path d="M978.66 361.843H900.437V381.035H978.66V361.843Z" fill="#60A0D2"/>
<path d="M971.781 365.492H909.216V378.263H971.781V365.492Z" fill="#94D3DD"/>
<path d="M901.354 361.843H823.131V381.035H901.354V361.843Z" fill="#60A0D2"/>
<path d="M894.41 365.223H831.844V377.994H894.41V365.223Z" fill="#94D3DD"/>
<path d="M978.66 343.326H900.437V362.517H978.66V343.326Z" fill="#60A0D2"/>
<path d="M971.781 346.705H909.216V359.476H971.781V346.705Z" fill="#94D3DD"/>
<path d="M901.354 343.326H823.131V362.517H901.354V343.326Z" fill="#60A0D2"/>
<path d="M894.41 346.705H831.844V359.476H894.41V346.705Z" fill="#94D3DD"/>
<path d="M978.66 324.945H900.437V344.136H978.66V324.945Z" fill="#60A0D2"/>
<path d="M971.781 327.986H909.216V340.757H971.781V327.986Z" fill="#94D3DD"/>
<path d="M901.354 324.945H823.131V344.136H901.354V324.945Z" fill="#60A0D2"/>
<path d="M894.41 328.324H831.844V341.095H894.41V328.324Z" fill="#94D3DD"/>
<path d="M978.66 306.563H900.437V325.756H978.66V306.563Z" fill="#60A0D2"/>
<path d="M972.24 310.279H909.674V323.052H972.24V310.279Z" fill="#94D3DD"/>
<path d="M901.354 306.563H823.131V325.756H901.354V306.563Z" fill="#60A0D2"/>
<path d="M894.868 309.941H832.303V322.714H894.868V309.941V309.941Z" fill="#94D3DD"/>
<path d="M978.66 287.846H900.437V307.037H978.66V287.846Z" fill="#60A0D2"/>
<path d="M972.24 291.563H909.674V304.334H972.24V291.563Z" fill="#94D3DD"/>
<path d="M901.354 287.846H823.131V307.037H901.354V287.846Z" fill="#60A0D2"/>
<path d="M894.868 291.563H832.303V304.334H894.868V291.563V291.563Z" fill="#94D3DD"/>
<path d="M978.66 269.938H900.437V289.129H978.66V269.938Z" fill="#60A0D2"/>
<path d="M972.24 273.652H909.674V286.425H972.24V273.652Z" fill="#94D3DD"/>
<path d="M901.354 269.938H823.131V289.129H901.354V269.938Z" fill="#60A0D2"/>
<path d="M894.868 273.652H832.303V286.425H894.868V273.652V273.652Z" fill="#94D3DD"/>
<path d="M978.66 251.42H900.437V270.611H978.66V251.42Z" fill="#60A0D2"/>
<path d="M972.24 254.934H909.674V267.706H972.24V254.934Z" fill="#94D3DD"/>
<path d="M901.354 251.42H823.131V270.611H901.354V251.42Z" fill="#60A0D2"/>
<path d="M894.868 254.934H832.303V267.706H894.868V254.934V254.934Z" fill="#94D3DD"/>
<path d="M911.42 308.588H832.345V313.116H911.42V308.588Z" fill="#D67128"/>
<path d="M927.471 312.439H871.85V343.999H927.471V312.439Z" fill="#EEA464"/>
<path d="M922.885 318.117H878.402V339.134H922.885V318.117Z" fill="#FFD193"/>
<path d="M872.44 312.439H816.819V343.999H872.44V312.439Z" fill="#EEA464"/>
<path d="M867.854 318.117H823.37V339.134H867.853V318.117H867.854Z" fill="#FFD193"/>
<path d="M927.471 343.121H871.85V374.68H927.471V343.121Z" fill="#EEA464"/>
<path d="M922.885 348.865H878.402V369.882H922.885V348.865Z" fill="#FFD193"/>
<path d="M872.44 343.121H816.819V374.68H872.44V343.121Z" fill="#EEA464"/>
<path d="M867.854 348.865H823.37V369.882H867.853V348.865H867.854Z" fill="#FFD193"/>
<path d="M927.471 373.396H871.85V404.955H927.471V373.396Z" fill="#EEA464"/>
<path d="M922.885 379.141H878.402V400.158H922.885V379.141Z" fill="#FFD193"/>
<path d="M872.44 373.396H816.819V404.955H872.44V373.396Z" fill="#EEA464"/>
<path d="M867.854 379.141H823.37V400.158H867.853V379.141H867.854Z" fill="#FFD193"/>
<path d="M927.471 404.144H871.85V435.704H927.471V404.144Z" fill="#EEA464"/>
<path d="M922.885 409.821H878.402V430.838H922.885V409.821Z" fill="#FFD193"/>
<path d="M872.44 404.144H816.819V435.704H872.44V404.144Z" fill="#EEA464"/>
<path d="M867.854 409.821H823.37V430.838H867.853V409.821H867.854Z" fill="#FFD193"/>
</g>
<path d="M979.571 419.124C978.748 419.042 977.914 419 977.069 419H30C16.193 419 5 430.193 5 444V451C5 464.807 16.193 476 30 476H977.069C979.507 476 981.864 475.651 984.091 475H979.57V419.124H979.571Z" fill="#6D86AD"/>
</g>
<defs>
<filter id="filter0_dd" x="0.583008" y="0.596191" width="1043.21" height="445.397" filterUnits="userSpaceOnUse" color-interpolation-filters="sRGB">
<feFlood flood-opacity="0" result="BackgroundImageFix"/>
<feColorMatrix in="SourceAlpha" type="matrix" values="0 0 0 0 0 0 0 0 0 0 0 0 0 0 0 0 0 0 127 0"/>
<feOffset dx="30" dy="-30"/>
<feGaussianBlur stdDeviation="17.5"/>
<feColorMatrix type="matrix" values="0 0 0 0 0.992227 0 0 0 0 1 0 0 0 0 0.611354 0 0 0 0.25 0"/>
<feBlend mode="normal" in2="BackgroundImageFix" result="effect1_dropShadow"/>
<feColorMatrix in="SourceAlpha" type="matrix" values="0 0 0 0 0 0 0 0 0 0 0 0 0 0 0 0 0 0 127 0"/>
<feOffset dx="-30" dy="-30"/>
<feGaussianBlur stdDeviation="17.5"/>
<feColorMatrix type="matrix" values="0 0 0 0 0.992227 0 0 0 0 1 0 0 0 0 0.611354 0 0 0 0.25 0"/>
<feBlend mode="normal" in2="effect1_dropShadow" result="effect2_dropShadow"/>
<feBlend mode="normal" in="SourceGraphic" in2="effect2_dropShadow" result="shape"/>
</filter>
<clipPath id="clip0">
<rect width="972.24" height="453" fill="white"/>
</clipPath>
</defs>
</svg>
