<svg width="617" height="556" viewBox="0 0 617 556" fill="none" xmlns="http://www.w3.org/2000/svg">
<circle cx="224.642" cy="185.084" r="5" transform="rotate(-63.2608 224.642 185.084)" fill="#3D16B5"/>
<circle cx="287.057" cy="175.659" r="7.5" transform="rotate(-63.2608 287.057 175.659)" fill="#3D16B5"/>
<circle cx="199.923" cy="53.2346" r="5" transform="rotate(-117.138 199.923 53.2346)" fill="#3D16B5"/>
<circle cx="302.953" cy="136.956" r="2.5" transform="rotate(-117.138 302.953 136.956)" fill="#3D16B5"/>
<circle cx="56.1482" cy="125.247" r="5" transform="rotate(-117.138 56.1482 125.247)" fill="#3D16B5"/>
<circle cx="159.178" cy="208.969" r="2.5" transform="rotate(-117.138 159.178 208.969)" fill="#3D16B5"/>
<circle cx="137.335" cy="193.757" r="10" transform="rotate(-117.138 137.335 193.757)" fill="#3D16B5"/>
<circle cx="141.142" cy="222.404" r="7.5" transform="rotate(-33.1525 141.142 222.404)" fill="#3D16B5"/>
<circle cx="22.794" cy="287.167" r="10" transform="rotate(-33.1525 22.794 287.167)" fill="#3D16B5"/>
<circle cx="386.21" cy="156.344" r="5" transform="rotate(-33.1525 386.21 156.344)" fill="#3D16B5"/>
<circle cx="444.932" cy="179.5" r="7.5" transform="rotate(-33.1525 444.932 179.5)" fill="#3D16B5"/>
<circle cx="206.006" cy="89.4474" r="10" transform="rotate(139.705 206.006 89.4474)" fill="#4E7FFF"/>
<circle cx="129.088" cy="315.142" r="5" transform="rotate(85.8283 129.088 315.142)" fill="#4E7FFF"/>
<circle cx="227.369" cy="187.649" r="2.5" transform="rotate(85.8283 227.369 187.649)" fill="#4E7FFF"/>
<circle cx="383.454" cy="168.864" r="10" transform="rotate(169.813 383.454 168.864)" fill="#4E7FFF"/>
<circle cx="107.922" cy="73.3751" r="2.5" transform="rotate(169.813 107.922 73.3751)" fill="#4E7FFF"/>
<circle cx="326.584" cy="244.263" r="10" transform="rotate(-33.1525 326.584 244.263)" fill="#3D16B5"/>
<circle cx="281.151" cy="446.528" r="10" transform="rotate(72.7333 281.151 446.528)" fill="#3D16B5"/>
<circle cx="465.038" cy="531.784" r="7.5" transform="rotate(72.7333 465.038 531.784)" fill="#3D16B5"/>
<circle cx="416.231" cy="381.498" r="2.5" transform="rotate(72.7333 416.231 381.498)" fill="#3D16B5"/>
<circle cx="435.143" cy="400.229" r="10" transform="rotate(72.7333 435.143 400.229)" fill="#3D16B5"/>
<circle cx="490.187" cy="404.233" r="5" transform="rotate(156.718 490.187 404.233)" fill="#3D16B5"/>
<circle cx="580.647" cy="307.067" r="2.5" transform="rotate(156.718 580.647 307.067)" fill="#3D16B5"/>
<circle cx="564.001" cy="327.837" r="10" transform="rotate(156.718 564.001 327.837)" fill="#3D16B5"/>
<circle cx="183.539" cy="394.424" r="5" transform="rotate(156.718 183.539 394.424)" fill="#3D16B5"/>
<circle cx="129.655" cy="361.544" r="7.5" transform="rotate(156.718 129.655 361.544)" fill="#3D16B5"/>
<circle cx="273.999" cy="297.258" r="2.5" transform="rotate(156.718 273.999 297.258)" fill="#3D16B5"/>
<circle cx="413.35" cy="406.241" r="5" transform="rotate(-30.4243 413.35 406.241)" fill="#4E7FFF"/>
<circle cx="464.076" cy="282.055" r="5" transform="rotate(-84.3009 464.076 282.055)" fill="#4E7FFF"/>
<circle cx="495.142" cy="383.642" r="10" transform="rotate(-84.3009 495.142 383.642)" fill="#4E7FFF"/>
<circle cx="322.956" cy="392.321" r="7.5" transform="rotate(-0.315874 322.956 392.321)" fill="#4E7FFF"/>
<circle cx="188.4" cy="382.562" r="10" transform="rotate(-0.315874 188.4 382.562)" fill="#4E7FFF"/>
<circle cx="443.484" cy="523.871" r="2.5" transform="rotate(-0.315874 443.484 523.871)" fill="#4E7FFF"/>
<circle cx="257.354" cy="318.028" r="10" transform="rotate(156.718 257.354 318.028)" fill="#3D16B5"/>
</svg>
