<svg width="561" height="696" viewBox="0 0 561 696" fill="none" xmlns="http://www.w3.org/2000/svg">
<circle cx="452.591" cy="311.039" r="2.5" transform="rotate(133.819 452.591 311.039)" fill="#3D16B5"/>
<circle cx="445.339" cy="336.65" r="10" transform="rotate(133.819 445.339 336.65)" fill="#3D16B5"/>
<circle cx="391.974" cy="569.042" r="5" transform="rotate(79.9419 391.974 569.042)" fill="#3D16B5"/>
<circle cx="347.64" cy="613.975" r="7.5" transform="rotate(79.9419 347.64 613.975)" fill="#3D16B5"/>
<circle cx="318.077" cy="458.753" r="2.5" transform="rotate(79.9419 318.077 458.753)" fill="#3D16B5"/>
<circle cx="334.489" cy="479.709" r="10" transform="rotate(79.9419 334.489 479.709)" fill="#3D16B5"/>
<circle cx="550.558" cy="542.432" r="5" transform="rotate(79.9419 550.558 542.432)" fill="#3D16B5"/>
<circle cx="506.224" cy="587.365" r="7.5" transform="rotate(79.9419 506.224 587.365)" fill="#3D16B5"/>
<circle cx="476.661" cy="432.143" r="2.5" transform="rotate(79.9419 476.661 432.143)" fill="#3D16B5"/>
<circle cx="493.073" cy="453.099" r="10" transform="rotate(79.9419 493.073 453.099)" fill="#3D16B5"/>
<circle cx="547.179" cy="463.979" r="5" transform="rotate(163.927 547.179 463.979)" fill="#3D16B5"/>
<circle cx="497.847" cy="424.597" r="7.5" transform="rotate(163.927 497.847 424.597)" fill="#3D16B5"/>
<circle cx="485.833" cy="576.81" r="2.5" transform="rotate(6.89268 485.833 576.81)" fill="#4E7FFF"/>
<circle cx="327.004" cy="349.239" r="10" transform="rotate(163.927 327.004 349.239)" fill="#3D16B5"/>
<circle cx="429.837" cy="169.237" r="10" transform="rotate(-90.1873 429.837 169.237)" fill="#3D16B5"/>
<circle cx="227.719" cy="70.4026" r="5" transform="rotate(-90.1873 227.719 70.4026)" fill="#3D16B5"/>
<circle cx="279.099" cy="33.7343" r="7.5" transform="rotate(-90.1873 279.099 33.7343)" fill="#3D16B5"/>
<circle cx="281.615" cy="191.727" r="2.5" transform="rotate(-90.1873 281.615 191.727)" fill="#3D16B5"/>
<circle cx="269.039" cy="168.268" r="10" transform="rotate(-90.1873 269.039 168.268)" fill="#3D16B5"/>
<circle cx="217.599" cy="148.274" r="5" transform="rotate(-6.20228 217.599 148.274)" fill="#3D16B5"/>
<circle cx="259.449" cy="195.529" r="7.5" transform="rotate(-6.20228 259.449 195.529)" fill="#3D16B5"/>
<circle cx="102.59" cy="214.587" r="2.5" transform="rotate(-6.20228 102.59 214.587)" fill="#3D16B5"/>
<circle cx="124.602" cy="199.622" r="10" transform="rotate(-6.20228 124.602 199.622)" fill="#3D16B5"/>
<circle cx="507.842" cy="247.712" r="5" transform="rotate(-6.20228 507.842 247.712)" fill="#3D16B5"/>
<circle cx="549.692" cy="294.967" r="7.5" transform="rotate(-6.20228 549.692 294.967)" fill="#3D16B5"/>
<circle cx="392.833" cy="314.025" r="2.5" transform="rotate(-6.20228 392.833 314.025)" fill="#3D16B5"/>
<circle cx="291.636" cy="168.921" r="5" transform="rotate(166.655 291.636 168.921)" fill="#4E7FFF"/>
<circle cx="377.527" cy="106.409" r="10" transform="rotate(166.655 377.527 106.409)" fill="#4E7FFF"/>
<circle cx="206.674" cy="272.732" r="5" transform="rotate(112.778 206.674 272.732)" fill="#4E7FFF"/>
<circle cx="206.815" cy="166.501" r="10" transform="rotate(112.778 206.815 166.501)" fill="#4E7FFF"/>
</svg>
