<svg width="120" height="117" viewBox="0 0 120 117" fill="none" xmlns="http://www.w3.org/2000/svg">
<path d="M51.8263 3.93295C51.2728 4.02397 51.2402 4.40323 51.7612 4.70665C52.0217 4.84319 61.7585 10.1833 73.4166 16.5701C90.8548 26.1276 94.5835 28.2212 94.5509 28.4791C94.5021 28.8432 52.266 60.9291 52.0543 60.7319C51.9892 60.6712 51.7124 52.0846 51.4681 41.6624C51.2076 31.2401 50.996 23.6852 50.9797 24.8685L50.9634 27.0379H49.1235C48.0977 27.0379 46.3555 27.0834 45.2483 27.1441C43.4573 27.2503 43.327 27.2654 44.1249 27.3565C44.6133 27.4171 46.1276 27.4627 47.4953 27.4778C48.8467 27.493 50.0679 27.5385 50.2144 27.584C50.9634 27.8571 49.9213 27.9329 46.5021 27.8419L42.692 27.7509L42.5943 29.1769C42.5455 29.9658 41.9105 46.0012 41.1941 64.8128C40.4776 83.6245 39.8426 100.206 39.7938 101.662L39.6798 104.302L40.0706 104.211C40.2823 104.15 43.3433 104.181 46.8766 104.272C50.3935 104.363 53.2917 104.408 53.3243 104.378C53.3406 104.348 53.6011 99.3109 53.8942 93.182C54.3012 84.5195 54.4803 81.986 54.6432 81.804C54.7897 81.6674 54.92 81.6371 55.0177 81.7281C55.0828 81.8192 59.1208 87.1441 63.9729 93.5916C68.825 100.024 72.9281 105.44 73.0746 105.622L73.3677 105.956L81.5088 105.106C85.9702 104.621 89.7314 104.211 89.8453 104.166C89.9919 104.135 89.3406 103.225 88.038 101.647C86.9308 100.282 82.0299 94.2894 77.1615 88.3274C72.2931 82.3653 66.6595 75.584 64.673 73.2781C62.6866 70.957 61.0746 69.0151 61.0909 68.9544C61.0909 68.8786 61.0584 68.7117 60.977 68.56C60.9118 68.4083 60.9118 68.2262 60.9932 68.1656C61.0746 68.0897 63.2239 66.3754 65.7802 64.3274C68.3365 62.2945 72.8467 58.6839 75.7938 56.3173C78.7571 53.9506 84.9932 48.9443 89.6825 45.1972C94.3555 41.45 98.1818 38.3552 98.1818 38.3248C98.1818 38.2945 97.0746 36.7168 95.7232 34.8204C93.2809 31.407 92.9227 30.8305 93.2809 30.8305C93.3786 30.8305 93.8019 30.5423 94.1927 30.2085C94.8114 29.6776 94.9254 29.4955 94.9254 28.9949C94.9254 27.9633 94.4206 27.584 88.673 24.3072C83.4464 21.3337 72 14.6738 72.0326 14.6283C72.1954 14.4917 75.8752 15.5688 79.3921 16.7673C81.1669 17.3742 84.7164 19.134 86.8983 20.4841C87.9729 21.1517 88.9335 21.713 89.0312 21.7433C89.2755 21.8192 91.1968 23.3059 93.2646 25.0353C94.8603 26.34 97.1723 28.646 98.2795 29.9962C98.54 30.3299 98.882 30.7243 99.0448 30.876C99.2076 31.0278 99.5984 31.5284 99.924 32.0139C100.25 32.4841 100.982 33.5613 101.569 34.3956C102.871 36.2616 104.662 39.5537 105.362 41.3742C105.639 42.1175 106.03 43.1188 106.209 43.5739C106.388 44.029 106.665 44.8482 106.828 45.3944C106.991 45.9405 107.235 46.7597 107.365 47.2149C107.512 47.67 107.853 49.3084 108.147 50.8558C108.668 53.5865 108.684 53.7838 108.684 57.986C108.684 62.2035 108.668 62.3704 108.147 65.1769C107.3 69.6523 105.867 73.8394 103.946 77.5562C101.015 83.1693 97.0421 87.9481 91.9457 92.029C90.2687 93.364 86.6377 95.7762 85.2863 96.4588L84.8467 96.6712L82.616 94.0922C81.3949 92.6814 80.3691 91.5132 80.3202 91.5132C80.2877 91.5132 80.5808 91.9076 80.9715 92.3779C81.3623 92.8634 83.7069 95.7458 86.1818 98.7648C89.0638 102.3 90.692 104.166 90.692 103.953C90.692 103.513 90.4478 103.104 89.6337 102.209C89.2592 101.784 88.4939 100.904 87.924 100.236C87.3542 99.5688 86.8006 98.9165 86.6866 98.78C86.4912 98.5827 86.5563 98.5069 87.1262 98.1731C87.4844 97.9759 87.8752 97.7332 87.9892 97.6422C88.1031 97.536 88.4776 97.3236 88.8358 97.1567C89.194 96.9898 89.5848 96.7319 89.6988 96.6106C89.8291 96.474 90.0082 96.3678 90.1221 96.3678C90.2198 96.3678 90.4478 96.2313 90.6106 96.0644C90.7734 95.8975 90.9851 95.761 91.0991 95.761C91.3107 95.761 94.8928 93.0303 96.6025 91.5739C97.6771 90.6485 98.6866 89.632 100.054 88.0998C100.412 87.7054 100.901 87.1744 101.145 86.9165C101.796 86.2642 102.48 85.3843 103.425 84.0037C103.881 83.3362 104.564 82.3501 104.939 81.804C105.655 80.7572 107.414 77.6927 107.788 76.7977C107.919 76.5094 108.049 76.2363 108.114 76.1908C108.163 76.1453 108.342 75.7054 108.505 75.2047C108.668 74.7041 108.928 74.0214 109.091 73.6877C109.254 73.3539 109.465 72.7926 109.563 72.4437C109.661 72.0948 109.856 71.6245 109.986 71.3969C110.1 71.1693 110.296 70.517 110.41 69.9405C110.524 69.3792 110.654 68.9089 110.719 68.9089C110.784 68.9089 110.882 68.651 110.947 68.3324C110.996 68.029 111.208 67.0126 111.387 66.1023C111.566 65.1769 111.826 63.675 111.94 62.7648C112.233 60.5802 112.233 54.3754 111.94 52.0695C111.68 50.0063 110.898 45.9557 110.735 45.8495C110.67 45.804 110.491 45.2275 110.328 44.56C110.166 43.8925 109.97 43.2705 109.905 43.1946C109.824 43.1036 109.645 42.6333 109.498 42.1327C109.335 41.6321 109.123 41.0859 109.01 40.919C108.896 40.7522 108.668 40.1605 108.505 39.584C108.342 39.0227 108.147 38.5676 108.081 38.5676C108.033 38.5676 107.886 38.3248 107.788 38.0366C107.674 37.7332 107.316 37.005 106.958 36.3982C106.616 35.7914 106.176 35.0328 105.997 34.6991C105.818 34.3653 105.411 33.713 105.102 33.2578C104.792 32.8027 104.418 32.2111 104.271 31.9683C104.125 31.7104 103.897 31.4525 103.783 31.3919C103.653 31.3312 103.555 31.1946 103.555 31.1188C103.555 30.9367 102.48 29.3893 102.09 28.9949C101.959 28.8584 101.634 28.4943 101.357 28.1757C101.096 27.8419 100.364 27.053 99.7286 26.4007C99.1099 25.7484 98.4423 25.0202 98.2795 24.7926C98.1004 24.5651 97.612 24.1099 97.1886 23.7762C96.7653 23.4424 95.8372 22.6839 95.1371 22.1074C93.2972 20.5903 92.1737 19.6953 91.8643 19.5436C91.7015 19.4677 91.5224 19.316 91.4573 19.1946C91.3921 19.0884 91.2456 18.9974 91.1316 18.9974C91.0177 18.9974 90.4966 18.7243 89.9593 18.3906C89.422 18.0568 88.8684 17.7079 88.7381 17.6321C88.6079 17.5562 88.2171 17.3135 87.8752 17.1011C87.5333 16.8887 86.9797 16.5853 86.654 16.4184C84.8304 15.4778 83.8698 15.0227 83.251 14.8103C82.8603 14.6738 82.5509 14.5069 82.5509 14.4462C82.5509 14.3855 82.209 14.249 81.7856 14.158C81.346 14.0518 80.8575 13.8849 80.6622 13.7635C80.4668 13.6573 79.8806 13.445 79.3596 13.2932C78.8386 13.1567 78.3175 12.9898 78.2361 12.914C78.1384 12.8533 77.4708 12.6561 76.7707 12.474C76.0543 12.3072 75.3542 12.0948 75.2076 12.0341C75.0774 11.9582 74.3447 11.7913 73.5794 11.6548C72.8304 11.5031 72.0651 11.3362 71.886 11.2604C71.5116 11.0935 68.4505 10.7142 66.2524 10.5625C64.5753 10.4412 64.7381 10.517 61.2375 8.46897C55.8318 5.31348 54.578 4.60046 53.9756 4.32738C53.2917 4.0088 52.4125 3.84192 51.8263 3.93295Z" fill="black"/>
<path d="M51.1262 7.27049C51.1262 9.63712 52.2171 57.9709 52.2985 59.5486L52.3474 60.2768L62.6052 52.4942C68.2551 48.2161 77.6825 41.0556 83.5767 36.5954C89.4546 32.1352 94.209 28.4487 94.1439 28.4032C94.0787 28.3425 85.0258 23.3666 74.0027 17.3286C62.9959 11.2907 53.3406 5.99616 52.559 5.55621L51.1262 4.76733V7.27049ZM65.4383 18.7547C66.4478 19.2401 66.7246 20.3779 66.0733 21.273C65.6499 21.8495 63.9892 22.8659 63.2239 23.0176C62.5889 23.139 61.6934 22.8811 61.2863 22.4715C60.4559 21.6219 61.4817 19.7408 63.1913 18.9519C64.1845 18.4968 64.7707 18.4361 65.4383 18.7547ZM71.6418 20.5903C72.114 20.8179 72.4559 21.3944 72.4559 21.9405C72.4559 22.5474 71.7558 23.2907 70.5835 23.9582C69.6228 24.5044 69.2972 24.6106 68.5807 24.6106C67.8318 24.6106 67.6364 24.5499 67.2293 24.1706C66.6432 23.6093 66.5943 22.8963 67.1316 22.1681C67.5224 21.6219 69.232 20.4235 69.7693 20.3173C70.2253 20.2111 71.1533 20.3476 71.6418 20.5903ZM60.9769 23.4273C62.3121 24.2161 62.6052 24.3071 64.4776 24.6864C66.4803 25.0809 66.8874 25.2629 67.4084 26.0518C68.0109 26.9468 67.8969 27.6447 66.9525 28.9645C66.171 30.0417 66.1221 30.1479 65.8453 31.938C65.5848 33.5613 65.5034 33.8343 65.1126 34.1984C64.1357 35.1238 62.3935 34.5322 60.3419 32.6055C59.0231 31.3615 58.2904 30.4664 57.5902 29.268C57.2646 28.6915 57.232 28.4184 57.232 26.2642C57.232 23.9127 57.232 23.8975 57.6879 23.2755C58.4043 22.335 59.1533 22.3653 60.9769 23.4273ZM73.9213 25.1415C74.8983 25.6118 75.1913 26.6434 74.5726 27.3868C74.3935 27.5992 73.7585 28.0695 73.1398 28.4184C72.228 28.9645 71.9186 29.0707 71.2999 29.0556C70.0461 29.0252 69.0529 28.4032 69.0366 27.6599C69.0366 27.1289 69.6554 26.0063 70.0624 25.7787C71.6744 24.9443 73.0258 24.7168 73.9213 25.1415ZM71.7558 30.2996C72.1954 30.5726 72.4559 31.1036 72.4559 31.7408C72.4559 32.2566 71.5441 33.0455 70.2741 33.6371C69.3134 34.0922 68.8575 34.1074 67.962 33.7281C66.285 33.0151 66.3664 31.7104 68.1574 30.7395C69.6554 29.9203 70.8765 29.7686 71.7558 30.2996Z" fill="black"/>
<path d="M49.6608 11.7762C49.2537 11.8824 48.8141 12.0037 48.6838 12.0644C48.5536 12.1099 47.9674 12.2616 47.3813 12.3982C46.7951 12.5347 46.2578 12.7016 46.1601 12.7774C46.0787 12.8381 45.4437 13.0505 44.7761 13.2326C44.1085 13.4146 43.5224 13.627 43.4735 13.6877C43.4247 13.7484 43.099 13.8849 42.7408 13.9759C42.1221 14.158 40.2497 14.9165 39.7286 15.2047C39.5984 15.2806 38.8331 15.6599 38.019 16.0543C37.2212 16.4336 36.4885 16.8583 36.4233 16.9645C36.3582 17.0859 36.2117 17.1769 36.114 17.1769C35.9349 17.1769 34.2089 18.1934 34.0298 18.4058C33.981 18.4513 33.6879 18.6182 33.3786 18.7699C32.8901 18.9974 32.4016 19.3312 31.1479 20.2869C31.0339 20.3628 30.7246 20.6055 30.464 20.8179C30.2198 21.0303 29.6174 21.5006 29.1452 21.8798C28.673 22.2591 28.038 22.7597 27.7612 23.0176C27.4681 23.2604 26.9796 23.67 26.654 23.9127C26.3121 24.1554 26.0516 24.4285 26.0516 24.5044C26.0516 24.5802 25.7096 24.9747 25.2863 25.3691C24.4722 26.1276 24.1791 26.4462 22.3066 28.5549C21.9973 28.9039 21.6391 29.2831 21.5251 29.4045C21.4111 29.5259 21.3623 29.6169 21.4437 29.6169C21.5088 29.6169 21.4437 29.6927 21.2971 29.7838C21.1343 29.8596 21.0041 30.0113 21.0041 30.1175C21.0041 30.2237 20.7435 30.6485 20.4342 31.0581C20.1248 31.4829 19.7829 31.9228 19.7015 32.0442C19.441 32.3931 18.7734 33.4247 18.3826 34.0922C18.1872 34.426 17.9919 34.7294 17.9267 34.7749C17.7802 34.8963 16.445 37.4298 16.445 37.6118C16.445 37.7029 16.3473 37.8546 16.2171 37.9456C16.0868 38.0366 15.9077 38.4462 15.7938 38.8407C15.6961 39.2351 15.517 39.6902 15.3867 39.8723C15.2727 40.0543 15.0448 40.6005 14.8819 41.0859C14.7354 41.5714 14.5563 42.0568 14.4749 42.1327C14.4098 42.2237 14.1981 42.8457 14.0027 43.4981C13.8073 44.1656 13.6119 44.8179 13.5631 44.9393C13.4654 45.1365 12.9606 47.0783 12.5373 48.8533C12.4559 49.2022 12.2605 50.5221 12.114 51.7812C11.6418 55.847 12.0163 65.2983 12.7001 66.7092C12.7815 66.8761 12.9606 67.5891 13.1235 68.3021C13.27 69.0151 13.4328 69.6523 13.4817 69.7433C13.5468 69.8192 13.5956 69.9557 13.6282 70.0467C13.7422 70.608 14.3772 72.4892 14.4749 72.6257C14.54 72.7016 14.6866 73.0809 14.8005 73.4601C14.9145 73.8394 15.1913 74.5069 15.403 74.9469C15.6146 75.3868 15.7938 75.8419 15.7938 75.9481C15.7938 76.2667 18.5454 81.2427 18.9037 81.5461C19.0665 81.6978 19.213 81.8799 19.213 81.9709C19.213 82.1226 20.1085 83.4121 20.6784 84.0796C20.8575 84.292 21.0041 84.5347 21.0041 84.6257C21.0041 84.7775 21.6716 85.6725 22.1927 86.2035C22.3229 86.3249 23.137 87.2048 24.0163 88.1605C26.0678 90.3754 26.426 90.7244 28.4939 92.4386C31.3433 94.8053 31.734 95.0935 33.9484 96.4285C34.844 96.9747 35.6581 97.4905 35.772 97.5815C35.886 97.6574 36.0163 97.7332 36.0651 97.7332C36.114 97.7332 36.4559 97.9153 36.8467 98.1428C37.2212 98.3704 37.9213 98.7345 38.4098 98.9772C39.4681 99.493 39.5658 99.4172 39.5658 98.158V97.2933L38.6377 96.8078C38.1167 96.5347 36.9606 95.852 36.0651 95.3059C35.1696 94.7446 34.3555 94.2591 34.2415 94.2288C33.981 94.1529 32.0597 92.6662 29.8942 90.8609C28.2497 89.4804 26.2632 87.5082 24.9118 85.9001C24.6024 85.5208 24.3094 85.1871 24.2605 85.1416C24.0651 84.9747 23.1208 83.8065 23.1208 83.7155C23.1208 83.67 22.5509 82.8204 21.8507 81.8343C20.5644 79.9987 18.7246 76.7067 18.057 75.0531C16.3799 70.8204 15.5332 67.9532 14.8657 64.1302C14.4749 61.9608 14.4749 54.0113 14.8657 51.8419C15.5495 47.9734 16.2822 45.4702 18.057 40.919C18.4803 39.8268 20.3853 36.2161 21.0041 35.3362C21.2483 34.9873 21.8019 34.1833 22.2415 33.5613C22.6811 32.9393 23.0719 32.3476 23.1045 32.2718C23.2347 31.9835 25.3189 29.5259 26.6866 28.0998C28.6893 25.9608 32.5807 22.7597 34.7463 21.4247C35.3813 21.0455 36.4885 20.3628 37.2049 19.938C40.0543 18.1934 45.1832 16.115 49.1398 15.0986L50.8005 14.6738L50.768 13.1719C50.7354 12.3223 50.654 11.6548 50.5563 11.6396C50.4749 11.6093 50.0678 11.6851 49.6608 11.7762Z" fill="black"/>
<path d="M41.9593 28.206C41.9104 28.2819 41.829 29.268 41.7639 30.3754C41.6011 34.0164 41.1615 51.2048 41.2266 52.0695C41.2592 52.5246 41.4871 47.3514 41.7476 40.5701C42.0081 33.7888 42.1709 28.206 42.1221 28.1605C42.0733 28.115 42.0081 28.1454 41.9593 28.206Z" fill="black"/>
<path d="M96.7978 35.6699C98.1329 37.5056 98.6702 38.3703 98.5725 38.5069C98.4423 38.6737 88.3473 46.7597 67.327 63.5688C61.791 67.9987 61.1397 68.5448 61.5793 68.4083C61.9538 68.2869 97.6607 40.115 98.312 39.4171C99.2076 38.4765 99.0936 38.1579 97.1072 35.6548C94.6648 32.6055 94.5671 32.6055 96.7978 35.6699Z" fill="black"/>
<path d="M54.806 82.8963C54.7571 83.2452 54.5292 87.675 54.3012 92.7269C54.0733 97.7787 53.8453 102.542 53.7802 103.331L53.6825 104.742L47.1533 104.636C43.555 104.575 40.4288 104.514 40.1845 104.484C39.8752 104.454 39.7449 104.514 39.6798 104.742C39.6309 104.909 39.6309 105 39.6798 104.954C39.7449 104.909 39.8589 105.015 39.9566 105.197C40.0543 105.379 40.3148 105.576 40.5428 105.637C41.1452 105.789 42.578 105.789 42.7571 105.637C42.8385 105.561 45.1995 105.425 48.0163 105.319C53.3894 105.136 53.943 105.061 54.4315 104.408C54.692 104.059 54.7083 104.059 56.5482 104.226C60.0489 104.56 68.5482 104.378 69.6065 103.953C70.616 103.544 70.7626 103.619 71.7232 104.954C72.228 105.652 72.7979 106.305 72.9932 106.396C73.4166 106.608 74.9634 106.547 83.3976 105.925C88.2823 105.576 89.6174 105.44 89.943 105.228C90.4641 104.924 90.4966 104.56 90.0082 104.56C89.7965 104.575 86.0027 104.97 81.574 105.44C77.1452 105.925 73.4003 106.289 73.2538 106.259C73.1072 106.229 72.0977 105.015 71.0068 103.559C69.9159 102.102 68.9878 100.919 68.939 100.919C68.8901 100.919 69.0041 101.116 69.1832 101.359L69.5251 101.799L68.3365 101.966C67.7015 102.072 66.5129 102.224 65.6988 102.3C63.8263 102.512 57.0529 102.375 55.8155 102.118L54.8711 101.92V93.2427C54.8711 88.4791 54.92 84.1554 54.9688 83.6396C55.0665 82.8204 55.1153 82.7294 55.3433 82.8963C55.5061 83.0176 55.4898 82.9418 55.2782 82.7142C55.0991 82.5018 54.9362 82.3046 54.92 82.2894C54.9037 82.2591 54.8548 82.5322 54.806 82.8963Z" fill="black"/>
</svg>
