<svg width="1440" height="91" viewBox="0 0 1440 91" fill="none" xmlns="http://www.w3.org/2000/svg">
<rect x="0.5" y="0.5" width="95" height="90" rx="12.5" fill="#C4C4C4" stroke="black"/>
<rect x="96.5" y="0.5" width="95" height="90" rx="12.5" fill="#C4C4C4" stroke="black"/>
<rect x="192.5" y="0.5" width="95" height="90" rx="12.5" fill="#C4C4C4" stroke="black"/>
<rect x="288.5" y="0.5" width="95" height="90" rx="12.5" fill="#C4C4C4" stroke="black"/>
<rect x="384.5" y="0.5" width="95" height="90" rx="12.5" fill="#C4C4C4" stroke="black"/>
<rect x="480.5" y="0.5" width="95" height="90" rx="12.5" fill="#C4C4C4" stroke="black"/>
<rect x="576.5" y="0.5" width="95" height="90" rx="12.5" fill="#C4C4C4" stroke="black"/>
<rect x="672.5" y="0.5" width="95" height="90" rx="12.5" fill="#C4C4C4" stroke="black"/>
<rect x="768.5" y="0.5" width="95" height="90" rx="12.5" fill="#C4C4C4" stroke="black"/>
<rect x="864.5" y="0.5" width="95" height="90" rx="12.5" fill="#C4C4C4" stroke="black"/>
<rect x="960.5" y="0.5" width="95" height="90" rx="12.5" fill="#C4C4C4" stroke="black"/>
<rect x="1056.5" y="0.5" width="95" height="90" rx="12.5" fill="#C4C4C4" stroke="black"/>
<rect x="1152.5" y="0.5" width="95" height="90" rx="12.5" fill="#C4C4C4" stroke="black"/>
<rect x="1248.5" y="0.5" width="95" height="90" rx="12.5" fill="#C4C4C4" stroke="black"/>
<rect x="1344.5" y="0.5" width="95" height="90" rx="12.5" fill="#C4C4C4" stroke="black"/>
<ellipse rx="3.3351" ry="3.35611" transform="matrix(0.709005 0.705203 -0.764103 0.645094 1265.93 75.5468)" fill="#9B9B9B"/>
<ellipse rx="1.66755" ry="1.67806" transform="matrix(0.709005 0.705203 -0.764103 0.645094 1341.2 55.2587)" fill="#9B9B9B"/>
<ellipse rx="2.50132" ry="2.51708" transform="matrix(0.709005 0.705203 -0.764103 0.645094 1210.11 63.4238)" fill="#9B9B9B"/>
<ellipse rx="0.833505" ry="0.839514" transform="matrix(0.709005 0.705203 -0.764103 0.645094 1172.23 26.6966)" fill="#9B9B9B"/>
<ellipse rx="3.3351" ry="3.35611" transform="matrix(0.709005 0.705203 -0.764103 0.645094 1181 29.5172)" fill="#9B9B9B"/>
<ellipse rx="1.66278" ry="1.68278" transform="matrix(-0.692368 0.721544 -0.778564 -0.627565 1288.72 41.142)" fill="#9B9B9B"/>
<ellipse rx="2.49417" ry="2.52417" transform="matrix(-0.692368 0.721544 -0.778564 -0.627565 1363.85 48.4636)" fill="#9B9B9B"/>
<ellipse rx="0.831391" ry="0.84139" transform="matrix(-0.692368 0.721544 -0.778564 -0.627565 1399.7 10.1284)" fill="#9B9B9B"/>
<ellipse rx="3.32556" ry="3.36556" transform="matrix(-0.692368 0.721544 -0.778564 -0.627565 1397.57 18.4074)" fill="#9B9B9B"/>
<ellipse rx="1.61601" ry="1.72774" transform="matrix(-0.364042 -0.931383 0.950308 -0.311311 1359.23 18.8662)" fill="#9B9B9B"/>
<ellipse rx="3.23202" ry="3.45549" transform="matrix(-0.364042 -0.931383 0.950308 -0.311311 1287.2 34.5156)" fill="#9B9B9B"/>
<ellipse rx="3.3351" ry="3.35611" transform="matrix(-0.642158 -0.766572 0.819436 -0.573171 1039.2 22.4804)" fill="#9B9B9B"/>
<ellipse rx="1.66755" ry="1.67806" transform="matrix(-0.642158 -0.766572 0.819436 -0.573171 962.4 35.8612)" fill="#9B9B9B"/>
<ellipse rx="2.50132" ry="2.51708" transform="matrix(-0.642158 -0.766572 0.819436 -0.573171 1093.7 39.6138)" fill="#9B9B9B"/>
<ellipse rx="0.833505" ry="0.839514" transform="matrix(-0.642158 -0.766572 0.819436 -0.573171 1128.09 79.6233)" fill="#9B9B9B"/>
<ellipse rx="3.3351" ry="3.35611" transform="matrix(-0.642158 -0.766572 0.819436 -0.573171 1119.62 76.0199)" fill="#9B9B9B"/>
<ellipse rx="1.66278" ry="1.68278" transform="matrix(0.754927 -0.655809 0.718468 0.69556 1013.39 54.6775)" fill="#9B9B9B"/>
<ellipse rx="2.49417" ry="2.52417" transform="matrix(0.754927 -0.655809 0.718468 0.69556 939.235 40.5757)" fill="#9B9B9B"/>
<ellipse rx="0.831391" ry="0.84139" transform="matrix(0.754927 -0.655809 0.718468 0.69556 900.051 75.5028)" fill="#9B9B9B"/>
<ellipse rx="3.32556" ry="3.36556" transform="matrix(0.754927 -0.655809 0.718468 0.69556 902.929 67.4514)" fill="#9B9B9B"/>
<ellipse rx="1.61601" ry="1.72774" transform="matrix(0.278112 0.960549 -0.974616 0.223882 941.149 70.4697)" fill="#9B9B9B"/>
<ellipse rx="3.23202" ry="3.45549" transform="matrix(0.278112 0.960549 -0.974616 0.223882 1014.3 61.4144)" fill="#9B9B9B"/>
<ellipse rx="3.3351" ry="3.35611" transform="matrix(0.613904 0.789381 -0.839705 0.543043 420.146 72.3178)" fill="#9B9B9B"/>
<ellipse rx="1.66755" ry="1.67806" transform="matrix(0.613904 0.789381 -0.839705 0.543043 497.386 61.7343)" fill="#9B9B9B"/>
<ellipse rx="2.50132" ry="2.51708" transform="matrix(0.613904 0.789381 -0.839705 0.543043 366.311 53.2174)" fill="#9B9B9B"/>
<ellipse rx="0.833505" ry="0.839514" transform="matrix(0.613904 0.789381 -0.839705 0.543043 333.397 11.9857)" fill="#9B9B9B"/>
<ellipse rx="3.3351" ry="3.35611" transform="matrix(0.613904 0.789381 -0.839705 0.543043 341.732 15.8943)" fill="#9B9B9B"/>
<ellipse rx="1.66278" ry="1.68278" transform="matrix(-0.778238 0.627969 -0.692742 -0.721185 447.114 41.0792)" fill="#9B9B9B"/>
<ellipse rx="2.49417" ry="2.52417" transform="matrix(-0.778238 0.627969 -0.692742 -0.721185 520.707 57.8639)" fill="#9B9B9B"/>
<ellipse rx="0.831391" ry="0.84139" transform="matrix(-0.778238 0.627969 -0.692742 -0.721185 561.132 24.3825)" fill="#9B9B9B"/>
<ellipse rx="3.32556" ry="3.36556" transform="matrix(-0.778238 0.627969 -0.692742 -0.721185 557.964 32.324)" fill="#9B9B9B"/>
<ellipse rx="1.61601" ry="1.72774" transform="matrix(-0.243055 -0.970012 0.982102 -0.18835 519.879 27.9201)" fill="#9B9B9B"/>
<ellipse rx="3.23202" ry="3.45549" transform="matrix(-0.243055 -0.970012 0.982102 -0.18835 446.445 34.3135)" fill="#9B9B9B"/>
<ellipse rx="3.3351" ry="3.35611" transform="matrix(-0.576433 -0.817144 0.86411 -0.503303 179.036 16.763)" fill="#9B9B9B"/>
<ellipse rx="1.66755" ry="1.67806" transform="matrix(-0.576433 -0.817144 0.86411 -0.503303 101.388 23.7341)" fill="#9B9B9B"/>
<ellipse rx="2.50132" ry="2.51708" transform="matrix(-0.576433 -0.817144 0.86411 -0.503303 231.923 38.3528)" fill="#9B9B9B"/>
<ellipse rx="0.833505" ry="0.839514" transform="matrix(-0.576433 -0.817144 0.86411 -0.503303 262.878 81.0741)" fill="#9B9B9B"/>
<ellipse rx="3.3351" ry="3.35611" transform="matrix(-0.576433 -0.817144 0.86411 -0.503303 254.735 76.7813)" fill="#9B9B9B"/>
<ellipse rx="1.66278" ry="1.68278" transform="matrix(0.80667 -0.591003 0.658365 0.752699 150.641 46.7104)" fill="#9B9B9B"/>
<ellipse rx="2.49417" ry="2.52417" transform="matrix(0.80667 -0.591003 0.658365 0.752699 77.9116 26.5129)" fill="#9B9B9B"/>
<ellipse rx="0.831391" ry="0.84139" transform="matrix(0.80667 -0.591003 0.658365 0.752699 35.969 58.0732)" fill="#9B9B9B"/>
<ellipse rx="3.32556" ry="3.36556" transform="matrix(0.80667 -0.591003 0.658365 0.752699 39.5036 50.288)" fill="#9B9B9B"/>
<ellipse rx="1.61601" ry="1.72774" transform="matrix(0.197566 0.98029 -0.989815 0.142357 77.3423 56.4628)" fill="#9B9B9B"/>
<ellipse rx="3.23202" ry="3.45549" transform="matrix(0.197566 0.98029 -0.989815 0.142357 150.994 53.4998)" fill="#9B9B9B"/>
</svg>
